%TF.GenerationSoftware,KiCad,Pcbnew,7.0.9-7.0.9~ubuntu22.04.1*%
%TF.CreationDate,2023-11-27T19:51:50+01:00*%
%TF.ProjectId,battery-management-system,62617474-6572-4792-9d6d-616e6167656d,rev?*%
%TF.SameCoordinates,Original*%
%TF.FileFunction,Paste,Top*%
%TF.FilePolarity,Positive*%
%FSLAX46Y46*%
G04 Gerber Fmt 4.6, Leading zero omitted, Abs format (unit mm)*
G04 Created by KiCad (PCBNEW 7.0.9-7.0.9~ubuntu22.04.1) date 2023-11-27 19:51:50*
%MOMM*%
%LPD*%
G01*
G04 APERTURE LIST*
G04 Aperture macros list*
%AMRoundRect*
0 Rectangle with rounded corners*
0 $1 Rounding radius*
0 $2 $3 $4 $5 $6 $7 $8 $9 X,Y pos of 4 corners*
0 Add a 4 corners polygon primitive as box body*
4,1,4,$2,$3,$4,$5,$6,$7,$8,$9,$2,$3,0*
0 Add four circle primitives for the rounded corners*
1,1,$1+$1,$2,$3*
1,1,$1+$1,$4,$5*
1,1,$1+$1,$6,$7*
1,1,$1+$1,$8,$9*
0 Add four rect primitives between the rounded corners*
20,1,$1+$1,$2,$3,$4,$5,0*
20,1,$1+$1,$4,$5,$6,$7,0*
20,1,$1+$1,$6,$7,$8,$9,0*
20,1,$1+$1,$8,$9,$2,$3,0*%
G04 Aperture macros list end*
%ADD10C,0.010000*%
%ADD11R,3.500000X5.000000*%
%ADD12RoundRect,0.237500X0.250000X0.237500X-0.250000X0.237500X-0.250000X-0.237500X0.250000X-0.237500X0*%
%ADD13R,0.600000X0.450000*%
%ADD14RoundRect,0.237500X-0.287500X-0.237500X0.287500X-0.237500X0.287500X0.237500X-0.287500X0.237500X0*%
%ADD15C,12.800000*%
%ADD16RoundRect,0.237500X0.287500X0.237500X-0.287500X0.237500X-0.287500X-0.237500X0.287500X-0.237500X0*%
%ADD17RoundRect,0.237500X-0.250000X-0.237500X0.250000X-0.237500X0.250000X0.237500X-0.250000X0.237500X0*%
%ADD18R,1.350000X0.400000*%
%ADD19R,1.550000X1.500000*%
G04 APERTURE END LIST*
%TO.C,J7*%
D10*
X23401000Y-96056000D02*
X23427000Y-96058000D01*
X23453000Y-96061000D01*
X23479000Y-96066000D01*
X23504000Y-96072000D01*
X23530000Y-96079000D01*
X23554000Y-96088000D01*
X23578000Y-96098000D01*
X23602000Y-96109000D01*
X23625000Y-96122000D01*
X23647000Y-96136000D01*
X23669000Y-96150000D01*
X23690000Y-96166000D01*
X23710000Y-96183000D01*
X23729000Y-96201000D01*
X23747000Y-96220000D01*
X23764000Y-96240000D01*
X23780000Y-96261000D01*
X23794000Y-96283000D01*
X23808000Y-96305000D01*
X23821000Y-96328000D01*
X23832000Y-96352000D01*
X23842000Y-96376000D01*
X23851000Y-96400000D01*
X23858000Y-96426000D01*
X23864000Y-96451000D01*
X23869000Y-96477000D01*
X23872000Y-96503000D01*
X23874000Y-96529000D01*
X23875000Y-96555000D01*
X23875000Y-97700000D01*
X22325000Y-97700000D01*
X22325000Y-96555000D01*
X22326000Y-96529000D01*
X22328000Y-96503000D01*
X22331000Y-96477000D01*
X22336000Y-96451000D01*
X22342000Y-96426000D01*
X22349000Y-96400000D01*
X22358000Y-96376000D01*
X22368000Y-96352000D01*
X22379000Y-96328000D01*
X22392000Y-96305000D01*
X22406000Y-96283000D01*
X22420000Y-96261000D01*
X22436000Y-96240000D01*
X22453000Y-96220000D01*
X22471000Y-96201000D01*
X22490000Y-96183000D01*
X22510000Y-96166000D01*
X22531000Y-96150000D01*
X22553000Y-96136000D01*
X22575000Y-96122000D01*
X22598000Y-96109000D01*
X22622000Y-96098000D01*
X22646000Y-96088000D01*
X22670000Y-96079000D01*
X22696000Y-96072000D01*
X22721000Y-96066000D01*
X22747000Y-96061000D01*
X22773000Y-96058000D01*
X22799000Y-96056000D01*
X22825000Y-96055000D01*
X23375000Y-96055000D01*
X23401000Y-96056000D01*
G36*
X23401000Y-96056000D02*
G01*
X23427000Y-96058000D01*
X23453000Y-96061000D01*
X23479000Y-96066000D01*
X23504000Y-96072000D01*
X23530000Y-96079000D01*
X23554000Y-96088000D01*
X23578000Y-96098000D01*
X23602000Y-96109000D01*
X23625000Y-96122000D01*
X23647000Y-96136000D01*
X23669000Y-96150000D01*
X23690000Y-96166000D01*
X23710000Y-96183000D01*
X23729000Y-96201000D01*
X23747000Y-96220000D01*
X23764000Y-96240000D01*
X23780000Y-96261000D01*
X23794000Y-96283000D01*
X23808000Y-96305000D01*
X23821000Y-96328000D01*
X23832000Y-96352000D01*
X23842000Y-96376000D01*
X23851000Y-96400000D01*
X23858000Y-96426000D01*
X23864000Y-96451000D01*
X23869000Y-96477000D01*
X23872000Y-96503000D01*
X23874000Y-96529000D01*
X23875000Y-96555000D01*
X23875000Y-97700000D01*
X22325000Y-97700000D01*
X22325000Y-96555000D01*
X22326000Y-96529000D01*
X22328000Y-96503000D01*
X22331000Y-96477000D01*
X22336000Y-96451000D01*
X22342000Y-96426000D01*
X22349000Y-96400000D01*
X22358000Y-96376000D01*
X22368000Y-96352000D01*
X22379000Y-96328000D01*
X22392000Y-96305000D01*
X22406000Y-96283000D01*
X22420000Y-96261000D01*
X22436000Y-96240000D01*
X22453000Y-96220000D01*
X22471000Y-96201000D01*
X22490000Y-96183000D01*
X22510000Y-96166000D01*
X22531000Y-96150000D01*
X22553000Y-96136000D01*
X22575000Y-96122000D01*
X22598000Y-96109000D01*
X22622000Y-96098000D01*
X22646000Y-96088000D01*
X22670000Y-96079000D01*
X22696000Y-96072000D01*
X22721000Y-96066000D01*
X22747000Y-96061000D01*
X22773000Y-96058000D01*
X22799000Y-96056000D01*
X22825000Y-96055000D01*
X23375000Y-96055000D01*
X23401000Y-96056000D01*
G37*
X23875000Y-103445000D02*
X23874000Y-103471000D01*
X23872000Y-103497000D01*
X23869000Y-103523000D01*
X23864000Y-103549000D01*
X23858000Y-103574000D01*
X23851000Y-103600000D01*
X23842000Y-103624000D01*
X23832000Y-103648000D01*
X23821000Y-103672000D01*
X23808000Y-103695000D01*
X23794000Y-103717000D01*
X23780000Y-103739000D01*
X23764000Y-103760000D01*
X23747000Y-103780000D01*
X23729000Y-103799000D01*
X23710000Y-103817000D01*
X23690000Y-103834000D01*
X23669000Y-103850000D01*
X23647000Y-103864000D01*
X23625000Y-103878000D01*
X23602000Y-103891000D01*
X23578000Y-103902000D01*
X23554000Y-103912000D01*
X23530000Y-103921000D01*
X23504000Y-103928000D01*
X23479000Y-103934000D01*
X23453000Y-103939000D01*
X23427000Y-103942000D01*
X23401000Y-103944000D01*
X23375000Y-103945000D01*
X22825000Y-103945000D01*
X22799000Y-103944000D01*
X22773000Y-103942000D01*
X22747000Y-103939000D01*
X22721000Y-103934000D01*
X22696000Y-103928000D01*
X22670000Y-103921000D01*
X22646000Y-103912000D01*
X22622000Y-103902000D01*
X22598000Y-103891000D01*
X22575000Y-103878000D01*
X22553000Y-103864000D01*
X22531000Y-103850000D01*
X22510000Y-103834000D01*
X22490000Y-103817000D01*
X22471000Y-103799000D01*
X22453000Y-103780000D01*
X22436000Y-103760000D01*
X22420000Y-103739000D01*
X22406000Y-103717000D01*
X22392000Y-103695000D01*
X22379000Y-103672000D01*
X22368000Y-103648000D01*
X22358000Y-103624000D01*
X22349000Y-103600000D01*
X22342000Y-103574000D01*
X22336000Y-103549000D01*
X22331000Y-103523000D01*
X22328000Y-103497000D01*
X22326000Y-103471000D01*
X22325000Y-103445000D01*
X22325000Y-102300000D01*
X23875000Y-102300000D01*
X23875000Y-103445000D01*
G36*
X23875000Y-103445000D02*
G01*
X23874000Y-103471000D01*
X23872000Y-103497000D01*
X23869000Y-103523000D01*
X23864000Y-103549000D01*
X23858000Y-103574000D01*
X23851000Y-103600000D01*
X23842000Y-103624000D01*
X23832000Y-103648000D01*
X23821000Y-103672000D01*
X23808000Y-103695000D01*
X23794000Y-103717000D01*
X23780000Y-103739000D01*
X23764000Y-103760000D01*
X23747000Y-103780000D01*
X23729000Y-103799000D01*
X23710000Y-103817000D01*
X23690000Y-103834000D01*
X23669000Y-103850000D01*
X23647000Y-103864000D01*
X23625000Y-103878000D01*
X23602000Y-103891000D01*
X23578000Y-103902000D01*
X23554000Y-103912000D01*
X23530000Y-103921000D01*
X23504000Y-103928000D01*
X23479000Y-103934000D01*
X23453000Y-103939000D01*
X23427000Y-103942000D01*
X23401000Y-103944000D01*
X23375000Y-103945000D01*
X22825000Y-103945000D01*
X22799000Y-103944000D01*
X22773000Y-103942000D01*
X22747000Y-103939000D01*
X22721000Y-103934000D01*
X22696000Y-103928000D01*
X22670000Y-103921000D01*
X22646000Y-103912000D01*
X22622000Y-103902000D01*
X22598000Y-103891000D01*
X22575000Y-103878000D01*
X22553000Y-103864000D01*
X22531000Y-103850000D01*
X22510000Y-103834000D01*
X22490000Y-103817000D01*
X22471000Y-103799000D01*
X22453000Y-103780000D01*
X22436000Y-103760000D01*
X22420000Y-103739000D01*
X22406000Y-103717000D01*
X22392000Y-103695000D01*
X22379000Y-103672000D01*
X22368000Y-103648000D01*
X22358000Y-103624000D01*
X22349000Y-103600000D01*
X22342000Y-103574000D01*
X22336000Y-103549000D01*
X22331000Y-103523000D01*
X22328000Y-103497000D01*
X22326000Y-103471000D01*
X22325000Y-103445000D01*
X22325000Y-102300000D01*
X23875000Y-102300000D01*
X23875000Y-103445000D01*
G37*
%TD*%
D11*
%TO.C,F1*%
X42010200Y-44538000D03*
X42010200Y-53707400D03*
%TD*%
D12*
%TO.C,R19*%
X28212500Y-94400000D03*
X26387500Y-94400000D03*
%TD*%
D13*
%TO.C,D17*%
X122650000Y-63000000D03*
X124750000Y-63000000D03*
%TD*%
D14*
%TO.C,D7*%
X22625000Y-94400000D03*
X24375000Y-94400000D03*
%TD*%
D15*
%TO.C,J5*%
X122000000Y-30000000D03*
%TD*%
D14*
%TO.C,D6*%
X22550000Y-92000000D03*
X24300000Y-92000000D03*
%TD*%
D11*
%TO.C,F2*%
X42010200Y-65538000D03*
X42010200Y-74707400D03*
%TD*%
D13*
%TO.C,D18*%
X122550000Y-66800000D03*
X124650000Y-66800000D03*
%TD*%
D15*
%TO.C,J1*%
X46000000Y-30000000D03*
%TD*%
%TO.C,J10*%
X30000000Y-72300000D03*
%TD*%
D13*
%TO.C,D19*%
X122550000Y-70400000D03*
X124650000Y-70400000D03*
%TD*%
D16*
%TO.C,D10*%
X94675000Y-97960000D03*
X92925000Y-97960000D03*
%TD*%
D17*
%TO.C,R32*%
X96787500Y-97960000D03*
X98612500Y-97960000D03*
%TD*%
D15*
%TO.C,J6*%
X30000000Y-46000000D03*
%TD*%
D12*
%TO.C,R18*%
X28137500Y-92000000D03*
X26312500Y-92000000D03*
%TD*%
D15*
%TO.C,J3*%
X84000000Y-30000000D03*
%TD*%
D17*
%TO.C,R34*%
X96787500Y-102960000D03*
X98612500Y-102960000D03*
%TD*%
D16*
%TO.C,D11*%
X94675000Y-100360000D03*
X92925000Y-100360000D03*
%TD*%
D15*
%TO.C,J2*%
X65000000Y-30000000D03*
%TD*%
D13*
%TO.C,D16*%
X122650000Y-59300000D03*
X124750000Y-59300000D03*
%TD*%
D17*
%TO.C,R33*%
X96787500Y-100360000D03*
X98612500Y-100360000D03*
%TD*%
D16*
%TO.C,D12*%
X94675000Y-102960000D03*
X92925000Y-102960000D03*
%TD*%
D18*
%TO.C,J7*%
X25775000Y-98700000D03*
X25775000Y-99350000D03*
X25775000Y-100000000D03*
X25775000Y-100650000D03*
X25775000Y-101300000D03*
D19*
X23100000Y-99000000D03*
X23100000Y-101000000D03*
%TD*%
D15*
%TO.C,J8*%
X141000000Y-30000000D03*
%TD*%
%TO.C,J4*%
X103000000Y-30000000D03*
%TD*%
M02*
