%TF.GenerationSoftware,KiCad,Pcbnew,7.0.9-7.0.9~ubuntu23.04.1*%
%TF.CreationDate,2023-12-02T20:50:26+01:00*%
%TF.ProjectId,battery-management-system,62617474-6572-4792-9d6d-616e6167656d,rev?*%
%TF.SameCoordinates,Original*%
%TF.FileFunction,Copper,L1,Top*%
%TF.FilePolarity,Positive*%
%FSLAX46Y46*%
G04 Gerber Fmt 4.6, Leading zero omitted, Abs format (unit mm)*
G04 Created by KiCad (PCBNEW 7.0.9-7.0.9~ubuntu23.04.1) date 2023-12-02 20:50:26*
%MOMM*%
%LPD*%
G01*
G04 APERTURE LIST*
G04 Aperture macros list*
%AMRoundRect*
0 Rectangle with rounded corners*
0 $1 Rounding radius*
0 $2 $3 $4 $5 $6 $7 $8 $9 X,Y pos of 4 corners*
0 Add a 4 corners polygon primitive as box body*
4,1,4,$2,$3,$4,$5,$6,$7,$8,$9,$2,$3,0*
0 Add four circle primitives for the rounded corners*
1,1,$1+$1,$2,$3*
1,1,$1+$1,$4,$5*
1,1,$1+$1,$6,$7*
1,1,$1+$1,$8,$9*
0 Add four rect primitives between the rounded corners*
20,1,$1+$1,$2,$3,$4,$5,0*
20,1,$1+$1,$4,$5,$6,$7,0*
20,1,$1+$1,$6,$7,$8,$9,0*
20,1,$1+$1,$8,$9,$2,$3,0*%
G04 Aperture macros list end*
%TA.AperFunction,ComponentPad*%
%ADD10C,3.500000*%
%TD*%
%TA.AperFunction,SMDPad,CuDef*%
%ADD11RoundRect,0.237500X0.250000X0.237500X-0.250000X0.237500X-0.250000X-0.237500X0.250000X-0.237500X0*%
%TD*%
%TA.AperFunction,ComponentPad*%
%ADD12C,2.000000*%
%TD*%
%TA.AperFunction,ComponentPad*%
%ADD13RoundRect,0.250000X-0.650000X-1.550000X0.650000X-1.550000X0.650000X1.550000X-0.650000X1.550000X0*%
%TD*%
%TA.AperFunction,ComponentPad*%
%ADD14O,1.800000X3.600000*%
%TD*%
%TA.AperFunction,SMDPad,CuDef*%
%ADD15R,0.600000X0.450000*%
%TD*%
%TA.AperFunction,SMDPad,CuDef*%
%ADD16RoundRect,0.237500X0.287500X0.237500X-0.287500X0.237500X-0.287500X-0.237500X0.287500X-0.237500X0*%
%TD*%
%TA.AperFunction,ComponentPad*%
%ADD17R,1.700000X1.700000*%
%TD*%
%TA.AperFunction,ComponentPad*%
%ADD18O,1.700000X1.700000*%
%TD*%
%TA.AperFunction,ComponentPad*%
%ADD19C,6.800000*%
%TD*%
%TA.AperFunction,SMDPad,CuDef*%
%ADD20C,12.800000*%
%TD*%
%TA.AperFunction,ComponentPad*%
%ADD21C,1.500000*%
%TD*%
%TA.AperFunction,ComponentPad*%
%ADD22C,2.600000*%
%TD*%
%TA.AperFunction,ConnectorPad*%
%ADD23C,12.800000*%
%TD*%
%TA.AperFunction,ComponentPad*%
%ADD24C,1.879600*%
%TD*%
%TA.AperFunction,SMDPad,CuDef*%
%ADD25R,1.350000X0.400000*%
%TD*%
%TA.AperFunction,ComponentPad*%
%ADD26O,1.000000X1.600000*%
%TD*%
%TA.AperFunction,ComponentPad*%
%ADD27O,1.600000X1.000000*%
%TD*%
%TA.AperFunction,SMDPad,CuDef*%
%ADD28R,1.550000X1.500000*%
%TD*%
%TA.AperFunction,ViaPad*%
%ADD29C,0.500000*%
%TD*%
%TA.AperFunction,ViaPad*%
%ADD30C,1.000000*%
%TD*%
%TA.AperFunction,ViaPad*%
%ADD31C,2.000000*%
%TD*%
%TA.AperFunction,ViaPad*%
%ADD32C,0.800000*%
%TD*%
%TA.AperFunction,Conductor*%
%ADD33C,0.250000*%
%TD*%
%TA.AperFunction,Conductor*%
%ADD34C,2.000000*%
%TD*%
%TA.AperFunction,Conductor*%
%ADD35C,1.000000*%
%TD*%
%TA.AperFunction,Profile*%
%ADD36C,0.100000*%
%TD*%
G04 APERTURE END LIST*
D10*
%TO.P,F1,1*%
%TO.N,Net-(J6-Pin_1)*%
X42000000Y-42000000D03*
X42000000Y-47080000D03*
%TO.P,F1,2*%
%TO.N,Net-(D3-K)*%
X42000000Y-51140000D03*
X42000000Y-56220000D03*
%TD*%
D11*
%TO.P,R26,1*%
%TO.N,/5V_USB*%
X24712500Y-94500000D03*
%TO.P,R26,2*%
%TO.N,Net-(D18-A)*%
X22887500Y-94500000D03*
%TD*%
D12*
%TO.P,SW4,1,-*%
%TO.N,/Battery Pack/CELL3_MINUS*%
X87000000Y-41080000D03*
%TO.P,SW4,2,+*%
%TO.N,/5V*%
X87000000Y-46160000D03*
%TO.P,SW4,6,-*%
%TO.N,/Cell Balancing/CELL3*%
X87000000Y-51240000D03*
%TO.P,SW4,7,+*%
%TO.N,Net-(Q15-S)*%
X87000000Y-56320000D03*
%TD*%
D13*
%TO.P,J21,1,Pin_1*%
%TO.N,GND*%
X106000000Y-115000000D03*
D14*
%TO.P,J21,2,Pin_2*%
%TO.N,/5V*%
X109500000Y-115000000D03*
%TO.P,J21,3,Pin_3*%
%TO.N,/5V_EXT*%
X113000000Y-115000000D03*
%TO.P,J21,4,Pin_4*%
%TO.N,/Interconnect/UART_RX*%
X116500000Y-115000000D03*
%TO.P,J21,5,Pin_5*%
%TO.N,/Interconnect/UART_TX*%
X120000000Y-115000000D03*
%TD*%
D15*
%TO.P,D23,1,K*%
%TO.N,/5V*%
X122650000Y-63000000D03*
%TO.P,D23,2,A*%
%TO.N,/Cell Balancing/CELL2*%
X124750000Y-63000000D03*
%TD*%
D13*
%TO.P,J25,1,Pin_1*%
%TO.N,/3V3*%
X89500000Y-115000000D03*
D14*
%TO.P,J25,2,Pin_2*%
%TO.N,/MCU/SCL*%
X93000000Y-115000000D03*
%TO.P,J25,3,Pin_3*%
%TO.N,/MCU/SDA*%
X96500000Y-115000000D03*
%TO.P,J25,4,Pin_4*%
%TO.N,GND*%
X100000000Y-115000000D03*
%TD*%
D16*
%TO.P,D18,1,K*%
%TO.N,Net-(D18-K)*%
X24675000Y-92800000D03*
%TO.P,D18,2,A*%
%TO.N,Net-(D18-A)*%
X22925000Y-92800000D03*
%TD*%
D13*
%TO.P,J22,1,Pin_1*%
%TO.N,/3V3*%
X39000000Y-115000000D03*
D14*
%TO.P,J22,2,Pin_2*%
%TO.N,/MCU/SCL*%
X42500000Y-115000000D03*
%TO.P,J22,3,Pin_3*%
%TO.N,/MCU/SDA*%
X46000000Y-115000000D03*
%TO.P,J22,4,Pin_4*%
%TO.N,GND*%
X49500000Y-115000000D03*
%TD*%
D17*
%TO.P,J18,1,Pin_1*%
%TO.N,/MCU/LED1*%
X147600000Y-47500000D03*
D18*
%TO.P,J18,2,Pin_2*%
%TO.N,/MCU/LED2*%
X147600000Y-44960000D03*
%TO.P,J18,3,Pin_3*%
%TO.N,/MCU/LED3*%
X147600000Y-42420000D03*
%TO.P,J18,4,Pin_4*%
%TO.N,GND*%
X147600000Y-39880000D03*
%TD*%
D19*
%TO.P,J5,1,Pin_1*%
%TO.N,/Battery Pack/CELL1_MINUS*%
X122000000Y-30000000D03*
D20*
X122000000Y-30000000D03*
%TD*%
D16*
%TO.P,D17,1,K*%
%TO.N,Net-(D17-K)*%
X24675000Y-89400000D03*
%TO.P,D17,2,A*%
%TO.N,Net-(D17-A)*%
X22925000Y-89400000D03*
%TD*%
D17*
%TO.P,J19,1,Pin_1*%
%TO.N,/CHARGE*%
X111400000Y-69000000D03*
D18*
%TO.P,J19,2,Pin_2*%
%TO.N,/DISCHARGE*%
X108860000Y-69000000D03*
%TO.P,J19,3,Pin_3*%
%TO.N,GND*%
X106320000Y-69000000D03*
%TD*%
D12*
%TO.P,SW6,1,-*%
%TO.N,/Battery Pack/CELL2_MINUS*%
X98300000Y-41080000D03*
%TO.P,SW6,2,+*%
%TO.N,/5V*%
X98300000Y-46160000D03*
%TO.P,SW6,6,-*%
%TO.N,/Cell Balancing/CELL2*%
X98300000Y-51240000D03*
%TO.P,SW6,7,+*%
%TO.N,Net-(Q15-S)*%
X98300000Y-56320000D03*
%TD*%
D10*
%TO.P,F2,1*%
%TO.N,Net-(J7-Pin_1)*%
X42000000Y-63000000D03*
X42000000Y-68080000D03*
%TO.P,F2,2*%
%TO.N,Net-(D4-A)*%
X42000000Y-72140000D03*
X42000000Y-77220000D03*
%TD*%
D21*
%TO.P,RESET1,1,A*%
%TO.N,GND*%
X146540000Y-76540000D03*
%TO.P,RESET1,2,A*%
X146540000Y-71460000D03*
%TO.P,RESET1,3,B*%
%TO.N,/MCU/NRST*%
X141460000Y-76540000D03*
%TO.P,RESET1,4,B*%
X141460000Y-71460000D03*
%TD*%
D12*
%TO.P,C48,1*%
%TO.N,/BALANCE_CAP_MINUS_RAW*%
X66800000Y-95800000D03*
%TO.P,C48,2*%
%TO.N,/BALANCE_CAP_PLUS_RAW*%
X61800000Y-105800000D03*
%TO.P,C48,3*%
X71800000Y-105800000D03*
%TD*%
D15*
%TO.P,D24,1,K*%
%TO.N,/5V*%
X122550000Y-66800000D03*
%TO.P,D24,2,A*%
%TO.N,/Cell Balancing/CELL3*%
X124650000Y-66800000D03*
%TD*%
D19*
%TO.P,J1,1,Pin_1*%
%TO.N,/Battery Pack/PACK*%
X46000000Y-30000000D03*
D20*
X46000000Y-30000000D03*
%TD*%
D19*
%TO.P,J7,1,Pin_1*%
%TO.N,Net-(J7-Pin_1)*%
X30000000Y-72300000D03*
D20*
X30000000Y-72300000D03*
%TD*%
D22*
%TO.P,L1,1,1*%
%TO.N,Net-(J13-Pin_1)*%
X35800000Y-89900000D03*
%TO.P,L1,2,2*%
%TO.N,Net-(U3-SW)*%
X30800000Y-89900000D03*
%TD*%
D15*
%TO.P,D25,1,K*%
%TO.N,/5V*%
X122550000Y-70400000D03*
%TO.P,D25,2,A*%
%TO.N,/Cell Balancing/CELL4*%
X124650000Y-70400000D03*
%TD*%
D12*
%TO.P,C46,1*%
%TO.N,/BALANCE_CAP_MINUS_RAW*%
X66800000Y-63800000D03*
%TO.P,C46,2*%
%TO.N,/BALANCE_CAP_PLUS_RAW*%
X61800000Y-73800000D03*
%TO.P,C46,3*%
X71800000Y-73800000D03*
%TD*%
%TO.P,SW8,1,-*%
%TO.N,/Battery Pack/CELL1_MINUS*%
X103800000Y-41080000D03*
%TO.P,SW8,2,+*%
%TO.N,/5V*%
X103800000Y-46160000D03*
%TO.P,SW8,6,-*%
%TO.N,/Cell Balancing/CELL1*%
X103800000Y-51240000D03*
%TO.P,SW8,7,+*%
%TO.N,Net-(Q15-S)*%
X103800000Y-56320000D03*
%TD*%
D17*
%TO.P,J27,1,Pin_1*%
%TO.N,/EN_CELL_BALANCING*%
X119300000Y-67200000D03*
D18*
%TO.P,J27,2,Pin_2*%
%TO.N,/CELL_BALANCING_A0*%
X119300000Y-69740000D03*
%TO.P,J27,3,Pin_3*%
%TO.N,/CELL_BALANCING_A1*%
X119300000Y-72280000D03*
%TO.P,J27,4,Pin_4*%
%TO.N,/LIMIT_BALANCING_CURRENT*%
X119300000Y-74820000D03*
%TO.P,J27,5,Pin_5*%
%TO.N,GND*%
X119300000Y-77360000D03*
%TD*%
D17*
%TO.P,J16,1,Pin_1*%
%TO.N,/MCU/SCL*%
X95975000Y-108000000D03*
D18*
%TO.P,J16,2,Pin_2*%
%TO.N,/MCU/SDA*%
X98515000Y-108000000D03*
%TO.P,J16,3,Pin_3*%
%TO.N,GND*%
X101055000Y-108000000D03*
%TD*%
D13*
%TO.P,J24,1,Pin_1*%
%TO.N,/3V3*%
X72767500Y-115000000D03*
D14*
%TO.P,J24,2,Pin_2*%
%TO.N,/MCU/SCL*%
X76267500Y-115000000D03*
%TO.P,J24,3,Pin_3*%
%TO.N,/MCU/SDA*%
X79767500Y-115000000D03*
%TO.P,J24,4,Pin_4*%
%TO.N,GND*%
X83267500Y-115000000D03*
%TD*%
D12*
%TO.P,C47,1*%
%TO.N,/BALANCE_CAP_MINUS_RAW*%
X66800000Y-79800000D03*
%TO.P,C47,2*%
%TO.N,/BALANCE_CAP_PLUS_RAW*%
X61800000Y-89800000D03*
%TO.P,C47,3*%
X71800000Y-89800000D03*
%TD*%
D17*
%TO.P,J28,1,Pin_1*%
%TO.N,Net-(J28-Pin_1)*%
X91900000Y-64375000D03*
D18*
%TO.P,J28,2,Pin_2*%
%TO.N,/BALANCE_CAP_MINUS_RAW*%
X91900000Y-61835000D03*
%TD*%
D13*
%TO.P,J23,1,Pin_1*%
%TO.N,/3V3*%
X56000000Y-115000000D03*
D14*
%TO.P,J23,2,Pin_2*%
%TO.N,/MCU/SCL*%
X59500000Y-115000000D03*
%TO.P,J23,3,Pin_3*%
%TO.N,/MCU/SDA*%
X63000000Y-115000000D03*
%TO.P,J23,4,Pin_4*%
%TO.N,GND*%
X66500000Y-115000000D03*
%TD*%
D17*
%TO.P,J20,1,Pin_1*%
%TO.N,/MCU/UART_USB_TX*%
X36400000Y-108100000D03*
D18*
%TO.P,J20,2,Pin_2*%
%TO.N,/MCU/UART_USB_RX*%
X38940000Y-108100000D03*
%TO.P,J20,3,Pin_3*%
%TO.N,GND*%
X41480000Y-108100000D03*
%TD*%
D17*
%TO.P,J9,1,Pin_1*%
%TO.N,Net-(J9-Pin_1)*%
X44425000Y-82900000D03*
D18*
%TO.P,J9,2,Pin_2*%
%TO.N,/-5V*%
X41885000Y-82900000D03*
%TO.P,J9,3,Pin_3*%
%TO.N,GND*%
X39345000Y-82900000D03*
%TD*%
D19*
%TO.P,J6,1,Pin_1*%
%TO.N,Net-(J6-Pin_1)*%
X30000000Y-46000000D03*
D20*
X30000000Y-46000000D03*
%TD*%
D17*
%TO.P,J13,1,Pin_1*%
%TO.N,Net-(J13-Pin_1)*%
X41500000Y-99075000D03*
D18*
%TO.P,J13,2,Pin_2*%
%TO.N,/3V3*%
X41500000Y-101615000D03*
%TO.P,J13,3,Pin_3*%
%TO.N,GND*%
X41500000Y-104155000D03*
%TD*%
D11*
%TO.P,R25,1*%
%TO.N,/5V_USB*%
X24712500Y-91100000D03*
%TO.P,R25,2*%
%TO.N,Net-(D17-A)*%
X22887500Y-91100000D03*
%TD*%
D19*
%TO.P,J3,1,Pin_1*%
%TO.N,/Battery Pack/CELL3_MINUS*%
X84000000Y-30000000D03*
D20*
X84000000Y-30000000D03*
%TD*%
D17*
%TO.P,J17,1,Pin_1*%
%TO.N,/Interconnect/UART_TX*%
X121125000Y-107900000D03*
D18*
%TO.P,J17,2,Pin_2*%
%TO.N,/Interconnect/UART_RX*%
X118585000Y-107900000D03*
%TO.P,J17,3,Pin_3*%
%TO.N,GND*%
X116045000Y-107900000D03*
%TD*%
D16*
%TO.P,D19,1,K*%
%TO.N,Net-(D19-K)*%
X144975000Y-47600000D03*
%TO.P,D19,2,A*%
%TO.N,/3V3*%
X143225000Y-47600000D03*
%TD*%
D19*
%TO.P,H2,1,1*%
%TO.N,GND*%
X28000000Y-112000000D03*
D23*
X28000000Y-112000000D03*
%TD*%
D19*
%TO.P,H3,1,1*%
%TO.N,GND*%
X142000000Y-112000000D03*
D23*
X142000000Y-112000000D03*
%TD*%
D12*
%TO.P,SW7,1,-*%
%TO.N,/Battery Pack/CELL2_MINUS*%
X92600000Y-41080000D03*
%TO.P,SW7,2,+*%
%TO.N,/5V*%
X92600000Y-46160000D03*
%TO.P,SW7,6,-*%
%TO.N,/Cell Balancing/CELL1*%
X92600000Y-51240000D03*
%TO.P,SW7,7,+*%
%TO.N,/BALANCE_CAP_PLUS_RAW*%
X92600000Y-56320000D03*
%TD*%
D24*
%TO.P,U7,GND@1,GND*%
%TO.N,GND*%
X142730000Y-88460000D03*
%TO.P,U7,GND@2,GND*%
X142730000Y-91000000D03*
%TO.P,U7,GND@3,GND*%
X142730000Y-96080000D03*
%TO.P,U7,RESET,RESET*%
%TO.N,/MCU/NRST*%
X145270000Y-96080000D03*
%TO.P,U7,RXI,RXI*%
%TO.N,unconnected-(U7-PadRXI)*%
X142730000Y-93540000D03*
%TO.P,U7,SWCLK,SWCLK*%
%TO.N,/MCU/SWCLK*%
X145270000Y-88460000D03*
%TO.P,U7,SWDIO,SWDIO*%
%TO.N,/MCU/SWDIO*%
X145270000Y-85920000D03*
%TO.P,U7,SWO,SWO*%
%TO.N,unconnected-(U7-PadSWO)*%
X145270000Y-91000000D03*
%TO.P,U7,TXO,TXO*%
%TO.N,unconnected-(U7-PadTXO)*%
X145270000Y-93540000D03*
%TO.P,U7,VREF,VREF*%
%TO.N,/3V3*%
X142730000Y-85920000D03*
%TD*%
D19*
%TO.P,J2,1,Pin_1*%
%TO.N,/Battery Pack/CELL4_MINUS*%
X65000000Y-30000000D03*
D20*
X65000000Y-30000000D03*
%TD*%
D22*
%TO.P,L2,1,1*%
%TO.N,Net-(J11-Pin_1)*%
X101900000Y-64600000D03*
%TO.P,L2,2,2*%
%TO.N,Net-(U4-SW)*%
X96900000Y-64600000D03*
%TD*%
D16*
%TO.P,D21,1,K*%
%TO.N,Net-(D21-K)*%
X144975000Y-42400000D03*
%TO.P,D21,2,A*%
%TO.N,/3V3*%
X143225000Y-42400000D03*
%TD*%
D15*
%TO.P,D22,1,K*%
%TO.N,/5V*%
X122650000Y-59300000D03*
%TO.P,D22,2,A*%
%TO.N,/Cell Balancing/CELL1*%
X124750000Y-59300000D03*
%TD*%
D17*
%TO.P,J12,1,Pin_1*%
%TO.N,Net-(D13-K)*%
X108675000Y-45000000D03*
D18*
%TO.P,J12,2,Pin_2*%
%TO.N,/18V*%
X111215000Y-45000000D03*
%TO.P,J12,3,Pin_3*%
%TO.N,GND*%
X113755000Y-45000000D03*
%TD*%
D25*
%TO.P,J14,1,VCC*%
%TO.N,Net-(J14-VCC)*%
X24275000Y-98700000D03*
%TO.P,J14,2,D-*%
%TO.N,Net-(J14-D-)*%
X24275000Y-99350000D03*
%TO.P,J14,3,D+*%
%TO.N,Net-(J14-D+)*%
X24275000Y-100000000D03*
%TO.P,J14,4,ID*%
%TO.N,unconnected-(J14-ID-Pad4)*%
X24275000Y-100650000D03*
%TO.P,J14,5,GND*%
%TO.N,GND*%
X24275000Y-101300000D03*
D26*
%TO.P,J14,S1,SHIELD*%
X24300000Y-97500000D03*
%TO.P,J14,S2,SHIELD*%
X24300000Y-102500000D03*
D27*
%TO.P,J14,S3,SHIELD*%
X21600000Y-96475000D03*
D28*
%TO.P,J14,S4,SHIELD*%
X21600000Y-99000000D03*
%TO.P,J14,S5,SHIELD*%
X21600000Y-101000000D03*
D27*
%TO.P,J14,S6,SHIELD*%
X21600000Y-103525000D03*
%TD*%
D19*
%TO.P,J8,1,Pin_1*%
%TO.N,GND*%
X141000000Y-30000000D03*
D20*
X141000000Y-30000000D03*
%TD*%
D17*
%TO.P,J26,1,Pin_1*%
%TO.N,/Cell Balancing/CELL1*%
X115300000Y-58800000D03*
D18*
%TO.P,J26,2,Pin_2*%
%TO.N,/Cell Balancing/CELL2*%
X115300000Y-61340000D03*
%TO.P,J26,3,Pin_3*%
%TO.N,/Cell Balancing/CELL3*%
X115300000Y-63880000D03*
%TO.P,J26,4,Pin_4*%
%TO.N,/Cell Balancing/CELL4*%
X115300000Y-66420000D03*
%TO.P,J26,5,Pin_5*%
%TO.N,GND*%
X115300000Y-68960000D03*
%TD*%
D12*
%TO.P,SW1,1,-*%
%TO.N,/Battery Pack/PACK*%
X63400000Y-41080000D03*
%TO.P,SW1,2,+*%
%TO.N,/5V*%
X63400000Y-46160000D03*
%TO.P,SW1,6,-*%
%TO.N,/Cell Balancing/CELL4*%
X63400000Y-51240000D03*
%TO.P,SW1,7,+*%
%TO.N,/BALANCE_CAP_PLUS_RAW*%
X63400000Y-56320000D03*
%TD*%
%TO.P,SW2,1,-*%
%TO.N,/Battery Pack/CELL4_MINUS*%
X75300000Y-41080000D03*
%TO.P,SW2,2,+*%
%TO.N,/5V*%
X75300000Y-46160000D03*
%TO.P,SW2,6,-*%
%TO.N,/Cell Balancing/CELL4*%
X75300000Y-51240000D03*
%TO.P,SW2,7,+*%
%TO.N,Net-(Q15-S)*%
X75300000Y-56320000D03*
%TD*%
D19*
%TO.P,J4,1,Pin_1*%
%TO.N,/Battery Pack/CELL2_MINUS*%
X103000000Y-30000000D03*
D20*
X103000000Y-30000000D03*
%TD*%
D19*
%TO.P,H1,1,1*%
%TO.N,GND*%
X28000000Y-28000000D03*
D23*
X28000000Y-28000000D03*
%TD*%
D17*
%TO.P,J10,1,Pin_1*%
%TO.N,/Power Supply/9V4*%
X126900000Y-50525000D03*
D18*
%TO.P,J10,2,Pin_2*%
%TO.N,Net-(D12-A)*%
X126900000Y-47985000D03*
%TO.P,J10,3,Pin_3*%
%TO.N,GND*%
X126900000Y-45445000D03*
%TD*%
D12*
%TO.P,SW3,1,-*%
%TO.N,/Battery Pack/CELL4_MINUS*%
X69300000Y-41080000D03*
%TO.P,SW3,2,+*%
%TO.N,/5V*%
X69300000Y-46160000D03*
%TO.P,SW3,6,-*%
%TO.N,/Cell Balancing/CELL3*%
X69300000Y-51240000D03*
%TO.P,SW3,7,+*%
%TO.N,/BALANCE_CAP_PLUS_RAW*%
X69300000Y-56320000D03*
%TD*%
%TO.P,SW5,1,-*%
%TO.N,/Battery Pack/CELL3_MINUS*%
X81100000Y-41080000D03*
%TO.P,SW5,2,+*%
%TO.N,/5V*%
X81100000Y-46160000D03*
%TO.P,SW5,6,-*%
%TO.N,/Cell Balancing/CELL2*%
X81100000Y-51240000D03*
%TO.P,SW5,7,+*%
%TO.N,/BALANCE_CAP_PLUS_RAW*%
X81100000Y-56320000D03*
%TD*%
D16*
%TO.P,D20,1,K*%
%TO.N,Net-(D20-K)*%
X144975000Y-44900000D03*
%TO.P,D20,2,A*%
%TO.N,/3V3*%
X143225000Y-44900000D03*
%TD*%
D17*
%TO.P,J11,1,Pin_1*%
%TO.N,Net-(J11-Pin_1)*%
X90800000Y-81100000D03*
D18*
%TO.P,J11,2,Pin_2*%
%TO.N,Net-(D14-A)*%
X90800000Y-83640000D03*
%TO.P,J11,3,Pin_3*%
%TO.N,GND*%
X90800000Y-86180000D03*
%TD*%
D29*
%TO.N,/-5V*%
X58599999Y-68075000D03*
X120200000Y-40700000D03*
X128212483Y-41187517D03*
D30*
X49700000Y-73800000D03*
D29*
X74300000Y-42700000D03*
X85200000Y-41800000D03*
D31*
%TO.N,GND*%
X23400000Y-63900000D03*
D30*
X56300000Y-76900000D03*
X88537715Y-77662285D03*
D29*
X123500000Y-67700000D03*
D32*
X87200000Y-38800000D03*
D29*
X142250500Y-44700000D03*
X122327864Y-89214315D03*
X139700000Y-41100000D03*
X68900000Y-54000000D03*
X120300000Y-63100000D03*
X56624952Y-68924952D03*
X117150000Y-100312500D03*
X31000000Y-98000000D03*
X78400000Y-41950500D03*
X36700000Y-97700000D03*
X143000000Y-39650500D03*
D31*
X96100000Y-61500000D03*
D30*
X109500000Y-53600000D03*
D32*
X108100000Y-36700000D03*
X63405799Y-59406299D03*
D31*
X40340820Y-94769001D03*
D29*
X108000000Y-89300000D03*
X125400000Y-40600000D03*
D32*
X117900000Y-54525500D03*
D29*
X112675500Y-42149500D03*
D30*
X76500000Y-73400000D03*
D32*
X58600000Y-61500000D03*
D29*
X131100000Y-59600000D03*
X63249500Y-67200000D03*
X126300000Y-83137500D03*
X127367236Y-88220121D03*
D31*
X78873498Y-62035134D03*
D29*
X36000000Y-99700000D03*
X123500000Y-63900000D03*
D30*
X53200000Y-75600000D03*
D31*
X23600000Y-80000000D03*
D29*
X142400000Y-49200000D03*
X123400000Y-60200000D03*
X123500000Y-71400000D03*
X128600000Y-63100000D03*
X62100000Y-45300000D03*
X75595000Y-107000000D03*
X95400000Y-42800000D03*
D30*
X94700000Y-77100000D03*
D31*
X40431250Y-89568750D03*
D29*
X54695000Y-105242500D03*
X116200000Y-39100000D03*
X31100000Y-99900000D03*
D31*
X104483099Y-65560855D03*
D29*
X49500000Y-38800000D03*
X74100000Y-48400000D03*
D31*
X46156547Y-99374500D03*
D29*
X129000000Y-92100000D03*
X54600000Y-88300000D03*
X68400000Y-38800000D03*
D32*
%TO.N,/5V_USB*%
X28087701Y-91512299D03*
X28200000Y-93524500D03*
D31*
X63999500Y-79600000D03*
D29*
X36000000Y-96600000D03*
%TO.N,/3V3*%
X121200000Y-83075000D03*
X128000000Y-84900000D03*
X123200000Y-105600000D03*
X51800000Y-108800000D03*
X131700000Y-44900000D03*
X114100000Y-105500000D03*
X142300000Y-42700000D03*
D30*
X33800000Y-106900000D03*
D29*
X115300000Y-99600000D03*
X132400000Y-46200000D03*
X127300000Y-63200000D03*
X54400000Y-90900000D03*
X126500000Y-88200000D03*
X119600000Y-57500000D03*
D30*
X111900000Y-87147866D03*
D29*
X129100000Y-95500000D03*
X79500000Y-105200000D03*
D30*
%TO.N,Net-(D10-K)*%
X39300000Y-93300000D03*
D31*
X86300000Y-115800500D03*
D29*
%TO.N,/PACK_EXT*%
X63300000Y-49600000D03*
D31*
X53900000Y-64800000D03*
X47577263Y-82150498D03*
D29*
X59800000Y-53800000D03*
%TO.N,/MCU/UART_USB_RX*%
X38622500Y-101900000D03*
X106993767Y-93993767D03*
%TO.N,/MCU/UART_USB_TX*%
X107700000Y-94100000D03*
X36717500Y-101870000D03*
%TO.N,/MCU/NRST*%
X122100000Y-92500000D03*
%TO.N,/MCU/LED1*%
X125100000Y-89500000D03*
%TO.N,/MCU/LED2*%
X125300000Y-90200000D03*
%TO.N,/MCU/LED3*%
X124700000Y-91024500D03*
%TO.N,/MCU/SCL*%
X118499144Y-93111610D03*
%TO.N,/MCU/SDA*%
X118993767Y-93606233D03*
%TO.N,/MCU/SWDIO*%
X116600000Y-90400000D03*
%TO.N,/MCU/SWCLK*%
X116600000Y-89400000D03*
%TO.N,/5V*%
X90900000Y-43000000D03*
D30*
X106910000Y-61010000D03*
X122450000Y-60199500D03*
D32*
X56900000Y-70512500D03*
D31*
X75578769Y-80321231D03*
D29*
X125900000Y-38800000D03*
D30*
X68100000Y-76100000D03*
D29*
%TO.N,/Cell Balancing/CELL1*%
X124200000Y-59200000D03*
X119026623Y-59199750D03*
X104313150Y-49325500D03*
%TO.N,/Cell Balancing/CELL2*%
X105175500Y-60322706D03*
X121100000Y-61300000D03*
X124200000Y-63000000D03*
%TO.N,/Cell Balancing/CELL3*%
X104800000Y-59700000D03*
X124100000Y-66800000D03*
%TO.N,/Cell Measurement/CELL3*%
X72050500Y-39630500D03*
X130675500Y-84700000D03*
%TO.N,/Cell Measurement/CELL4*%
X129325500Y-82200000D03*
X108647352Y-58799500D03*
%TO.N,/Cell Measurement/CELL1*%
X108287940Y-54799303D03*
X129800000Y-84700000D03*
%TO.N,/Cell Measurement/CELL2*%
X130225500Y-84000000D03*
X89600000Y-43919177D03*
%TO.N,/Cell Balancing/CELL4*%
X124100000Y-70400000D03*
X104400000Y-59100000D03*
X104550500Y-55000000D03*
%TO.N,/Cell Measurement/BALANCE_CAP_PLUS*%
X121400000Y-92500000D03*
X88374346Y-71574500D03*
%TO.N,/Cell Measurement/BALANCE_CAP_MINUS*%
X120900000Y-91900000D03*
X89000000Y-71000000D03*
%TO.N,/CHARGE*%
X58693677Y-44493677D03*
%TO.N,/DISCHARGE*%
X104400000Y-62600000D03*
%TO.N,/EN_CELL_BALANCING*%
X126200000Y-59800000D03*
%TO.N,/CELL_BALANCING_A0*%
X120992629Y-86792629D03*
X124025500Y-73800000D03*
X126956233Y-59856233D03*
X122030000Y-72470000D03*
%TO.N,/CELL_BALANCING_A1*%
X121247385Y-89252615D03*
X127712082Y-59910306D03*
%TO.N,/LIMIT_BALANCING_CURRENT*%
X121000000Y-62800000D03*
D32*
%TO.N,/Power Supply/9V4*%
X119800000Y-53700000D03*
X110200000Y-55300000D03*
%TO.N,/18V*%
X113000000Y-51000000D03*
D30*
X117800000Y-57600000D03*
%TO.N,Net-(D8-K)*%
X47900000Y-88500000D03*
X43900000Y-93865001D03*
D31*
%TO.N,Net-(U3-SW)*%
X46000000Y-90100000D03*
X34080141Y-92053512D03*
D29*
%TO.N,Net-(J14-VCC)*%
X27000000Y-98000000D03*
%TO.N,Net-(D17-K)*%
X37300000Y-96600000D03*
%TO.N,Net-(D18-K)*%
X34800000Y-99700000D03*
%TO.N,Net-(D19-K)*%
X142270694Y-48006684D03*
%TO.N,Net-(D20-K)*%
X140278719Y-43385406D03*
%TO.N,Net-(D21-K)*%
X142200000Y-40800000D03*
%TO.N,Net-(J14-D-)*%
X27000000Y-99700000D03*
%TO.N,Net-(J14-D+)*%
X27000000Y-101500000D03*
%TO.N,Net-(Q14-D)*%
X93800000Y-68500000D03*
X102849500Y-68900000D03*
D31*
%TO.N,Net-(Q15-S)*%
X88700000Y-69500000D03*
X84100000Y-64850500D03*
D30*
%TO.N,Net-(U4-FB{slash}VOUT)*%
X90815676Y-73478329D03*
X85400000Y-76700000D03*
%TD*%
D33*
%TO.N,GND*%
X24200000Y-102500000D02*
X23000000Y-102500000D01*
X23000000Y-97500000D02*
X24200000Y-97500000D01*
X24200000Y-102500000D02*
X24200000Y-101325000D01*
X23000000Y-102500000D02*
X21500000Y-101000000D01*
X21500000Y-99000000D02*
X23000000Y-97500000D01*
D34*
%TO.N,/Battery Pack/PACK*%
X57080000Y-41080000D02*
X46000000Y-30000000D01*
X63400000Y-41080000D02*
X57080000Y-41080000D01*
D33*
%TO.N,/5V_USB*%
X24712500Y-91100000D02*
X27675402Y-91100000D01*
X24712500Y-94500000D02*
X27224500Y-94500000D01*
X27224500Y-94500000D02*
X28200000Y-93524500D01*
X27675402Y-91100000D02*
X28087701Y-91512299D01*
%TO.N,/3V3*%
X143225000Y-42400000D02*
X142600000Y-42400000D01*
X143225000Y-47600000D02*
X143225000Y-44900000D01*
X143225000Y-42400000D02*
X143225000Y-44900000D01*
X142600000Y-42400000D02*
X142300000Y-42700000D01*
D34*
%TO.N,/Battery Pack/CELL4_MINUS*%
X67885787Y-41080000D02*
X65000000Y-38194213D01*
X65000000Y-38194213D02*
X65000000Y-30000000D01*
X69300000Y-41080000D02*
X67885787Y-41080000D01*
X75300000Y-41080000D02*
X69300000Y-41080000D01*
%TO.N,/Battery Pack/CELL3_MINUS*%
X84000000Y-38080000D02*
X84000000Y-30000000D01*
X87000000Y-41080000D02*
X84000000Y-38080000D01*
X81100000Y-41080000D02*
X81100000Y-32900000D01*
X81100000Y-32900000D02*
X84000000Y-30000000D01*
%TO.N,/Battery Pack/CELL2_MINUS*%
X98300000Y-41080000D02*
X98300000Y-34700000D01*
X92600000Y-40400000D02*
X103000000Y-30000000D01*
X92600000Y-41080000D02*
X92600000Y-40400000D01*
X98300000Y-34700000D02*
X103000000Y-30000000D01*
%TO.N,Net-(D3-K)*%
X42000000Y-51140000D02*
X42000000Y-56220000D01*
%TO.N,/BALANCE_CAP_MINUS_RAW*%
X74000000Y-71000000D02*
X83165000Y-61835000D01*
X66800000Y-95800000D02*
X68911270Y-95800000D01*
X74100000Y-87100000D02*
X66800000Y-79800000D01*
X83165000Y-61835000D02*
X91900000Y-61835000D01*
X74100000Y-90611270D02*
X74100000Y-87100000D01*
X74000000Y-74711270D02*
X74000000Y-71000000D01*
X68911270Y-95800000D02*
X74100000Y-90611270D01*
X66800000Y-79800000D02*
X68911270Y-79800000D01*
X68911270Y-79800000D02*
X74000000Y-74711270D01*
X74000000Y-71000000D02*
X66800000Y-63800000D01*
%TO.N,/BALANCE_CAP_PLUS_RAW*%
X78900000Y-58520000D02*
X81100000Y-56320000D01*
X61800000Y-73800000D02*
X61800000Y-57920000D01*
X83300000Y-58520000D02*
X90400000Y-58520000D01*
X81100000Y-56320000D02*
X83300000Y-58520000D01*
X71800000Y-89800000D02*
X61800000Y-89800000D01*
X71800000Y-105800000D02*
X61800000Y-105800000D01*
X69300000Y-56320000D02*
X71500000Y-58520000D01*
X61800000Y-57920000D02*
X63400000Y-56320000D01*
X69300000Y-56320000D02*
X63400000Y-56320000D01*
X71500000Y-58520000D02*
X78900000Y-58520000D01*
X90400000Y-58520000D02*
X92600000Y-56320000D01*
X61800000Y-89800000D02*
X61800000Y-105800000D01*
X61800000Y-73800000D02*
X61800000Y-89800000D01*
X61800000Y-73800000D02*
X71800000Y-73800000D01*
%TO.N,Net-(J6-Pin_1)*%
X42000000Y-42000000D02*
X42000000Y-47080000D01*
D33*
%TO.N,/PACK_EXT*%
X59800000Y-52966167D02*
X59800000Y-53800000D01*
X63166167Y-49600000D02*
X59800000Y-52966167D01*
X63300000Y-49600000D02*
X63166167Y-49600000D01*
%TO.N,/MCU/UART_USB_RX*%
X38940000Y-108100000D02*
X38940000Y-102217500D01*
X89013604Y-111975000D02*
X89013604Y-111973930D01*
X89013604Y-111973930D02*
X106993767Y-93993767D01*
X38940000Y-102217500D02*
X38622500Y-101900000D01*
X38940000Y-110003604D02*
X40911396Y-111975000D01*
X40911396Y-111975000D02*
X89013604Y-111975000D01*
X38940000Y-108100000D02*
X38940000Y-110003604D01*
%TO.N,/MCU/UART_USB_TX*%
X40725000Y-112425000D02*
X36400000Y-108100000D01*
X40725000Y-112425000D02*
X89200000Y-112425000D01*
X89375000Y-112425000D02*
X107700000Y-94100000D01*
X36400000Y-102187500D02*
X36717500Y-101870000D01*
X89200000Y-112425000D02*
X89375000Y-112425000D01*
X36400000Y-108100000D02*
X36400000Y-102187500D01*
%TO.N,/Interconnect/UART_RX*%
X116500000Y-109985000D02*
X118585000Y-107900000D01*
X116500000Y-115000000D02*
X116500000Y-109985000D01*
%TO.N,/MCU/NRST*%
X141460000Y-76540000D02*
X144005200Y-79085200D01*
X125372792Y-97900000D02*
X143450000Y-97900000D01*
X122100000Y-92500000D02*
X122100000Y-94627208D01*
X144005200Y-79085200D02*
X144005200Y-94815200D01*
X122100000Y-94627208D02*
X125372792Y-97900000D01*
X144005200Y-94815200D02*
X145270000Y-96080000D01*
X143450000Y-97900000D02*
X145270000Y-96080000D01*
%TO.N,/MCU/LED1*%
X147600000Y-47600000D02*
X134750000Y-60450000D01*
X131813604Y-60450000D02*
X131250000Y-61013604D01*
X147600000Y-47500000D02*
X147600000Y-47600000D01*
X131250000Y-61013604D02*
X131250000Y-79000000D01*
X126900530Y-89500000D02*
X125100000Y-89500000D01*
X131250000Y-85150530D02*
X126900530Y-89500000D01*
X131250000Y-79000000D02*
X131250000Y-85150530D01*
X134750000Y-60450000D02*
X131813604Y-60450000D01*
%TO.N,/MCU/LED2*%
X131700000Y-61200000D02*
X131700000Y-77800000D01*
X148775000Y-46135000D02*
X148775000Y-48625000D01*
X148775000Y-48625000D02*
X148081802Y-49318198D01*
X148081802Y-49318198D02*
X146518198Y-49318198D01*
X126836926Y-90200000D02*
X125300000Y-90200000D01*
X134936396Y-60900000D02*
X132000000Y-60900000D01*
X132000000Y-60900000D02*
X131700000Y-61200000D01*
X147600000Y-44960000D02*
X148775000Y-46135000D01*
X146518198Y-49318198D02*
X134936396Y-60900000D01*
X131700000Y-77800000D02*
X131700000Y-85336926D01*
X131700000Y-85336926D02*
X126836926Y-90200000D01*
%TO.N,/MCU/LED3*%
X135122792Y-61350000D02*
X146704594Y-49768198D01*
X132150000Y-85523322D02*
X132150000Y-61500000D01*
X149225000Y-48811396D02*
X149225000Y-44045000D01*
X132150000Y-61500000D02*
X132300000Y-61350000D01*
X124700000Y-91024500D02*
X126648822Y-91024500D01*
X126648822Y-91024500D02*
X132150000Y-85523322D01*
X148268198Y-49768198D02*
X149225000Y-48811396D01*
X149225000Y-44045000D02*
X147600000Y-42420000D01*
X132300000Y-61350000D02*
X135122792Y-61350000D01*
X146704594Y-49768198D02*
X148268198Y-49768198D01*
%TO.N,/MCU/SCL*%
X78392500Y-112875000D02*
X76267500Y-115000000D01*
X113613604Y-98150000D02*
X118499144Y-93264460D01*
X61625000Y-112875000D02*
X59500000Y-115000000D01*
X74142500Y-112875000D02*
X61625000Y-112875000D01*
X98028299Y-106825000D02*
X99053604Y-106825000D01*
X95975000Y-108000000D02*
X97340000Y-108000000D01*
X59500000Y-115000000D02*
X57375000Y-112875000D01*
X97340000Y-108000000D02*
X97340000Y-107513299D01*
X107728604Y-98150000D02*
X113613604Y-98150000D01*
X76267500Y-115000000D02*
X74142500Y-112875000D01*
X99053604Y-106825000D02*
X107728604Y-98150000D01*
X97340000Y-107513299D02*
X98028299Y-106825000D01*
X90875000Y-112875000D02*
X78392500Y-112875000D01*
X57375000Y-112875000D02*
X44625000Y-112875000D01*
X93000000Y-115000000D02*
X90875000Y-112875000D01*
X118499144Y-93264460D02*
X118499144Y-93111610D01*
X44625000Y-112875000D02*
X42500000Y-115000000D01*
%TO.N,/MCU/SDA*%
X63000000Y-115000000D02*
X65125000Y-117125000D01*
X65125000Y-117125000D02*
X77642500Y-117125000D01*
X98515000Y-108000000D02*
X107915000Y-98600000D01*
X77642500Y-117125000D02*
X79767500Y-115000000D01*
X94375000Y-117125000D02*
X96500000Y-115000000D01*
X46000000Y-115000000D02*
X48125000Y-117125000D01*
X81892500Y-117125000D02*
X94375000Y-117125000D01*
X79767500Y-115000000D02*
X81892500Y-117125000D01*
X60875000Y-117125000D02*
X63000000Y-115000000D01*
X113800000Y-98600000D02*
X118793767Y-93606233D01*
X118793767Y-93606233D02*
X118993767Y-93606233D01*
X107915000Y-98600000D02*
X113800000Y-98600000D01*
X48125000Y-117125000D02*
X60875000Y-117125000D01*
%TO.N,/MCU/SWDIO*%
X145300000Y-98800000D02*
X125000000Y-98800000D01*
X146984800Y-87634800D02*
X146984800Y-97115200D01*
X145270000Y-85920000D02*
X146984800Y-87634800D01*
X125000000Y-98800000D02*
X116600000Y-90400000D01*
X146984800Y-97115200D02*
X145300000Y-98800000D01*
%TO.N,/MCU/SWCLK*%
X145270000Y-88460000D02*
X146534800Y-89724800D01*
X125186396Y-98350000D02*
X117175000Y-90338604D01*
X117175000Y-90161827D02*
X116838173Y-89825000D01*
X145050000Y-98350000D02*
X125186396Y-98350000D01*
X117175000Y-90338604D02*
X117175000Y-90161827D01*
X146534800Y-96865200D02*
X145050000Y-98350000D01*
X116838173Y-89825000D02*
X116600000Y-89825000D01*
X116600000Y-89825000D02*
X116600000Y-89400000D01*
X146534800Y-89724800D02*
X146534800Y-96865200D01*
%TO.N,/Interconnect/UART_TX*%
X120000000Y-109025000D02*
X121125000Y-107900000D01*
X120000000Y-115000000D02*
X120000000Y-109025000D01*
D35*
%TO.N,/5V*%
X122450000Y-59500000D02*
X122450000Y-60199500D01*
X122650000Y-63000000D02*
X122450000Y-62800000D01*
X122450000Y-62800000D02*
X122450000Y-59500000D01*
X122550000Y-63100000D02*
X122650000Y-63000000D01*
X122550000Y-68600000D02*
X122550000Y-66800000D01*
X122550000Y-66800000D02*
X122550000Y-63100000D01*
X122450000Y-59500000D02*
X122650000Y-59300000D01*
X122550000Y-70400000D02*
X122550000Y-68600000D01*
D33*
%TO.N,/Cell Balancing/CELL1*%
X104313150Y-49325500D02*
X105186896Y-49325500D01*
X114700000Y-59400000D02*
X115300000Y-58800000D01*
X118400000Y-58800000D02*
X115300000Y-58800000D01*
D35*
X102100000Y-49540000D02*
X103800000Y-51240000D01*
X92600000Y-51240000D02*
X94300000Y-49540000D01*
D33*
X105575000Y-57875000D02*
X107100000Y-59400000D01*
D35*
X94300000Y-49540000D02*
X102100000Y-49540000D01*
D33*
X124750000Y-59300000D02*
X124300000Y-59300000D01*
X107100000Y-59400000D02*
X114700000Y-59400000D01*
X118800000Y-59200000D02*
X118400000Y-58800000D01*
X105186896Y-49325500D02*
X105575000Y-49713604D01*
X105575000Y-49713604D02*
X105575000Y-57875000D01*
X124300000Y-59300000D02*
X124200000Y-59200000D01*
%TO.N,/Cell Balancing/CELL2*%
X121100000Y-61300000D02*
X121060000Y-61340000D01*
X121060000Y-61340000D02*
X115300000Y-61340000D01*
X105175500Y-60322706D02*
X105175500Y-60442227D01*
X107793273Y-63060000D02*
X113580000Y-63060000D01*
X105175500Y-60442227D02*
X107793273Y-63060000D01*
X113580000Y-63060000D02*
X115300000Y-61340000D01*
X124750000Y-63000000D02*
X124200000Y-63000000D01*
%TO.N,/Cell Balancing/CELL3*%
X114930000Y-63510000D02*
X115300000Y-63880000D01*
X104800000Y-59700000D02*
X104300000Y-60200000D01*
D35*
X85300000Y-49540000D02*
X87000000Y-51240000D01*
D33*
X104300000Y-60260379D02*
X107549621Y-63510000D01*
X124650000Y-66800000D02*
X124100000Y-66800000D01*
D35*
X69300000Y-51240000D02*
X71000000Y-49540000D01*
D33*
X107549621Y-63510000D02*
X114930000Y-63510000D01*
X104300000Y-60200000D02*
X104300000Y-60260379D01*
D35*
X71000000Y-49540000D02*
X85300000Y-49540000D01*
D33*
%TO.N,/Cell Measurement/CELL3*%
X119600000Y-54800000D02*
X125324137Y-54800000D01*
X95161827Y-42225000D02*
X97525000Y-42225000D01*
X105436396Y-47700000D02*
X112818198Y-55081802D01*
X81443677Y-44043677D02*
X83800000Y-44043677D01*
X97525000Y-42225000D02*
X103000000Y-47700000D01*
X77030500Y-39630500D02*
X81443677Y-44043677D01*
X130800000Y-60275863D02*
X130800000Y-79000000D01*
X125324137Y-54800000D02*
X130612069Y-60087932D01*
X112818198Y-55081802D02*
X114099500Y-53800500D01*
X103000000Y-47700000D02*
X105436396Y-47700000D01*
X130800000Y-84575500D02*
X130675500Y-84700000D01*
X114099500Y-53800500D02*
X118600500Y-53800500D01*
X83800000Y-44043677D02*
X85418677Y-42425000D01*
X72050500Y-39630500D02*
X77030500Y-39630500D01*
X85418677Y-42425000D02*
X94961827Y-42425000D01*
X94961827Y-42425000D02*
X95161827Y-42225000D01*
X130800000Y-79000000D02*
X130800000Y-84575500D01*
X130612069Y-60087932D02*
X130800000Y-60275863D01*
X118600500Y-53800500D02*
X119600000Y-54800000D01*
%TO.N,/Cell Measurement/CELL4*%
X129450000Y-82075500D02*
X129325500Y-82200000D01*
X129450000Y-60835051D02*
X129450000Y-82075500D01*
X110846852Y-56600000D02*
X125214949Y-56600000D01*
X125214949Y-56600000D02*
X129450000Y-60835051D01*
X108647352Y-58799500D02*
X110846852Y-56600000D01*
%TO.N,/Cell Measurement/CELL1*%
X129650500Y-83761827D02*
X129650500Y-84550500D01*
X129900000Y-83512327D02*
X129650500Y-83761827D01*
X129900000Y-60648655D02*
X129900000Y-83512327D01*
X109638637Y-56150000D02*
X125401345Y-56150000D01*
X125401345Y-56150000D02*
X129900000Y-60648655D01*
X129650500Y-84550500D02*
X129800000Y-84700000D01*
X108287940Y-54799303D02*
X109638637Y-56150000D01*
%TO.N,/Cell Measurement/CELL2*%
X125587741Y-55700000D02*
X130350000Y-60462259D01*
X130350000Y-78400000D02*
X130350000Y-83875500D01*
X98569406Y-43919177D02*
X102800229Y-48150000D01*
X102800229Y-48150000D02*
X105250000Y-48150000D01*
X130350000Y-60462259D02*
X130350000Y-78400000D01*
X130350000Y-83875500D02*
X130225500Y-84000000D01*
X112800000Y-55700000D02*
X125587741Y-55700000D01*
X89600000Y-43919177D02*
X98569406Y-43919177D01*
X89600000Y-43919177D02*
X89724500Y-44043677D01*
X105250000Y-48150000D02*
X112800000Y-55700000D01*
%TO.N,/Cell Balancing/CELL4*%
X112930000Y-64050000D02*
X115300000Y-66420000D01*
X76625000Y-52565000D02*
X96665000Y-52565000D01*
X103600000Y-60350431D02*
X107299569Y-64050000D01*
X98700000Y-54600000D02*
X99900000Y-54600000D01*
D35*
X65100000Y-52940000D02*
X63400000Y-51240000D01*
D33*
X107299569Y-64050000D02*
X112930000Y-64050000D01*
D35*
X73600000Y-52940000D02*
X65100000Y-52940000D01*
D33*
X104150500Y-54600000D02*
X104550500Y-55000000D01*
D35*
X75300000Y-51240000D02*
X73600000Y-52940000D01*
D33*
X75300000Y-51240000D02*
X76625000Y-52565000D01*
X96665000Y-52565000D02*
X98700000Y-54600000D01*
X99900000Y-54600000D02*
X104150500Y-54600000D01*
X104400000Y-59100000D02*
X103600000Y-59900000D01*
X124650000Y-70400000D02*
X124100000Y-70400000D01*
X103600000Y-59900000D02*
X103600000Y-60350431D01*
D34*
%TO.N,/Battery Pack/CELL1_MINUS*%
X103800000Y-41080000D02*
X110920000Y-41080000D01*
X110920000Y-41080000D02*
X122000000Y-30000000D01*
D33*
%TO.N,/Cell Measurement/BALANCE_CAP_PLUS*%
X104874500Y-71574500D02*
X112700000Y-79400000D01*
X88374346Y-71574500D02*
X104874500Y-71574500D01*
X120686827Y-92500000D02*
X121400000Y-92500000D01*
X112700000Y-79400000D02*
X112700000Y-84513173D01*
X112700000Y-84513173D02*
X120686827Y-92500000D01*
%TO.N,/Cell Measurement/BALANCE_CAP_MINUS*%
X105060896Y-71124500D02*
X113436396Y-79500000D01*
X113436396Y-79500000D02*
X113436396Y-84436396D01*
X89124500Y-71124500D02*
X105060896Y-71124500D01*
X89000000Y-71000000D02*
X89124500Y-71124500D01*
X113436396Y-84436396D02*
X120900000Y-91900000D01*
%TO.N,/CHARGE*%
X104161827Y-58525000D02*
X103150000Y-59536827D01*
X58693677Y-44493677D02*
X98507510Y-44493677D01*
X105125000Y-57575000D02*
X104175000Y-58525000D01*
X98507510Y-44493677D02*
X103913833Y-49900000D01*
X104975000Y-62538604D02*
X111400000Y-68963604D01*
X111400000Y-68963604D02*
X111400000Y-69000000D01*
X105125000Y-49900000D02*
X105125000Y-57575000D01*
X104975000Y-62361827D02*
X104975000Y-62538604D01*
X103150000Y-59536827D02*
X103150000Y-60536827D01*
X104175000Y-58525000D02*
X104161827Y-58525000D01*
X103150000Y-60536827D02*
X104975000Y-62361827D01*
X103913833Y-49900000D02*
X105125000Y-49900000D01*
%TO.N,/DISCHARGE*%
X104400000Y-62600000D02*
X108860000Y-67060000D01*
X108860000Y-67060000D02*
X108860000Y-69000000D01*
%TO.N,/EN_CELL_BALANCING*%
X126200000Y-70025000D02*
X124025000Y-72200000D01*
X120475000Y-68375000D02*
X119300000Y-67200000D01*
X123183274Y-72200000D02*
X120475000Y-69491726D01*
X124025000Y-72200000D02*
X123183274Y-72200000D01*
X126200000Y-59800000D02*
X126200000Y-70025000D01*
X120475000Y-69491726D02*
X120475000Y-68375000D01*
%TO.N,/CELL_BALANCING_A0*%
X120992629Y-86792629D02*
X124025500Y-83759758D01*
X122210000Y-72650000D02*
X119300000Y-69740000D01*
X126956233Y-59856233D02*
X126956233Y-59856940D01*
X126650000Y-60163173D02*
X126650000Y-70211396D01*
X124025500Y-83759758D02*
X124025500Y-73800000D01*
X124211396Y-72650000D02*
X122210000Y-72650000D01*
X126650000Y-70211396D02*
X124211396Y-72650000D01*
X126956233Y-59856940D02*
X126650000Y-60163173D01*
%TO.N,/CELL_BALANCING_A1*%
X127875000Y-60073224D02*
X127875000Y-69825000D01*
X124600000Y-85900000D02*
X124600000Y-73100000D01*
X127712082Y-59910306D02*
X127875000Y-60073224D01*
X124600000Y-73100000D02*
X120300000Y-73100000D01*
X120120000Y-73100000D02*
X119300000Y-72280000D01*
X121247385Y-89252615D02*
X124600000Y-85900000D01*
X120300000Y-73100000D02*
X120120000Y-73100000D01*
X127875000Y-69825000D02*
X124600000Y-73100000D01*
%TO.N,/LIMIT_BALANCING_CURRENT*%
X118125000Y-73645000D02*
X119300000Y-74820000D01*
X118125000Y-66025000D02*
X118125000Y-73645000D01*
X118650000Y-65500000D02*
X118125000Y-66025000D01*
X121000000Y-62800000D02*
X121000000Y-65500000D01*
X121000000Y-65500000D02*
X118650000Y-65500000D01*
D35*
%TO.N,Net-(D8-K)*%
X43900000Y-93865001D02*
X44639163Y-93865001D01*
X47900000Y-90604164D02*
X47900000Y-88500000D01*
X44639163Y-93865001D02*
X47900000Y-90604164D01*
%TO.N,Net-(U3-SW)*%
X43700000Y-87800000D02*
X46000000Y-90100000D01*
X34080141Y-92053512D02*
X33800000Y-91773371D01*
X34900000Y-87800000D02*
X43700000Y-87800000D01*
X33800000Y-91773371D02*
X33800000Y-88900000D01*
X33800000Y-88900000D02*
X34900000Y-87800000D01*
%TO.N,Net-(J13-Pin_1)*%
X35800000Y-93375000D02*
X41500000Y-99075000D01*
X35800000Y-89900000D02*
X35800000Y-93375000D01*
D33*
%TO.N,Net-(J14-VCC)*%
X27000000Y-98000000D02*
X26300000Y-98700000D01*
X26300000Y-98700000D02*
X24175000Y-98700000D01*
D34*
%TO.N,Net-(D4-A)*%
X42000000Y-72140000D02*
X42000000Y-77220000D01*
D33*
%TO.N,Net-(D17-K)*%
X33500000Y-95900000D02*
X36600000Y-95900000D01*
X24675000Y-89400000D02*
X27000000Y-89400000D01*
X36600000Y-95900000D02*
X37300000Y-96600000D01*
X27000000Y-89400000D02*
X33500000Y-95900000D01*
%TO.N,Net-(D17-A)*%
X22887500Y-91100000D02*
X22887500Y-89437500D01*
X22887500Y-89437500D02*
X22925000Y-89400000D01*
%TO.N,Net-(D18-K)*%
X29700000Y-92800000D02*
X24675000Y-92800000D01*
X32700000Y-97600000D02*
X32700000Y-95800000D01*
X34800000Y-99700000D02*
X32700000Y-97600000D01*
X32700000Y-95800000D02*
X29700000Y-92800000D01*
%TO.N,Net-(D18-A)*%
X22925000Y-94462500D02*
X22887500Y-94500000D01*
X22925000Y-92800000D02*
X22925000Y-94462500D01*
%TO.N,Net-(D19-K)*%
X144175000Y-48400000D02*
X144975000Y-47600000D01*
X142375000Y-48077076D02*
X142697924Y-48400000D01*
X142697924Y-48400000D02*
X144175000Y-48400000D01*
%TO.N,Net-(D20-K)*%
X144127076Y-40225000D02*
X146000000Y-42097924D01*
X141961827Y-40225000D02*
X140278719Y-41908108D01*
X146000000Y-42097924D02*
X146000000Y-43875000D01*
X141961827Y-40225000D02*
X144127076Y-40225000D01*
X140278719Y-41908108D02*
X140278719Y-43385406D01*
X146000000Y-43875000D02*
X144975000Y-44900000D01*
%TO.N,Net-(D21-K)*%
X143375000Y-40800000D02*
X144975000Y-42400000D01*
X142200000Y-40800000D02*
X143375000Y-40800000D01*
D34*
%TO.N,Net-(J7-Pin_1)*%
X42000000Y-68080000D02*
X42000000Y-63000000D01*
D33*
%TO.N,Net-(J14-D-)*%
X27000000Y-99700000D02*
X26650000Y-99350000D01*
X26650000Y-99350000D02*
X24175000Y-99350000D01*
%TO.N,Net-(J14-D+)*%
X26486827Y-100000000D02*
X24175000Y-100000000D01*
X27000000Y-100513173D02*
X26486827Y-100000000D01*
X27000000Y-101500000D02*
X27000000Y-100513173D01*
%TO.N,Net-(Q14-D)*%
X94200000Y-68900000D02*
X93800000Y-68500000D01*
X102849500Y-68900000D02*
X94200000Y-68900000D01*
D34*
%TO.N,Net-(Q15-S)*%
X89200000Y-54120000D02*
X96100000Y-54120000D01*
X87000000Y-56320000D02*
X89200000Y-54120000D01*
X77500000Y-54120000D02*
X75300000Y-56320000D01*
X98300000Y-56320000D02*
X103800000Y-56320000D01*
X84100000Y-64900000D02*
X88700000Y-69500000D01*
X96100000Y-54120000D02*
X98300000Y-56320000D01*
X87000000Y-56320000D02*
X84800000Y-54120000D01*
X84100000Y-64850500D02*
X84100000Y-64900000D01*
X84800000Y-54120000D02*
X77500000Y-54120000D01*
D35*
%TO.N,Net-(U4-FB{slash}VOUT)*%
X88621671Y-73478329D02*
X85400000Y-76700000D01*
X90815676Y-73478329D02*
X88621671Y-73478329D01*
%TD*%
D36*
X20000000Y-20000000D02*
X150000000Y-20000000D01*
X150000000Y-120000000D01*
X20000000Y-120000000D01*
X20000000Y-20000000D01*
M02*
