%TF.GenerationSoftware,KiCad,Pcbnew,7.0.9-7.0.9~ubuntu22.04.1*%
%TF.CreationDate,2023-11-27T19:51:44+01:00*%
%TF.ProjectId,battery-management-system,62617474-6572-4792-9d6d-616e6167656d,rev?*%
%TF.SameCoordinates,Original*%
%TF.FileFunction,Drillmap*%
%TF.FilePolarity,Positive*%
%FSLAX45Y45*%
G04 Gerber Fmt 4.5, Leading zero omitted, Abs format (unit mm)*
G04 Created by KiCad (PCBNEW 7.0.9-7.0.9~ubuntu22.04.1) date 2023-11-27 19:51:44*
%MOMM*%
%LPD*%
G01*
G04 APERTURE LIST*
%ADD10C,0.100000*%
%ADD11C,0.200000*%
G04 APERTURE END LIST*
D10*
X2000000Y-2000000D02*
X15000000Y-2000000D01*
X15000000Y-12000000D01*
X2000000Y-12000000D01*
X2000000Y-2000000D01*
D11*
X2255777Y-12316484D02*
X2255777Y-12116484D01*
X2255777Y-12116484D02*
X2303396Y-12116484D01*
X2303396Y-12116484D02*
X2331967Y-12126008D01*
X2331967Y-12126008D02*
X2351015Y-12145055D01*
X2351015Y-12145055D02*
X2360539Y-12164103D01*
X2360539Y-12164103D02*
X2370063Y-12202198D01*
X2370063Y-12202198D02*
X2370063Y-12230769D01*
X2370063Y-12230769D02*
X2360539Y-12268865D01*
X2360539Y-12268865D02*
X2351015Y-12287912D01*
X2351015Y-12287912D02*
X2331967Y-12306960D01*
X2331967Y-12306960D02*
X2303396Y-12316484D01*
X2303396Y-12316484D02*
X2255777Y-12316484D01*
X2455777Y-12316484D02*
X2455777Y-12183150D01*
X2455777Y-12221246D02*
X2465301Y-12202198D01*
X2465301Y-12202198D02*
X2474824Y-12192674D01*
X2474824Y-12192674D02*
X2493872Y-12183150D01*
X2493872Y-12183150D02*
X2512920Y-12183150D01*
X2579586Y-12316484D02*
X2579586Y-12183150D01*
X2579586Y-12116484D02*
X2570063Y-12126008D01*
X2570063Y-12126008D02*
X2579586Y-12135531D01*
X2579586Y-12135531D02*
X2589110Y-12126008D01*
X2589110Y-12126008D02*
X2579586Y-12116484D01*
X2579586Y-12116484D02*
X2579586Y-12135531D01*
X2703396Y-12316484D02*
X2684348Y-12306960D01*
X2684348Y-12306960D02*
X2674824Y-12287912D01*
X2674824Y-12287912D02*
X2674824Y-12116484D01*
X2808158Y-12316484D02*
X2789110Y-12306960D01*
X2789110Y-12306960D02*
X2779586Y-12287912D01*
X2779586Y-12287912D02*
X2779586Y-12116484D01*
X3036729Y-12316484D02*
X3036729Y-12116484D01*
X3036729Y-12116484D02*
X3103396Y-12259341D01*
X3103396Y-12259341D02*
X3170062Y-12116484D01*
X3170062Y-12116484D02*
X3170062Y-12316484D01*
X3351015Y-12316484D02*
X3351015Y-12211722D01*
X3351015Y-12211722D02*
X3341491Y-12192674D01*
X3341491Y-12192674D02*
X3322443Y-12183150D01*
X3322443Y-12183150D02*
X3284348Y-12183150D01*
X3284348Y-12183150D02*
X3265301Y-12192674D01*
X3351015Y-12306960D02*
X3331967Y-12316484D01*
X3331967Y-12316484D02*
X3284348Y-12316484D01*
X3284348Y-12316484D02*
X3265301Y-12306960D01*
X3265301Y-12306960D02*
X3255777Y-12287912D01*
X3255777Y-12287912D02*
X3255777Y-12268865D01*
X3255777Y-12268865D02*
X3265301Y-12249817D01*
X3265301Y-12249817D02*
X3284348Y-12240293D01*
X3284348Y-12240293D02*
X3331967Y-12240293D01*
X3331967Y-12240293D02*
X3351015Y-12230769D01*
X3446253Y-12183150D02*
X3446253Y-12383150D01*
X3446253Y-12192674D02*
X3465301Y-12183150D01*
X3465301Y-12183150D02*
X3503396Y-12183150D01*
X3503396Y-12183150D02*
X3522443Y-12192674D01*
X3522443Y-12192674D02*
X3531967Y-12202198D01*
X3531967Y-12202198D02*
X3541491Y-12221246D01*
X3541491Y-12221246D02*
X3541491Y-12278388D01*
X3541491Y-12278388D02*
X3531967Y-12297436D01*
X3531967Y-12297436D02*
X3522443Y-12306960D01*
X3522443Y-12306960D02*
X3503396Y-12316484D01*
X3503396Y-12316484D02*
X3465301Y-12316484D01*
X3465301Y-12316484D02*
X3446253Y-12306960D01*
X3627205Y-12297436D02*
X3636729Y-12306960D01*
X3636729Y-12306960D02*
X3627205Y-12316484D01*
X3627205Y-12316484D02*
X3617682Y-12306960D01*
X3617682Y-12306960D02*
X3627205Y-12297436D01*
X3627205Y-12297436D02*
X3627205Y-12316484D01*
X3627205Y-12192674D02*
X3636729Y-12202198D01*
X3636729Y-12202198D02*
X3627205Y-12211722D01*
X3627205Y-12211722D02*
X3617682Y-12202198D01*
X3617682Y-12202198D02*
X3627205Y-12192674D01*
X3627205Y-12192674D02*
X3627205Y-12211722D01*
M02*
