%TF.GenerationSoftware,KiCad,Pcbnew,7.0.9-7.0.9~ubuntu23.04.1*%
%TF.CreationDate,2023-12-30T15:02:05+01:00*%
%TF.ProjectId,battery-management-system,62617474-6572-4792-9d6d-616e6167656d,rev?*%
%TF.SameCoordinates,Original*%
%TF.FileFunction,Copper,L1,Top*%
%TF.FilePolarity,Positive*%
%FSLAX46Y46*%
G04 Gerber Fmt 4.6, Leading zero omitted, Abs format (unit mm)*
G04 Created by KiCad (PCBNEW 7.0.9-7.0.9~ubuntu23.04.1) date 2023-12-30 15:02:05*
%MOMM*%
%LPD*%
G01*
G04 APERTURE LIST*
G04 Aperture macros list*
%AMRoundRect*
0 Rectangle with rounded corners*
0 $1 Rounding radius*
0 $2 $3 $4 $5 $6 $7 $8 $9 X,Y pos of 4 corners*
0 Add a 4 corners polygon primitive as box body*
4,1,4,$2,$3,$4,$5,$6,$7,$8,$9,$2,$3,0*
0 Add four circle primitives for the rounded corners*
1,1,$1+$1,$2,$3*
1,1,$1+$1,$4,$5*
1,1,$1+$1,$6,$7*
1,1,$1+$1,$8,$9*
0 Add four rect primitives between the rounded corners*
20,1,$1+$1,$2,$3,$4,$5,0*
20,1,$1+$1,$4,$5,$6,$7,0*
20,1,$1+$1,$6,$7,$8,$9,0*
20,1,$1+$1,$8,$9,$2,$3,0*%
G04 Aperture macros list end*
%TA.AperFunction,ComponentPad*%
%ADD10C,3.500000*%
%TD*%
%TA.AperFunction,SMDPad,CuDef*%
%ADD11RoundRect,0.237500X-0.250000X-0.237500X0.250000X-0.237500X0.250000X0.237500X-0.250000X0.237500X0*%
%TD*%
%TA.AperFunction,SMDPad,CuDef*%
%ADD12RoundRect,0.237500X-0.237500X0.250000X-0.237500X-0.250000X0.237500X-0.250000X0.237500X0.250000X0*%
%TD*%
%TA.AperFunction,SMDPad,CuDef*%
%ADD13RoundRect,0.237500X0.237500X-0.300000X0.237500X0.300000X-0.237500X0.300000X-0.237500X-0.300000X0*%
%TD*%
%TA.AperFunction,ComponentPad*%
%ADD14RoundRect,0.250000X-1.550000X0.650000X-1.550000X-0.650000X1.550000X-0.650000X1.550000X0.650000X0*%
%TD*%
%TA.AperFunction,ComponentPad*%
%ADD15O,3.600000X1.800000*%
%TD*%
%TA.AperFunction,ComponentPad*%
%ADD16RoundRect,0.250000X-0.650000X-1.550000X0.650000X-1.550000X0.650000X1.550000X-0.650000X1.550000X0*%
%TD*%
%TA.AperFunction,ComponentPad*%
%ADD17O,1.800000X3.600000*%
%TD*%
%TA.AperFunction,SMDPad,CuDef*%
%ADD18RoundRect,0.237500X0.237500X-0.287500X0.237500X0.287500X-0.237500X0.287500X-0.237500X-0.287500X0*%
%TD*%
%TA.AperFunction,ComponentPad*%
%ADD19R,1.700000X1.700000*%
%TD*%
%TA.AperFunction,ComponentPad*%
%ADD20O,1.700000X1.700000*%
%TD*%
%TA.AperFunction,SMDPad,CuDef*%
%ADD21RoundRect,0.150000X0.587500X0.150000X-0.587500X0.150000X-0.587500X-0.150000X0.587500X-0.150000X0*%
%TD*%
%TA.AperFunction,ComponentPad*%
%ADD22C,6.800000*%
%TD*%
%TA.AperFunction,SMDPad,CuDef*%
%ADD23C,12.800000*%
%TD*%
%TA.AperFunction,ComponentPad*%
%ADD24C,1.500000*%
%TD*%
%TA.AperFunction,SMDPad,CuDef*%
%ADD25RoundRect,0.250000X0.475000X-0.337500X0.475000X0.337500X-0.475000X0.337500X-0.475000X-0.337500X0*%
%TD*%
%TA.AperFunction,ComponentPad*%
%ADD26C,2.600000*%
%TD*%
%TA.AperFunction,SMDPad,CuDef*%
%ADD27RoundRect,0.237500X-0.300000X-0.237500X0.300000X-0.237500X0.300000X0.237500X-0.300000X0.237500X0*%
%TD*%
%TA.AperFunction,SMDPad,CuDef*%
%ADD28RoundRect,0.237500X0.300000X0.237500X-0.300000X0.237500X-0.300000X-0.237500X0.300000X-0.237500X0*%
%TD*%
%TA.AperFunction,SMDPad,CuDef*%
%ADD29RoundRect,0.237500X0.250000X0.237500X-0.250000X0.237500X-0.250000X-0.237500X0.250000X-0.237500X0*%
%TD*%
%TA.AperFunction,SMDPad,CuDef*%
%ADD30RoundRect,0.237500X0.237500X-0.250000X0.237500X0.250000X-0.237500X0.250000X-0.237500X-0.250000X0*%
%TD*%
%TA.AperFunction,ConnectorPad*%
%ADD31C,12.800000*%
%TD*%
%TA.AperFunction,SMDPad,CuDef*%
%ADD32RoundRect,0.150000X-0.150000X0.587500X-0.150000X-0.587500X0.150000X-0.587500X0.150000X0.587500X0*%
%TD*%
%TA.AperFunction,SMDPad,CuDef*%
%ADD33RoundRect,0.100000X0.100000X-0.712500X0.100000X0.712500X-0.100000X0.712500X-0.100000X-0.712500X0*%
%TD*%
%TA.AperFunction,SMDPad,CuDef*%
%ADD34RoundRect,0.150000X0.150000X-0.587500X0.150000X0.587500X-0.150000X0.587500X-0.150000X-0.587500X0*%
%TD*%
%TA.AperFunction,SMDPad,CuDef*%
%ADD35RoundRect,0.100000X-0.100000X0.712500X-0.100000X-0.712500X0.100000X-0.712500X0.100000X0.712500X0*%
%TD*%
%TA.AperFunction,ComponentPad*%
%ADD36C,1.879600*%
%TD*%
%TA.AperFunction,SMDPad,CuDef*%
%ADD37RoundRect,0.237500X-0.237500X0.300000X-0.237500X-0.300000X0.237500X-0.300000X0.237500X0.300000X0*%
%TD*%
%TA.AperFunction,SMDPad,CuDef*%
%ADD38R,0.400000X1.200000*%
%TD*%
%TA.AperFunction,SMDPad,CuDef*%
%ADD39R,1.350000X0.400000*%
%TD*%
%TA.AperFunction,ComponentPad*%
%ADD40O,1.000000X1.600000*%
%TD*%
%TA.AperFunction,ComponentPad*%
%ADD41O,1.600000X1.000000*%
%TD*%
%TA.AperFunction,SMDPad,CuDef*%
%ADD42R,1.550000X1.500000*%
%TD*%
%TA.AperFunction,SMDPad,CuDef*%
%ADD43RoundRect,0.150000X-0.587500X-0.150000X0.587500X-0.150000X0.587500X0.150000X-0.587500X0.150000X0*%
%TD*%
%TA.AperFunction,ViaPad*%
%ADD44C,2.000000*%
%TD*%
%TA.AperFunction,ViaPad*%
%ADD45C,0.800000*%
%TD*%
%TA.AperFunction,ViaPad*%
%ADD46C,0.500000*%
%TD*%
%TA.AperFunction,ViaPad*%
%ADD47C,1.000000*%
%TD*%
%TA.AperFunction,Conductor*%
%ADD48C,0.250000*%
%TD*%
%TA.AperFunction,Conductor*%
%ADD49C,2.000000*%
%TD*%
%TA.AperFunction,Conductor*%
%ADD50C,1.000000*%
%TD*%
%TA.AperFunction,Profile*%
%ADD51C,0.100000*%
%TD*%
G04 APERTURE END LIST*
D10*
%TO.P,F1,1*%
%TO.N,Net-(J6-Pin_1)*%
X40870000Y-23890000D03*
X40870000Y-28970000D03*
%TO.P,F1,2*%
%TO.N,Net-(D3-K)*%
X40870000Y-33030000D03*
X40870000Y-38110000D03*
%TD*%
D11*
%TO.P,R51,1*%
%TO.N,Net-(U11A-+)*%
X96387500Y-63900000D03*
%TO.P,R51,2*%
%TO.N,GND*%
X98212500Y-63900000D03*
%TD*%
D12*
%TO.P,R24,1*%
%TO.N,/5V_USB*%
X24000000Y-97337500D03*
%TO.P,R24,2*%
%TO.N,Net-(D18-A)*%
X24000000Y-99162500D03*
%TD*%
D13*
%TO.P,C34,1*%
%TO.N,Net-(Q11-D)*%
X46400000Y-71162500D03*
%TO.P,C34,2*%
%TO.N,GND*%
X46400000Y-69437500D03*
%TD*%
D14*
%TO.P,J18,1,Pin_1*%
%TO.N,GND*%
X115000000Y-97750000D03*
D15*
%TO.P,J18,2,Pin_2*%
%TO.N,/5V*%
X115000000Y-101250000D03*
%TO.P,J18,3,Pin_3*%
%TO.N,/5V_EXT*%
X115000000Y-104750000D03*
%TO.P,J18,4,Pin_4*%
%TO.N,/Interconnect/UART_RX*%
X115000000Y-108250000D03*
%TO.P,J18,5,Pin_5*%
%TO.N,/Interconnect/UART_TX*%
X115000000Y-111750000D03*
%TD*%
D16*
%TO.P,J22,1,Pin_1*%
%TO.N,/3V3*%
X90267500Y-125642500D03*
D17*
%TO.P,J22,2,Pin_2*%
%TO.N,/MCU/SCL*%
X93767500Y-125642500D03*
%TO.P,J22,3,Pin_3*%
%TO.N,/MCU/SDA*%
X97267500Y-125642500D03*
%TO.P,J22,4,Pin_4*%
%TO.N,GND*%
X100767500Y-125642500D03*
%TD*%
D18*
%TO.P,D18,1,K*%
%TO.N,Net-(D18-K)*%
X24000000Y-102625000D03*
%TO.P,D18,2,A*%
%TO.N,Net-(D18-A)*%
X24000000Y-100875000D03*
%TD*%
D16*
%TO.P,J19,1,Pin_1*%
%TO.N,/3V3*%
X39767500Y-125642500D03*
D17*
%TO.P,J19,2,Pin_2*%
%TO.N,/MCU/SCL*%
X43267500Y-125642500D03*
%TO.P,J19,3,Pin_3*%
%TO.N,/MCU/SDA*%
X46767500Y-125642500D03*
%TO.P,J19,4,Pin_4*%
%TO.N,GND*%
X50267500Y-125642500D03*
%TD*%
D19*
%TO.P,J15,1,Pin_1*%
%TO.N,/MCU/LED1*%
X75150000Y-118750000D03*
D20*
%TO.P,J15,2,Pin_2*%
%TO.N,/MCU/LED2*%
X77690000Y-118750000D03*
%TO.P,J15,3,Pin_3*%
%TO.N,/MCU/LED3*%
X80230000Y-118750000D03*
%TO.P,J15,4,Pin_4*%
%TO.N,GND*%
X82770000Y-118750000D03*
%TD*%
D21*
%TO.P,Q13,1,G*%
%TO.N,Net-(Q12-G)*%
X40637500Y-58450000D03*
%TO.P,Q13,2,D*%
%TO.N,Net-(Q13-D)*%
X40637500Y-56550000D03*
%TO.P,Q13,3,S*%
%TO.N,/Battery Pack/CELL4_MINUS*%
X38762500Y-57500000D03*
%TD*%
D22*
%TO.P,J5,1,Pin_1*%
%TO.N,/Battery Pack/CELL1_MINUS*%
X111000000Y-78000000D03*
D23*
X111000000Y-78000000D03*
%TD*%
D18*
%TO.P,D17,1,K*%
%TO.N,Net-(D17-K)*%
X21750000Y-102625000D03*
%TO.P,D17,2,A*%
%TO.N,Net-(D17-A)*%
X21750000Y-100875000D03*
%TD*%
D19*
%TO.P,J16,1,Pin_1*%
%TO.N,/CHARGE*%
X52000000Y-96250000D03*
D20*
%TO.P,J16,2,Pin_2*%
%TO.N,/DISCHARGE*%
X52000000Y-93710000D03*
%TO.P,J16,3,Pin_3*%
%TO.N,GND*%
X52000000Y-91170000D03*
%TD*%
D11*
%TO.P,R48,1*%
%TO.N,Net-(Q13-D)*%
X43407500Y-54620000D03*
%TO.P,R48,2*%
%TO.N,Net-(U12B-+)*%
X45232500Y-54620000D03*
%TD*%
D10*
%TO.P,F2,1*%
%TO.N,Net-(J7-Pin_1)*%
X82870000Y-23890000D03*
X82870000Y-28970000D03*
%TO.P,F2,2*%
%TO.N,Net-(D4-A)*%
X82870000Y-33030000D03*
X82870000Y-38110000D03*
%TD*%
D24*
%TO.P,RESET1,1,A*%
%TO.N,GND*%
X76460000Y-90460000D03*
%TO.P,RESET1,2,A*%
X76460000Y-95540000D03*
%TO.P,RESET1,3,B*%
%TO.N,/MCU/NRST*%
X81540000Y-90460000D03*
%TO.P,RESET1,4,B*%
X81540000Y-95540000D03*
%TD*%
D25*
%TO.P,C13,1*%
%TO.N,/5V_USB*%
X38770000Y-117417500D03*
%TO.P,C13,2*%
%TO.N,GND*%
X38770000Y-115342500D03*
%TD*%
D22*
%TO.P,J1,1,Pin_1*%
%TO.N,/Battery Pack/PACK*%
X111000000Y-44000000D03*
D23*
X111000000Y-44000000D03*
%TD*%
D22*
%TO.P,J7,1,Pin_1*%
%TO.N,Net-(J7-Pin_1)*%
X71000000Y-29000000D03*
D23*
X71000000Y-29000000D03*
%TD*%
D26*
%TO.P,L1,1,1*%
%TO.N,Net-(J11-Pin_1)*%
X43700000Y-75000000D03*
%TO.P,L1,2,2*%
%TO.N,Net-(U2-SW)*%
X43700000Y-80000000D03*
%TD*%
D19*
%TO.P,J13,1,Pin_1*%
%TO.N,/MCU/SCL*%
X96775000Y-118750000D03*
D20*
%TO.P,J13,2,Pin_2*%
%TO.N,/MCU/SDA*%
X94235000Y-118750000D03*
%TO.P,J13,3,Pin_3*%
%TO.N,GND*%
X91695000Y-118750000D03*
%TD*%
D12*
%TO.P,R44,1*%
%TO.N,/18V*%
X35400000Y-67787500D03*
%TO.P,R44,2*%
%TO.N,Net-(Q12-G)*%
X35400000Y-69612500D03*
%TD*%
D13*
%TO.P,C33,1*%
%TO.N,Net-(Q11-D)*%
X44900000Y-69962500D03*
%TO.P,C33,2*%
%TO.N,GND*%
X44900000Y-68237500D03*
%TD*%
D27*
%TO.P,C18,1*%
%TO.N,Net-(J12-VCC)*%
X26637500Y-106400000D03*
%TO.P,C18,2*%
%TO.N,GND*%
X28362500Y-106400000D03*
%TD*%
D28*
%TO.P,C14,1*%
%TO.N,Net-(U5-USBDM)*%
X28362500Y-112750000D03*
%TO.P,C14,2*%
%TO.N,GND*%
X26637500Y-112750000D03*
%TD*%
D16*
%TO.P,J21,1,Pin_1*%
%TO.N,/3V3*%
X73535000Y-125642500D03*
D17*
%TO.P,J21,2,Pin_2*%
%TO.N,/MCU/SCL*%
X77035000Y-125642500D03*
%TO.P,J21,3,Pin_3*%
%TO.N,/MCU/SDA*%
X80535000Y-125642500D03*
%TO.P,J21,4,Pin_4*%
%TO.N,GND*%
X84035000Y-125642500D03*
%TD*%
D11*
%TO.P,R50,1*%
%TO.N,Net-(Q14-D)*%
X92787500Y-63900000D03*
%TO.P,R50,2*%
%TO.N,Net-(U11A-+)*%
X94612500Y-63900000D03*
%TD*%
D29*
%TO.P,R42,1*%
%TO.N,/EN_CELL_MEASUREMENT*%
X39212500Y-65300000D03*
%TO.P,R42,2*%
%TO.N,GND*%
X37387500Y-65300000D03*
%TD*%
D30*
%TO.P,R46,1*%
%TO.N,Net-(Q12-D)*%
X96300000Y-57312500D03*
%TO.P,R46,2*%
%TO.N,Net-(U11B-+)*%
X96300000Y-55487500D03*
%TD*%
D16*
%TO.P,J20,1,Pin_1*%
%TO.N,/3V3*%
X56767500Y-125642500D03*
D17*
%TO.P,J20,2,Pin_2*%
%TO.N,/MCU/SCL*%
X60267500Y-125642500D03*
%TO.P,J20,3,Pin_3*%
%TO.N,/MCU/SDA*%
X63767500Y-125642500D03*
%TO.P,J20,4,Pin_4*%
%TO.N,GND*%
X67267500Y-125642500D03*
%TD*%
D11*
%TO.P,FB1,1*%
%TO.N,Net-(J12-VCC)*%
X26587500Y-104750000D03*
%TO.P,FB1,2*%
%TO.N,/5V_USB*%
X28412500Y-104750000D03*
%TD*%
D12*
%TO.P,R21,1*%
%TO.N,/3V3*%
X34700000Y-104087500D03*
%TO.P,R21,2*%
%TO.N,Net-(U5-~{RTS})*%
X34700000Y-105912500D03*
%TD*%
D19*
%TO.P,J17,1,Pin_1*%
%TO.N,/MCU/UART_USB_TX*%
X43500000Y-108725000D03*
D20*
%TO.P,J17,2,Pin_2*%
%TO.N,/MCU/UART_USB_RX*%
X43500000Y-111265000D03*
%TO.P,J17,3,Pin_3*%
%TO.N,GND*%
X43500000Y-113805000D03*
%TD*%
D22*
%TO.P,H4,1,1*%
%TO.N,GND*%
X28000000Y-123000000D03*
D31*
X28000000Y-123000000D03*
%TD*%
D30*
%TO.P,R47,1*%
%TO.N,Net-(U11B-+)*%
X96300000Y-53712500D03*
%TO.P,R47,2*%
%TO.N,GND*%
X96300000Y-51887500D03*
%TD*%
D19*
%TO.P,J23,1,Pin_1*%
%TO.N,/CELL_BALANCING_A0*%
X95250000Y-94925000D03*
D20*
%TO.P,J23,2,Pin_2*%
%TO.N,/CELL_BALANCING_A1*%
X95250000Y-97465000D03*
%TO.P,J23,3,Pin_3*%
%TO.N,/CELL_BALANCING_STROBE*%
X95250000Y-100005000D03*
%TO.P,J23,4,Pin_4*%
%TO.N,/EN_CELL_BALANCING*%
X95250000Y-102545000D03*
%TO.P,J23,5,Pin_5*%
%TO.N,GND*%
X95250000Y-105085000D03*
%TD*%
D22*
%TO.P,J6,1,Pin_1*%
%TO.N,Net-(J6-Pin_1)*%
X53000000Y-29000000D03*
D23*
X53000000Y-29000000D03*
%TD*%
D19*
%TO.P,J11,1,Pin_1*%
%TO.N,Net-(J11-Pin_1)*%
X39700000Y-87700000D03*
D20*
%TO.P,J11,2,Pin_2*%
%TO.N,/3V3*%
X42240000Y-87700000D03*
%TO.P,J11,3,Pin_3*%
%TO.N,GND*%
X44780000Y-87700000D03*
%TD*%
D32*
%TO.P,Q11,1,G*%
%TO.N,Net-(Q10-D)*%
X51850000Y-69562500D03*
%TO.P,Q11,2,D*%
%TO.N,Net-(Q11-D)*%
X49950000Y-69562500D03*
%TO.P,Q11,3,S*%
%TO.N,/5V*%
X50900000Y-71437500D03*
%TD*%
D12*
%TO.P,R23,1*%
%TO.N,/5V_USB*%
X21750000Y-97337500D03*
%TO.P,R23,2*%
%TO.N,Net-(D17-A)*%
X21750000Y-99162500D03*
%TD*%
D22*
%TO.P,H2,1,1*%
%TO.N,GND*%
X112000000Y-28000000D03*
D31*
X112000000Y-28000000D03*
%TD*%
D22*
%TO.P,J3,1,Pin_1*%
%TO.N,/Battery Pack/CELL3_MINUS*%
X111000000Y-61000000D03*
D23*
X111000000Y-61000000D03*
%TD*%
D33*
%TO.P,U11,1*%
%TO.N,/Cell Measurement/CELL2*%
X87325000Y-57212500D03*
%TO.P,U11,2,-*%
X87975000Y-57212500D03*
%TO.P,U11,3,+*%
%TO.N,Net-(U11A-+)*%
X88625000Y-57212500D03*
%TO.P,U11,4,V-*%
%TO.N,GND*%
X89275000Y-57212500D03*
%TO.P,U11,5,+*%
%TO.N,Net-(U11B-+)*%
X89275000Y-52987500D03*
%TO.P,U11,6,-*%
%TO.N,/Cell Measurement/CELL4*%
X88625000Y-52987500D03*
%TO.P,U11,7*%
X87975000Y-52987500D03*
%TO.P,U11,8,V+*%
%TO.N,Net-(Q11-D)*%
X87325000Y-52987500D03*
%TD*%
D19*
%TO.P,J14,1,Pin_1*%
%TO.N,/Interconnect/UART_TX*%
X99000000Y-105275000D03*
D20*
%TO.P,J14,2,Pin_2*%
%TO.N,/Interconnect/UART_RX*%
X99000000Y-102735000D03*
%TO.P,J14,3,Pin_3*%
%TO.N,GND*%
X99000000Y-100195000D03*
%TD*%
D29*
%TO.P,R39,1*%
%TO.N,Net-(U10-PA9)*%
X48122500Y-109420000D03*
%TO.P,R39,2*%
%TO.N,/MCU/UART_USB_TX*%
X46297500Y-109420000D03*
%TD*%
D18*
%TO.P,D19,1,K*%
%TO.N,Net-(D19-K)*%
X75050000Y-116125000D03*
%TO.P,D19,2,A*%
%TO.N,/3V3*%
X75050000Y-114375000D03*
%TD*%
D29*
%TO.P,R38,1*%
%TO.N,Net-(U10-PA10)*%
X48122500Y-107660000D03*
%TO.P,R38,2*%
%TO.N,/MCU/UART_USB_RX*%
X46297500Y-107660000D03*
%TD*%
D34*
%TO.P,Q10,1,G*%
%TO.N,/EN_CELL_MEASUREMENT*%
X53950000Y-71437500D03*
%TO.P,Q10,2,S*%
%TO.N,GND*%
X55850000Y-71437500D03*
%TO.P,Q10,3,D*%
%TO.N,Net-(Q10-D)*%
X54900000Y-69562500D03*
%TD*%
D19*
%TO.P,J24,1,Pin_1*%
%TO.N,Net-(J24-Pin_1)*%
X57200000Y-56400000D03*
D20*
%TO.P,J24,2,Pin_2*%
%TO.N,GND*%
X54660000Y-56400000D03*
%TD*%
D11*
%TO.P,R52,1*%
%TO.N,Net-(Q15-D)*%
X42587500Y-60800000D03*
%TO.P,R52,2*%
%TO.N,Net-(U12A-+)*%
X44412500Y-60800000D03*
%TD*%
D34*
%TO.P,Q12,1,G*%
%TO.N,Net-(Q12-G)*%
X92350000Y-56937500D03*
%TO.P,Q12,2,D*%
%TO.N,Net-(Q12-D)*%
X94250000Y-56937500D03*
%TO.P,Q12,3,S*%
%TO.N,/Battery Pack/PACK*%
X93300000Y-55062500D03*
%TD*%
D22*
%TO.P,H3,1,1*%
%TO.N,GND*%
X112000000Y-123000000D03*
D31*
X112000000Y-123000000D03*
%TD*%
D28*
%TO.P,C16,1*%
%TO.N,Net-(U5-USBDP)*%
X28362500Y-111200000D03*
%TO.P,C16,2*%
%TO.N,GND*%
X26637500Y-111200000D03*
%TD*%
D35*
%TO.P,U12,1*%
%TO.N,/Cell Measurement/CELL1*%
X43275000Y-65287500D03*
%TO.P,U12,2,-*%
X42625000Y-65287500D03*
%TO.P,U12,3,+*%
%TO.N,Net-(U12A-+)*%
X41975000Y-65287500D03*
%TO.P,U12,4,V-*%
%TO.N,GND*%
X41325000Y-65287500D03*
%TO.P,U12,5,+*%
%TO.N,Net-(U12B-+)*%
X41325000Y-69512500D03*
%TO.P,U12,6,-*%
%TO.N,/Cell Measurement/CELL3*%
X41975000Y-69512500D03*
%TO.P,U12,7*%
X42625000Y-69512500D03*
%TO.P,U12,8,V+*%
%TO.N,Net-(Q11-D)*%
X43275000Y-69512500D03*
%TD*%
D19*
%TO.P,J25,1,Pin_1*%
%TO.N,Net-(J25-Pin_1)*%
X62200000Y-46600000D03*
D20*
%TO.P,J25,2,Pin_2*%
%TO.N,GND*%
X62200000Y-44060000D03*
%TD*%
D13*
%TO.P,C17,1*%
%TO.N,/5V_USB*%
X35030000Y-117412500D03*
%TO.P,C17,2*%
%TO.N,GND*%
X35030000Y-115687500D03*
%TD*%
D36*
%TO.P,U6,GND@1,GND*%
%TO.N,GND*%
X89270000Y-101540000D03*
%TO.P,U6,GND@2,GND*%
X89270000Y-99000000D03*
%TO.P,U6,GND@3,GND*%
X89270000Y-93920000D03*
%TO.P,U6,RESET,RESET*%
%TO.N,/MCU/NRST*%
X86730000Y-93920000D03*
%TO.P,U6,RXI,RXI*%
%TO.N,unconnected-(U6-PadRXI)*%
X89270000Y-96460000D03*
%TO.P,U6,SWCLK,SWCLK*%
%TO.N,/MCU/SWCLK*%
X86730000Y-101540000D03*
%TO.P,U6,SWDIO,SWDIO*%
%TO.N,/MCU/SWDIO*%
X86730000Y-104080000D03*
%TO.P,U6,SWO,SWO*%
%TO.N,unconnected-(U6-PadSWO)*%
X86730000Y-99000000D03*
%TO.P,U6,TXO,TXO*%
%TO.N,unconnected-(U6-PadTXO)*%
X86730000Y-96460000D03*
%TO.P,U6,VREF,VREF*%
%TO.N,/3V3*%
X89270000Y-104080000D03*
%TD*%
D22*
%TO.P,J2,1,Pin_1*%
%TO.N,/Battery Pack/CELL4_MINUS*%
X29000000Y-44000000D03*
D23*
X29000000Y-44000000D03*
%TD*%
D32*
%TO.P,Q9,1,G*%
%TO.N,/EN_CELL_MEASUREMENT*%
X39250000Y-67662500D03*
%TO.P,Q9,2,S*%
%TO.N,GND*%
X37350000Y-67662500D03*
%TO.P,Q9,3,D*%
%TO.N,Net-(Q12-G)*%
X38300000Y-69537500D03*
%TD*%
D11*
%TO.P,R43,1*%
%TO.N,/EN_CELL_MEASUREMENT*%
X53987500Y-73600000D03*
%TO.P,R43,2*%
%TO.N,GND*%
X55812500Y-73600000D03*
%TD*%
D26*
%TO.P,L2,1,1*%
%TO.N,Net-(J9-Pin_1)*%
X45000000Y-101900000D03*
%TO.P,L2,2,2*%
%TO.N,Net-(U3-SW)*%
X40000000Y-101900000D03*
%TD*%
D18*
%TO.P,D21,1,K*%
%TO.N,Net-(D21-K)*%
X80250000Y-116125000D03*
%TO.P,D21,2,A*%
%TO.N,/3V3*%
X80250000Y-114375000D03*
%TD*%
D37*
%TO.P,C32,1*%
%TO.N,Net-(Q11-D)*%
X83800000Y-52737500D03*
%TO.P,C32,2*%
%TO.N,GND*%
X83800000Y-54462500D03*
%TD*%
D19*
%TO.P,J10,1,Pin_1*%
%TO.N,Net-(D13-K)*%
X64075000Y-95800000D03*
D20*
%TO.P,J10,2,Pin_2*%
%TO.N,/18V*%
X66615000Y-95800000D03*
%TO.P,J10,3,Pin_3*%
%TO.N,GND*%
X69155000Y-95800000D03*
%TD*%
D29*
%TO.P,R53,1*%
%TO.N,Net-(U12A-+)*%
X44412500Y-62500000D03*
%TO.P,R53,2*%
%TO.N,GND*%
X42587500Y-62500000D03*
%TD*%
D12*
%TO.P,R22,1*%
%TO.N,/3V3*%
X31300000Y-104087500D03*
%TO.P,R22,2*%
%TO.N,Net-(U5-~{CTS})*%
X31300000Y-105912500D03*
%TD*%
D21*
%TO.P,Q15,1,G*%
%TO.N,Net-(Q12-G)*%
X40637500Y-62650000D03*
%TO.P,Q15,2,D*%
%TO.N,Net-(Q15-D)*%
X40637500Y-60750000D03*
%TO.P,Q15,3,S*%
%TO.N,/Battery Pack/CELL2_MINUS*%
X38762500Y-61700000D03*
%TD*%
D29*
%TO.P,R17,1*%
%TO.N,Net-(U5-USBDM)*%
X28412500Y-108000000D03*
%TO.P,R17,2*%
%TO.N,Net-(J12-D-)*%
X26587500Y-108000000D03*
%TD*%
%TO.P,R18,1*%
%TO.N,Net-(U5-USBDP)*%
X28412500Y-109600000D03*
%TO.P,R18,2*%
%TO.N,Net-(J12-D+)*%
X26587500Y-109600000D03*
%TD*%
D38*
%TO.P,U5,1,TXD*%
%TO.N,/MCU/UART_USB_RX*%
X36197500Y-108505000D03*
%TO.P,U5,2,~{RTS}*%
%TO.N,Net-(U5-~{RTS})*%
X35562500Y-108505000D03*
%TO.P,U5,3,VCCIO*%
%TO.N,Net-(U5-3V3OUT)*%
X34927500Y-108505000D03*
%TO.P,U5,4,RXD*%
%TO.N,/MCU/UART_USB_TX*%
X34292500Y-108505000D03*
%TO.P,U5,5,GND*%
%TO.N,GND*%
X33657500Y-108505000D03*
%TO.P,U5,6,~{CTS}*%
%TO.N,Net-(U5-~{CTS})*%
X33022500Y-108505000D03*
%TO.P,U5,7,CBUS2*%
%TO.N,Net-(D18-K)*%
X32387500Y-108505000D03*
%TO.P,U5,8,USBDP*%
%TO.N,Net-(U5-USBDP)*%
X31752500Y-108505000D03*
%TO.P,U5,9,USBDM*%
%TO.N,Net-(U5-USBDM)*%
X31752500Y-113705000D03*
%TO.P,U5,10,3V3OUT*%
%TO.N,Net-(U5-3V3OUT)*%
X32387500Y-113705000D03*
%TO.P,U5,11,~{RESET}*%
X33022500Y-113705000D03*
%TO.P,U5,12,VCC*%
%TO.N,/5V_USB*%
X33657500Y-113705000D03*
%TO.P,U5,13,GND*%
%TO.N,GND*%
X34292500Y-113705000D03*
%TO.P,U5,14,CBUS1*%
%TO.N,Net-(D17-K)*%
X34927500Y-113705000D03*
%TO.P,U5,15,CBUS0*%
%TO.N,unconnected-(U5-CBUS0-Pad15)*%
X35562500Y-113705000D03*
%TO.P,U5,16,CBUS3*%
%TO.N,unconnected-(U5-CBUS3-Pad16)*%
X36197500Y-113705000D03*
%TD*%
D37*
%TO.P,C31,1*%
%TO.N,Net-(Q11-D)*%
X85400000Y-52737500D03*
%TO.P,C31,2*%
%TO.N,GND*%
X85400000Y-54462500D03*
%TD*%
D11*
%TO.P,R45,1*%
%TO.N,/5V*%
X49987500Y-73600000D03*
%TO.P,R45,2*%
%TO.N,Net-(Q10-D)*%
X51812500Y-73600000D03*
%TD*%
D39*
%TO.P,J12,1,VCC*%
%TO.N,Net-(J12-VCC)*%
X24275000Y-106700000D03*
%TO.P,J12,2,D-*%
%TO.N,Net-(J12-D-)*%
X24275000Y-107350000D03*
%TO.P,J12,3,D+*%
%TO.N,Net-(J12-D+)*%
X24275000Y-108000000D03*
%TO.P,J12,4,ID*%
%TO.N,unconnected-(J12-ID-Pad4)*%
X24275000Y-108650000D03*
%TO.P,J12,5,GND*%
%TO.N,GND*%
X24275000Y-109300000D03*
D40*
%TO.P,J12,S1,SHIELD*%
X24300000Y-105500000D03*
%TO.P,J12,S2,SHIELD*%
X24300000Y-110500000D03*
D41*
%TO.P,J12,S3,SHIELD*%
X21600000Y-104475000D03*
D42*
%TO.P,J12,S4,SHIELD*%
X21600000Y-107000000D03*
%TO.P,J12,S5,SHIELD*%
X21600000Y-109000000D03*
D41*
%TO.P,J12,S6,SHIELD*%
X21600000Y-111525000D03*
%TD*%
D13*
%TO.P,C15,1*%
%TO.N,/5V_USB*%
X36780000Y-117432500D03*
%TO.P,C15,2*%
%TO.N,GND*%
X36780000Y-115707500D03*
%TD*%
D22*
%TO.P,J8,1,Pin_1*%
%TO.N,GND*%
X95000000Y-29000000D03*
D23*
X95000000Y-29000000D03*
%TD*%
D28*
%TO.P,C19,1*%
%TO.N,Net-(U5-3V3OUT)*%
X28362500Y-114320000D03*
%TO.P,C19,2*%
%TO.N,GND*%
X26637500Y-114320000D03*
%TD*%
D12*
%TO.P,R20,1*%
%TO.N,/3V3*%
X33000000Y-104087500D03*
%TO.P,R20,2*%
%TO.N,/MCU/UART_USB_TX*%
X33000000Y-105912500D03*
%TD*%
D22*
%TO.P,J4,1,Pin_1*%
%TO.N,/Battery Pack/CELL2_MINUS*%
X29000000Y-61000000D03*
D23*
X29000000Y-61000000D03*
%TD*%
D22*
%TO.P,H1,1,1*%
%TO.N,GND*%
X28000000Y-28000000D03*
D31*
X28000000Y-28000000D03*
%TD*%
D12*
%TO.P,R19,1*%
%TO.N,/3V3*%
X36400000Y-104087500D03*
%TO.P,R19,2*%
%TO.N,/MCU/UART_USB_RX*%
X36400000Y-105912500D03*
%TD*%
D43*
%TO.P,Q14,1,G*%
%TO.N,Net-(Q12-G)*%
X93862500Y-60150000D03*
%TO.P,Q14,2,D*%
%TO.N,Net-(Q14-D)*%
X93862500Y-62050000D03*
%TO.P,Q14,3,S*%
%TO.N,/Battery Pack/CELL3_MINUS*%
X95737500Y-61100000D03*
%TD*%
D11*
%TO.P,R49,1*%
%TO.N,Net-(U12B-+)*%
X43417500Y-52940000D03*
%TO.P,R49,2*%
%TO.N,GND*%
X45242500Y-52940000D03*
%TD*%
D18*
%TO.P,D20,1,K*%
%TO.N,Net-(D20-K)*%
X77750000Y-116125000D03*
%TO.P,D20,2,A*%
%TO.N,/3V3*%
X77750000Y-114375000D03*
%TD*%
D19*
%TO.P,J9,1,Pin_1*%
%TO.N,Net-(J9-Pin_1)*%
X39695000Y-91540000D03*
D20*
%TO.P,J9,2,Pin_2*%
%TO.N,Net-(D14-A)*%
X42235000Y-91540000D03*
%TO.P,J9,3,Pin_3*%
%TO.N,GND*%
X44775000Y-91540000D03*
%TD*%
D44*
%TO.N,GND*%
X57000000Y-38000000D03*
D45*
X64871051Y-90878949D03*
D46*
X52640000Y-105010000D03*
X73750000Y-113750000D03*
D47*
X38781250Y-74018750D03*
D46*
X70330000Y-104290000D03*
X82824500Y-114110000D03*
X56462500Y-70400000D03*
X34484968Y-112726543D03*
X69542500Y-109250000D03*
X59600000Y-63100000D03*
X98250000Y-118250000D03*
X98650500Y-64800000D03*
X61300000Y-48800000D03*
X69100000Y-57000000D03*
X85400000Y-44700000D03*
X33750000Y-109500000D03*
X64318750Y-100068750D03*
X36057436Y-70408157D03*
X49947483Y-57387101D03*
X95200000Y-52300000D03*
D44*
X67000000Y-38000000D03*
D46*
X61890000Y-100070000D03*
X51900000Y-66300000D03*
X108500000Y-107000000D03*
X55430000Y-117440000D03*
X86300000Y-55100000D03*
X77828472Y-111343601D03*
X42195673Y-63395673D03*
X77000000Y-55612500D03*
D47*
X54772500Y-83435000D03*
D46*
X96400000Y-92100000D03*
X66420000Y-108650000D03*
X109100000Y-90300000D03*
X45581250Y-68918750D03*
X36400000Y-65150500D03*
D47*
X42500000Y-97200000D03*
D46*
X27624500Y-106500000D03*
D44*
X117000000Y-90200000D03*
D46*
X113300000Y-86600000D03*
X100800000Y-88800000D03*
X47140000Y-54010000D03*
%TO.N,/Battery Pack/PACK*%
X94600000Y-58687000D03*
D44*
X59500000Y-56400000D03*
D47*
%TO.N,/5V_USB*%
X31400000Y-72200000D03*
D46*
X31500000Y-95000000D03*
X33657500Y-114930000D03*
D47*
X31400000Y-91100000D03*
D46*
%TO.N,/3V3*%
X109750000Y-105250000D03*
X54990000Y-104270000D03*
X109250000Y-99250000D03*
X78000000Y-92980000D03*
X55470000Y-114630000D03*
X76200000Y-56900000D03*
X65000000Y-102000000D03*
X60394500Y-100245500D03*
X80060000Y-113700000D03*
D45*
X33750000Y-104087500D03*
D46*
X68575500Y-104169775D03*
X100000000Y-119000000D03*
X112000000Y-91700000D03*
X70270000Y-107280000D03*
X55000000Y-67900000D03*
%TO.N,/Battery Pack/CELL4_MINUS*%
X37956250Y-52943750D03*
%TO.N,/Battery Pack/CELL3_MINUS*%
X99100000Y-61200000D03*
%TO.N,/Battery Pack/CELL2_MINUS*%
X39062500Y-61000000D03*
D47*
%TO.N,Net-(U2-SW)*%
X38250500Y-81000000D03*
X40800000Y-80500000D03*
%TO.N,/PACK_EXT*%
X34434999Y-93750000D03*
D44*
X52367348Y-52232652D03*
D47*
X34490624Y-68697249D03*
D44*
X67050000Y-44150000D03*
D46*
%TO.N,/MCU/UART_USB_TX*%
X34292500Y-107205000D03*
X36974500Y-107250000D03*
%TO.N,/MCU/SCL*%
X106500000Y-108000000D03*
X107500000Y-87250000D03*
X60748815Y-105388815D03*
%TO.N,/MCU/SDA*%
X61450000Y-105250000D03*
X110250000Y-88000000D03*
X107500000Y-108000000D03*
X63750000Y-122750000D03*
D47*
%TO.N,/5V_EXT*%
X28600000Y-90600000D03*
X28600000Y-72300000D03*
D46*
%TO.N,/MCU/SWDIO*%
X62755500Y-107040000D03*
%TO.N,/MCU/SWCLK*%
X62755500Y-106330000D03*
D47*
%TO.N,/5V*%
X49500000Y-77200000D03*
D46*
X49991102Y-72346398D03*
D47*
X36200000Y-87500000D03*
D46*
%TO.N,/Cell Measurement/CELL3*%
X42800000Y-70800000D03*
X58070000Y-107730000D03*
X59676000Y-85590000D03*
%TO.N,/Cell Measurement/CELL4*%
X58573767Y-109046233D03*
%TO.N,/Cell Measurement/CELL1*%
X60250500Y-86793642D03*
X43500000Y-67663000D03*
X58670551Y-107324500D03*
%TO.N,/Cell Measurement/CELL2*%
X59675500Y-108385968D03*
%TO.N,/CHARGE*%
X72300000Y-57000500D03*
%TO.N,/DISCHARGE*%
X60200000Y-51800000D03*
%TO.N,/EN_CELL_BALANCING*%
X110000000Y-92100000D03*
X63904500Y-107675500D03*
X66010000Y-103720000D03*
%TO.N,/CELL_BALANCING_A0*%
X60401845Y-97799906D03*
X62645500Y-100180000D03*
X56086449Y-65523550D03*
%TO.N,/CELL_BALANCING_A1*%
X60990000Y-97220000D03*
X56954646Y-65755353D03*
X63253923Y-101741705D03*
%TO.N,/Battery Pack/CHARGE_AVAILABLE*%
X74400000Y-56900000D03*
X61121551Y-96499500D03*
D45*
%TO.N,/CELL_BALANCING_STROBE*%
X63349500Y-69750000D03*
D46*
X62159664Y-98421646D03*
X95700000Y-82088000D03*
X97600000Y-88799500D03*
D44*
%TO.N,/18V*%
X106100000Y-89200000D03*
D46*
X51900000Y-62400000D03*
X39775500Y-68900000D03*
D47*
X71361890Y-87350000D03*
D46*
X85000000Y-46700000D03*
X37300000Y-68900000D03*
X51500000Y-58900000D03*
X94500000Y-92100000D03*
D47*
%TO.N,Net-(J9-Pin_1)*%
X42300000Y-94200000D03*
D46*
%TO.N,/Cell Balancing/CHARGE_CELL4*%
X99150500Y-45613358D03*
X86400000Y-42250500D03*
X41900000Y-45500000D03*
%TO.N,/Cell Balancing/CHARGE_CELL3*%
X98800000Y-60300000D03*
X39300000Y-55100000D03*
X40451365Y-53999134D03*
%TO.N,/Cell Balancing/CHARGE_CELL2*%
X101950000Y-70167228D03*
X47400000Y-60000000D03*
X48121398Y-62121398D03*
X102125500Y-80400000D03*
%TO.N,Net-(D17-K)*%
X34750000Y-112000000D03*
X22750000Y-103250000D03*
%TO.N,Net-(D19-K)*%
X75820000Y-113440000D03*
%TO.N,Net-(D20-K)*%
X78830000Y-111260000D03*
%TO.N,Net-(D21-K)*%
X82240000Y-113320000D03*
%TO.N,/Cell Balancing/CHARGE_CELL1*%
X44950500Y-65050000D03*
X44752938Y-66740769D03*
X102700000Y-80900000D03*
X102700000Y-83100000D03*
D47*
%TO.N,Net-(Q24-S)*%
X47093750Y-68106250D03*
X100950501Y-70000000D03*
X99800000Y-83937500D03*
X45900000Y-58700000D03*
X100100000Y-45300000D03*
D46*
%TO.N,/EN_CELL_MEASUREMENT*%
X56490000Y-74660000D03*
X60250500Y-78410000D03*
X55420000Y-106690000D03*
%TO.N,/Cell Balancing/DISCHARGE*%
X98900000Y-82988000D03*
X102100000Y-50300000D03*
X99458274Y-84887000D03*
%TO.N,Net-(Q12-G)*%
X42825500Y-58100000D03*
X44000000Y-58100000D03*
%TO.N,Net-(Q34-G)*%
X99528870Y-85628870D03*
X96800000Y-82088000D03*
%TO.N,Net-(U10-PB11)*%
X61890000Y-116920000D03*
X105925500Y-101675500D03*
%TO.N,Net-(U10-PA10)*%
X54400000Y-107720000D03*
%TO.N,Net-(U10-PA9)*%
X53920000Y-108360000D03*
%TO.N,Net-(Q36-G)*%
X52949500Y-59600500D03*
X53049458Y-61500149D03*
%TO.N,Net-(Q37-G)*%
X81046648Y-60046148D03*
X81000000Y-57000500D03*
%TD*%
D48*
%TO.N,GND*%
X96300000Y-51887500D02*
X95612500Y-51887500D01*
X86300000Y-55100000D02*
X86900000Y-55700000D01*
X25000000Y-111200000D02*
X24300000Y-110500000D01*
X26637500Y-111200000D02*
X26637500Y-112750000D01*
X27724500Y-106400000D02*
X27624500Y-106500000D01*
X86900000Y-55700000D02*
X88574999Y-55700000D01*
X42937500Y-68237500D02*
X41325000Y-66625000D01*
X36760000Y-115687500D02*
X36780000Y-115707500D01*
X41325000Y-66625000D02*
X41325000Y-65287500D01*
X85400000Y-54462500D02*
X85662500Y-54462500D01*
X47124499Y-53998634D02*
X47135865Y-54010000D01*
X21600000Y-107000000D02*
X21600000Y-104475000D01*
X34292500Y-112919011D02*
X34484968Y-112726543D01*
X46400000Y-69437500D02*
X46100000Y-69437500D01*
X83800000Y-54462500D02*
X85400000Y-54462500D01*
X55850000Y-71437500D02*
X55850000Y-73562500D01*
X26637500Y-114250000D02*
X26637500Y-112750000D01*
X24300000Y-110500000D02*
X24300000Y-109325000D01*
X55850000Y-73562500D02*
X55812500Y-73600000D01*
X24300000Y-109325000D02*
X24275000Y-109300000D01*
X36054343Y-70408157D02*
X36057436Y-70408157D01*
X42587500Y-63003846D02*
X42195673Y-63395673D01*
X34292500Y-113705000D02*
X34292500Y-112919011D01*
X37350000Y-65337500D02*
X37387500Y-65300000D01*
X28362500Y-106400000D02*
X27724500Y-106400000D01*
X26637500Y-111200000D02*
X25000000Y-111200000D01*
X21600000Y-109000000D02*
X21600000Y-107000000D01*
X37350000Y-67662500D02*
X37350000Y-65337500D01*
X46100000Y-69437500D02*
X45581250Y-68918750D01*
X33657500Y-108505000D02*
X33657500Y-109407500D01*
X35862500Y-70600000D02*
X33537500Y-70600000D01*
X98212500Y-63900000D02*
X98212500Y-64362000D01*
X98212500Y-64362000D02*
X98650500Y-64800000D01*
X55850000Y-71437500D02*
X55850000Y-71012500D01*
X33537500Y-70600000D02*
X33100000Y-70162500D01*
X35030000Y-115687500D02*
X34402500Y-115060000D01*
X45242500Y-52940000D02*
X46065865Y-52940000D01*
X55850000Y-71012500D02*
X56462500Y-70400000D01*
X88574999Y-55700000D02*
X89275000Y-56400001D01*
X37387500Y-65300000D02*
X36549500Y-65300000D01*
X44900000Y-68237500D02*
X42937500Y-68237500D01*
X36780000Y-115707500D02*
X38405000Y-115707500D01*
X44900000Y-68237500D02*
X45581250Y-68918750D01*
X34402500Y-113815000D02*
X34292500Y-113705000D01*
X34402500Y-115060000D02*
X34402500Y-113815000D01*
X35030000Y-115687500D02*
X36760000Y-115687500D01*
X47135865Y-54010000D02*
X47140000Y-54010000D01*
X95612500Y-51887500D02*
X95200000Y-52300000D01*
X21600000Y-109000000D02*
X21600000Y-111525000D01*
X42587500Y-62500000D02*
X42587500Y-63003846D01*
X35862500Y-70600000D02*
X36054343Y-70408157D01*
X38405000Y-115707500D02*
X38770000Y-115342500D01*
X33657500Y-109407500D02*
X33750000Y-109500000D01*
X36549500Y-65300000D02*
X36400000Y-65150500D01*
X46065865Y-52940000D02*
X47124499Y-53998634D01*
X89275000Y-56400001D02*
X89275000Y-57212500D01*
X85662500Y-54462500D02*
X86300000Y-55100000D01*
%TO.N,/Battery Pack/PACK*%
X93300000Y-57487000D02*
X94500000Y-58687000D01*
X93300000Y-55062500D02*
X93300000Y-57487000D01*
X94500000Y-58687000D02*
X94600000Y-58687000D01*
%TO.N,/5V_USB*%
X28412500Y-102285424D02*
X24000000Y-97872924D01*
X24000000Y-97337500D02*
X29162500Y-97337500D01*
X36780000Y-117432500D02*
X35050000Y-117432500D01*
X38770000Y-117417500D02*
X36795000Y-117417500D01*
X21750000Y-97337500D02*
X24000000Y-97337500D01*
X33657500Y-114930000D02*
X33657500Y-116039926D01*
X33657500Y-113705000D02*
X33657500Y-114930000D01*
X33657463Y-116039963D02*
X35030000Y-117412500D01*
X24000000Y-97872924D02*
X24000000Y-97337500D01*
X35050000Y-117432500D02*
X35030000Y-117412500D01*
X36795000Y-117417500D02*
X36780000Y-117432500D01*
X28412500Y-104750000D02*
X28412500Y-102285424D01*
X29162500Y-97337500D02*
X31500000Y-95000000D01*
X33657500Y-116039926D02*
X33657463Y-116039963D01*
%TO.N,/3V3*%
X79275652Y-115000000D02*
X79275652Y-115926424D01*
X77750000Y-114375000D02*
X77750000Y-113850000D01*
X80250000Y-114900000D02*
X80150000Y-115000000D01*
X75050000Y-113179131D02*
X75050000Y-114375000D01*
X79275652Y-115926424D02*
X78227076Y-116975000D01*
X78227076Y-116975000D02*
X77272924Y-116975000D01*
X75517744Y-112711387D02*
X75050000Y-113179131D01*
X34700000Y-104087500D02*
X36400000Y-104087500D01*
X76611387Y-112711387D02*
X75517744Y-112711387D01*
X76950000Y-116652076D02*
X76950000Y-115175000D01*
X33000000Y-104087500D02*
X33750000Y-104087500D01*
X77750000Y-113850000D02*
X76611387Y-112711387D01*
X80250000Y-114375000D02*
X80250000Y-114900000D01*
X77272924Y-116975000D02*
X76950000Y-116652076D01*
X80250000Y-113890000D02*
X80060000Y-113700000D01*
X34700000Y-104087500D02*
X33750000Y-104087500D01*
X80250000Y-114375000D02*
X80250000Y-113890000D01*
X76950000Y-115175000D02*
X77750000Y-114375000D01*
X31300000Y-104087500D02*
X33000000Y-104087500D01*
X80150000Y-115000000D02*
X79275652Y-115000000D01*
%TO.N,/Battery Pack/CELL4_MINUS*%
X37956250Y-56693750D02*
X37956250Y-52943750D01*
X38762500Y-57500000D02*
X37956250Y-56693750D01*
%TO.N,/Battery Pack/CELL3_MINUS*%
X99000000Y-61100000D02*
X99100000Y-61200000D01*
X95737500Y-61100000D02*
X99000000Y-61100000D01*
%TO.N,/Battery Pack/CELL2_MINUS*%
X38762500Y-61700000D02*
X38762500Y-61300000D01*
X38762500Y-61300000D02*
X39062500Y-61000000D01*
D49*
%TO.N,Net-(D3-K)*%
X40870000Y-33030000D02*
X40870000Y-38110000D01*
D50*
%TO.N,Net-(U2-SW)*%
X38250500Y-81000000D02*
X40300000Y-81000000D01*
X40300000Y-81000000D02*
X40800000Y-80500000D01*
D49*
%TO.N,Net-(J6-Pin_1)*%
X40870000Y-28970000D02*
X40870000Y-23890000D01*
X40900000Y-29000000D02*
X40870000Y-28970000D01*
X53000000Y-29000000D02*
X40900000Y-29000000D01*
D48*
%TO.N,/MCU/UART_USB_RX*%
X45742076Y-111265000D02*
X47210000Y-109797076D01*
X47210000Y-108572500D02*
X46297500Y-107660000D01*
X47210000Y-109797076D02*
X47210000Y-108572500D01*
X36400000Y-105912500D02*
X36400000Y-108302500D01*
X43500000Y-111265000D02*
X45742076Y-111265000D01*
X36400000Y-108302500D02*
X38760000Y-110662500D01*
X38760000Y-110662500D02*
X42897500Y-110662500D01*
X36400000Y-108302500D02*
X36197500Y-108505000D01*
X42897500Y-110662500D02*
X43500000Y-111265000D01*
%TO.N,/MCU/UART_USB_TX*%
X45562500Y-108725000D02*
X45837500Y-109000000D01*
X38307600Y-107250000D02*
X39782600Y-108725000D01*
X44195000Y-109420000D02*
X43500000Y-108725000D01*
X33000000Y-105912500D02*
X34292500Y-107205000D01*
X46297500Y-109420000D02*
X44195000Y-109420000D01*
X39782600Y-108725000D02*
X43500000Y-108725000D01*
X38307600Y-107250000D02*
X36974500Y-107250000D01*
X34292500Y-107205000D02*
X34292500Y-108505000D01*
%TO.N,/MCU/SCL*%
X77035000Y-125642500D02*
X79160000Y-123517500D01*
X62392500Y-123517500D02*
X74910000Y-123517500D01*
X107500000Y-89673833D02*
X107500000Y-87250000D01*
X93767500Y-125642500D02*
X93767500Y-121757500D01*
X60748815Y-105388815D02*
X60325000Y-105812630D01*
X91642500Y-123517500D02*
X93767500Y-125642500D01*
X74910000Y-123517500D02*
X77035000Y-125642500D01*
X58142500Y-123517500D02*
X60267500Y-125642500D01*
X60267500Y-125642500D02*
X62392500Y-123517500D01*
X60325000Y-105812630D02*
X60325000Y-121450000D01*
X106500000Y-90673833D02*
X107500000Y-89673833D01*
X45392500Y-123517500D02*
X58142500Y-123517500D01*
X106500000Y-108000000D02*
X106500000Y-90673833D01*
X93767500Y-121757500D02*
X96775000Y-118750000D01*
X79160000Y-123517500D02*
X91642500Y-123517500D01*
X60325000Y-121450000D02*
X62392500Y-123517500D01*
X43267500Y-125642500D02*
X45392500Y-123517500D01*
%TO.N,/MCU/SDA*%
X63767500Y-125642500D02*
X65892500Y-127767500D01*
X78410000Y-127767500D02*
X80535000Y-125642500D01*
X61500000Y-105450097D02*
X60775000Y-106175097D01*
X110341393Y-90408607D02*
X110341393Y-88500000D01*
X60775000Y-119775000D02*
X63750000Y-122750000D01*
X95142500Y-127767500D02*
X97267500Y-125642500D01*
X49125000Y-128000000D02*
X61410000Y-128000000D01*
X110341393Y-88500000D02*
X110250000Y-88408607D01*
X46767500Y-125642500D02*
X49125000Y-128000000D01*
X107506619Y-93243381D02*
X110341393Y-90408607D01*
X61500000Y-105250000D02*
X61500000Y-105450097D01*
X82660000Y-127767500D02*
X95142500Y-127767500D01*
X61410000Y-128000000D02*
X63767500Y-125642500D01*
X110250000Y-88408607D02*
X110250000Y-88000000D01*
X60775000Y-106175097D02*
X60775000Y-119775000D01*
X107506619Y-107982021D02*
X107506619Y-93243381D01*
X110250000Y-88000000D02*
X110341393Y-87941795D01*
X80535000Y-125642500D02*
X82660000Y-127767500D01*
X65892500Y-127767500D02*
X78410000Y-127767500D01*
%TO.N,/MCU/SWDIO*%
X69544695Y-106930000D02*
X62900000Y-106930000D01*
X69724695Y-106750000D02*
X69544695Y-106930000D01*
X72394695Y-104080000D02*
X86730000Y-104080000D01*
X69724695Y-106750000D02*
X72394695Y-104080000D01*
%TO.N,/MCU/SWCLK*%
X74298299Y-101540000D02*
X86730000Y-101540000D01*
X62755500Y-106330000D02*
X69508299Y-106330000D01*
X69508299Y-106330000D02*
X74298299Y-101540000D01*
%TO.N,/5V*%
X49987500Y-73600000D02*
X49987500Y-72350000D01*
X49987500Y-72350000D02*
X50900000Y-71437500D01*
X50900000Y-71437500D02*
X49991102Y-72346398D01*
%TO.N,Net-(U5-USBDM)*%
X28362500Y-112750000D02*
X30797500Y-112750000D01*
X27500000Y-108912500D02*
X27500000Y-111887500D01*
X27500000Y-111887500D02*
X28362500Y-112750000D01*
X30797500Y-112750000D02*
X31752500Y-113705000D01*
X28412500Y-108000000D02*
X27500000Y-108912500D01*
%TO.N,Net-(U5-USBDP)*%
X28412500Y-111150000D02*
X28362500Y-111200000D01*
X30657500Y-109600000D02*
X31752500Y-108505000D01*
X28412500Y-109600000D02*
X28412500Y-111150000D01*
X28412500Y-109600000D02*
X30657500Y-109600000D01*
%TO.N,/Cell Measurement/CELL3*%
X42625000Y-69512500D02*
X42625000Y-70625000D01*
X59196551Y-87583987D02*
X59196551Y-98663104D01*
X59196551Y-98663104D02*
X58470000Y-99389655D01*
X42625000Y-70625000D02*
X42800000Y-70800000D01*
X42625000Y-69512500D02*
X41975000Y-69512500D01*
X59446051Y-87334487D02*
X59196551Y-87583987D01*
X59676000Y-85590000D02*
X59446051Y-85819949D01*
X58360155Y-106749500D02*
X58070000Y-107039655D01*
X58470000Y-106749500D02*
X58360155Y-106749500D01*
X59446051Y-85819949D02*
X59446051Y-87334487D01*
X58070000Y-107039655D02*
X58070000Y-107730000D01*
X58070000Y-107730000D02*
X58096051Y-107703949D01*
X58470000Y-99389655D02*
X58470000Y-106749500D01*
%TO.N,/Cell Measurement/CELL4*%
X59370000Y-99762447D02*
X61696051Y-97436396D01*
X62175000Y-68525000D02*
X72386396Y-58313604D01*
X61696051Y-88392248D02*
X62175000Y-87913299D01*
X61696051Y-97436396D02*
X61696051Y-88392248D01*
X58573767Y-108234457D02*
X59370000Y-107438224D01*
X58573767Y-109046233D02*
X58573767Y-108234457D01*
X62175000Y-87913299D02*
X62175000Y-68525000D01*
X85877076Y-53600000D02*
X86402076Y-54125000D01*
X78736528Y-58186396D02*
X83322924Y-53600000D01*
X83322924Y-53600000D02*
X85877076Y-53600000D01*
X87649999Y-54125000D02*
X87975000Y-53799999D01*
X72386396Y-58186396D02*
X78736528Y-58186396D01*
X88625000Y-52987500D02*
X87975000Y-52987500D01*
X86402076Y-54125000D02*
X87649999Y-54125000D01*
X59370000Y-107438224D02*
X59370000Y-99762447D01*
X87975000Y-53799999D02*
X87975000Y-52987500D01*
X72386396Y-58313604D02*
X72386396Y-58186396D01*
%TO.N,/Cell Measurement/CELL1*%
X58920000Y-107075051D02*
X58670551Y-107324500D01*
X43275000Y-65287500D02*
X43275000Y-67438000D01*
X60250500Y-86793642D02*
X59896051Y-87148091D01*
X59646551Y-98849500D02*
X58920000Y-99576051D01*
X59896051Y-88640000D02*
X59646551Y-88889500D01*
X59896051Y-87148091D02*
X59896051Y-88640000D01*
X43275000Y-67438000D02*
X43500000Y-67663000D01*
X58670551Y-107324500D02*
X58546051Y-107200000D01*
X42625000Y-65287500D02*
X43275000Y-65287500D01*
X59646551Y-88889500D02*
X59646551Y-98849500D01*
X58920000Y-99576051D02*
X58920000Y-107075051D01*
%TO.N,/Cell Measurement/CELL2*%
X83916352Y-60621148D02*
X87325000Y-57212500D01*
X70715248Y-60621148D02*
X83916352Y-60621148D01*
X62625000Y-68711396D02*
X70715248Y-60621148D01*
X62146051Y-88578644D02*
X62625000Y-88099695D01*
X59675500Y-108385968D02*
X59820000Y-108241468D01*
X59820000Y-99948843D02*
X62146051Y-97622792D01*
X59820000Y-108241468D02*
X59820000Y-99948843D01*
X87975000Y-57212500D02*
X87325000Y-57212500D01*
X62625000Y-88099695D02*
X62625000Y-68711396D01*
X62146051Y-97622792D02*
X62146051Y-88578644D01*
%TO.N,Net-(J12-VCC)*%
X26587500Y-106350000D02*
X26637500Y-106400000D01*
X26337500Y-106700000D02*
X24275000Y-106700000D01*
X26637500Y-106400000D02*
X26337500Y-106700000D01*
X26587500Y-104750000D02*
X26587500Y-106350000D01*
%TO.N,Net-(U5-3V3OUT)*%
X34927500Y-108505000D02*
X34927500Y-110985000D01*
X32387500Y-113705000D02*
X33022500Y-113705000D01*
X33022500Y-112890000D02*
X33022500Y-113705000D01*
X32312500Y-114630000D02*
X32387500Y-114555000D01*
X32387500Y-114555000D02*
X32387500Y-113705000D01*
X34927500Y-110985000D02*
X33022500Y-112890000D01*
X28742500Y-114630000D02*
X32312500Y-114630000D01*
X28362500Y-114250000D02*
X28742500Y-114630000D01*
%TO.N,Net-(J12-D-)*%
X26587500Y-108000000D02*
X25937500Y-107350000D01*
X25937500Y-107350000D02*
X24275000Y-107350000D01*
%TO.N,Net-(J12-D+)*%
X26587500Y-109387500D02*
X25200000Y-108000000D01*
X26587500Y-109600000D02*
X26587500Y-109387500D01*
X25200000Y-108000000D02*
X24275000Y-108000000D01*
%TO.N,/CHARGE*%
X59660000Y-69909569D02*
X59660000Y-84123604D01*
X55263534Y-65513103D02*
X59660000Y-69909569D01*
X55600361Y-64542854D02*
X55263534Y-64879681D01*
X72300000Y-57000500D02*
X64757646Y-64542854D01*
X72300000Y-57000500D02*
X72299500Y-57000500D01*
X58296551Y-85357809D02*
X58296551Y-89953449D01*
X58296551Y-89953449D02*
X52000000Y-96250000D01*
X55263534Y-64879681D02*
X55263534Y-65513103D01*
X64757646Y-64542854D02*
X55600361Y-64542854D01*
X59272558Y-84381802D02*
X58296551Y-85357809D01*
X59401802Y-84381802D02*
X59272558Y-84381802D01*
X59660000Y-84123604D02*
X59401802Y-84381802D01*
%TO.N,/DISCHARGE*%
X54813534Y-65699499D02*
X59190000Y-70075965D01*
X59190000Y-83827964D02*
X57846551Y-85171413D01*
X60825000Y-52425000D02*
X60825000Y-58681819D01*
X60200000Y-51800000D02*
X60825000Y-52425000D01*
X59190000Y-70075965D02*
X59190000Y-83827964D01*
X54813534Y-64693285D02*
X54813534Y-65699499D01*
X57846551Y-85171413D02*
X57846551Y-87863449D01*
X57846551Y-87863449D02*
X52000000Y-93710000D01*
X60825000Y-58681819D02*
X54813534Y-64693285D01*
%TO.N,/EN_CELL_BALANCING*%
X64552327Y-103720000D02*
X62180500Y-106091827D01*
X62565500Y-107675500D02*
X63904500Y-107675500D01*
X62180500Y-106091827D02*
X62180500Y-107290500D01*
X66010000Y-103720000D02*
X64552327Y-103720000D01*
X62180500Y-107290500D02*
X62565500Y-107675500D01*
%TO.N,/CELL_BALANCING_A0*%
X60096551Y-96074931D02*
X60096551Y-97494612D01*
X56086449Y-65523550D02*
X56086449Y-65699622D01*
X92450200Y-97724800D02*
X65100700Y-97724800D01*
X60825000Y-87354111D02*
X60346051Y-87833060D01*
X60825000Y-70438173D02*
X60825000Y-87354111D01*
X65100700Y-97724800D02*
X62645500Y-100180000D01*
X95250000Y-94925000D02*
X92450200Y-97724800D01*
X60346051Y-87833060D02*
X60346051Y-95825431D01*
X60096551Y-97494612D02*
X60401845Y-97799906D01*
X56086449Y-65699622D02*
X60825000Y-70438173D01*
X60346051Y-95825431D02*
X60096551Y-96074931D01*
%TO.N,/CELL_BALANCING_A1*%
X56954646Y-65755353D02*
X56954646Y-65931423D01*
X64351878Y-100643750D02*
X63253923Y-101741705D01*
X72135850Y-100643750D02*
X64351878Y-100643750D01*
X60796051Y-96011827D02*
X60546551Y-96261327D01*
X61275000Y-87540507D02*
X60796051Y-88019456D01*
X60990000Y-97181122D02*
X60546551Y-96737673D01*
X60990000Y-97220000D02*
X60990000Y-97181122D01*
X60546551Y-96261327D02*
X60546551Y-96737673D01*
X95250000Y-97465000D02*
X92450200Y-100264800D01*
X60796051Y-88019456D02*
X60796051Y-96011827D01*
X92450200Y-100264800D02*
X72514800Y-100264800D01*
X61275000Y-70251777D02*
X61275000Y-87540507D01*
X56954646Y-65931423D02*
X61275000Y-70251777D01*
X72514800Y-100264800D02*
X72135850Y-100643750D01*
%TO.N,/Battery Pack/CHARGE_AVAILABLE*%
X61246051Y-88205852D02*
X61725000Y-87726903D01*
X61725000Y-68211396D02*
X72360896Y-57575500D01*
X61246051Y-96375000D02*
X61246051Y-88205852D01*
X72624500Y-57575500D02*
X73300000Y-56900000D01*
X72360896Y-57575500D02*
X72624500Y-57575500D01*
X61725000Y-87726903D02*
X61725000Y-68211396D01*
X61121551Y-96499500D02*
X61246051Y-96375000D01*
X73300000Y-56900000D02*
X74400000Y-56900000D01*
%TO.N,/CELL_BALANCING_STROBE*%
X63075000Y-70024500D02*
X63075000Y-88286091D01*
X62596051Y-88765040D02*
X62596051Y-97985259D01*
X95700000Y-82088000D02*
X97600000Y-83988000D01*
X62596051Y-97985259D02*
X62159664Y-98421646D01*
X63075000Y-88286091D02*
X62596051Y-88765040D01*
X63349500Y-69750000D02*
X63075000Y-70024500D01*
X97600000Y-83988000D02*
X97600000Y-88799500D01*
%TO.N,/18V*%
X35400000Y-67787500D02*
X36512500Y-68900000D01*
X36512500Y-68900000D02*
X37300000Y-68900000D01*
%TO.N,Net-(Q13-D)*%
X41477500Y-56550000D02*
X43407500Y-54620000D01*
X40637500Y-56550000D02*
X41477500Y-56550000D01*
D50*
%TO.N,Net-(J9-Pin_1)*%
X42300000Y-94200000D02*
X42300000Y-94145000D01*
X42300000Y-94145000D02*
X39695000Y-91540000D01*
D48*
%TO.N,/Cell Balancing/CHARGE_CELL4*%
X41900000Y-45500000D02*
X45025000Y-42375000D01*
X95912142Y-42375000D02*
X99150500Y-45613358D01*
X45025000Y-42375000D02*
X95912142Y-42375000D01*
%TO.N,/Cell Balancing/CHARGE_CELL3*%
X51575000Y-42825000D02*
X95425000Y-42825000D01*
X98800000Y-46200000D02*
X98550000Y-45950000D01*
X39300000Y-55100000D02*
X51575000Y-42825000D01*
X95425000Y-42825000D02*
X98550000Y-45950000D01*
X98800000Y-60300000D02*
X98800000Y-46200000D01*
D49*
%TO.N,Net-(D4-A)*%
X82870000Y-33030000D02*
X82870000Y-38110000D01*
D48*
%TO.N,/Cell Balancing/CHARGE_CELL2*%
X102125500Y-80400000D02*
X102125500Y-70342728D01*
X102125500Y-70342728D02*
X101950000Y-70167228D01*
X47400000Y-61400000D02*
X48121398Y-62121398D01*
X47400000Y-60000000D02*
X47400000Y-61400000D01*
%TO.N,Net-(D17-K)*%
X22375000Y-103250000D02*
X21750000Y-102625000D01*
X22750000Y-103250000D02*
X22375000Y-103250000D01*
X34927500Y-113097184D02*
X35059968Y-112964716D01*
X35059968Y-112964716D02*
X35059968Y-112309968D01*
X35059968Y-112309968D02*
X34750000Y-112000000D01*
X34927500Y-113705000D02*
X34927500Y-113097184D01*
%TO.N,Net-(D17-A)*%
X21750000Y-99162500D02*
X21750000Y-100875000D01*
%TO.N,Net-(D18-K)*%
X28852076Y-105550000D02*
X30882076Y-107580000D01*
X25875000Y-102625000D02*
X27600000Y-104350000D01*
X30882076Y-107580000D02*
X32312500Y-107580000D01*
X32312500Y-107580000D02*
X32387500Y-107655000D01*
X27922924Y-105550000D02*
X28852076Y-105550000D01*
X27600000Y-104350000D02*
X27600000Y-105227076D01*
X27600000Y-105227076D02*
X27922924Y-105550000D01*
X32387500Y-107655000D02*
X32387500Y-108505000D01*
X24000000Y-102625000D02*
X25875000Y-102625000D01*
%TO.N,Net-(D18-A)*%
X24000000Y-99162500D02*
X24000000Y-100875000D01*
%TO.N,Net-(D19-K)*%
X75850000Y-113468338D02*
X75821662Y-113440000D01*
X75821662Y-113440000D02*
X75820000Y-113440000D01*
X75050000Y-116125000D02*
X75850000Y-115325000D01*
X75820000Y-113438338D02*
X75818049Y-113436387D01*
X75820000Y-113440000D02*
X75820000Y-113438338D01*
X75850000Y-115325000D02*
X75850000Y-113468338D01*
%TO.N,Net-(D20-K)*%
X78825652Y-115049348D02*
X78825652Y-111275500D01*
X77750000Y-116125000D02*
X78825652Y-115049348D01*
%TO.N,Net-(D21-K)*%
X82250000Y-114125000D02*
X82250000Y-113330000D01*
X82250000Y-113330000D02*
X82240000Y-113320000D01*
X82240000Y-113320000D02*
X82250000Y-113310000D01*
X82250000Y-113310000D02*
X82250000Y-113250000D01*
X80250000Y-116125000D02*
X82250000Y-114125000D01*
D49*
%TO.N,Net-(J7-Pin_1)*%
X82840000Y-29000000D02*
X82870000Y-28970000D01*
X71000000Y-29000000D02*
X82840000Y-29000000D01*
X82870000Y-28970000D02*
X82870000Y-23890000D01*
D48*
%TO.N,/Cell Balancing/CHARGE_CELL1*%
X44752938Y-65247562D02*
X44950500Y-65050000D01*
X102700000Y-83100000D02*
X102700000Y-80900000D01*
X44752938Y-66740769D02*
X44752938Y-65247562D01*
D50*
%TO.N,Net-(Q24-S)*%
X45900000Y-66912500D02*
X47093750Y-68106250D01*
X100950501Y-69000000D02*
X100950501Y-70000000D01*
X100100000Y-45300000D02*
X100100000Y-68149499D01*
X100950501Y-70000000D02*
X100950501Y-82786999D01*
X45900000Y-58700000D02*
X45900000Y-66912500D01*
X100100000Y-68149499D02*
X100950501Y-69000000D01*
X100950501Y-82786999D02*
X99800000Y-83937500D01*
D48*
%TO.N,Net-(Q10-D)*%
X51850000Y-73562500D02*
X51812500Y-73600000D01*
X54900000Y-69562500D02*
X51850000Y-69562500D01*
X51850000Y-69562500D02*
X51850000Y-73562500D01*
%TO.N,Net-(Q11-D)*%
X49950000Y-69562500D02*
X48837500Y-68450000D01*
X48837500Y-68450000D02*
X48750000Y-68450000D01*
X87325000Y-52987500D02*
X85650000Y-52987500D01*
X82287500Y-51225000D02*
X83800000Y-52737500D01*
X85400000Y-52737500D02*
X83800000Y-52737500D01*
X85650000Y-52987500D02*
X85400000Y-52737500D01*
X48750000Y-68450000D02*
X46400000Y-70800000D01*
X43275000Y-69512500D02*
X44450000Y-69512500D01*
X45200000Y-69962500D02*
X46400000Y-71162500D01*
X59961827Y-51225000D02*
X82287500Y-51225000D01*
X44900000Y-69962500D02*
X45200000Y-69962500D01*
X56025000Y-55161827D02*
X59961827Y-51225000D01*
X48750000Y-68450000D02*
X56025000Y-61175000D01*
X46400000Y-70800000D02*
X46400000Y-71162500D01*
X56025000Y-61175000D02*
X56025000Y-55161827D01*
X44450000Y-69512500D02*
X44900000Y-69962500D01*
%TO.N,Net-(Q12-D)*%
X94250000Y-56937500D02*
X95925000Y-56937500D01*
X95925000Y-56937500D02*
X96300000Y-57312500D01*
%TO.N,Net-(Q14-D)*%
X93862500Y-62050000D02*
X93862500Y-62825000D01*
X93862500Y-62825000D02*
X92787500Y-63900000D01*
%TO.N,/EN_CELL_MEASUREMENT*%
X53987500Y-73600000D02*
X55047500Y-74660000D01*
X58746551Y-98210000D02*
X58746551Y-98476708D01*
X59500000Y-84874847D02*
X59415909Y-84874847D01*
X58020000Y-105480000D02*
X56810000Y-106690000D01*
X53987500Y-71475000D02*
X53950000Y-71437500D01*
X55047500Y-74660000D02*
X56490000Y-74660000D01*
X58020000Y-99203259D02*
X58020000Y-105480000D01*
X40350000Y-67662500D02*
X39250000Y-67662500D01*
X46225000Y-72025000D02*
X45922924Y-72025000D01*
X45297924Y-71400000D02*
X41796188Y-71400000D01*
X53187500Y-74400000D02*
X48600000Y-74400000D01*
X48600000Y-74400000D02*
X46225000Y-72025000D01*
X40350000Y-69953812D02*
X40350000Y-67662500D01*
X58746551Y-85544205D02*
X58746551Y-87730000D01*
X59545153Y-84874847D02*
X59500000Y-84874847D01*
X45922924Y-72025000D02*
X45297924Y-71400000D01*
X58746551Y-98476708D02*
X58151629Y-99071630D01*
X41796188Y-71400000D02*
X40350000Y-69953812D01*
X53987500Y-73600000D02*
X53987500Y-71475000D01*
X39212500Y-65300000D02*
X39212500Y-67625000D01*
X60250500Y-78410000D02*
X60250500Y-84169500D01*
X58151629Y-99071630D02*
X58020000Y-99203259D01*
X58746551Y-87730000D02*
X58746551Y-98210000D01*
X59415909Y-84874847D02*
X58746551Y-85544205D01*
X53987500Y-73600000D02*
X53187500Y-74400000D01*
X60250500Y-84169500D02*
X59545153Y-84874847D01*
X39212500Y-67625000D02*
X39250000Y-67662500D01*
X56810000Y-106690000D02*
X55420000Y-106690000D01*
%TO.N,/Cell Balancing/DISCHARGE*%
X103275000Y-83338173D02*
X103275000Y-51475000D01*
X99458274Y-84762500D02*
X101850673Y-84762500D01*
X103275000Y-51475000D02*
X102100000Y-50300000D01*
X101850673Y-84762500D02*
X103275000Y-83338173D01*
X98900000Y-84204226D02*
X99458274Y-84762500D01*
X98900000Y-82988000D02*
X98900000Y-84204226D01*
%TO.N,Net-(Q12-G)*%
X40637500Y-58450000D02*
X42475500Y-58450000D01*
X97100000Y-57802076D02*
X94752076Y-60150000D01*
X38225000Y-69612500D02*
X38300000Y-69537500D01*
X42475500Y-58450000D02*
X42825500Y-58100000D01*
X40599092Y-58450000D02*
X40637500Y-58450000D01*
X35400000Y-69612500D02*
X38225000Y-69612500D01*
X37700000Y-62050908D02*
X37700000Y-61349092D01*
X44000000Y-58100000D02*
X51325000Y-50775000D01*
X92350000Y-56937500D02*
X92350000Y-58637500D01*
X38300000Y-69537500D02*
X38300000Y-62650908D01*
X51325000Y-50775000D02*
X88478812Y-50775000D01*
X38300000Y-62650908D02*
X38299092Y-62650000D01*
X40637500Y-62650000D02*
X38299092Y-62650000D01*
X88478812Y-50775000D02*
X90603812Y-52900000D01*
X37700000Y-61349092D02*
X40599092Y-58450000D01*
X97100000Y-53222924D02*
X97100000Y-57802076D01*
X92350000Y-58637500D02*
X93862500Y-60150000D01*
X38299092Y-62650000D02*
X37700000Y-62050908D01*
X96777076Y-52900000D02*
X97100000Y-53222924D01*
X94752076Y-60150000D02*
X93862500Y-60150000D01*
X90603812Y-52900000D02*
X96777076Y-52900000D01*
%TO.N,Net-(Q15-D)*%
X42537500Y-60750000D02*
X42587500Y-60800000D01*
X40637500Y-60750000D02*
X42537500Y-60750000D01*
%TO.N,Net-(Q34-G)*%
X98450000Y-84691899D02*
X99386971Y-85628870D01*
X96800000Y-82088000D02*
X98450000Y-83738000D01*
X99386971Y-85628870D02*
X99528870Y-85628870D01*
X98450000Y-83738000D02*
X98450000Y-84691899D01*
%TO.N,Net-(U5-~{RTS})*%
X34700000Y-105912500D02*
X35562500Y-106775000D01*
X35562500Y-106775000D02*
X35562500Y-108505000D01*
%TO.N,Net-(U5-~{CTS})*%
X33022500Y-107635000D02*
X33022500Y-108505000D01*
X31300000Y-105912500D02*
X33022500Y-107635000D01*
%TO.N,Net-(U10-PB11)*%
X62395000Y-117425000D02*
X81075000Y-117425000D01*
X61890000Y-116920000D02*
X62395000Y-117425000D01*
X101115500Y-103910000D02*
X94590000Y-103910000D01*
X93375000Y-105125000D02*
X93250000Y-105250000D01*
X101115500Y-103910000D02*
X103691000Y-103910000D01*
X81075000Y-117425000D02*
X93375000Y-105125000D01*
X103691000Y-103910000D02*
X105925500Y-101675500D01*
X94590000Y-103910000D02*
X93375000Y-105125000D01*
%TO.N,Net-(U12B-+)*%
X45232500Y-54620000D02*
X45232500Y-56037500D01*
X43400000Y-57870000D02*
X43400000Y-61277076D01*
X41775000Y-62977076D02*
X40800000Y-63952076D01*
X43400000Y-61277076D02*
X43077076Y-61600000D01*
X41775000Y-61922924D02*
X41775000Y-62977076D01*
X43552500Y-52940000D02*
X45232500Y-54620000D01*
X43077076Y-61600000D02*
X42097924Y-61600000D01*
X45232500Y-56037500D02*
X43400000Y-57870000D01*
X40800000Y-68987500D02*
X41325000Y-69512500D01*
X40800000Y-63952076D02*
X40800000Y-68987500D01*
X43417500Y-52940000D02*
X43552500Y-52940000D01*
X42097924Y-61600000D02*
X41775000Y-61922924D01*
%TO.N,Net-(U12A-+)*%
X42941827Y-63970673D02*
X42479328Y-63970673D01*
X44412500Y-60800000D02*
X44412500Y-62500000D01*
X44412500Y-62500000D02*
X42941827Y-63970673D01*
X41975000Y-64475001D02*
X41975000Y-65287500D01*
X42479328Y-63970673D02*
X41975000Y-64475001D01*
%TO.N,Net-(U10-PA10)*%
X54400000Y-107720000D02*
X54340000Y-107660000D01*
X54340000Y-107660000D02*
X48122500Y-107660000D01*
%TO.N,Net-(U10-PA9)*%
X52860000Y-109420000D02*
X48122500Y-109420000D01*
X53920000Y-108360000D02*
X52860000Y-109420000D01*
%TO.N,Net-(U11B-+)*%
X96300000Y-53712500D02*
X90000000Y-53712500D01*
X90000000Y-53712500D02*
X89275000Y-52987500D01*
X96300000Y-53712500D02*
X96300000Y-55487500D01*
%TO.N,Net-(U11A-+)*%
X88625000Y-61027076D02*
X92297924Y-64700000D01*
X96387500Y-63900000D02*
X94612500Y-63900000D01*
X93812500Y-64700000D02*
X94612500Y-63900000D01*
X92297924Y-64700000D02*
X93812500Y-64700000D01*
X88625000Y-57212500D02*
X88625000Y-61027076D01*
%TO.N,Net-(Q36-G)*%
X53049458Y-61500149D02*
X53049458Y-59700458D01*
X53049458Y-59700458D02*
X52949500Y-59600500D01*
%TO.N,Net-(Q37-G)*%
X81046648Y-60046148D02*
X81000000Y-59999500D01*
X81000000Y-59999500D02*
X81000000Y-57000500D01*
%TD*%
D51*
X20000000Y-20000000D02*
X120000000Y-20000000D01*
X120000000Y-131000000D01*
X20000000Y-131000000D01*
X20000000Y-20000000D01*
M02*
