%TF.GenerationSoftware,KiCad,Pcbnew,7.0.9-7.0.9~ubuntu23.04.1*%
%TF.CreationDate,2023-12-30T15:02:05+01:00*%
%TF.ProjectId,battery-management-system,62617474-6572-4792-9d6d-616e6167656d,rev?*%
%TF.SameCoordinates,Original*%
%TF.FileFunction,Legend,Top*%
%TF.FilePolarity,Positive*%
%FSLAX46Y46*%
G04 Gerber Fmt 4.6, Leading zero omitted, Abs format (unit mm)*
G04 Created by KiCad (PCBNEW 7.0.9-7.0.9~ubuntu23.04.1) date 2023-12-30 15:02:05*
%MOMM*%
%LPD*%
G01*
G04 APERTURE LIST*
%ADD10C,0.400000*%
%ADD11C,0.150000*%
%ADD12C,0.120000*%
%ADD13C,0.100000*%
%ADD14C,0.203200*%
%ADD15C,0.210000*%
%ADD16C,0.127000*%
%ADD17C,0.200000*%
%TA.AperFunction,Profile*%
%ADD18C,0.100000*%
%TD*%
G04 APERTURE END LIST*
D10*
X23156819Y-84903985D02*
X23252057Y-84618271D01*
X23252057Y-84618271D02*
X23347295Y-84523033D01*
X23347295Y-84523033D02*
X23537771Y-84427795D01*
X23537771Y-84427795D02*
X23823485Y-84427795D01*
X23823485Y-84427795D02*
X24013961Y-84523033D01*
X24013961Y-84523033D02*
X24109200Y-84618271D01*
X24109200Y-84618271D02*
X24204438Y-84808747D01*
X24204438Y-84808747D02*
X24204438Y-85570652D01*
X24204438Y-85570652D02*
X22204438Y-85570652D01*
X22204438Y-85570652D02*
X22204438Y-84903985D01*
X22204438Y-84903985D02*
X22299676Y-84713509D01*
X22299676Y-84713509D02*
X22394914Y-84618271D01*
X22394914Y-84618271D02*
X22585390Y-84523033D01*
X22585390Y-84523033D02*
X22775866Y-84523033D01*
X22775866Y-84523033D02*
X22966342Y-84618271D01*
X22966342Y-84618271D02*
X23061580Y-84713509D01*
X23061580Y-84713509D02*
X23156819Y-84903985D01*
X23156819Y-84903985D02*
X23156819Y-85570652D01*
X24204438Y-83570652D02*
X22204438Y-83570652D01*
X22204438Y-83570652D02*
X23633009Y-82903985D01*
X23633009Y-82903985D02*
X22204438Y-82237319D01*
X22204438Y-82237319D02*
X24204438Y-82237319D01*
X24109200Y-81380176D02*
X24204438Y-81094462D01*
X24204438Y-81094462D02*
X24204438Y-80618271D01*
X24204438Y-80618271D02*
X24109200Y-80427795D01*
X24109200Y-80427795D02*
X24013961Y-80332557D01*
X24013961Y-80332557D02*
X23823485Y-80237319D01*
X23823485Y-80237319D02*
X23633009Y-80237319D01*
X23633009Y-80237319D02*
X23442533Y-80332557D01*
X23442533Y-80332557D02*
X23347295Y-80427795D01*
X23347295Y-80427795D02*
X23252057Y-80618271D01*
X23252057Y-80618271D02*
X23156819Y-80999224D01*
X23156819Y-80999224D02*
X23061580Y-81189700D01*
X23061580Y-81189700D02*
X22966342Y-81284938D01*
X22966342Y-81284938D02*
X22775866Y-81380176D01*
X22775866Y-81380176D02*
X22585390Y-81380176D01*
X22585390Y-81380176D02*
X22394914Y-81284938D01*
X22394914Y-81284938D02*
X22299676Y-81189700D01*
X22299676Y-81189700D02*
X22204438Y-80999224D01*
X22204438Y-80999224D02*
X22204438Y-80523033D01*
X22204438Y-80523033D02*
X22299676Y-80237319D01*
X24204438Y-76713509D02*
X23252057Y-77380176D01*
X24204438Y-77856366D02*
X22204438Y-77856366D01*
X22204438Y-77856366D02*
X22204438Y-77094461D01*
X22204438Y-77094461D02*
X22299676Y-76903985D01*
X22299676Y-76903985D02*
X22394914Y-76808747D01*
X22394914Y-76808747D02*
X22585390Y-76713509D01*
X22585390Y-76713509D02*
X22871104Y-76713509D01*
X22871104Y-76713509D02*
X23061580Y-76808747D01*
X23061580Y-76808747D02*
X23156819Y-76903985D01*
X23156819Y-76903985D02*
X23252057Y-77094461D01*
X23252057Y-77094461D02*
X23252057Y-77856366D01*
X22204438Y-75475414D02*
X22204438Y-75284937D01*
X22204438Y-75284937D02*
X22299676Y-75094461D01*
X22299676Y-75094461D02*
X22394914Y-74999223D01*
X22394914Y-74999223D02*
X22585390Y-74903985D01*
X22585390Y-74903985D02*
X22966342Y-74808747D01*
X22966342Y-74808747D02*
X23442533Y-74808747D01*
X23442533Y-74808747D02*
X23823485Y-74903985D01*
X23823485Y-74903985D02*
X24013961Y-74999223D01*
X24013961Y-74999223D02*
X24109200Y-75094461D01*
X24109200Y-75094461D02*
X24204438Y-75284937D01*
X24204438Y-75284937D02*
X24204438Y-75475414D01*
X24204438Y-75475414D02*
X24109200Y-75665890D01*
X24109200Y-75665890D02*
X24013961Y-75761128D01*
X24013961Y-75761128D02*
X23823485Y-75856366D01*
X23823485Y-75856366D02*
X23442533Y-75951604D01*
X23442533Y-75951604D02*
X22966342Y-75951604D01*
X22966342Y-75951604D02*
X22585390Y-75856366D01*
X22585390Y-75856366D02*
X22394914Y-75761128D01*
X22394914Y-75761128D02*
X22299676Y-75665890D01*
X22299676Y-75665890D02*
X22204438Y-75475414D01*
X24204438Y-72903985D02*
X24204438Y-74046842D01*
X24204438Y-73475414D02*
X22204438Y-73475414D01*
X22204438Y-73475414D02*
X22490152Y-73665890D01*
X22490152Y-73665890D02*
X22680628Y-73856366D01*
X22680628Y-73856366D02*
X22775866Y-74046842D01*
D11*
X37448990Y-30966666D02*
X37448990Y-30633333D01*
X36925180Y-30633333D02*
X37925180Y-30633333D01*
X37925180Y-30633333D02*
X37925180Y-31109523D01*
X36925180Y-32014285D02*
X36925180Y-31442857D01*
X36925180Y-31728571D02*
X37925180Y-31728571D01*
X37925180Y-31728571D02*
X37782323Y-31633333D01*
X37782323Y-31633333D02*
X37687085Y-31538095D01*
X37687085Y-31538095D02*
X37639466Y-31442857D01*
X96657142Y-62924819D02*
X96323809Y-62448628D01*
X96085714Y-62924819D02*
X96085714Y-61924819D01*
X96085714Y-61924819D02*
X96466666Y-61924819D01*
X96466666Y-61924819D02*
X96561904Y-61972438D01*
X96561904Y-61972438D02*
X96609523Y-62020057D01*
X96609523Y-62020057D02*
X96657142Y-62115295D01*
X96657142Y-62115295D02*
X96657142Y-62258152D01*
X96657142Y-62258152D02*
X96609523Y-62353390D01*
X96609523Y-62353390D02*
X96561904Y-62401009D01*
X96561904Y-62401009D02*
X96466666Y-62448628D01*
X96466666Y-62448628D02*
X96085714Y-62448628D01*
X97561904Y-61924819D02*
X97085714Y-61924819D01*
X97085714Y-61924819D02*
X97038095Y-62401009D01*
X97038095Y-62401009D02*
X97085714Y-62353390D01*
X97085714Y-62353390D02*
X97180952Y-62305771D01*
X97180952Y-62305771D02*
X97419047Y-62305771D01*
X97419047Y-62305771D02*
X97514285Y-62353390D01*
X97514285Y-62353390D02*
X97561904Y-62401009D01*
X97561904Y-62401009D02*
X97609523Y-62496247D01*
X97609523Y-62496247D02*
X97609523Y-62734342D01*
X97609523Y-62734342D02*
X97561904Y-62829580D01*
X97561904Y-62829580D02*
X97514285Y-62877200D01*
X97514285Y-62877200D02*
X97419047Y-62924819D01*
X97419047Y-62924819D02*
X97180952Y-62924819D01*
X97180952Y-62924819D02*
X97085714Y-62877200D01*
X97085714Y-62877200D02*
X97038095Y-62829580D01*
X98561904Y-62924819D02*
X97990476Y-62924819D01*
X98276190Y-62924819D02*
X98276190Y-61924819D01*
X98276190Y-61924819D02*
X98180952Y-62067676D01*
X98180952Y-62067676D02*
X98085714Y-62162914D01*
X98085714Y-62162914D02*
X97990476Y-62210533D01*
X25554819Y-95692857D02*
X25078628Y-96026190D01*
X25554819Y-96264285D02*
X24554819Y-96264285D01*
X24554819Y-96264285D02*
X24554819Y-95883333D01*
X24554819Y-95883333D02*
X24602438Y-95788095D01*
X24602438Y-95788095D02*
X24650057Y-95740476D01*
X24650057Y-95740476D02*
X24745295Y-95692857D01*
X24745295Y-95692857D02*
X24888152Y-95692857D01*
X24888152Y-95692857D02*
X24983390Y-95740476D01*
X24983390Y-95740476D02*
X25031009Y-95788095D01*
X25031009Y-95788095D02*
X25078628Y-95883333D01*
X25078628Y-95883333D02*
X25078628Y-96264285D01*
X24650057Y-95311904D02*
X24602438Y-95264285D01*
X24602438Y-95264285D02*
X24554819Y-95169047D01*
X24554819Y-95169047D02*
X24554819Y-94930952D01*
X24554819Y-94930952D02*
X24602438Y-94835714D01*
X24602438Y-94835714D02*
X24650057Y-94788095D01*
X24650057Y-94788095D02*
X24745295Y-94740476D01*
X24745295Y-94740476D02*
X24840533Y-94740476D01*
X24840533Y-94740476D02*
X24983390Y-94788095D01*
X24983390Y-94788095D02*
X25554819Y-95359523D01*
X25554819Y-95359523D02*
X25554819Y-94740476D01*
X24888152Y-93883333D02*
X25554819Y-93883333D01*
X24507200Y-94121428D02*
X25221485Y-94359523D01*
X25221485Y-94359523D02*
X25221485Y-93740476D01*
X45059580Y-70942857D02*
X45107200Y-70990476D01*
X45107200Y-70990476D02*
X45154819Y-71133333D01*
X45154819Y-71133333D02*
X45154819Y-71228571D01*
X45154819Y-71228571D02*
X45107200Y-71371428D01*
X45107200Y-71371428D02*
X45011961Y-71466666D01*
X45011961Y-71466666D02*
X44916723Y-71514285D01*
X44916723Y-71514285D02*
X44726247Y-71561904D01*
X44726247Y-71561904D02*
X44583390Y-71561904D01*
X44583390Y-71561904D02*
X44392914Y-71514285D01*
X44392914Y-71514285D02*
X44297676Y-71466666D01*
X44297676Y-71466666D02*
X44202438Y-71371428D01*
X44202438Y-71371428D02*
X44154819Y-71228571D01*
X44154819Y-71228571D02*
X44154819Y-71133333D01*
X44154819Y-71133333D02*
X44202438Y-70990476D01*
X44202438Y-70990476D02*
X44250057Y-70942857D01*
X44154819Y-70609523D02*
X44154819Y-69990476D01*
X44154819Y-69990476D02*
X44535771Y-70323809D01*
X44535771Y-70323809D02*
X44535771Y-70180952D01*
X44535771Y-70180952D02*
X44583390Y-70085714D01*
X44583390Y-70085714D02*
X44631009Y-70038095D01*
X44631009Y-70038095D02*
X44726247Y-69990476D01*
X44726247Y-69990476D02*
X44964342Y-69990476D01*
X44964342Y-69990476D02*
X45059580Y-70038095D01*
X45059580Y-70038095D02*
X45107200Y-70085714D01*
X45107200Y-70085714D02*
X45154819Y-70180952D01*
X45154819Y-70180952D02*
X45154819Y-70466666D01*
X45154819Y-70466666D02*
X45107200Y-70561904D01*
X45107200Y-70561904D02*
X45059580Y-70609523D01*
X44488152Y-69133333D02*
X45154819Y-69133333D01*
X44107200Y-69371428D02*
X44821485Y-69609523D01*
X44821485Y-69609523D02*
X44821485Y-68990476D01*
X119904819Y-105559523D02*
X120619104Y-105559523D01*
X120619104Y-105559523D02*
X120761961Y-105607142D01*
X120761961Y-105607142D02*
X120857200Y-105702380D01*
X120857200Y-105702380D02*
X120904819Y-105845237D01*
X120904819Y-105845237D02*
X120904819Y-105940475D01*
X120904819Y-104559523D02*
X120904819Y-105130951D01*
X120904819Y-104845237D02*
X119904819Y-104845237D01*
X119904819Y-104845237D02*
X120047676Y-104940475D01*
X120047676Y-104940475D02*
X120142914Y-105035713D01*
X120142914Y-105035713D02*
X120190533Y-105130951D01*
X120333390Y-103988094D02*
X120285771Y-104083332D01*
X120285771Y-104083332D02*
X120238152Y-104130951D01*
X120238152Y-104130951D02*
X120142914Y-104178570D01*
X120142914Y-104178570D02*
X120095295Y-104178570D01*
X120095295Y-104178570D02*
X120000057Y-104130951D01*
X120000057Y-104130951D02*
X119952438Y-104083332D01*
X119952438Y-104083332D02*
X119904819Y-103988094D01*
X119904819Y-103988094D02*
X119904819Y-103797618D01*
X119904819Y-103797618D02*
X119952438Y-103702380D01*
X119952438Y-103702380D02*
X120000057Y-103654761D01*
X120000057Y-103654761D02*
X120095295Y-103607142D01*
X120095295Y-103607142D02*
X120142914Y-103607142D01*
X120142914Y-103607142D02*
X120238152Y-103654761D01*
X120238152Y-103654761D02*
X120285771Y-103702380D01*
X120285771Y-103702380D02*
X120333390Y-103797618D01*
X120333390Y-103797618D02*
X120333390Y-103988094D01*
X120333390Y-103988094D02*
X120381009Y-104083332D01*
X120381009Y-104083332D02*
X120428628Y-104130951D01*
X120428628Y-104130951D02*
X120523866Y-104178570D01*
X120523866Y-104178570D02*
X120714342Y-104178570D01*
X120714342Y-104178570D02*
X120809580Y-104130951D01*
X120809580Y-104130951D02*
X120857200Y-104083332D01*
X120857200Y-104083332D02*
X120904819Y-103988094D01*
X120904819Y-103988094D02*
X120904819Y-103797618D01*
X120904819Y-103797618D02*
X120857200Y-103702380D01*
X120857200Y-103702380D02*
X120809580Y-103654761D01*
X120809580Y-103654761D02*
X120714342Y-103607142D01*
X120714342Y-103607142D02*
X120523866Y-103607142D01*
X120523866Y-103607142D02*
X120428628Y-103654761D01*
X120428628Y-103654761D02*
X120381009Y-103702380D01*
X120381009Y-103702380D02*
X120333390Y-103797618D01*
X90157976Y-119697319D02*
X90157976Y-120411604D01*
X90157976Y-120411604D02*
X90110357Y-120554461D01*
X90110357Y-120554461D02*
X90015119Y-120649700D01*
X90015119Y-120649700D02*
X89872262Y-120697319D01*
X89872262Y-120697319D02*
X89777024Y-120697319D01*
X90586548Y-119792557D02*
X90634167Y-119744938D01*
X90634167Y-119744938D02*
X90729405Y-119697319D01*
X90729405Y-119697319D02*
X90967500Y-119697319D01*
X90967500Y-119697319D02*
X91062738Y-119744938D01*
X91062738Y-119744938D02*
X91110357Y-119792557D01*
X91110357Y-119792557D02*
X91157976Y-119887795D01*
X91157976Y-119887795D02*
X91157976Y-119983033D01*
X91157976Y-119983033D02*
X91110357Y-120125890D01*
X91110357Y-120125890D02*
X90538929Y-120697319D01*
X90538929Y-120697319D02*
X91157976Y-120697319D01*
X91538929Y-119792557D02*
X91586548Y-119744938D01*
X91586548Y-119744938D02*
X91681786Y-119697319D01*
X91681786Y-119697319D02*
X91919881Y-119697319D01*
X91919881Y-119697319D02*
X92015119Y-119744938D01*
X92015119Y-119744938D02*
X92062738Y-119792557D01*
X92062738Y-119792557D02*
X92110357Y-119887795D01*
X92110357Y-119887795D02*
X92110357Y-119983033D01*
X92110357Y-119983033D02*
X92062738Y-120125890D01*
X92062738Y-120125890D02*
X91491310Y-120697319D01*
X91491310Y-120697319D02*
X92110357Y-120697319D01*
X22285714Y-99504819D02*
X22285714Y-98504819D01*
X22285714Y-98504819D02*
X22523809Y-98504819D01*
X22523809Y-98504819D02*
X22666666Y-98552438D01*
X22666666Y-98552438D02*
X22761904Y-98647676D01*
X22761904Y-98647676D02*
X22809523Y-98742914D01*
X22809523Y-98742914D02*
X22857142Y-98933390D01*
X22857142Y-98933390D02*
X22857142Y-99076247D01*
X22857142Y-99076247D02*
X22809523Y-99266723D01*
X22809523Y-99266723D02*
X22761904Y-99361961D01*
X22761904Y-99361961D02*
X22666666Y-99457200D01*
X22666666Y-99457200D02*
X22523809Y-99504819D01*
X22523809Y-99504819D02*
X22285714Y-99504819D01*
X23809523Y-99504819D02*
X23238095Y-99504819D01*
X23523809Y-99504819D02*
X23523809Y-98504819D01*
X23523809Y-98504819D02*
X23428571Y-98647676D01*
X23428571Y-98647676D02*
X23333333Y-98742914D01*
X23333333Y-98742914D02*
X23238095Y-98790533D01*
X24380952Y-98933390D02*
X24285714Y-98885771D01*
X24285714Y-98885771D02*
X24238095Y-98838152D01*
X24238095Y-98838152D02*
X24190476Y-98742914D01*
X24190476Y-98742914D02*
X24190476Y-98695295D01*
X24190476Y-98695295D02*
X24238095Y-98600057D01*
X24238095Y-98600057D02*
X24285714Y-98552438D01*
X24285714Y-98552438D02*
X24380952Y-98504819D01*
X24380952Y-98504819D02*
X24571428Y-98504819D01*
X24571428Y-98504819D02*
X24666666Y-98552438D01*
X24666666Y-98552438D02*
X24714285Y-98600057D01*
X24714285Y-98600057D02*
X24761904Y-98695295D01*
X24761904Y-98695295D02*
X24761904Y-98742914D01*
X24761904Y-98742914D02*
X24714285Y-98838152D01*
X24714285Y-98838152D02*
X24666666Y-98885771D01*
X24666666Y-98885771D02*
X24571428Y-98933390D01*
X24571428Y-98933390D02*
X24380952Y-98933390D01*
X24380952Y-98933390D02*
X24285714Y-98981009D01*
X24285714Y-98981009D02*
X24238095Y-99028628D01*
X24238095Y-99028628D02*
X24190476Y-99123866D01*
X24190476Y-99123866D02*
X24190476Y-99314342D01*
X24190476Y-99314342D02*
X24238095Y-99409580D01*
X24238095Y-99409580D02*
X24285714Y-99457200D01*
X24285714Y-99457200D02*
X24380952Y-99504819D01*
X24380952Y-99504819D02*
X24571428Y-99504819D01*
X24571428Y-99504819D02*
X24666666Y-99457200D01*
X24666666Y-99457200D02*
X24714285Y-99409580D01*
X24714285Y-99409580D02*
X24761904Y-99314342D01*
X24761904Y-99314342D02*
X24761904Y-99123866D01*
X24761904Y-99123866D02*
X24714285Y-99028628D01*
X24714285Y-99028628D02*
X24666666Y-98981009D01*
X24666666Y-98981009D02*
X24571428Y-98933390D01*
X44207976Y-119647319D02*
X44207976Y-120361604D01*
X44207976Y-120361604D02*
X44160357Y-120504461D01*
X44160357Y-120504461D02*
X44065119Y-120599700D01*
X44065119Y-120599700D02*
X43922262Y-120647319D01*
X43922262Y-120647319D02*
X43827024Y-120647319D01*
X45207976Y-120647319D02*
X44636548Y-120647319D01*
X44922262Y-120647319D02*
X44922262Y-119647319D01*
X44922262Y-119647319D02*
X44827024Y-119790176D01*
X44827024Y-119790176D02*
X44731786Y-119885414D01*
X44731786Y-119885414D02*
X44636548Y-119933033D01*
X45684167Y-120647319D02*
X45874643Y-120647319D01*
X45874643Y-120647319D02*
X45969881Y-120599700D01*
X45969881Y-120599700D02*
X46017500Y-120552080D01*
X46017500Y-120552080D02*
X46112738Y-120409223D01*
X46112738Y-120409223D02*
X46160357Y-120218747D01*
X46160357Y-120218747D02*
X46160357Y-119837795D01*
X46160357Y-119837795D02*
X46112738Y-119742557D01*
X46112738Y-119742557D02*
X46065119Y-119694938D01*
X46065119Y-119694938D02*
X45969881Y-119647319D01*
X45969881Y-119647319D02*
X45779405Y-119647319D01*
X45779405Y-119647319D02*
X45684167Y-119694938D01*
X45684167Y-119694938D02*
X45636548Y-119742557D01*
X45636548Y-119742557D02*
X45588929Y-119837795D01*
X45588929Y-119837795D02*
X45588929Y-120075890D01*
X45588929Y-120075890D02*
X45636548Y-120171128D01*
X45636548Y-120171128D02*
X45684167Y-120218747D01*
X45684167Y-120218747D02*
X45779405Y-120266366D01*
X45779405Y-120266366D02*
X45969881Y-120266366D01*
X45969881Y-120266366D02*
X46065119Y-120218747D01*
X46065119Y-120218747D02*
X46112738Y-120171128D01*
X46112738Y-120171128D02*
X46160357Y-120075890D01*
X72274819Y-119559523D02*
X72989104Y-119559523D01*
X72989104Y-119559523D02*
X73131961Y-119607142D01*
X73131961Y-119607142D02*
X73227200Y-119702380D01*
X73227200Y-119702380D02*
X73274819Y-119845237D01*
X73274819Y-119845237D02*
X73274819Y-119940475D01*
X73274819Y-118559523D02*
X73274819Y-119130951D01*
X73274819Y-118845237D02*
X72274819Y-118845237D01*
X72274819Y-118845237D02*
X72417676Y-118940475D01*
X72417676Y-118940475D02*
X72512914Y-119035713D01*
X72512914Y-119035713D02*
X72560533Y-119130951D01*
X72274819Y-117654761D02*
X72274819Y-118130951D01*
X72274819Y-118130951D02*
X72751009Y-118178570D01*
X72751009Y-118178570D02*
X72703390Y-118130951D01*
X72703390Y-118130951D02*
X72655771Y-118035713D01*
X72655771Y-118035713D02*
X72655771Y-117797618D01*
X72655771Y-117797618D02*
X72703390Y-117702380D01*
X72703390Y-117702380D02*
X72751009Y-117654761D01*
X72751009Y-117654761D02*
X72846247Y-117607142D01*
X72846247Y-117607142D02*
X73084342Y-117607142D01*
X73084342Y-117607142D02*
X73179580Y-117654761D01*
X73179580Y-117654761D02*
X73227200Y-117702380D01*
X73227200Y-117702380D02*
X73274819Y-117797618D01*
X73274819Y-117797618D02*
X73274819Y-118035713D01*
X73274819Y-118035713D02*
X73227200Y-118130951D01*
X73227200Y-118130951D02*
X73179580Y-118178570D01*
X39128571Y-60450057D02*
X39033333Y-60402438D01*
X39033333Y-60402438D02*
X38938095Y-60307200D01*
X38938095Y-60307200D02*
X38795238Y-60164342D01*
X38795238Y-60164342D02*
X38700000Y-60116723D01*
X38700000Y-60116723D02*
X38604762Y-60116723D01*
X38652381Y-60354819D02*
X38557143Y-60307200D01*
X38557143Y-60307200D02*
X38461905Y-60211961D01*
X38461905Y-60211961D02*
X38414286Y-60021485D01*
X38414286Y-60021485D02*
X38414286Y-59688152D01*
X38414286Y-59688152D02*
X38461905Y-59497676D01*
X38461905Y-59497676D02*
X38557143Y-59402438D01*
X38557143Y-59402438D02*
X38652381Y-59354819D01*
X38652381Y-59354819D02*
X38842857Y-59354819D01*
X38842857Y-59354819D02*
X38938095Y-59402438D01*
X38938095Y-59402438D02*
X39033333Y-59497676D01*
X39033333Y-59497676D02*
X39080952Y-59688152D01*
X39080952Y-59688152D02*
X39080952Y-60021485D01*
X39080952Y-60021485D02*
X39033333Y-60211961D01*
X39033333Y-60211961D02*
X38938095Y-60307200D01*
X38938095Y-60307200D02*
X38842857Y-60354819D01*
X38842857Y-60354819D02*
X38652381Y-60354819D01*
X40033333Y-60354819D02*
X39461905Y-60354819D01*
X39747619Y-60354819D02*
X39747619Y-59354819D01*
X39747619Y-59354819D02*
X39652381Y-59497676D01*
X39652381Y-59497676D02*
X39557143Y-59592914D01*
X39557143Y-59592914D02*
X39461905Y-59640533D01*
X40366667Y-59354819D02*
X40985714Y-59354819D01*
X40985714Y-59354819D02*
X40652381Y-59735771D01*
X40652381Y-59735771D02*
X40795238Y-59735771D01*
X40795238Y-59735771D02*
X40890476Y-59783390D01*
X40890476Y-59783390D02*
X40938095Y-59831009D01*
X40938095Y-59831009D02*
X40985714Y-59926247D01*
X40985714Y-59926247D02*
X40985714Y-60164342D01*
X40985714Y-60164342D02*
X40938095Y-60259580D01*
X40938095Y-60259580D02*
X40890476Y-60307200D01*
X40890476Y-60307200D02*
X40795238Y-60354819D01*
X40795238Y-60354819D02*
X40509524Y-60354819D01*
X40509524Y-60354819D02*
X40414286Y-60307200D01*
X40414286Y-60307200D02*
X40366667Y-60259580D01*
X117466666Y-71254819D02*
X117466666Y-71969104D01*
X117466666Y-71969104D02*
X117419047Y-72111961D01*
X117419047Y-72111961D02*
X117323809Y-72207200D01*
X117323809Y-72207200D02*
X117180952Y-72254819D01*
X117180952Y-72254819D02*
X117085714Y-72254819D01*
X118419047Y-71254819D02*
X117942857Y-71254819D01*
X117942857Y-71254819D02*
X117895238Y-71731009D01*
X117895238Y-71731009D02*
X117942857Y-71683390D01*
X117942857Y-71683390D02*
X118038095Y-71635771D01*
X118038095Y-71635771D02*
X118276190Y-71635771D01*
X118276190Y-71635771D02*
X118371428Y-71683390D01*
X118371428Y-71683390D02*
X118419047Y-71731009D01*
X118419047Y-71731009D02*
X118466666Y-71826247D01*
X118466666Y-71826247D02*
X118466666Y-72064342D01*
X118466666Y-72064342D02*
X118419047Y-72159580D01*
X118419047Y-72159580D02*
X118371428Y-72207200D01*
X118371428Y-72207200D02*
X118276190Y-72254819D01*
X118276190Y-72254819D02*
X118038095Y-72254819D01*
X118038095Y-72254819D02*
X117942857Y-72207200D01*
X117942857Y-72207200D02*
X117895238Y-72159580D01*
X22635714Y-99404819D02*
X22635714Y-98404819D01*
X22635714Y-98404819D02*
X22873809Y-98404819D01*
X22873809Y-98404819D02*
X23016666Y-98452438D01*
X23016666Y-98452438D02*
X23111904Y-98547676D01*
X23111904Y-98547676D02*
X23159523Y-98642914D01*
X23159523Y-98642914D02*
X23207142Y-98833390D01*
X23207142Y-98833390D02*
X23207142Y-98976247D01*
X23207142Y-98976247D02*
X23159523Y-99166723D01*
X23159523Y-99166723D02*
X23111904Y-99261961D01*
X23111904Y-99261961D02*
X23016666Y-99357200D01*
X23016666Y-99357200D02*
X22873809Y-99404819D01*
X22873809Y-99404819D02*
X22635714Y-99404819D01*
X24159523Y-99404819D02*
X23588095Y-99404819D01*
X23873809Y-99404819D02*
X23873809Y-98404819D01*
X23873809Y-98404819D02*
X23778571Y-98547676D01*
X23778571Y-98547676D02*
X23683333Y-98642914D01*
X23683333Y-98642914D02*
X23588095Y-98690533D01*
X24492857Y-98404819D02*
X25159523Y-98404819D01*
X25159523Y-98404819D02*
X24730952Y-99404819D01*
X54054819Y-96759523D02*
X54769104Y-96759523D01*
X54769104Y-96759523D02*
X54911961Y-96807142D01*
X54911961Y-96807142D02*
X55007200Y-96902380D01*
X55007200Y-96902380D02*
X55054819Y-97045237D01*
X55054819Y-97045237D02*
X55054819Y-97140475D01*
X55054819Y-95759523D02*
X55054819Y-96330951D01*
X55054819Y-96045237D02*
X54054819Y-96045237D01*
X54054819Y-96045237D02*
X54197676Y-96140475D01*
X54197676Y-96140475D02*
X54292914Y-96235713D01*
X54292914Y-96235713D02*
X54340533Y-96330951D01*
X54054819Y-94902380D02*
X54054819Y-95092856D01*
X54054819Y-95092856D02*
X54102438Y-95188094D01*
X54102438Y-95188094D02*
X54150057Y-95235713D01*
X54150057Y-95235713D02*
X54292914Y-95330951D01*
X54292914Y-95330951D02*
X54483390Y-95378570D01*
X54483390Y-95378570D02*
X54864342Y-95378570D01*
X54864342Y-95378570D02*
X54959580Y-95330951D01*
X54959580Y-95330951D02*
X55007200Y-95283332D01*
X55007200Y-95283332D02*
X55054819Y-95188094D01*
X55054819Y-95188094D02*
X55054819Y-94997618D01*
X55054819Y-94997618D02*
X55007200Y-94902380D01*
X55007200Y-94902380D02*
X54959580Y-94854761D01*
X54959580Y-94854761D02*
X54864342Y-94807142D01*
X54864342Y-94807142D02*
X54626247Y-94807142D01*
X54626247Y-94807142D02*
X54531009Y-94854761D01*
X54531009Y-94854761D02*
X54483390Y-94902380D01*
X54483390Y-94902380D02*
X54435771Y-94997618D01*
X54435771Y-94997618D02*
X54435771Y-95188094D01*
X54435771Y-95188094D02*
X54483390Y-95283332D01*
X54483390Y-95283332D02*
X54531009Y-95330951D01*
X54531009Y-95330951D02*
X54626247Y-95378570D01*
X40377142Y-54974819D02*
X40043809Y-54498628D01*
X39805714Y-54974819D02*
X39805714Y-53974819D01*
X39805714Y-53974819D02*
X40186666Y-53974819D01*
X40186666Y-53974819D02*
X40281904Y-54022438D01*
X40281904Y-54022438D02*
X40329523Y-54070057D01*
X40329523Y-54070057D02*
X40377142Y-54165295D01*
X40377142Y-54165295D02*
X40377142Y-54308152D01*
X40377142Y-54308152D02*
X40329523Y-54403390D01*
X40329523Y-54403390D02*
X40281904Y-54451009D01*
X40281904Y-54451009D02*
X40186666Y-54498628D01*
X40186666Y-54498628D02*
X39805714Y-54498628D01*
X41234285Y-54308152D02*
X41234285Y-54974819D01*
X40996190Y-53927200D02*
X40758095Y-54641485D01*
X40758095Y-54641485D02*
X41377142Y-54641485D01*
X41900952Y-54403390D02*
X41805714Y-54355771D01*
X41805714Y-54355771D02*
X41758095Y-54308152D01*
X41758095Y-54308152D02*
X41710476Y-54212914D01*
X41710476Y-54212914D02*
X41710476Y-54165295D01*
X41710476Y-54165295D02*
X41758095Y-54070057D01*
X41758095Y-54070057D02*
X41805714Y-54022438D01*
X41805714Y-54022438D02*
X41900952Y-53974819D01*
X41900952Y-53974819D02*
X42091428Y-53974819D01*
X42091428Y-53974819D02*
X42186666Y-54022438D01*
X42186666Y-54022438D02*
X42234285Y-54070057D01*
X42234285Y-54070057D02*
X42281904Y-54165295D01*
X42281904Y-54165295D02*
X42281904Y-54212914D01*
X42281904Y-54212914D02*
X42234285Y-54308152D01*
X42234285Y-54308152D02*
X42186666Y-54355771D01*
X42186666Y-54355771D02*
X42091428Y-54403390D01*
X42091428Y-54403390D02*
X41900952Y-54403390D01*
X41900952Y-54403390D02*
X41805714Y-54451009D01*
X41805714Y-54451009D02*
X41758095Y-54498628D01*
X41758095Y-54498628D02*
X41710476Y-54593866D01*
X41710476Y-54593866D02*
X41710476Y-54784342D01*
X41710476Y-54784342D02*
X41758095Y-54879580D01*
X41758095Y-54879580D02*
X41805714Y-54927200D01*
X41805714Y-54927200D02*
X41900952Y-54974819D01*
X41900952Y-54974819D02*
X42091428Y-54974819D01*
X42091428Y-54974819D02*
X42186666Y-54927200D01*
X42186666Y-54927200D02*
X42234285Y-54879580D01*
X42234285Y-54879580D02*
X42281904Y-54784342D01*
X42281904Y-54784342D02*
X42281904Y-54593866D01*
X42281904Y-54593866D02*
X42234285Y-54498628D01*
X42234285Y-54498628D02*
X42186666Y-54451009D01*
X42186666Y-54451009D02*
X42091428Y-54403390D01*
X79448990Y-30966666D02*
X79448990Y-30633333D01*
X78925180Y-30633333D02*
X79925180Y-30633333D01*
X79925180Y-30633333D02*
X79925180Y-31109523D01*
X79829942Y-31442857D02*
X79877561Y-31490476D01*
X79877561Y-31490476D02*
X79925180Y-31585714D01*
X79925180Y-31585714D02*
X79925180Y-31823809D01*
X79925180Y-31823809D02*
X79877561Y-31919047D01*
X79877561Y-31919047D02*
X79829942Y-31966666D01*
X79829942Y-31966666D02*
X79734704Y-32014285D01*
X79734704Y-32014285D02*
X79639466Y-32014285D01*
X79639466Y-32014285D02*
X79496609Y-31966666D01*
X79496609Y-31966666D02*
X78925180Y-31395238D01*
X78925180Y-31395238D02*
X78925180Y-32014285D01*
X76871428Y-97754819D02*
X76538095Y-97278628D01*
X76300000Y-97754819D02*
X76300000Y-96754819D01*
X76300000Y-96754819D02*
X76680952Y-96754819D01*
X76680952Y-96754819D02*
X76776190Y-96802438D01*
X76776190Y-96802438D02*
X76823809Y-96850057D01*
X76823809Y-96850057D02*
X76871428Y-96945295D01*
X76871428Y-96945295D02*
X76871428Y-97088152D01*
X76871428Y-97088152D02*
X76823809Y-97183390D01*
X76823809Y-97183390D02*
X76776190Y-97231009D01*
X76776190Y-97231009D02*
X76680952Y-97278628D01*
X76680952Y-97278628D02*
X76300000Y-97278628D01*
X77300000Y-97231009D02*
X77633333Y-97231009D01*
X77776190Y-97754819D02*
X77300000Y-97754819D01*
X77300000Y-97754819D02*
X77300000Y-96754819D01*
X77300000Y-96754819D02*
X77776190Y-96754819D01*
X78157143Y-97707200D02*
X78300000Y-97754819D01*
X78300000Y-97754819D02*
X78538095Y-97754819D01*
X78538095Y-97754819D02*
X78633333Y-97707200D01*
X78633333Y-97707200D02*
X78680952Y-97659580D01*
X78680952Y-97659580D02*
X78728571Y-97564342D01*
X78728571Y-97564342D02*
X78728571Y-97469104D01*
X78728571Y-97469104D02*
X78680952Y-97373866D01*
X78680952Y-97373866D02*
X78633333Y-97326247D01*
X78633333Y-97326247D02*
X78538095Y-97278628D01*
X78538095Y-97278628D02*
X78347619Y-97231009D01*
X78347619Y-97231009D02*
X78252381Y-97183390D01*
X78252381Y-97183390D02*
X78204762Y-97135771D01*
X78204762Y-97135771D02*
X78157143Y-97040533D01*
X78157143Y-97040533D02*
X78157143Y-96945295D01*
X78157143Y-96945295D02*
X78204762Y-96850057D01*
X78204762Y-96850057D02*
X78252381Y-96802438D01*
X78252381Y-96802438D02*
X78347619Y-96754819D01*
X78347619Y-96754819D02*
X78585714Y-96754819D01*
X78585714Y-96754819D02*
X78728571Y-96802438D01*
X79157143Y-97231009D02*
X79490476Y-97231009D01*
X79633333Y-97754819D02*
X79157143Y-97754819D01*
X79157143Y-97754819D02*
X79157143Y-96754819D01*
X79157143Y-96754819D02*
X79633333Y-96754819D01*
X79919048Y-96754819D02*
X80490476Y-96754819D01*
X80204762Y-97754819D02*
X80204762Y-96754819D01*
X81347619Y-97754819D02*
X80776191Y-97754819D01*
X81061905Y-97754819D02*
X81061905Y-96754819D01*
X81061905Y-96754819D02*
X80966667Y-96897676D01*
X80966667Y-96897676D02*
X80871429Y-96992914D01*
X80871429Y-96992914D02*
X80776191Y-97040533D01*
X39229580Y-113222857D02*
X39277200Y-113270476D01*
X39277200Y-113270476D02*
X39324819Y-113413333D01*
X39324819Y-113413333D02*
X39324819Y-113508571D01*
X39324819Y-113508571D02*
X39277200Y-113651428D01*
X39277200Y-113651428D02*
X39181961Y-113746666D01*
X39181961Y-113746666D02*
X39086723Y-113794285D01*
X39086723Y-113794285D02*
X38896247Y-113841904D01*
X38896247Y-113841904D02*
X38753390Y-113841904D01*
X38753390Y-113841904D02*
X38562914Y-113794285D01*
X38562914Y-113794285D02*
X38467676Y-113746666D01*
X38467676Y-113746666D02*
X38372438Y-113651428D01*
X38372438Y-113651428D02*
X38324819Y-113508571D01*
X38324819Y-113508571D02*
X38324819Y-113413333D01*
X38324819Y-113413333D02*
X38372438Y-113270476D01*
X38372438Y-113270476D02*
X38420057Y-113222857D01*
X39324819Y-112270476D02*
X39324819Y-112841904D01*
X39324819Y-112556190D02*
X38324819Y-112556190D01*
X38324819Y-112556190D02*
X38467676Y-112651428D01*
X38467676Y-112651428D02*
X38562914Y-112746666D01*
X38562914Y-112746666D02*
X38610533Y-112841904D01*
X38324819Y-111937142D02*
X38324819Y-111318095D01*
X38324819Y-111318095D02*
X38705771Y-111651428D01*
X38705771Y-111651428D02*
X38705771Y-111508571D01*
X38705771Y-111508571D02*
X38753390Y-111413333D01*
X38753390Y-111413333D02*
X38801009Y-111365714D01*
X38801009Y-111365714D02*
X38896247Y-111318095D01*
X38896247Y-111318095D02*
X39134342Y-111318095D01*
X39134342Y-111318095D02*
X39229580Y-111365714D01*
X39229580Y-111365714D02*
X39277200Y-111413333D01*
X39277200Y-111413333D02*
X39324819Y-111508571D01*
X39324819Y-111508571D02*
X39324819Y-111794285D01*
X39324819Y-111794285D02*
X39277200Y-111889523D01*
X39277200Y-111889523D02*
X39229580Y-111937142D01*
X116566666Y-36054819D02*
X116566666Y-36769104D01*
X116566666Y-36769104D02*
X116519047Y-36911961D01*
X116519047Y-36911961D02*
X116423809Y-37007200D01*
X116423809Y-37007200D02*
X116280952Y-37054819D01*
X116280952Y-37054819D02*
X116185714Y-37054819D01*
X117566666Y-37054819D02*
X116995238Y-37054819D01*
X117280952Y-37054819D02*
X117280952Y-36054819D01*
X117280952Y-36054819D02*
X117185714Y-36197676D01*
X117185714Y-36197676D02*
X117090476Y-36292914D01*
X117090476Y-36292914D02*
X116995238Y-36340533D01*
X63366666Y-22454819D02*
X63366666Y-23169104D01*
X63366666Y-23169104D02*
X63319047Y-23311961D01*
X63319047Y-23311961D02*
X63223809Y-23407200D01*
X63223809Y-23407200D02*
X63080952Y-23454819D01*
X63080952Y-23454819D02*
X62985714Y-23454819D01*
X63747619Y-22454819D02*
X64414285Y-22454819D01*
X64414285Y-22454819D02*
X63985714Y-23454819D01*
X50154819Y-77666666D02*
X50154819Y-78142856D01*
X50154819Y-78142856D02*
X49154819Y-78142856D01*
X50154819Y-76809523D02*
X50154819Y-77380951D01*
X50154819Y-77095237D02*
X49154819Y-77095237D01*
X49154819Y-77095237D02*
X49297676Y-77190475D01*
X49297676Y-77190475D02*
X49392914Y-77285713D01*
X49392914Y-77285713D02*
X49440533Y-77380951D01*
X98559819Y-119559523D02*
X99274104Y-119559523D01*
X99274104Y-119559523D02*
X99416961Y-119607142D01*
X99416961Y-119607142D02*
X99512200Y-119702380D01*
X99512200Y-119702380D02*
X99559819Y-119845237D01*
X99559819Y-119845237D02*
X99559819Y-119940475D01*
X99559819Y-118559523D02*
X99559819Y-119130951D01*
X99559819Y-118845237D02*
X98559819Y-118845237D01*
X98559819Y-118845237D02*
X98702676Y-118940475D01*
X98702676Y-118940475D02*
X98797914Y-119035713D01*
X98797914Y-119035713D02*
X98845533Y-119130951D01*
X98559819Y-118226189D02*
X98559819Y-117607142D01*
X98559819Y-117607142D02*
X98940771Y-117940475D01*
X98940771Y-117940475D02*
X98940771Y-117797618D01*
X98940771Y-117797618D02*
X98988390Y-117702380D01*
X98988390Y-117702380D02*
X99036009Y-117654761D01*
X99036009Y-117654761D02*
X99131247Y-117607142D01*
X99131247Y-117607142D02*
X99369342Y-117607142D01*
X99369342Y-117607142D02*
X99464580Y-117654761D01*
X99464580Y-117654761D02*
X99512200Y-117702380D01*
X99512200Y-117702380D02*
X99559819Y-117797618D01*
X99559819Y-117797618D02*
X99559819Y-118083332D01*
X99559819Y-118083332D02*
X99512200Y-118178570D01*
X99512200Y-118178570D02*
X99464580Y-118226189D01*
X35154819Y-66142857D02*
X34678628Y-66476190D01*
X35154819Y-66714285D02*
X34154819Y-66714285D01*
X34154819Y-66714285D02*
X34154819Y-66333333D01*
X34154819Y-66333333D02*
X34202438Y-66238095D01*
X34202438Y-66238095D02*
X34250057Y-66190476D01*
X34250057Y-66190476D02*
X34345295Y-66142857D01*
X34345295Y-66142857D02*
X34488152Y-66142857D01*
X34488152Y-66142857D02*
X34583390Y-66190476D01*
X34583390Y-66190476D02*
X34631009Y-66238095D01*
X34631009Y-66238095D02*
X34678628Y-66333333D01*
X34678628Y-66333333D02*
X34678628Y-66714285D01*
X34488152Y-65285714D02*
X35154819Y-65285714D01*
X34107200Y-65523809D02*
X34821485Y-65761904D01*
X34821485Y-65761904D02*
X34821485Y-65142857D01*
X34488152Y-64333333D02*
X35154819Y-64333333D01*
X34107200Y-64571428D02*
X34821485Y-64809523D01*
X34821485Y-64809523D02*
X34821485Y-64190476D01*
X43659580Y-68042857D02*
X43707200Y-68090476D01*
X43707200Y-68090476D02*
X43754819Y-68233333D01*
X43754819Y-68233333D02*
X43754819Y-68328571D01*
X43754819Y-68328571D02*
X43707200Y-68471428D01*
X43707200Y-68471428D02*
X43611961Y-68566666D01*
X43611961Y-68566666D02*
X43516723Y-68614285D01*
X43516723Y-68614285D02*
X43326247Y-68661904D01*
X43326247Y-68661904D02*
X43183390Y-68661904D01*
X43183390Y-68661904D02*
X42992914Y-68614285D01*
X42992914Y-68614285D02*
X42897676Y-68566666D01*
X42897676Y-68566666D02*
X42802438Y-68471428D01*
X42802438Y-68471428D02*
X42754819Y-68328571D01*
X42754819Y-68328571D02*
X42754819Y-68233333D01*
X42754819Y-68233333D02*
X42802438Y-68090476D01*
X42802438Y-68090476D02*
X42850057Y-68042857D01*
X42754819Y-67709523D02*
X42754819Y-67090476D01*
X42754819Y-67090476D02*
X43135771Y-67423809D01*
X43135771Y-67423809D02*
X43135771Y-67280952D01*
X43135771Y-67280952D02*
X43183390Y-67185714D01*
X43183390Y-67185714D02*
X43231009Y-67138095D01*
X43231009Y-67138095D02*
X43326247Y-67090476D01*
X43326247Y-67090476D02*
X43564342Y-67090476D01*
X43564342Y-67090476D02*
X43659580Y-67138095D01*
X43659580Y-67138095D02*
X43707200Y-67185714D01*
X43707200Y-67185714D02*
X43754819Y-67280952D01*
X43754819Y-67280952D02*
X43754819Y-67566666D01*
X43754819Y-67566666D02*
X43707200Y-67661904D01*
X43707200Y-67661904D02*
X43659580Y-67709523D01*
X42754819Y-66757142D02*
X42754819Y-66138095D01*
X42754819Y-66138095D02*
X43135771Y-66471428D01*
X43135771Y-66471428D02*
X43135771Y-66328571D01*
X43135771Y-66328571D02*
X43183390Y-66233333D01*
X43183390Y-66233333D02*
X43231009Y-66185714D01*
X43231009Y-66185714D02*
X43326247Y-66138095D01*
X43326247Y-66138095D02*
X43564342Y-66138095D01*
X43564342Y-66138095D02*
X43659580Y-66185714D01*
X43659580Y-66185714D02*
X43707200Y-66233333D01*
X43707200Y-66233333D02*
X43754819Y-66328571D01*
X43754819Y-66328571D02*
X43754819Y-66614285D01*
X43754819Y-66614285D02*
X43707200Y-66709523D01*
X43707200Y-66709523D02*
X43659580Y-66757142D01*
X23657142Y-106759580D02*
X23609523Y-106807200D01*
X23609523Y-106807200D02*
X23466666Y-106854819D01*
X23466666Y-106854819D02*
X23371428Y-106854819D01*
X23371428Y-106854819D02*
X23228571Y-106807200D01*
X23228571Y-106807200D02*
X23133333Y-106711961D01*
X23133333Y-106711961D02*
X23085714Y-106616723D01*
X23085714Y-106616723D02*
X23038095Y-106426247D01*
X23038095Y-106426247D02*
X23038095Y-106283390D01*
X23038095Y-106283390D02*
X23085714Y-106092914D01*
X23085714Y-106092914D02*
X23133333Y-105997676D01*
X23133333Y-105997676D02*
X23228571Y-105902438D01*
X23228571Y-105902438D02*
X23371428Y-105854819D01*
X23371428Y-105854819D02*
X23466666Y-105854819D01*
X23466666Y-105854819D02*
X23609523Y-105902438D01*
X23609523Y-105902438D02*
X23657142Y-105950057D01*
X24609523Y-106854819D02*
X24038095Y-106854819D01*
X24323809Y-106854819D02*
X24323809Y-105854819D01*
X24323809Y-105854819D02*
X24228571Y-105997676D01*
X24228571Y-105997676D02*
X24133333Y-106092914D01*
X24133333Y-106092914D02*
X24038095Y-106140533D01*
X25180952Y-106283390D02*
X25085714Y-106235771D01*
X25085714Y-106235771D02*
X25038095Y-106188152D01*
X25038095Y-106188152D02*
X24990476Y-106092914D01*
X24990476Y-106092914D02*
X24990476Y-106045295D01*
X24990476Y-106045295D02*
X25038095Y-105950057D01*
X25038095Y-105950057D02*
X25085714Y-105902438D01*
X25085714Y-105902438D02*
X25180952Y-105854819D01*
X25180952Y-105854819D02*
X25371428Y-105854819D01*
X25371428Y-105854819D02*
X25466666Y-105902438D01*
X25466666Y-105902438D02*
X25514285Y-105950057D01*
X25514285Y-105950057D02*
X25561904Y-106045295D01*
X25561904Y-106045295D02*
X25561904Y-106092914D01*
X25561904Y-106092914D02*
X25514285Y-106188152D01*
X25514285Y-106188152D02*
X25466666Y-106235771D01*
X25466666Y-106235771D02*
X25371428Y-106283390D01*
X25371428Y-106283390D02*
X25180952Y-106283390D01*
X25180952Y-106283390D02*
X25085714Y-106331009D01*
X25085714Y-106331009D02*
X25038095Y-106378628D01*
X25038095Y-106378628D02*
X24990476Y-106473866D01*
X24990476Y-106473866D02*
X24990476Y-106664342D01*
X24990476Y-106664342D02*
X25038095Y-106759580D01*
X25038095Y-106759580D02*
X25085714Y-106807200D01*
X25085714Y-106807200D02*
X25180952Y-106854819D01*
X25180952Y-106854819D02*
X25371428Y-106854819D01*
X25371428Y-106854819D02*
X25466666Y-106807200D01*
X25466666Y-106807200D02*
X25514285Y-106759580D01*
X25514285Y-106759580D02*
X25561904Y-106664342D01*
X25561904Y-106664342D02*
X25561904Y-106473866D01*
X25561904Y-106473866D02*
X25514285Y-106378628D01*
X25514285Y-106378628D02*
X25466666Y-106331009D01*
X25466666Y-106331009D02*
X25371428Y-106283390D01*
X23457142Y-112009580D02*
X23409523Y-112057200D01*
X23409523Y-112057200D02*
X23266666Y-112104819D01*
X23266666Y-112104819D02*
X23171428Y-112104819D01*
X23171428Y-112104819D02*
X23028571Y-112057200D01*
X23028571Y-112057200D02*
X22933333Y-111961961D01*
X22933333Y-111961961D02*
X22885714Y-111866723D01*
X22885714Y-111866723D02*
X22838095Y-111676247D01*
X22838095Y-111676247D02*
X22838095Y-111533390D01*
X22838095Y-111533390D02*
X22885714Y-111342914D01*
X22885714Y-111342914D02*
X22933333Y-111247676D01*
X22933333Y-111247676D02*
X23028571Y-111152438D01*
X23028571Y-111152438D02*
X23171428Y-111104819D01*
X23171428Y-111104819D02*
X23266666Y-111104819D01*
X23266666Y-111104819D02*
X23409523Y-111152438D01*
X23409523Y-111152438D02*
X23457142Y-111200057D01*
X24409523Y-112104819D02*
X23838095Y-112104819D01*
X24123809Y-112104819D02*
X24123809Y-111104819D01*
X24123809Y-111104819D02*
X24028571Y-111247676D01*
X24028571Y-111247676D02*
X23933333Y-111342914D01*
X23933333Y-111342914D02*
X23838095Y-111390533D01*
X25266666Y-111438152D02*
X25266666Y-112104819D01*
X25028571Y-111057200D02*
X24790476Y-111771485D01*
X24790476Y-111771485D02*
X25409523Y-111771485D01*
X77975476Y-119647319D02*
X77975476Y-120361604D01*
X77975476Y-120361604D02*
X77927857Y-120504461D01*
X77927857Y-120504461D02*
X77832619Y-120599700D01*
X77832619Y-120599700D02*
X77689762Y-120647319D01*
X77689762Y-120647319D02*
X77594524Y-120647319D01*
X78404048Y-119742557D02*
X78451667Y-119694938D01*
X78451667Y-119694938D02*
X78546905Y-119647319D01*
X78546905Y-119647319D02*
X78785000Y-119647319D01*
X78785000Y-119647319D02*
X78880238Y-119694938D01*
X78880238Y-119694938D02*
X78927857Y-119742557D01*
X78927857Y-119742557D02*
X78975476Y-119837795D01*
X78975476Y-119837795D02*
X78975476Y-119933033D01*
X78975476Y-119933033D02*
X78927857Y-120075890D01*
X78927857Y-120075890D02*
X78356429Y-120647319D01*
X78356429Y-120647319D02*
X78975476Y-120647319D01*
X79927857Y-120647319D02*
X79356429Y-120647319D01*
X79642143Y-120647319D02*
X79642143Y-119647319D01*
X79642143Y-119647319D02*
X79546905Y-119790176D01*
X79546905Y-119790176D02*
X79451667Y-119885414D01*
X79451667Y-119885414D02*
X79356429Y-119933033D01*
X89657142Y-64154819D02*
X89323809Y-63678628D01*
X89085714Y-64154819D02*
X89085714Y-63154819D01*
X89085714Y-63154819D02*
X89466666Y-63154819D01*
X89466666Y-63154819D02*
X89561904Y-63202438D01*
X89561904Y-63202438D02*
X89609523Y-63250057D01*
X89609523Y-63250057D02*
X89657142Y-63345295D01*
X89657142Y-63345295D02*
X89657142Y-63488152D01*
X89657142Y-63488152D02*
X89609523Y-63583390D01*
X89609523Y-63583390D02*
X89561904Y-63631009D01*
X89561904Y-63631009D02*
X89466666Y-63678628D01*
X89466666Y-63678628D02*
X89085714Y-63678628D01*
X90561904Y-63154819D02*
X90085714Y-63154819D01*
X90085714Y-63154819D02*
X90038095Y-63631009D01*
X90038095Y-63631009D02*
X90085714Y-63583390D01*
X90085714Y-63583390D02*
X90180952Y-63535771D01*
X90180952Y-63535771D02*
X90419047Y-63535771D01*
X90419047Y-63535771D02*
X90514285Y-63583390D01*
X90514285Y-63583390D02*
X90561904Y-63631009D01*
X90561904Y-63631009D02*
X90609523Y-63726247D01*
X90609523Y-63726247D02*
X90609523Y-63964342D01*
X90609523Y-63964342D02*
X90561904Y-64059580D01*
X90561904Y-64059580D02*
X90514285Y-64107200D01*
X90514285Y-64107200D02*
X90419047Y-64154819D01*
X90419047Y-64154819D02*
X90180952Y-64154819D01*
X90180952Y-64154819D02*
X90085714Y-64107200D01*
X90085714Y-64107200D02*
X90038095Y-64059580D01*
X91228571Y-63154819D02*
X91323809Y-63154819D01*
X91323809Y-63154819D02*
X91419047Y-63202438D01*
X91419047Y-63202438D02*
X91466666Y-63250057D01*
X91466666Y-63250057D02*
X91514285Y-63345295D01*
X91514285Y-63345295D02*
X91561904Y-63535771D01*
X91561904Y-63535771D02*
X91561904Y-63773866D01*
X91561904Y-63773866D02*
X91514285Y-63964342D01*
X91514285Y-63964342D02*
X91466666Y-64059580D01*
X91466666Y-64059580D02*
X91419047Y-64107200D01*
X91419047Y-64107200D02*
X91323809Y-64154819D01*
X91323809Y-64154819D02*
X91228571Y-64154819D01*
X91228571Y-64154819D02*
X91133333Y-64107200D01*
X91133333Y-64107200D02*
X91085714Y-64059580D01*
X91085714Y-64059580D02*
X91038095Y-63964342D01*
X91038095Y-63964342D02*
X90990476Y-63773866D01*
X90990476Y-63773866D02*
X90990476Y-63535771D01*
X90990476Y-63535771D02*
X91038095Y-63345295D01*
X91038095Y-63345295D02*
X91085714Y-63250057D01*
X91085714Y-63250057D02*
X91133333Y-63202438D01*
X91133333Y-63202438D02*
X91228571Y-63154819D01*
X40857142Y-65454819D02*
X40523809Y-64978628D01*
X40285714Y-65454819D02*
X40285714Y-64454819D01*
X40285714Y-64454819D02*
X40666666Y-64454819D01*
X40666666Y-64454819D02*
X40761904Y-64502438D01*
X40761904Y-64502438D02*
X40809523Y-64550057D01*
X40809523Y-64550057D02*
X40857142Y-64645295D01*
X40857142Y-64645295D02*
X40857142Y-64788152D01*
X40857142Y-64788152D02*
X40809523Y-64883390D01*
X40809523Y-64883390D02*
X40761904Y-64931009D01*
X40761904Y-64931009D02*
X40666666Y-64978628D01*
X40666666Y-64978628D02*
X40285714Y-64978628D01*
X41714285Y-64788152D02*
X41714285Y-65454819D01*
X41476190Y-64407200D02*
X41238095Y-65121485D01*
X41238095Y-65121485D02*
X41857142Y-65121485D01*
X42190476Y-64550057D02*
X42238095Y-64502438D01*
X42238095Y-64502438D02*
X42333333Y-64454819D01*
X42333333Y-64454819D02*
X42571428Y-64454819D01*
X42571428Y-64454819D02*
X42666666Y-64502438D01*
X42666666Y-64502438D02*
X42714285Y-64550057D01*
X42714285Y-64550057D02*
X42761904Y-64645295D01*
X42761904Y-64645295D02*
X42761904Y-64740533D01*
X42761904Y-64740533D02*
X42714285Y-64883390D01*
X42714285Y-64883390D02*
X42142857Y-65454819D01*
X42142857Y-65454819D02*
X42761904Y-65454819D01*
X96754819Y-60442857D02*
X96278628Y-60776190D01*
X96754819Y-61014285D02*
X95754819Y-61014285D01*
X95754819Y-61014285D02*
X95754819Y-60633333D01*
X95754819Y-60633333D02*
X95802438Y-60538095D01*
X95802438Y-60538095D02*
X95850057Y-60490476D01*
X95850057Y-60490476D02*
X95945295Y-60442857D01*
X95945295Y-60442857D02*
X96088152Y-60442857D01*
X96088152Y-60442857D02*
X96183390Y-60490476D01*
X96183390Y-60490476D02*
X96231009Y-60538095D01*
X96231009Y-60538095D02*
X96278628Y-60633333D01*
X96278628Y-60633333D02*
X96278628Y-61014285D01*
X96088152Y-59585714D02*
X96754819Y-59585714D01*
X95707200Y-59823809D02*
X96421485Y-60061904D01*
X96421485Y-60061904D02*
X96421485Y-59442857D01*
X95754819Y-58633333D02*
X95754819Y-58823809D01*
X95754819Y-58823809D02*
X95802438Y-58919047D01*
X95802438Y-58919047D02*
X95850057Y-58966666D01*
X95850057Y-58966666D02*
X95992914Y-59061904D01*
X95992914Y-59061904D02*
X96183390Y-59109523D01*
X96183390Y-59109523D02*
X96564342Y-59109523D01*
X96564342Y-59109523D02*
X96659580Y-59061904D01*
X96659580Y-59061904D02*
X96707200Y-59014285D01*
X96707200Y-59014285D02*
X96754819Y-58919047D01*
X96754819Y-58919047D02*
X96754819Y-58728571D01*
X96754819Y-58728571D02*
X96707200Y-58633333D01*
X96707200Y-58633333D02*
X96659580Y-58585714D01*
X96659580Y-58585714D02*
X96564342Y-58538095D01*
X96564342Y-58538095D02*
X96326247Y-58538095D01*
X96326247Y-58538095D02*
X96231009Y-58585714D01*
X96231009Y-58585714D02*
X96183390Y-58633333D01*
X96183390Y-58633333D02*
X96135771Y-58728571D01*
X96135771Y-58728571D02*
X96135771Y-58919047D01*
X96135771Y-58919047D02*
X96183390Y-59014285D01*
X96183390Y-59014285D02*
X96231009Y-59061904D01*
X96231009Y-59061904D02*
X96326247Y-59109523D01*
X61207976Y-119647319D02*
X61207976Y-120361604D01*
X61207976Y-120361604D02*
X61160357Y-120504461D01*
X61160357Y-120504461D02*
X61065119Y-120599700D01*
X61065119Y-120599700D02*
X60922262Y-120647319D01*
X60922262Y-120647319D02*
X60827024Y-120647319D01*
X61636548Y-119742557D02*
X61684167Y-119694938D01*
X61684167Y-119694938D02*
X61779405Y-119647319D01*
X61779405Y-119647319D02*
X62017500Y-119647319D01*
X62017500Y-119647319D02*
X62112738Y-119694938D01*
X62112738Y-119694938D02*
X62160357Y-119742557D01*
X62160357Y-119742557D02*
X62207976Y-119837795D01*
X62207976Y-119837795D02*
X62207976Y-119933033D01*
X62207976Y-119933033D02*
X62160357Y-120075890D01*
X62160357Y-120075890D02*
X61588929Y-120647319D01*
X61588929Y-120647319D02*
X62207976Y-120647319D01*
X62827024Y-119647319D02*
X62922262Y-119647319D01*
X62922262Y-119647319D02*
X63017500Y-119694938D01*
X63017500Y-119694938D02*
X63065119Y-119742557D01*
X63065119Y-119742557D02*
X63112738Y-119837795D01*
X63112738Y-119837795D02*
X63160357Y-120028271D01*
X63160357Y-120028271D02*
X63160357Y-120266366D01*
X63160357Y-120266366D02*
X63112738Y-120456842D01*
X63112738Y-120456842D02*
X63065119Y-120552080D01*
X63065119Y-120552080D02*
X63017500Y-120599700D01*
X63017500Y-120599700D02*
X62922262Y-120647319D01*
X62922262Y-120647319D02*
X62827024Y-120647319D01*
X62827024Y-120647319D02*
X62731786Y-120599700D01*
X62731786Y-120599700D02*
X62684167Y-120552080D01*
X62684167Y-120552080D02*
X62636548Y-120456842D01*
X62636548Y-120456842D02*
X62588929Y-120266366D01*
X62588929Y-120266366D02*
X62588929Y-120028271D01*
X62588929Y-120028271D02*
X62636548Y-119837795D01*
X62636548Y-119837795D02*
X62684167Y-119742557D01*
X62684167Y-119742557D02*
X62731786Y-119694938D01*
X62731786Y-119694938D02*
X62827024Y-119647319D01*
X26566666Y-106781009D02*
X26233333Y-106781009D01*
X26233333Y-107304819D02*
X26233333Y-106304819D01*
X26233333Y-106304819D02*
X26709523Y-106304819D01*
X27423809Y-106781009D02*
X27566666Y-106828628D01*
X27566666Y-106828628D02*
X27614285Y-106876247D01*
X27614285Y-106876247D02*
X27661904Y-106971485D01*
X27661904Y-106971485D02*
X27661904Y-107114342D01*
X27661904Y-107114342D02*
X27614285Y-107209580D01*
X27614285Y-107209580D02*
X27566666Y-107257200D01*
X27566666Y-107257200D02*
X27471428Y-107304819D01*
X27471428Y-107304819D02*
X27090476Y-107304819D01*
X27090476Y-107304819D02*
X27090476Y-106304819D01*
X27090476Y-106304819D02*
X27423809Y-106304819D01*
X27423809Y-106304819D02*
X27519047Y-106352438D01*
X27519047Y-106352438D02*
X27566666Y-106400057D01*
X27566666Y-106400057D02*
X27614285Y-106495295D01*
X27614285Y-106495295D02*
X27614285Y-106590533D01*
X27614285Y-106590533D02*
X27566666Y-106685771D01*
X27566666Y-106685771D02*
X27519047Y-106733390D01*
X27519047Y-106733390D02*
X27423809Y-106781009D01*
X27423809Y-106781009D02*
X27090476Y-106781009D01*
X28614285Y-107304819D02*
X28042857Y-107304819D01*
X28328571Y-107304819D02*
X28328571Y-106304819D01*
X28328571Y-106304819D02*
X28233333Y-106447676D01*
X28233333Y-106447676D02*
X28138095Y-106542914D01*
X28138095Y-106542914D02*
X28042857Y-106590533D01*
X35254819Y-102342857D02*
X34778628Y-102676190D01*
X35254819Y-102914285D02*
X34254819Y-102914285D01*
X34254819Y-102914285D02*
X34254819Y-102533333D01*
X34254819Y-102533333D02*
X34302438Y-102438095D01*
X34302438Y-102438095D02*
X34350057Y-102390476D01*
X34350057Y-102390476D02*
X34445295Y-102342857D01*
X34445295Y-102342857D02*
X34588152Y-102342857D01*
X34588152Y-102342857D02*
X34683390Y-102390476D01*
X34683390Y-102390476D02*
X34731009Y-102438095D01*
X34731009Y-102438095D02*
X34778628Y-102533333D01*
X34778628Y-102533333D02*
X34778628Y-102914285D01*
X34350057Y-101961904D02*
X34302438Y-101914285D01*
X34302438Y-101914285D02*
X34254819Y-101819047D01*
X34254819Y-101819047D02*
X34254819Y-101580952D01*
X34254819Y-101580952D02*
X34302438Y-101485714D01*
X34302438Y-101485714D02*
X34350057Y-101438095D01*
X34350057Y-101438095D02*
X34445295Y-101390476D01*
X34445295Y-101390476D02*
X34540533Y-101390476D01*
X34540533Y-101390476D02*
X34683390Y-101438095D01*
X34683390Y-101438095D02*
X35254819Y-102009523D01*
X35254819Y-102009523D02*
X35254819Y-101390476D01*
X35254819Y-100438095D02*
X35254819Y-101009523D01*
X35254819Y-100723809D02*
X34254819Y-100723809D01*
X34254819Y-100723809D02*
X34397676Y-100819047D01*
X34397676Y-100819047D02*
X34492914Y-100914285D01*
X34492914Y-100914285D02*
X34540533Y-101009523D01*
X45290476Y-108079819D02*
X45290476Y-108794104D01*
X45290476Y-108794104D02*
X45242857Y-108936961D01*
X45242857Y-108936961D02*
X45147619Y-109032200D01*
X45147619Y-109032200D02*
X45004762Y-109079819D01*
X45004762Y-109079819D02*
X44909524Y-109079819D01*
X46290476Y-109079819D02*
X45719048Y-109079819D01*
X46004762Y-109079819D02*
X46004762Y-108079819D01*
X46004762Y-108079819D02*
X45909524Y-108222676D01*
X45909524Y-108222676D02*
X45814286Y-108317914D01*
X45814286Y-108317914D02*
X45719048Y-108365533D01*
X46623810Y-108079819D02*
X47290476Y-108079819D01*
X47290476Y-108079819D02*
X46861905Y-109079819D01*
X27238095Y-116054819D02*
X27238095Y-115054819D01*
X27238095Y-115531009D02*
X27809523Y-115531009D01*
X27809523Y-116054819D02*
X27809523Y-115054819D01*
X28714285Y-115388152D02*
X28714285Y-116054819D01*
X28476190Y-115007200D02*
X28238095Y-115721485D01*
X28238095Y-115721485D02*
X28857142Y-115721485D01*
X95154819Y-53242857D02*
X94678628Y-53576190D01*
X95154819Y-53814285D02*
X94154819Y-53814285D01*
X94154819Y-53814285D02*
X94154819Y-53433333D01*
X94154819Y-53433333D02*
X94202438Y-53338095D01*
X94202438Y-53338095D02*
X94250057Y-53290476D01*
X94250057Y-53290476D02*
X94345295Y-53242857D01*
X94345295Y-53242857D02*
X94488152Y-53242857D01*
X94488152Y-53242857D02*
X94583390Y-53290476D01*
X94583390Y-53290476D02*
X94631009Y-53338095D01*
X94631009Y-53338095D02*
X94678628Y-53433333D01*
X94678628Y-53433333D02*
X94678628Y-53814285D01*
X94488152Y-52385714D02*
X95154819Y-52385714D01*
X94107200Y-52623809D02*
X94821485Y-52861904D01*
X94821485Y-52861904D02*
X94821485Y-52242857D01*
X94154819Y-51957142D02*
X94154819Y-51290476D01*
X94154819Y-51290476D02*
X95154819Y-51719047D01*
X94440476Y-92049819D02*
X94440476Y-92764104D01*
X94440476Y-92764104D02*
X94392857Y-92906961D01*
X94392857Y-92906961D02*
X94297619Y-93002200D01*
X94297619Y-93002200D02*
X94154762Y-93049819D01*
X94154762Y-93049819D02*
X94059524Y-93049819D01*
X94869048Y-92145057D02*
X94916667Y-92097438D01*
X94916667Y-92097438D02*
X95011905Y-92049819D01*
X95011905Y-92049819D02*
X95250000Y-92049819D01*
X95250000Y-92049819D02*
X95345238Y-92097438D01*
X95345238Y-92097438D02*
X95392857Y-92145057D01*
X95392857Y-92145057D02*
X95440476Y-92240295D01*
X95440476Y-92240295D02*
X95440476Y-92335533D01*
X95440476Y-92335533D02*
X95392857Y-92478390D01*
X95392857Y-92478390D02*
X94821429Y-93049819D01*
X94821429Y-93049819D02*
X95440476Y-93049819D01*
X95773810Y-92049819D02*
X96392857Y-92049819D01*
X96392857Y-92049819D02*
X96059524Y-92430771D01*
X96059524Y-92430771D02*
X96202381Y-92430771D01*
X96202381Y-92430771D02*
X96297619Y-92478390D01*
X96297619Y-92478390D02*
X96345238Y-92526009D01*
X96345238Y-92526009D02*
X96392857Y-92621247D01*
X96392857Y-92621247D02*
X96392857Y-92859342D01*
X96392857Y-92859342D02*
X96345238Y-92954580D01*
X96345238Y-92954580D02*
X96297619Y-93002200D01*
X96297619Y-93002200D02*
X96202381Y-93049819D01*
X96202381Y-93049819D02*
X95916667Y-93049819D01*
X95916667Y-93049819D02*
X95821429Y-93002200D01*
X95821429Y-93002200D02*
X95773810Y-92954580D01*
X45566666Y-22254819D02*
X45566666Y-22969104D01*
X45566666Y-22969104D02*
X45519047Y-23111961D01*
X45519047Y-23111961D02*
X45423809Y-23207200D01*
X45423809Y-23207200D02*
X45280952Y-23254819D01*
X45280952Y-23254819D02*
X45185714Y-23254819D01*
X46471428Y-22254819D02*
X46280952Y-22254819D01*
X46280952Y-22254819D02*
X46185714Y-22302438D01*
X46185714Y-22302438D02*
X46138095Y-22350057D01*
X46138095Y-22350057D02*
X46042857Y-22492914D01*
X46042857Y-22492914D02*
X45995238Y-22683390D01*
X45995238Y-22683390D02*
X45995238Y-23064342D01*
X45995238Y-23064342D02*
X46042857Y-23159580D01*
X46042857Y-23159580D02*
X46090476Y-23207200D01*
X46090476Y-23207200D02*
X46185714Y-23254819D01*
X46185714Y-23254819D02*
X46376190Y-23254819D01*
X46376190Y-23254819D02*
X46471428Y-23207200D01*
X46471428Y-23207200D02*
X46519047Y-23159580D01*
X46519047Y-23159580D02*
X46566666Y-23064342D01*
X46566666Y-23064342D02*
X46566666Y-22826247D01*
X46566666Y-22826247D02*
X46519047Y-22731009D01*
X46519047Y-22731009D02*
X46471428Y-22683390D01*
X46471428Y-22683390D02*
X46376190Y-22635771D01*
X46376190Y-22635771D02*
X46185714Y-22635771D01*
X46185714Y-22635771D02*
X46090476Y-22683390D01*
X46090476Y-22683390D02*
X46042857Y-22731009D01*
X46042857Y-22731009D02*
X45995238Y-22826247D01*
X36824819Y-88509523D02*
X37539104Y-88509523D01*
X37539104Y-88509523D02*
X37681961Y-88557142D01*
X37681961Y-88557142D02*
X37777200Y-88652380D01*
X37777200Y-88652380D02*
X37824819Y-88795237D01*
X37824819Y-88795237D02*
X37824819Y-88890475D01*
X37824819Y-87509523D02*
X37824819Y-88080951D01*
X37824819Y-87795237D02*
X36824819Y-87795237D01*
X36824819Y-87795237D02*
X36967676Y-87890475D01*
X36967676Y-87890475D02*
X37062914Y-87985713D01*
X37062914Y-87985713D02*
X37110533Y-88080951D01*
X37824819Y-86557142D02*
X37824819Y-87128570D01*
X37824819Y-86842856D02*
X36824819Y-86842856D01*
X36824819Y-86842856D02*
X36967676Y-86938094D01*
X36967676Y-86938094D02*
X37062914Y-87033332D01*
X37062914Y-87033332D02*
X37110533Y-87128570D01*
X53850057Y-71071428D02*
X53802438Y-71166666D01*
X53802438Y-71166666D02*
X53707200Y-71261904D01*
X53707200Y-71261904D02*
X53564342Y-71404761D01*
X53564342Y-71404761D02*
X53516723Y-71499999D01*
X53516723Y-71499999D02*
X53516723Y-71595237D01*
X53754819Y-71547618D02*
X53707200Y-71642856D01*
X53707200Y-71642856D02*
X53611961Y-71738094D01*
X53611961Y-71738094D02*
X53421485Y-71785713D01*
X53421485Y-71785713D02*
X53088152Y-71785713D01*
X53088152Y-71785713D02*
X52897676Y-71738094D01*
X52897676Y-71738094D02*
X52802438Y-71642856D01*
X52802438Y-71642856D02*
X52754819Y-71547618D01*
X52754819Y-71547618D02*
X52754819Y-71357142D01*
X52754819Y-71357142D02*
X52802438Y-71261904D01*
X52802438Y-71261904D02*
X52897676Y-71166666D01*
X52897676Y-71166666D02*
X53088152Y-71119047D01*
X53088152Y-71119047D02*
X53421485Y-71119047D01*
X53421485Y-71119047D02*
X53611961Y-71166666D01*
X53611961Y-71166666D02*
X53707200Y-71261904D01*
X53707200Y-71261904D02*
X53754819Y-71357142D01*
X53754819Y-71357142D02*
X53754819Y-71547618D01*
X53754819Y-70166666D02*
X53754819Y-70738094D01*
X53754819Y-70452380D02*
X52754819Y-70452380D01*
X52754819Y-70452380D02*
X52897676Y-70547618D01*
X52897676Y-70547618D02*
X52992914Y-70642856D01*
X52992914Y-70642856D02*
X53040533Y-70738094D01*
X53754819Y-69214285D02*
X53754819Y-69785713D01*
X53754819Y-69499999D02*
X52754819Y-69499999D01*
X52754819Y-69499999D02*
X52897676Y-69595237D01*
X52897676Y-69595237D02*
X52992914Y-69690475D01*
X52992914Y-69690475D02*
X53040533Y-69785713D01*
X20407142Y-101404819D02*
X20073809Y-100928628D01*
X19835714Y-101404819D02*
X19835714Y-100404819D01*
X19835714Y-100404819D02*
X20216666Y-100404819D01*
X20216666Y-100404819D02*
X20311904Y-100452438D01*
X20311904Y-100452438D02*
X20359523Y-100500057D01*
X20359523Y-100500057D02*
X20407142Y-100595295D01*
X20407142Y-100595295D02*
X20407142Y-100738152D01*
X20407142Y-100738152D02*
X20359523Y-100833390D01*
X20359523Y-100833390D02*
X20311904Y-100881009D01*
X20311904Y-100881009D02*
X20216666Y-100928628D01*
X20216666Y-100928628D02*
X19835714Y-100928628D01*
X20788095Y-100500057D02*
X20835714Y-100452438D01*
X20835714Y-100452438D02*
X20930952Y-100404819D01*
X20930952Y-100404819D02*
X21169047Y-100404819D01*
X21169047Y-100404819D02*
X21264285Y-100452438D01*
X21264285Y-100452438D02*
X21311904Y-100500057D01*
X21311904Y-100500057D02*
X21359523Y-100595295D01*
X21359523Y-100595295D02*
X21359523Y-100690533D01*
X21359523Y-100690533D02*
X21311904Y-100833390D01*
X21311904Y-100833390D02*
X20740476Y-101404819D01*
X20740476Y-101404819D02*
X21359523Y-101404819D01*
X21692857Y-100404819D02*
X22311904Y-100404819D01*
X22311904Y-100404819D02*
X21978571Y-100785771D01*
X21978571Y-100785771D02*
X22121428Y-100785771D01*
X22121428Y-100785771D02*
X22216666Y-100833390D01*
X22216666Y-100833390D02*
X22264285Y-100881009D01*
X22264285Y-100881009D02*
X22311904Y-100976247D01*
X22311904Y-100976247D02*
X22311904Y-101214342D01*
X22311904Y-101214342D02*
X22264285Y-101309580D01*
X22264285Y-101309580D02*
X22216666Y-101357200D01*
X22216666Y-101357200D02*
X22121428Y-101404819D01*
X22121428Y-101404819D02*
X21835714Y-101404819D01*
X21835714Y-101404819D02*
X21740476Y-101357200D01*
X21740476Y-101357200D02*
X21692857Y-101309580D01*
X111238095Y-21054819D02*
X111238095Y-20054819D01*
X111238095Y-20531009D02*
X111809523Y-20531009D01*
X111809523Y-21054819D02*
X111809523Y-20054819D01*
X112238095Y-20150057D02*
X112285714Y-20102438D01*
X112285714Y-20102438D02*
X112380952Y-20054819D01*
X112380952Y-20054819D02*
X112619047Y-20054819D01*
X112619047Y-20054819D02*
X112714285Y-20102438D01*
X112714285Y-20102438D02*
X112761904Y-20150057D01*
X112761904Y-20150057D02*
X112809523Y-20245295D01*
X112809523Y-20245295D02*
X112809523Y-20340533D01*
X112809523Y-20340533D02*
X112761904Y-20483390D01*
X112761904Y-20483390D02*
X112190476Y-21054819D01*
X112190476Y-21054819D02*
X112809523Y-21054819D01*
X116766666Y-53754819D02*
X116766666Y-54469104D01*
X116766666Y-54469104D02*
X116719047Y-54611961D01*
X116719047Y-54611961D02*
X116623809Y-54707200D01*
X116623809Y-54707200D02*
X116480952Y-54754819D01*
X116480952Y-54754819D02*
X116385714Y-54754819D01*
X117147619Y-53754819D02*
X117766666Y-53754819D01*
X117766666Y-53754819D02*
X117433333Y-54135771D01*
X117433333Y-54135771D02*
X117576190Y-54135771D01*
X117576190Y-54135771D02*
X117671428Y-54183390D01*
X117671428Y-54183390D02*
X117719047Y-54231009D01*
X117719047Y-54231009D02*
X117766666Y-54326247D01*
X117766666Y-54326247D02*
X117766666Y-54564342D01*
X117766666Y-54564342D02*
X117719047Y-54659580D01*
X117719047Y-54659580D02*
X117671428Y-54707200D01*
X117671428Y-54707200D02*
X117576190Y-54754819D01*
X117576190Y-54754819D02*
X117290476Y-54754819D01*
X117290476Y-54754819D02*
X117195238Y-54707200D01*
X117195238Y-54707200D02*
X117147619Y-54659580D01*
X85304819Y-56938094D02*
X86114342Y-56938094D01*
X86114342Y-56938094D02*
X86209580Y-56890475D01*
X86209580Y-56890475D02*
X86257200Y-56842856D01*
X86257200Y-56842856D02*
X86304819Y-56747618D01*
X86304819Y-56747618D02*
X86304819Y-56557142D01*
X86304819Y-56557142D02*
X86257200Y-56461904D01*
X86257200Y-56461904D02*
X86209580Y-56414285D01*
X86209580Y-56414285D02*
X86114342Y-56366666D01*
X86114342Y-56366666D02*
X85304819Y-56366666D01*
X86304819Y-55366666D02*
X86304819Y-55938094D01*
X86304819Y-55652380D02*
X85304819Y-55652380D01*
X85304819Y-55652380D02*
X85447676Y-55747618D01*
X85447676Y-55747618D02*
X85542914Y-55842856D01*
X85542914Y-55842856D02*
X85590533Y-55938094D01*
X86304819Y-54414285D02*
X86304819Y-54985713D01*
X86304819Y-54699999D02*
X85304819Y-54699999D01*
X85304819Y-54699999D02*
X85447676Y-54795237D01*
X85447676Y-54795237D02*
X85542914Y-54890475D01*
X85542914Y-54890475D02*
X85590533Y-54985713D01*
X98190476Y-107059819D02*
X98190476Y-107774104D01*
X98190476Y-107774104D02*
X98142857Y-107916961D01*
X98142857Y-107916961D02*
X98047619Y-108012200D01*
X98047619Y-108012200D02*
X97904762Y-108059819D01*
X97904762Y-108059819D02*
X97809524Y-108059819D01*
X99190476Y-108059819D02*
X98619048Y-108059819D01*
X98904762Y-108059819D02*
X98904762Y-107059819D01*
X98904762Y-107059819D02*
X98809524Y-107202676D01*
X98809524Y-107202676D02*
X98714286Y-107297914D01*
X98714286Y-107297914D02*
X98619048Y-107345533D01*
X100047619Y-107393152D02*
X100047619Y-108059819D01*
X99809524Y-107012200D02*
X99571429Y-107726485D01*
X99571429Y-107726485D02*
X100190476Y-107726485D01*
X43367142Y-109674819D02*
X43033809Y-109198628D01*
X42795714Y-109674819D02*
X42795714Y-108674819D01*
X42795714Y-108674819D02*
X43176666Y-108674819D01*
X43176666Y-108674819D02*
X43271904Y-108722438D01*
X43271904Y-108722438D02*
X43319523Y-108770057D01*
X43319523Y-108770057D02*
X43367142Y-108865295D01*
X43367142Y-108865295D02*
X43367142Y-109008152D01*
X43367142Y-109008152D02*
X43319523Y-109103390D01*
X43319523Y-109103390D02*
X43271904Y-109151009D01*
X43271904Y-109151009D02*
X43176666Y-109198628D01*
X43176666Y-109198628D02*
X42795714Y-109198628D01*
X43700476Y-108674819D02*
X44319523Y-108674819D01*
X44319523Y-108674819D02*
X43986190Y-109055771D01*
X43986190Y-109055771D02*
X44129047Y-109055771D01*
X44129047Y-109055771D02*
X44224285Y-109103390D01*
X44224285Y-109103390D02*
X44271904Y-109151009D01*
X44271904Y-109151009D02*
X44319523Y-109246247D01*
X44319523Y-109246247D02*
X44319523Y-109484342D01*
X44319523Y-109484342D02*
X44271904Y-109579580D01*
X44271904Y-109579580D02*
X44224285Y-109627200D01*
X44224285Y-109627200D02*
X44129047Y-109674819D01*
X44129047Y-109674819D02*
X43843333Y-109674819D01*
X43843333Y-109674819D02*
X43748095Y-109627200D01*
X43748095Y-109627200D02*
X43700476Y-109579580D01*
X44795714Y-109674819D02*
X44986190Y-109674819D01*
X44986190Y-109674819D02*
X45081428Y-109627200D01*
X45081428Y-109627200D02*
X45129047Y-109579580D01*
X45129047Y-109579580D02*
X45224285Y-109436723D01*
X45224285Y-109436723D02*
X45271904Y-109246247D01*
X45271904Y-109246247D02*
X45271904Y-108865295D01*
X45271904Y-108865295D02*
X45224285Y-108770057D01*
X45224285Y-108770057D02*
X45176666Y-108722438D01*
X45176666Y-108722438D02*
X45081428Y-108674819D01*
X45081428Y-108674819D02*
X44890952Y-108674819D01*
X44890952Y-108674819D02*
X44795714Y-108722438D01*
X44795714Y-108722438D02*
X44748095Y-108770057D01*
X44748095Y-108770057D02*
X44700476Y-108865295D01*
X44700476Y-108865295D02*
X44700476Y-109103390D01*
X44700476Y-109103390D02*
X44748095Y-109198628D01*
X44748095Y-109198628D02*
X44795714Y-109246247D01*
X44795714Y-109246247D02*
X44890952Y-109293866D01*
X44890952Y-109293866D02*
X45081428Y-109293866D01*
X45081428Y-109293866D02*
X45176666Y-109246247D01*
X45176666Y-109246247D02*
X45224285Y-109198628D01*
X45224285Y-109198628D02*
X45271904Y-109103390D01*
X74074819Y-116464285D02*
X73074819Y-116464285D01*
X73074819Y-116464285D02*
X73074819Y-116226190D01*
X73074819Y-116226190D02*
X73122438Y-116083333D01*
X73122438Y-116083333D02*
X73217676Y-115988095D01*
X73217676Y-115988095D02*
X73312914Y-115940476D01*
X73312914Y-115940476D02*
X73503390Y-115892857D01*
X73503390Y-115892857D02*
X73646247Y-115892857D01*
X73646247Y-115892857D02*
X73836723Y-115940476D01*
X73836723Y-115940476D02*
X73931961Y-115988095D01*
X73931961Y-115988095D02*
X74027200Y-116083333D01*
X74027200Y-116083333D02*
X74074819Y-116226190D01*
X74074819Y-116226190D02*
X74074819Y-116464285D01*
X74074819Y-114940476D02*
X74074819Y-115511904D01*
X74074819Y-115226190D02*
X73074819Y-115226190D01*
X73074819Y-115226190D02*
X73217676Y-115321428D01*
X73217676Y-115321428D02*
X73312914Y-115416666D01*
X73312914Y-115416666D02*
X73360533Y-115511904D01*
X74074819Y-114464285D02*
X74074819Y-114273809D01*
X74074819Y-114273809D02*
X74027200Y-114178571D01*
X74027200Y-114178571D02*
X73979580Y-114130952D01*
X73979580Y-114130952D02*
X73836723Y-114035714D01*
X73836723Y-114035714D02*
X73646247Y-113988095D01*
X73646247Y-113988095D02*
X73265295Y-113988095D01*
X73265295Y-113988095D02*
X73170057Y-114035714D01*
X73170057Y-114035714D02*
X73122438Y-114083333D01*
X73122438Y-114083333D02*
X73074819Y-114178571D01*
X73074819Y-114178571D02*
X73074819Y-114369047D01*
X73074819Y-114369047D02*
X73122438Y-114464285D01*
X73122438Y-114464285D02*
X73170057Y-114511904D01*
X73170057Y-114511904D02*
X73265295Y-114559523D01*
X73265295Y-114559523D02*
X73503390Y-114559523D01*
X73503390Y-114559523D02*
X73598628Y-114511904D01*
X73598628Y-114511904D02*
X73646247Y-114464285D01*
X73646247Y-114464285D02*
X73693866Y-114369047D01*
X73693866Y-114369047D02*
X73693866Y-114178571D01*
X73693866Y-114178571D02*
X73646247Y-114083333D01*
X73646247Y-114083333D02*
X73598628Y-114035714D01*
X73598628Y-114035714D02*
X73503390Y-113988095D01*
X43167142Y-108114819D02*
X42833809Y-107638628D01*
X42595714Y-108114819D02*
X42595714Y-107114819D01*
X42595714Y-107114819D02*
X42976666Y-107114819D01*
X42976666Y-107114819D02*
X43071904Y-107162438D01*
X43071904Y-107162438D02*
X43119523Y-107210057D01*
X43119523Y-107210057D02*
X43167142Y-107305295D01*
X43167142Y-107305295D02*
X43167142Y-107448152D01*
X43167142Y-107448152D02*
X43119523Y-107543390D01*
X43119523Y-107543390D02*
X43071904Y-107591009D01*
X43071904Y-107591009D02*
X42976666Y-107638628D01*
X42976666Y-107638628D02*
X42595714Y-107638628D01*
X43500476Y-107114819D02*
X44119523Y-107114819D01*
X44119523Y-107114819D02*
X43786190Y-107495771D01*
X43786190Y-107495771D02*
X43929047Y-107495771D01*
X43929047Y-107495771D02*
X44024285Y-107543390D01*
X44024285Y-107543390D02*
X44071904Y-107591009D01*
X44071904Y-107591009D02*
X44119523Y-107686247D01*
X44119523Y-107686247D02*
X44119523Y-107924342D01*
X44119523Y-107924342D02*
X44071904Y-108019580D01*
X44071904Y-108019580D02*
X44024285Y-108067200D01*
X44024285Y-108067200D02*
X43929047Y-108114819D01*
X43929047Y-108114819D02*
X43643333Y-108114819D01*
X43643333Y-108114819D02*
X43548095Y-108067200D01*
X43548095Y-108067200D02*
X43500476Y-108019580D01*
X44690952Y-107543390D02*
X44595714Y-107495771D01*
X44595714Y-107495771D02*
X44548095Y-107448152D01*
X44548095Y-107448152D02*
X44500476Y-107352914D01*
X44500476Y-107352914D02*
X44500476Y-107305295D01*
X44500476Y-107305295D02*
X44548095Y-107210057D01*
X44548095Y-107210057D02*
X44595714Y-107162438D01*
X44595714Y-107162438D02*
X44690952Y-107114819D01*
X44690952Y-107114819D02*
X44881428Y-107114819D01*
X44881428Y-107114819D02*
X44976666Y-107162438D01*
X44976666Y-107162438D02*
X45024285Y-107210057D01*
X45024285Y-107210057D02*
X45071904Y-107305295D01*
X45071904Y-107305295D02*
X45071904Y-107352914D01*
X45071904Y-107352914D02*
X45024285Y-107448152D01*
X45024285Y-107448152D02*
X44976666Y-107495771D01*
X44976666Y-107495771D02*
X44881428Y-107543390D01*
X44881428Y-107543390D02*
X44690952Y-107543390D01*
X44690952Y-107543390D02*
X44595714Y-107591009D01*
X44595714Y-107591009D02*
X44548095Y-107638628D01*
X44548095Y-107638628D02*
X44500476Y-107733866D01*
X44500476Y-107733866D02*
X44500476Y-107924342D01*
X44500476Y-107924342D02*
X44548095Y-108019580D01*
X44548095Y-108019580D02*
X44595714Y-108067200D01*
X44595714Y-108067200D02*
X44690952Y-108114819D01*
X44690952Y-108114819D02*
X44881428Y-108114819D01*
X44881428Y-108114819D02*
X44976666Y-108067200D01*
X44976666Y-108067200D02*
X45024285Y-108019580D01*
X45024285Y-108019580D02*
X45071904Y-107924342D01*
X45071904Y-107924342D02*
X45071904Y-107733866D01*
X45071904Y-107733866D02*
X45024285Y-107638628D01*
X45024285Y-107638628D02*
X44976666Y-107591009D01*
X44976666Y-107591009D02*
X44881428Y-107543390D01*
X53050057Y-71071428D02*
X53002438Y-71166666D01*
X53002438Y-71166666D02*
X52907200Y-71261904D01*
X52907200Y-71261904D02*
X52764342Y-71404761D01*
X52764342Y-71404761D02*
X52716723Y-71499999D01*
X52716723Y-71499999D02*
X52716723Y-71595237D01*
X52954819Y-71547618D02*
X52907200Y-71642856D01*
X52907200Y-71642856D02*
X52811961Y-71738094D01*
X52811961Y-71738094D02*
X52621485Y-71785713D01*
X52621485Y-71785713D02*
X52288152Y-71785713D01*
X52288152Y-71785713D02*
X52097676Y-71738094D01*
X52097676Y-71738094D02*
X52002438Y-71642856D01*
X52002438Y-71642856D02*
X51954819Y-71547618D01*
X51954819Y-71547618D02*
X51954819Y-71357142D01*
X51954819Y-71357142D02*
X52002438Y-71261904D01*
X52002438Y-71261904D02*
X52097676Y-71166666D01*
X52097676Y-71166666D02*
X52288152Y-71119047D01*
X52288152Y-71119047D02*
X52621485Y-71119047D01*
X52621485Y-71119047D02*
X52811961Y-71166666D01*
X52811961Y-71166666D02*
X52907200Y-71261904D01*
X52907200Y-71261904D02*
X52954819Y-71357142D01*
X52954819Y-71357142D02*
X52954819Y-71547618D01*
X52954819Y-70166666D02*
X52954819Y-70738094D01*
X52954819Y-70452380D02*
X51954819Y-70452380D01*
X51954819Y-70452380D02*
X52097676Y-70547618D01*
X52097676Y-70547618D02*
X52192914Y-70642856D01*
X52192914Y-70642856D02*
X52240533Y-70738094D01*
X51954819Y-69547618D02*
X51954819Y-69452380D01*
X51954819Y-69452380D02*
X52002438Y-69357142D01*
X52002438Y-69357142D02*
X52050057Y-69309523D01*
X52050057Y-69309523D02*
X52145295Y-69261904D01*
X52145295Y-69261904D02*
X52335771Y-69214285D01*
X52335771Y-69214285D02*
X52573866Y-69214285D01*
X52573866Y-69214285D02*
X52764342Y-69261904D01*
X52764342Y-69261904D02*
X52859580Y-69309523D01*
X52859580Y-69309523D02*
X52907200Y-69357142D01*
X52907200Y-69357142D02*
X52954819Y-69452380D01*
X52954819Y-69452380D02*
X52954819Y-69547618D01*
X52954819Y-69547618D02*
X52907200Y-69642856D01*
X52907200Y-69642856D02*
X52859580Y-69690475D01*
X52859580Y-69690475D02*
X52764342Y-69738094D01*
X52764342Y-69738094D02*
X52573866Y-69785713D01*
X52573866Y-69785713D02*
X52335771Y-69785713D01*
X52335771Y-69785713D02*
X52145295Y-69738094D01*
X52145295Y-69738094D02*
X52050057Y-69690475D01*
X52050057Y-69690475D02*
X52002438Y-69642856D01*
X52002438Y-69642856D02*
X51954819Y-69547618D01*
X58984819Y-57209523D02*
X59699104Y-57209523D01*
X59699104Y-57209523D02*
X59841961Y-57257142D01*
X59841961Y-57257142D02*
X59937200Y-57352380D01*
X59937200Y-57352380D02*
X59984819Y-57495237D01*
X59984819Y-57495237D02*
X59984819Y-57590475D01*
X59080057Y-56780951D02*
X59032438Y-56733332D01*
X59032438Y-56733332D02*
X58984819Y-56638094D01*
X58984819Y-56638094D02*
X58984819Y-56399999D01*
X58984819Y-56399999D02*
X59032438Y-56304761D01*
X59032438Y-56304761D02*
X59080057Y-56257142D01*
X59080057Y-56257142D02*
X59175295Y-56209523D01*
X59175295Y-56209523D02*
X59270533Y-56209523D01*
X59270533Y-56209523D02*
X59413390Y-56257142D01*
X59413390Y-56257142D02*
X59984819Y-56828570D01*
X59984819Y-56828570D02*
X59984819Y-56209523D01*
X59318152Y-55352380D02*
X59984819Y-55352380D01*
X58937200Y-55590475D02*
X59651485Y-55828570D01*
X59651485Y-55828570D02*
X59651485Y-55209523D01*
X45457142Y-62954819D02*
X45123809Y-62478628D01*
X44885714Y-62954819D02*
X44885714Y-61954819D01*
X44885714Y-61954819D02*
X45266666Y-61954819D01*
X45266666Y-61954819D02*
X45361904Y-62002438D01*
X45361904Y-62002438D02*
X45409523Y-62050057D01*
X45409523Y-62050057D02*
X45457142Y-62145295D01*
X45457142Y-62145295D02*
X45457142Y-62288152D01*
X45457142Y-62288152D02*
X45409523Y-62383390D01*
X45409523Y-62383390D02*
X45361904Y-62431009D01*
X45361904Y-62431009D02*
X45266666Y-62478628D01*
X45266666Y-62478628D02*
X44885714Y-62478628D01*
X46361904Y-61954819D02*
X45885714Y-61954819D01*
X45885714Y-61954819D02*
X45838095Y-62431009D01*
X45838095Y-62431009D02*
X45885714Y-62383390D01*
X45885714Y-62383390D02*
X45980952Y-62335771D01*
X45980952Y-62335771D02*
X46219047Y-62335771D01*
X46219047Y-62335771D02*
X46314285Y-62383390D01*
X46314285Y-62383390D02*
X46361904Y-62431009D01*
X46361904Y-62431009D02*
X46409523Y-62526247D01*
X46409523Y-62526247D02*
X46409523Y-62764342D01*
X46409523Y-62764342D02*
X46361904Y-62859580D01*
X46361904Y-62859580D02*
X46314285Y-62907200D01*
X46314285Y-62907200D02*
X46219047Y-62954819D01*
X46219047Y-62954819D02*
X45980952Y-62954819D01*
X45980952Y-62954819D02*
X45885714Y-62907200D01*
X45885714Y-62907200D02*
X45838095Y-62859580D01*
X46790476Y-62050057D02*
X46838095Y-62002438D01*
X46838095Y-62002438D02*
X46933333Y-61954819D01*
X46933333Y-61954819D02*
X47171428Y-61954819D01*
X47171428Y-61954819D02*
X47266666Y-62002438D01*
X47266666Y-62002438D02*
X47314285Y-62050057D01*
X47314285Y-62050057D02*
X47361904Y-62145295D01*
X47361904Y-62145295D02*
X47361904Y-62240533D01*
X47361904Y-62240533D02*
X47314285Y-62383390D01*
X47314285Y-62383390D02*
X46742857Y-62954819D01*
X46742857Y-62954819D02*
X47361904Y-62954819D01*
X91450057Y-56571428D02*
X91402438Y-56666666D01*
X91402438Y-56666666D02*
X91307200Y-56761904D01*
X91307200Y-56761904D02*
X91164342Y-56904761D01*
X91164342Y-56904761D02*
X91116723Y-56999999D01*
X91116723Y-56999999D02*
X91116723Y-57095237D01*
X91354819Y-57047618D02*
X91307200Y-57142856D01*
X91307200Y-57142856D02*
X91211961Y-57238094D01*
X91211961Y-57238094D02*
X91021485Y-57285713D01*
X91021485Y-57285713D02*
X90688152Y-57285713D01*
X90688152Y-57285713D02*
X90497676Y-57238094D01*
X90497676Y-57238094D02*
X90402438Y-57142856D01*
X90402438Y-57142856D02*
X90354819Y-57047618D01*
X90354819Y-57047618D02*
X90354819Y-56857142D01*
X90354819Y-56857142D02*
X90402438Y-56761904D01*
X90402438Y-56761904D02*
X90497676Y-56666666D01*
X90497676Y-56666666D02*
X90688152Y-56619047D01*
X90688152Y-56619047D02*
X91021485Y-56619047D01*
X91021485Y-56619047D02*
X91211961Y-56666666D01*
X91211961Y-56666666D02*
X91307200Y-56761904D01*
X91307200Y-56761904D02*
X91354819Y-56857142D01*
X91354819Y-56857142D02*
X91354819Y-57047618D01*
X91354819Y-55666666D02*
X91354819Y-56238094D01*
X91354819Y-55952380D02*
X90354819Y-55952380D01*
X90354819Y-55952380D02*
X90497676Y-56047618D01*
X90497676Y-56047618D02*
X90592914Y-56142856D01*
X90592914Y-56142856D02*
X90640533Y-56238094D01*
X90450057Y-55285713D02*
X90402438Y-55238094D01*
X90402438Y-55238094D02*
X90354819Y-55142856D01*
X90354819Y-55142856D02*
X90354819Y-54904761D01*
X90354819Y-54904761D02*
X90402438Y-54809523D01*
X90402438Y-54809523D02*
X90450057Y-54761904D01*
X90450057Y-54761904D02*
X90545295Y-54714285D01*
X90545295Y-54714285D02*
X90640533Y-54714285D01*
X90640533Y-54714285D02*
X90783390Y-54761904D01*
X90783390Y-54761904D02*
X91354819Y-55333332D01*
X91354819Y-55333332D02*
X91354819Y-54714285D01*
X111238095Y-116054819D02*
X111238095Y-115054819D01*
X111238095Y-115531009D02*
X111809523Y-115531009D01*
X111809523Y-116054819D02*
X111809523Y-115054819D01*
X112190476Y-115054819D02*
X112809523Y-115054819D01*
X112809523Y-115054819D02*
X112476190Y-115435771D01*
X112476190Y-115435771D02*
X112619047Y-115435771D01*
X112619047Y-115435771D02*
X112714285Y-115483390D01*
X112714285Y-115483390D02*
X112761904Y-115531009D01*
X112761904Y-115531009D02*
X112809523Y-115626247D01*
X112809523Y-115626247D02*
X112809523Y-115864342D01*
X112809523Y-115864342D02*
X112761904Y-115959580D01*
X112761904Y-115959580D02*
X112714285Y-116007200D01*
X112714285Y-116007200D02*
X112619047Y-116054819D01*
X112619047Y-116054819D02*
X112333333Y-116054819D01*
X112333333Y-116054819D02*
X112238095Y-116007200D01*
X112238095Y-116007200D02*
X112190476Y-115959580D01*
X30457142Y-110559580D02*
X30409523Y-110607200D01*
X30409523Y-110607200D02*
X30266666Y-110654819D01*
X30266666Y-110654819D02*
X30171428Y-110654819D01*
X30171428Y-110654819D02*
X30028571Y-110607200D01*
X30028571Y-110607200D02*
X29933333Y-110511961D01*
X29933333Y-110511961D02*
X29885714Y-110416723D01*
X29885714Y-110416723D02*
X29838095Y-110226247D01*
X29838095Y-110226247D02*
X29838095Y-110083390D01*
X29838095Y-110083390D02*
X29885714Y-109892914D01*
X29885714Y-109892914D02*
X29933333Y-109797676D01*
X29933333Y-109797676D02*
X30028571Y-109702438D01*
X30028571Y-109702438D02*
X30171428Y-109654819D01*
X30171428Y-109654819D02*
X30266666Y-109654819D01*
X30266666Y-109654819D02*
X30409523Y-109702438D01*
X30409523Y-109702438D02*
X30457142Y-109750057D01*
X31409523Y-110654819D02*
X30838095Y-110654819D01*
X31123809Y-110654819D02*
X31123809Y-109654819D01*
X31123809Y-109654819D02*
X31028571Y-109797676D01*
X31028571Y-109797676D02*
X30933333Y-109892914D01*
X30933333Y-109892914D02*
X30838095Y-109940533D01*
X32266666Y-109654819D02*
X32076190Y-109654819D01*
X32076190Y-109654819D02*
X31980952Y-109702438D01*
X31980952Y-109702438D02*
X31933333Y-109750057D01*
X31933333Y-109750057D02*
X31838095Y-109892914D01*
X31838095Y-109892914D02*
X31790476Y-110083390D01*
X31790476Y-110083390D02*
X31790476Y-110464342D01*
X31790476Y-110464342D02*
X31838095Y-110559580D01*
X31838095Y-110559580D02*
X31885714Y-110607200D01*
X31885714Y-110607200D02*
X31980952Y-110654819D01*
X31980952Y-110654819D02*
X32171428Y-110654819D01*
X32171428Y-110654819D02*
X32266666Y-110607200D01*
X32266666Y-110607200D02*
X32314285Y-110559580D01*
X32314285Y-110559580D02*
X32361904Y-110464342D01*
X32361904Y-110464342D02*
X32361904Y-110226247D01*
X32361904Y-110226247D02*
X32314285Y-110131009D01*
X32314285Y-110131009D02*
X32266666Y-110083390D01*
X32266666Y-110083390D02*
X32171428Y-110035771D01*
X32171428Y-110035771D02*
X31980952Y-110035771D01*
X31980952Y-110035771D02*
X31885714Y-110083390D01*
X31885714Y-110083390D02*
X31838095Y-110131009D01*
X31838095Y-110131009D02*
X31790476Y-110226247D01*
X41554819Y-63638094D02*
X42364342Y-63638094D01*
X42364342Y-63638094D02*
X42459580Y-63590475D01*
X42459580Y-63590475D02*
X42507200Y-63542856D01*
X42507200Y-63542856D02*
X42554819Y-63447618D01*
X42554819Y-63447618D02*
X42554819Y-63257142D01*
X42554819Y-63257142D02*
X42507200Y-63161904D01*
X42507200Y-63161904D02*
X42459580Y-63114285D01*
X42459580Y-63114285D02*
X42364342Y-63066666D01*
X42364342Y-63066666D02*
X41554819Y-63066666D01*
X42554819Y-62066666D02*
X42554819Y-62638094D01*
X42554819Y-62352380D02*
X41554819Y-62352380D01*
X41554819Y-62352380D02*
X41697676Y-62447618D01*
X41697676Y-62447618D02*
X41792914Y-62542856D01*
X41792914Y-62542856D02*
X41840533Y-62638094D01*
X41650057Y-61685713D02*
X41602438Y-61638094D01*
X41602438Y-61638094D02*
X41554819Y-61542856D01*
X41554819Y-61542856D02*
X41554819Y-61304761D01*
X41554819Y-61304761D02*
X41602438Y-61209523D01*
X41602438Y-61209523D02*
X41650057Y-61161904D01*
X41650057Y-61161904D02*
X41745295Y-61114285D01*
X41745295Y-61114285D02*
X41840533Y-61114285D01*
X41840533Y-61114285D02*
X41983390Y-61161904D01*
X41983390Y-61161904D02*
X42554819Y-61733332D01*
X42554819Y-61733332D02*
X42554819Y-61114285D01*
X61390476Y-48384819D02*
X61390476Y-49099104D01*
X61390476Y-49099104D02*
X61342857Y-49241961D01*
X61342857Y-49241961D02*
X61247619Y-49337200D01*
X61247619Y-49337200D02*
X61104762Y-49384819D01*
X61104762Y-49384819D02*
X61009524Y-49384819D01*
X61819048Y-48480057D02*
X61866667Y-48432438D01*
X61866667Y-48432438D02*
X61961905Y-48384819D01*
X61961905Y-48384819D02*
X62200000Y-48384819D01*
X62200000Y-48384819D02*
X62295238Y-48432438D01*
X62295238Y-48432438D02*
X62342857Y-48480057D01*
X62342857Y-48480057D02*
X62390476Y-48575295D01*
X62390476Y-48575295D02*
X62390476Y-48670533D01*
X62390476Y-48670533D02*
X62342857Y-48813390D01*
X62342857Y-48813390D02*
X61771429Y-49384819D01*
X61771429Y-49384819D02*
X62390476Y-49384819D01*
X63295238Y-48384819D02*
X62819048Y-48384819D01*
X62819048Y-48384819D02*
X62771429Y-48861009D01*
X62771429Y-48861009D02*
X62819048Y-48813390D01*
X62819048Y-48813390D02*
X62914286Y-48765771D01*
X62914286Y-48765771D02*
X63152381Y-48765771D01*
X63152381Y-48765771D02*
X63247619Y-48813390D01*
X63247619Y-48813390D02*
X63295238Y-48861009D01*
X63295238Y-48861009D02*
X63342857Y-48956247D01*
X63342857Y-48956247D02*
X63342857Y-49194342D01*
X63342857Y-49194342D02*
X63295238Y-49289580D01*
X63295238Y-49289580D02*
X63247619Y-49337200D01*
X63247619Y-49337200D02*
X63152381Y-49384819D01*
X63152381Y-49384819D02*
X62914286Y-49384819D01*
X62914286Y-49384819D02*
X62819048Y-49337200D01*
X62819048Y-49337200D02*
X62771429Y-49289580D01*
X35589580Y-113992857D02*
X35637200Y-114040476D01*
X35637200Y-114040476D02*
X35684819Y-114183333D01*
X35684819Y-114183333D02*
X35684819Y-114278571D01*
X35684819Y-114278571D02*
X35637200Y-114421428D01*
X35637200Y-114421428D02*
X35541961Y-114516666D01*
X35541961Y-114516666D02*
X35446723Y-114564285D01*
X35446723Y-114564285D02*
X35256247Y-114611904D01*
X35256247Y-114611904D02*
X35113390Y-114611904D01*
X35113390Y-114611904D02*
X34922914Y-114564285D01*
X34922914Y-114564285D02*
X34827676Y-114516666D01*
X34827676Y-114516666D02*
X34732438Y-114421428D01*
X34732438Y-114421428D02*
X34684819Y-114278571D01*
X34684819Y-114278571D02*
X34684819Y-114183333D01*
X34684819Y-114183333D02*
X34732438Y-114040476D01*
X34732438Y-114040476D02*
X34780057Y-113992857D01*
X35684819Y-113040476D02*
X35684819Y-113611904D01*
X35684819Y-113326190D02*
X34684819Y-113326190D01*
X34684819Y-113326190D02*
X34827676Y-113421428D01*
X34827676Y-113421428D02*
X34922914Y-113516666D01*
X34922914Y-113516666D02*
X34970533Y-113611904D01*
X34684819Y-112707142D02*
X34684819Y-112040476D01*
X34684819Y-112040476D02*
X35684819Y-112469047D01*
D12*
X90428285Y-109454617D02*
X90428285Y-109843188D01*
X90428285Y-109843188D02*
X90451142Y-109888902D01*
X90451142Y-109888902D02*
X90474000Y-109911760D01*
X90474000Y-109911760D02*
X90519714Y-109934617D01*
X90519714Y-109934617D02*
X90611142Y-109934617D01*
X90611142Y-109934617D02*
X90656857Y-109911760D01*
X90656857Y-109911760D02*
X90679714Y-109888902D01*
X90679714Y-109888902D02*
X90702571Y-109843188D01*
X90702571Y-109843188D02*
X90702571Y-109454617D01*
X91136857Y-109454617D02*
X91045428Y-109454617D01*
X91045428Y-109454617D02*
X90999714Y-109477474D01*
X90999714Y-109477474D02*
X90976857Y-109500331D01*
X90976857Y-109500331D02*
X90931142Y-109568902D01*
X90931142Y-109568902D02*
X90908285Y-109660331D01*
X90908285Y-109660331D02*
X90908285Y-109843188D01*
X90908285Y-109843188D02*
X90931142Y-109888902D01*
X90931142Y-109888902D02*
X90953999Y-109911760D01*
X90953999Y-109911760D02*
X90999714Y-109934617D01*
X90999714Y-109934617D02*
X91091142Y-109934617D01*
X91091142Y-109934617D02*
X91136857Y-109911760D01*
X91136857Y-109911760D02*
X91159714Y-109888902D01*
X91159714Y-109888902D02*
X91182571Y-109843188D01*
X91182571Y-109843188D02*
X91182571Y-109728902D01*
X91182571Y-109728902D02*
X91159714Y-109683188D01*
X91159714Y-109683188D02*
X91136857Y-109660331D01*
X91136857Y-109660331D02*
X91091142Y-109637474D01*
X91091142Y-109637474D02*
X90999714Y-109637474D01*
X90999714Y-109637474D02*
X90953999Y-109660331D01*
X90953999Y-109660331D02*
X90931142Y-109683188D01*
X90931142Y-109683188D02*
X90908285Y-109728902D01*
D11*
X34566666Y-36354819D02*
X34566666Y-37069104D01*
X34566666Y-37069104D02*
X34519047Y-37211961D01*
X34519047Y-37211961D02*
X34423809Y-37307200D01*
X34423809Y-37307200D02*
X34280952Y-37354819D01*
X34280952Y-37354819D02*
X34185714Y-37354819D01*
X34995238Y-36450057D02*
X35042857Y-36402438D01*
X35042857Y-36402438D02*
X35138095Y-36354819D01*
X35138095Y-36354819D02*
X35376190Y-36354819D01*
X35376190Y-36354819D02*
X35471428Y-36402438D01*
X35471428Y-36402438D02*
X35519047Y-36450057D01*
X35519047Y-36450057D02*
X35566666Y-36545295D01*
X35566666Y-36545295D02*
X35566666Y-36640533D01*
X35566666Y-36640533D02*
X35519047Y-36783390D01*
X35519047Y-36783390D02*
X34947619Y-37354819D01*
X34947619Y-37354819D02*
X35566666Y-37354819D01*
X41250057Y-68695238D02*
X41202438Y-68790476D01*
X41202438Y-68790476D02*
X41107200Y-68885714D01*
X41107200Y-68885714D02*
X40964342Y-69028571D01*
X40964342Y-69028571D02*
X40916723Y-69123809D01*
X40916723Y-69123809D02*
X40916723Y-69219047D01*
X41154819Y-69171428D02*
X41107200Y-69266666D01*
X41107200Y-69266666D02*
X41011961Y-69361904D01*
X41011961Y-69361904D02*
X40821485Y-69409523D01*
X40821485Y-69409523D02*
X40488152Y-69409523D01*
X40488152Y-69409523D02*
X40297676Y-69361904D01*
X40297676Y-69361904D02*
X40202438Y-69266666D01*
X40202438Y-69266666D02*
X40154819Y-69171428D01*
X40154819Y-69171428D02*
X40154819Y-68980952D01*
X40154819Y-68980952D02*
X40202438Y-68885714D01*
X40202438Y-68885714D02*
X40297676Y-68790476D01*
X40297676Y-68790476D02*
X40488152Y-68742857D01*
X40488152Y-68742857D02*
X40821485Y-68742857D01*
X40821485Y-68742857D02*
X41011961Y-68790476D01*
X41011961Y-68790476D02*
X41107200Y-68885714D01*
X41107200Y-68885714D02*
X41154819Y-68980952D01*
X41154819Y-68980952D02*
X41154819Y-69171428D01*
X41154819Y-68266666D02*
X41154819Y-68076190D01*
X41154819Y-68076190D02*
X41107200Y-67980952D01*
X41107200Y-67980952D02*
X41059580Y-67933333D01*
X41059580Y-67933333D02*
X40916723Y-67838095D01*
X40916723Y-67838095D02*
X40726247Y-67790476D01*
X40726247Y-67790476D02*
X40345295Y-67790476D01*
X40345295Y-67790476D02*
X40250057Y-67838095D01*
X40250057Y-67838095D02*
X40202438Y-67885714D01*
X40202438Y-67885714D02*
X40154819Y-67980952D01*
X40154819Y-67980952D02*
X40154819Y-68171428D01*
X40154819Y-68171428D02*
X40202438Y-68266666D01*
X40202438Y-68266666D02*
X40250057Y-68314285D01*
X40250057Y-68314285D02*
X40345295Y-68361904D01*
X40345295Y-68361904D02*
X40583390Y-68361904D01*
X40583390Y-68361904D02*
X40678628Y-68314285D01*
X40678628Y-68314285D02*
X40726247Y-68266666D01*
X40726247Y-68266666D02*
X40773866Y-68171428D01*
X40773866Y-68171428D02*
X40773866Y-67980952D01*
X40773866Y-67980952D02*
X40726247Y-67885714D01*
X40726247Y-67885714D02*
X40678628Y-67838095D01*
X40678628Y-67838095D02*
X40583390Y-67790476D01*
X54257142Y-72624819D02*
X53923809Y-72148628D01*
X53685714Y-72624819D02*
X53685714Y-71624819D01*
X53685714Y-71624819D02*
X54066666Y-71624819D01*
X54066666Y-71624819D02*
X54161904Y-71672438D01*
X54161904Y-71672438D02*
X54209523Y-71720057D01*
X54209523Y-71720057D02*
X54257142Y-71815295D01*
X54257142Y-71815295D02*
X54257142Y-71958152D01*
X54257142Y-71958152D02*
X54209523Y-72053390D01*
X54209523Y-72053390D02*
X54161904Y-72101009D01*
X54161904Y-72101009D02*
X54066666Y-72148628D01*
X54066666Y-72148628D02*
X53685714Y-72148628D01*
X55114285Y-71958152D02*
X55114285Y-72624819D01*
X54876190Y-71577200D02*
X54638095Y-72291485D01*
X54638095Y-72291485D02*
X55257142Y-72291485D01*
X55542857Y-71624819D02*
X56161904Y-71624819D01*
X56161904Y-71624819D02*
X55828571Y-72005771D01*
X55828571Y-72005771D02*
X55971428Y-72005771D01*
X55971428Y-72005771D02*
X56066666Y-72053390D01*
X56066666Y-72053390D02*
X56114285Y-72101009D01*
X56114285Y-72101009D02*
X56161904Y-72196247D01*
X56161904Y-72196247D02*
X56161904Y-72434342D01*
X56161904Y-72434342D02*
X56114285Y-72529580D01*
X56114285Y-72529580D02*
X56066666Y-72577200D01*
X56066666Y-72577200D02*
X55971428Y-72624819D01*
X55971428Y-72624819D02*
X55685714Y-72624819D01*
X55685714Y-72624819D02*
X55590476Y-72577200D01*
X55590476Y-72577200D02*
X55542857Y-72529580D01*
X42333333Y-108354819D02*
X41857143Y-108354819D01*
X41857143Y-108354819D02*
X41857143Y-107354819D01*
X42619048Y-107450057D02*
X42666667Y-107402438D01*
X42666667Y-107402438D02*
X42761905Y-107354819D01*
X42761905Y-107354819D02*
X43000000Y-107354819D01*
X43000000Y-107354819D02*
X43095238Y-107402438D01*
X43095238Y-107402438D02*
X43142857Y-107450057D01*
X43142857Y-107450057D02*
X43190476Y-107545295D01*
X43190476Y-107545295D02*
X43190476Y-107640533D01*
X43190476Y-107640533D02*
X43142857Y-107783390D01*
X43142857Y-107783390D02*
X42571429Y-108354819D01*
X42571429Y-108354819D02*
X43190476Y-108354819D01*
X79274819Y-116464285D02*
X78274819Y-116464285D01*
X78274819Y-116464285D02*
X78274819Y-116226190D01*
X78274819Y-116226190D02*
X78322438Y-116083333D01*
X78322438Y-116083333D02*
X78417676Y-115988095D01*
X78417676Y-115988095D02*
X78512914Y-115940476D01*
X78512914Y-115940476D02*
X78703390Y-115892857D01*
X78703390Y-115892857D02*
X78846247Y-115892857D01*
X78846247Y-115892857D02*
X79036723Y-115940476D01*
X79036723Y-115940476D02*
X79131961Y-115988095D01*
X79131961Y-115988095D02*
X79227200Y-116083333D01*
X79227200Y-116083333D02*
X79274819Y-116226190D01*
X79274819Y-116226190D02*
X79274819Y-116464285D01*
X78370057Y-115511904D02*
X78322438Y-115464285D01*
X78322438Y-115464285D02*
X78274819Y-115369047D01*
X78274819Y-115369047D02*
X78274819Y-115130952D01*
X78274819Y-115130952D02*
X78322438Y-115035714D01*
X78322438Y-115035714D02*
X78370057Y-114988095D01*
X78370057Y-114988095D02*
X78465295Y-114940476D01*
X78465295Y-114940476D02*
X78560533Y-114940476D01*
X78560533Y-114940476D02*
X78703390Y-114988095D01*
X78703390Y-114988095D02*
X79274819Y-115559523D01*
X79274819Y-115559523D02*
X79274819Y-114940476D01*
X79274819Y-113988095D02*
X79274819Y-114559523D01*
X79274819Y-114273809D02*
X78274819Y-114273809D01*
X78274819Y-114273809D02*
X78417676Y-114369047D01*
X78417676Y-114369047D02*
X78512914Y-114464285D01*
X78512914Y-114464285D02*
X78560533Y-114559523D01*
X82559580Y-54042857D02*
X82607200Y-54090476D01*
X82607200Y-54090476D02*
X82654819Y-54233333D01*
X82654819Y-54233333D02*
X82654819Y-54328571D01*
X82654819Y-54328571D02*
X82607200Y-54471428D01*
X82607200Y-54471428D02*
X82511961Y-54566666D01*
X82511961Y-54566666D02*
X82416723Y-54614285D01*
X82416723Y-54614285D02*
X82226247Y-54661904D01*
X82226247Y-54661904D02*
X82083390Y-54661904D01*
X82083390Y-54661904D02*
X81892914Y-54614285D01*
X81892914Y-54614285D02*
X81797676Y-54566666D01*
X81797676Y-54566666D02*
X81702438Y-54471428D01*
X81702438Y-54471428D02*
X81654819Y-54328571D01*
X81654819Y-54328571D02*
X81654819Y-54233333D01*
X81654819Y-54233333D02*
X81702438Y-54090476D01*
X81702438Y-54090476D02*
X81750057Y-54042857D01*
X81654819Y-53709523D02*
X81654819Y-53090476D01*
X81654819Y-53090476D02*
X82035771Y-53423809D01*
X82035771Y-53423809D02*
X82035771Y-53280952D01*
X82035771Y-53280952D02*
X82083390Y-53185714D01*
X82083390Y-53185714D02*
X82131009Y-53138095D01*
X82131009Y-53138095D02*
X82226247Y-53090476D01*
X82226247Y-53090476D02*
X82464342Y-53090476D01*
X82464342Y-53090476D02*
X82559580Y-53138095D01*
X82559580Y-53138095D02*
X82607200Y-53185714D01*
X82607200Y-53185714D02*
X82654819Y-53280952D01*
X82654819Y-53280952D02*
X82654819Y-53566666D01*
X82654819Y-53566666D02*
X82607200Y-53661904D01*
X82607200Y-53661904D02*
X82559580Y-53709523D01*
X81750057Y-52709523D02*
X81702438Y-52661904D01*
X81702438Y-52661904D02*
X81654819Y-52566666D01*
X81654819Y-52566666D02*
X81654819Y-52328571D01*
X81654819Y-52328571D02*
X81702438Y-52233333D01*
X81702438Y-52233333D02*
X81750057Y-52185714D01*
X81750057Y-52185714D02*
X81845295Y-52138095D01*
X81845295Y-52138095D02*
X81940533Y-52138095D01*
X81940533Y-52138095D02*
X82083390Y-52185714D01*
X82083390Y-52185714D02*
X82654819Y-52757142D01*
X82654819Y-52757142D02*
X82654819Y-52138095D01*
X71254819Y-96809523D02*
X71969104Y-96809523D01*
X71969104Y-96809523D02*
X72111961Y-96857142D01*
X72111961Y-96857142D02*
X72207200Y-96952380D01*
X72207200Y-96952380D02*
X72254819Y-97095237D01*
X72254819Y-97095237D02*
X72254819Y-97190475D01*
X72254819Y-95809523D02*
X72254819Y-96380951D01*
X72254819Y-96095237D02*
X71254819Y-96095237D01*
X71254819Y-96095237D02*
X71397676Y-96190475D01*
X71397676Y-96190475D02*
X71492914Y-96285713D01*
X71492914Y-96285713D02*
X71540533Y-96380951D01*
X71254819Y-95190475D02*
X71254819Y-95095237D01*
X71254819Y-95095237D02*
X71302438Y-94999999D01*
X71302438Y-94999999D02*
X71350057Y-94952380D01*
X71350057Y-94952380D02*
X71445295Y-94904761D01*
X71445295Y-94904761D02*
X71635771Y-94857142D01*
X71635771Y-94857142D02*
X71873866Y-94857142D01*
X71873866Y-94857142D02*
X72064342Y-94904761D01*
X72064342Y-94904761D02*
X72159580Y-94952380D01*
X72159580Y-94952380D02*
X72207200Y-94999999D01*
X72207200Y-94999999D02*
X72254819Y-95095237D01*
X72254819Y-95095237D02*
X72254819Y-95190475D01*
X72254819Y-95190475D02*
X72207200Y-95285713D01*
X72207200Y-95285713D02*
X72159580Y-95333332D01*
X72159580Y-95333332D02*
X72064342Y-95380951D01*
X72064342Y-95380951D02*
X71873866Y-95428570D01*
X71873866Y-95428570D02*
X71635771Y-95428570D01*
X71635771Y-95428570D02*
X71445295Y-95380951D01*
X71445295Y-95380951D02*
X71350057Y-95333332D01*
X71350057Y-95333332D02*
X71302438Y-95285713D01*
X71302438Y-95285713D02*
X71254819Y-95190475D01*
X39257142Y-63054819D02*
X38923809Y-62578628D01*
X38685714Y-63054819D02*
X38685714Y-62054819D01*
X38685714Y-62054819D02*
X39066666Y-62054819D01*
X39066666Y-62054819D02*
X39161904Y-62102438D01*
X39161904Y-62102438D02*
X39209523Y-62150057D01*
X39209523Y-62150057D02*
X39257142Y-62245295D01*
X39257142Y-62245295D02*
X39257142Y-62388152D01*
X39257142Y-62388152D02*
X39209523Y-62483390D01*
X39209523Y-62483390D02*
X39161904Y-62531009D01*
X39161904Y-62531009D02*
X39066666Y-62578628D01*
X39066666Y-62578628D02*
X38685714Y-62578628D01*
X40161904Y-62054819D02*
X39685714Y-62054819D01*
X39685714Y-62054819D02*
X39638095Y-62531009D01*
X39638095Y-62531009D02*
X39685714Y-62483390D01*
X39685714Y-62483390D02*
X39780952Y-62435771D01*
X39780952Y-62435771D02*
X40019047Y-62435771D01*
X40019047Y-62435771D02*
X40114285Y-62483390D01*
X40114285Y-62483390D02*
X40161904Y-62531009D01*
X40161904Y-62531009D02*
X40209523Y-62626247D01*
X40209523Y-62626247D02*
X40209523Y-62864342D01*
X40209523Y-62864342D02*
X40161904Y-62959580D01*
X40161904Y-62959580D02*
X40114285Y-63007200D01*
X40114285Y-63007200D02*
X40019047Y-63054819D01*
X40019047Y-63054819D02*
X39780952Y-63054819D01*
X39780952Y-63054819D02*
X39685714Y-63007200D01*
X39685714Y-63007200D02*
X39638095Y-62959580D01*
X40542857Y-62054819D02*
X41161904Y-62054819D01*
X41161904Y-62054819D02*
X40828571Y-62435771D01*
X40828571Y-62435771D02*
X40971428Y-62435771D01*
X40971428Y-62435771D02*
X41066666Y-62483390D01*
X41066666Y-62483390D02*
X41114285Y-62531009D01*
X41114285Y-62531009D02*
X41161904Y-62626247D01*
X41161904Y-62626247D02*
X41161904Y-62864342D01*
X41161904Y-62864342D02*
X41114285Y-62959580D01*
X41114285Y-62959580D02*
X41066666Y-63007200D01*
X41066666Y-63007200D02*
X40971428Y-63054819D01*
X40971428Y-63054819D02*
X40685714Y-63054819D01*
X40685714Y-63054819D02*
X40590476Y-63007200D01*
X40590476Y-63007200D02*
X40542857Y-62959580D01*
X31654819Y-102242857D02*
X31178628Y-102576190D01*
X31654819Y-102814285D02*
X30654819Y-102814285D01*
X30654819Y-102814285D02*
X30654819Y-102433333D01*
X30654819Y-102433333D02*
X30702438Y-102338095D01*
X30702438Y-102338095D02*
X30750057Y-102290476D01*
X30750057Y-102290476D02*
X30845295Y-102242857D01*
X30845295Y-102242857D02*
X30988152Y-102242857D01*
X30988152Y-102242857D02*
X31083390Y-102290476D01*
X31083390Y-102290476D02*
X31131009Y-102338095D01*
X31131009Y-102338095D02*
X31178628Y-102433333D01*
X31178628Y-102433333D02*
X31178628Y-102814285D01*
X30750057Y-101861904D02*
X30702438Y-101814285D01*
X30702438Y-101814285D02*
X30654819Y-101719047D01*
X30654819Y-101719047D02*
X30654819Y-101480952D01*
X30654819Y-101480952D02*
X30702438Y-101385714D01*
X30702438Y-101385714D02*
X30750057Y-101338095D01*
X30750057Y-101338095D02*
X30845295Y-101290476D01*
X30845295Y-101290476D02*
X30940533Y-101290476D01*
X30940533Y-101290476D02*
X31083390Y-101338095D01*
X31083390Y-101338095D02*
X31654819Y-101909523D01*
X31654819Y-101909523D02*
X31654819Y-101290476D01*
X30750057Y-100909523D02*
X30702438Y-100861904D01*
X30702438Y-100861904D02*
X30654819Y-100766666D01*
X30654819Y-100766666D02*
X30654819Y-100528571D01*
X30654819Y-100528571D02*
X30702438Y-100433333D01*
X30702438Y-100433333D02*
X30750057Y-100385714D01*
X30750057Y-100385714D02*
X30845295Y-100338095D01*
X30845295Y-100338095D02*
X30940533Y-100338095D01*
X30940533Y-100338095D02*
X31083390Y-100385714D01*
X31083390Y-100385714D02*
X31654819Y-100957142D01*
X31654819Y-100957142D02*
X31654819Y-100338095D01*
X39128571Y-64650057D02*
X39033333Y-64602438D01*
X39033333Y-64602438D02*
X38938095Y-64507200D01*
X38938095Y-64507200D02*
X38795238Y-64364342D01*
X38795238Y-64364342D02*
X38700000Y-64316723D01*
X38700000Y-64316723D02*
X38604762Y-64316723D01*
X38652381Y-64554819D02*
X38557143Y-64507200D01*
X38557143Y-64507200D02*
X38461905Y-64411961D01*
X38461905Y-64411961D02*
X38414286Y-64221485D01*
X38414286Y-64221485D02*
X38414286Y-63888152D01*
X38414286Y-63888152D02*
X38461905Y-63697676D01*
X38461905Y-63697676D02*
X38557143Y-63602438D01*
X38557143Y-63602438D02*
X38652381Y-63554819D01*
X38652381Y-63554819D02*
X38842857Y-63554819D01*
X38842857Y-63554819D02*
X38938095Y-63602438D01*
X38938095Y-63602438D02*
X39033333Y-63697676D01*
X39033333Y-63697676D02*
X39080952Y-63888152D01*
X39080952Y-63888152D02*
X39080952Y-64221485D01*
X39080952Y-64221485D02*
X39033333Y-64411961D01*
X39033333Y-64411961D02*
X38938095Y-64507200D01*
X38938095Y-64507200D02*
X38842857Y-64554819D01*
X38842857Y-64554819D02*
X38652381Y-64554819D01*
X40033333Y-64554819D02*
X39461905Y-64554819D01*
X39747619Y-64554819D02*
X39747619Y-63554819D01*
X39747619Y-63554819D02*
X39652381Y-63697676D01*
X39652381Y-63697676D02*
X39557143Y-63792914D01*
X39557143Y-63792914D02*
X39461905Y-63840533D01*
X40938095Y-63554819D02*
X40461905Y-63554819D01*
X40461905Y-63554819D02*
X40414286Y-64031009D01*
X40414286Y-64031009D02*
X40461905Y-63983390D01*
X40461905Y-63983390D02*
X40557143Y-63935771D01*
X40557143Y-63935771D02*
X40795238Y-63935771D01*
X40795238Y-63935771D02*
X40890476Y-63983390D01*
X40890476Y-63983390D02*
X40938095Y-64031009D01*
X40938095Y-64031009D02*
X40985714Y-64126247D01*
X40985714Y-64126247D02*
X40985714Y-64364342D01*
X40985714Y-64364342D02*
X40938095Y-64459580D01*
X40938095Y-64459580D02*
X40890476Y-64507200D01*
X40890476Y-64507200D02*
X40795238Y-64554819D01*
X40795238Y-64554819D02*
X40557143Y-64554819D01*
X40557143Y-64554819D02*
X40461905Y-64507200D01*
X40461905Y-64507200D02*
X40414286Y-64459580D01*
X23557142Y-108454819D02*
X23223809Y-107978628D01*
X22985714Y-108454819D02*
X22985714Y-107454819D01*
X22985714Y-107454819D02*
X23366666Y-107454819D01*
X23366666Y-107454819D02*
X23461904Y-107502438D01*
X23461904Y-107502438D02*
X23509523Y-107550057D01*
X23509523Y-107550057D02*
X23557142Y-107645295D01*
X23557142Y-107645295D02*
X23557142Y-107788152D01*
X23557142Y-107788152D02*
X23509523Y-107883390D01*
X23509523Y-107883390D02*
X23461904Y-107931009D01*
X23461904Y-107931009D02*
X23366666Y-107978628D01*
X23366666Y-107978628D02*
X22985714Y-107978628D01*
X24509523Y-108454819D02*
X23938095Y-108454819D01*
X24223809Y-108454819D02*
X24223809Y-107454819D01*
X24223809Y-107454819D02*
X24128571Y-107597676D01*
X24128571Y-107597676D02*
X24033333Y-107692914D01*
X24033333Y-107692914D02*
X23938095Y-107740533D01*
X24842857Y-107454819D02*
X25509523Y-107454819D01*
X25509523Y-107454819D02*
X25080952Y-108454819D01*
X25257142Y-108354819D02*
X24923809Y-107878628D01*
X24685714Y-108354819D02*
X24685714Y-107354819D01*
X24685714Y-107354819D02*
X25066666Y-107354819D01*
X25066666Y-107354819D02*
X25161904Y-107402438D01*
X25161904Y-107402438D02*
X25209523Y-107450057D01*
X25209523Y-107450057D02*
X25257142Y-107545295D01*
X25257142Y-107545295D02*
X25257142Y-107688152D01*
X25257142Y-107688152D02*
X25209523Y-107783390D01*
X25209523Y-107783390D02*
X25161904Y-107831009D01*
X25161904Y-107831009D02*
X25066666Y-107878628D01*
X25066666Y-107878628D02*
X24685714Y-107878628D01*
X26209523Y-108354819D02*
X25638095Y-108354819D01*
X25923809Y-108354819D02*
X25923809Y-107354819D01*
X25923809Y-107354819D02*
X25828571Y-107497676D01*
X25828571Y-107497676D02*
X25733333Y-107592914D01*
X25733333Y-107592914D02*
X25638095Y-107640533D01*
X26780952Y-107783390D02*
X26685714Y-107735771D01*
X26685714Y-107735771D02*
X26638095Y-107688152D01*
X26638095Y-107688152D02*
X26590476Y-107592914D01*
X26590476Y-107592914D02*
X26590476Y-107545295D01*
X26590476Y-107545295D02*
X26638095Y-107450057D01*
X26638095Y-107450057D02*
X26685714Y-107402438D01*
X26685714Y-107402438D02*
X26780952Y-107354819D01*
X26780952Y-107354819D02*
X26971428Y-107354819D01*
X26971428Y-107354819D02*
X27066666Y-107402438D01*
X27066666Y-107402438D02*
X27114285Y-107450057D01*
X27114285Y-107450057D02*
X27161904Y-107545295D01*
X27161904Y-107545295D02*
X27161904Y-107592914D01*
X27161904Y-107592914D02*
X27114285Y-107688152D01*
X27114285Y-107688152D02*
X27066666Y-107735771D01*
X27066666Y-107735771D02*
X26971428Y-107783390D01*
X26971428Y-107783390D02*
X26780952Y-107783390D01*
X26780952Y-107783390D02*
X26685714Y-107831009D01*
X26685714Y-107831009D02*
X26638095Y-107878628D01*
X26638095Y-107878628D02*
X26590476Y-107973866D01*
X26590476Y-107973866D02*
X26590476Y-108164342D01*
X26590476Y-108164342D02*
X26638095Y-108259580D01*
X26638095Y-108259580D02*
X26685714Y-108307200D01*
X26685714Y-108307200D02*
X26780952Y-108354819D01*
X26780952Y-108354819D02*
X26971428Y-108354819D01*
X26971428Y-108354819D02*
X27066666Y-108307200D01*
X27066666Y-108307200D02*
X27114285Y-108259580D01*
X27114285Y-108259580D02*
X27161904Y-108164342D01*
X27161904Y-108164342D02*
X27161904Y-107973866D01*
X27161904Y-107973866D02*
X27114285Y-107878628D01*
X27114285Y-107878628D02*
X27066666Y-107831009D01*
X27066666Y-107831009D02*
X26971428Y-107783390D01*
X35329819Y-111666904D02*
X36139342Y-111666904D01*
X36139342Y-111666904D02*
X36234580Y-111619285D01*
X36234580Y-111619285D02*
X36282200Y-111571666D01*
X36282200Y-111571666D02*
X36329819Y-111476428D01*
X36329819Y-111476428D02*
X36329819Y-111285952D01*
X36329819Y-111285952D02*
X36282200Y-111190714D01*
X36282200Y-111190714D02*
X36234580Y-111143095D01*
X36234580Y-111143095D02*
X36139342Y-111095476D01*
X36139342Y-111095476D02*
X35329819Y-111095476D01*
X35329819Y-110143095D02*
X35329819Y-110619285D01*
X35329819Y-110619285D02*
X35806009Y-110666904D01*
X35806009Y-110666904D02*
X35758390Y-110619285D01*
X35758390Y-110619285D02*
X35710771Y-110524047D01*
X35710771Y-110524047D02*
X35710771Y-110285952D01*
X35710771Y-110285952D02*
X35758390Y-110190714D01*
X35758390Y-110190714D02*
X35806009Y-110143095D01*
X35806009Y-110143095D02*
X35901247Y-110095476D01*
X35901247Y-110095476D02*
X36139342Y-110095476D01*
X36139342Y-110095476D02*
X36234580Y-110143095D01*
X36234580Y-110143095D02*
X36282200Y-110190714D01*
X36282200Y-110190714D02*
X36329819Y-110285952D01*
X36329819Y-110285952D02*
X36329819Y-110524047D01*
X36329819Y-110524047D02*
X36282200Y-110619285D01*
X36282200Y-110619285D02*
X36234580Y-110666904D01*
X87189580Y-54242857D02*
X87237200Y-54290476D01*
X87237200Y-54290476D02*
X87284819Y-54433333D01*
X87284819Y-54433333D02*
X87284819Y-54528571D01*
X87284819Y-54528571D02*
X87237200Y-54671428D01*
X87237200Y-54671428D02*
X87141961Y-54766666D01*
X87141961Y-54766666D02*
X87046723Y-54814285D01*
X87046723Y-54814285D02*
X86856247Y-54861904D01*
X86856247Y-54861904D02*
X86713390Y-54861904D01*
X86713390Y-54861904D02*
X86522914Y-54814285D01*
X86522914Y-54814285D02*
X86427676Y-54766666D01*
X86427676Y-54766666D02*
X86332438Y-54671428D01*
X86332438Y-54671428D02*
X86284819Y-54528571D01*
X86284819Y-54528571D02*
X86284819Y-54433333D01*
X86284819Y-54433333D02*
X86332438Y-54290476D01*
X86332438Y-54290476D02*
X86380057Y-54242857D01*
X86284819Y-53909523D02*
X86284819Y-53290476D01*
X86284819Y-53290476D02*
X86665771Y-53623809D01*
X86665771Y-53623809D02*
X86665771Y-53480952D01*
X86665771Y-53480952D02*
X86713390Y-53385714D01*
X86713390Y-53385714D02*
X86761009Y-53338095D01*
X86761009Y-53338095D02*
X86856247Y-53290476D01*
X86856247Y-53290476D02*
X87094342Y-53290476D01*
X87094342Y-53290476D02*
X87189580Y-53338095D01*
X87189580Y-53338095D02*
X87237200Y-53385714D01*
X87237200Y-53385714D02*
X87284819Y-53480952D01*
X87284819Y-53480952D02*
X87284819Y-53766666D01*
X87284819Y-53766666D02*
X87237200Y-53861904D01*
X87237200Y-53861904D02*
X87189580Y-53909523D01*
X87284819Y-52338095D02*
X87284819Y-52909523D01*
X87284819Y-52623809D02*
X86284819Y-52623809D01*
X86284819Y-52623809D02*
X86427676Y-52719047D01*
X86427676Y-52719047D02*
X86522914Y-52814285D01*
X86522914Y-52814285D02*
X86570533Y-52909523D01*
X50257142Y-72624819D02*
X49923809Y-72148628D01*
X49685714Y-72624819D02*
X49685714Y-71624819D01*
X49685714Y-71624819D02*
X50066666Y-71624819D01*
X50066666Y-71624819D02*
X50161904Y-71672438D01*
X50161904Y-71672438D02*
X50209523Y-71720057D01*
X50209523Y-71720057D02*
X50257142Y-71815295D01*
X50257142Y-71815295D02*
X50257142Y-71958152D01*
X50257142Y-71958152D02*
X50209523Y-72053390D01*
X50209523Y-72053390D02*
X50161904Y-72101009D01*
X50161904Y-72101009D02*
X50066666Y-72148628D01*
X50066666Y-72148628D02*
X49685714Y-72148628D01*
X51114285Y-71958152D02*
X51114285Y-72624819D01*
X50876190Y-71577200D02*
X50638095Y-72291485D01*
X50638095Y-72291485D02*
X51257142Y-72291485D01*
X52114285Y-71624819D02*
X51638095Y-71624819D01*
X51638095Y-71624819D02*
X51590476Y-72101009D01*
X51590476Y-72101009D02*
X51638095Y-72053390D01*
X51638095Y-72053390D02*
X51733333Y-72005771D01*
X51733333Y-72005771D02*
X51971428Y-72005771D01*
X51971428Y-72005771D02*
X52066666Y-72053390D01*
X52066666Y-72053390D02*
X52114285Y-72101009D01*
X52114285Y-72101009D02*
X52161904Y-72196247D01*
X52161904Y-72196247D02*
X52161904Y-72434342D01*
X52161904Y-72434342D02*
X52114285Y-72529580D01*
X52114285Y-72529580D02*
X52066666Y-72577200D01*
X52066666Y-72577200D02*
X51971428Y-72624819D01*
X51971428Y-72624819D02*
X51733333Y-72624819D01*
X51733333Y-72624819D02*
X51638095Y-72577200D01*
X51638095Y-72577200D02*
X51590476Y-72529580D01*
X28289819Y-107709523D02*
X29004104Y-107709523D01*
X29004104Y-107709523D02*
X29146961Y-107757142D01*
X29146961Y-107757142D02*
X29242200Y-107852380D01*
X29242200Y-107852380D02*
X29289819Y-107995237D01*
X29289819Y-107995237D02*
X29289819Y-108090475D01*
X29289819Y-106709523D02*
X29289819Y-107280951D01*
X29289819Y-106995237D02*
X28289819Y-106995237D01*
X28289819Y-106995237D02*
X28432676Y-107090475D01*
X28432676Y-107090475D02*
X28527914Y-107185713D01*
X28527914Y-107185713D02*
X28575533Y-107280951D01*
X28385057Y-106328570D02*
X28337438Y-106280951D01*
X28337438Y-106280951D02*
X28289819Y-106185713D01*
X28289819Y-106185713D02*
X28289819Y-105947618D01*
X28289819Y-105947618D02*
X28337438Y-105852380D01*
X28337438Y-105852380D02*
X28385057Y-105804761D01*
X28385057Y-105804761D02*
X28480295Y-105757142D01*
X28480295Y-105757142D02*
X28575533Y-105757142D01*
X28575533Y-105757142D02*
X28718390Y-105804761D01*
X28718390Y-105804761D02*
X29289819Y-106376189D01*
X29289819Y-106376189D02*
X29289819Y-105757142D01*
X37139580Y-113712857D02*
X37187200Y-113760476D01*
X37187200Y-113760476D02*
X37234819Y-113903333D01*
X37234819Y-113903333D02*
X37234819Y-113998571D01*
X37234819Y-113998571D02*
X37187200Y-114141428D01*
X37187200Y-114141428D02*
X37091961Y-114236666D01*
X37091961Y-114236666D02*
X36996723Y-114284285D01*
X36996723Y-114284285D02*
X36806247Y-114331904D01*
X36806247Y-114331904D02*
X36663390Y-114331904D01*
X36663390Y-114331904D02*
X36472914Y-114284285D01*
X36472914Y-114284285D02*
X36377676Y-114236666D01*
X36377676Y-114236666D02*
X36282438Y-114141428D01*
X36282438Y-114141428D02*
X36234819Y-113998571D01*
X36234819Y-113998571D02*
X36234819Y-113903333D01*
X36234819Y-113903333D02*
X36282438Y-113760476D01*
X36282438Y-113760476D02*
X36330057Y-113712857D01*
X37234819Y-112760476D02*
X37234819Y-113331904D01*
X37234819Y-113046190D02*
X36234819Y-113046190D01*
X36234819Y-113046190D02*
X36377676Y-113141428D01*
X36377676Y-113141428D02*
X36472914Y-113236666D01*
X36472914Y-113236666D02*
X36520533Y-113331904D01*
X36234819Y-111855714D02*
X36234819Y-112331904D01*
X36234819Y-112331904D02*
X36711009Y-112379523D01*
X36711009Y-112379523D02*
X36663390Y-112331904D01*
X36663390Y-112331904D02*
X36615771Y-112236666D01*
X36615771Y-112236666D02*
X36615771Y-111998571D01*
X36615771Y-111998571D02*
X36663390Y-111903333D01*
X36663390Y-111903333D02*
X36711009Y-111855714D01*
X36711009Y-111855714D02*
X36806247Y-111808095D01*
X36806247Y-111808095D02*
X37044342Y-111808095D01*
X37044342Y-111808095D02*
X37139580Y-111855714D01*
X37139580Y-111855714D02*
X37187200Y-111903333D01*
X37187200Y-111903333D02*
X37234819Y-111998571D01*
X37234819Y-111998571D02*
X37234819Y-112236666D01*
X37234819Y-112236666D02*
X37187200Y-112331904D01*
X37187200Y-112331904D02*
X37139580Y-112379523D01*
X101166666Y-21654819D02*
X101166666Y-22369104D01*
X101166666Y-22369104D02*
X101119047Y-22511961D01*
X101119047Y-22511961D02*
X101023809Y-22607200D01*
X101023809Y-22607200D02*
X100880952Y-22654819D01*
X100880952Y-22654819D02*
X100785714Y-22654819D01*
X101785714Y-22083390D02*
X101690476Y-22035771D01*
X101690476Y-22035771D02*
X101642857Y-21988152D01*
X101642857Y-21988152D02*
X101595238Y-21892914D01*
X101595238Y-21892914D02*
X101595238Y-21845295D01*
X101595238Y-21845295D02*
X101642857Y-21750057D01*
X101642857Y-21750057D02*
X101690476Y-21702438D01*
X101690476Y-21702438D02*
X101785714Y-21654819D01*
X101785714Y-21654819D02*
X101976190Y-21654819D01*
X101976190Y-21654819D02*
X102071428Y-21702438D01*
X102071428Y-21702438D02*
X102119047Y-21750057D01*
X102119047Y-21750057D02*
X102166666Y-21845295D01*
X102166666Y-21845295D02*
X102166666Y-21892914D01*
X102166666Y-21892914D02*
X102119047Y-21988152D01*
X102119047Y-21988152D02*
X102071428Y-22035771D01*
X102071428Y-22035771D02*
X101976190Y-22083390D01*
X101976190Y-22083390D02*
X101785714Y-22083390D01*
X101785714Y-22083390D02*
X101690476Y-22131009D01*
X101690476Y-22131009D02*
X101642857Y-22178628D01*
X101642857Y-22178628D02*
X101595238Y-22273866D01*
X101595238Y-22273866D02*
X101595238Y-22464342D01*
X101595238Y-22464342D02*
X101642857Y-22559580D01*
X101642857Y-22559580D02*
X101690476Y-22607200D01*
X101690476Y-22607200D02*
X101785714Y-22654819D01*
X101785714Y-22654819D02*
X101976190Y-22654819D01*
X101976190Y-22654819D02*
X102071428Y-22607200D01*
X102071428Y-22607200D02*
X102119047Y-22559580D01*
X102119047Y-22559580D02*
X102166666Y-22464342D01*
X102166666Y-22464342D02*
X102166666Y-22273866D01*
X102166666Y-22273866D02*
X102119047Y-22178628D01*
X102119047Y-22178628D02*
X102071428Y-22131009D01*
X102071428Y-22131009D02*
X101976190Y-22083390D01*
X26757142Y-115979580D02*
X26709523Y-116027200D01*
X26709523Y-116027200D02*
X26566666Y-116074819D01*
X26566666Y-116074819D02*
X26471428Y-116074819D01*
X26471428Y-116074819D02*
X26328571Y-116027200D01*
X26328571Y-116027200D02*
X26233333Y-115931961D01*
X26233333Y-115931961D02*
X26185714Y-115836723D01*
X26185714Y-115836723D02*
X26138095Y-115646247D01*
X26138095Y-115646247D02*
X26138095Y-115503390D01*
X26138095Y-115503390D02*
X26185714Y-115312914D01*
X26185714Y-115312914D02*
X26233333Y-115217676D01*
X26233333Y-115217676D02*
X26328571Y-115122438D01*
X26328571Y-115122438D02*
X26471428Y-115074819D01*
X26471428Y-115074819D02*
X26566666Y-115074819D01*
X26566666Y-115074819D02*
X26709523Y-115122438D01*
X26709523Y-115122438D02*
X26757142Y-115170057D01*
X27709523Y-116074819D02*
X27138095Y-116074819D01*
X27423809Y-116074819D02*
X27423809Y-115074819D01*
X27423809Y-115074819D02*
X27328571Y-115217676D01*
X27328571Y-115217676D02*
X27233333Y-115312914D01*
X27233333Y-115312914D02*
X27138095Y-115360533D01*
X28185714Y-116074819D02*
X28376190Y-116074819D01*
X28376190Y-116074819D02*
X28471428Y-116027200D01*
X28471428Y-116027200D02*
X28519047Y-115979580D01*
X28519047Y-115979580D02*
X28614285Y-115836723D01*
X28614285Y-115836723D02*
X28661904Y-115646247D01*
X28661904Y-115646247D02*
X28661904Y-115265295D01*
X28661904Y-115265295D02*
X28614285Y-115170057D01*
X28614285Y-115170057D02*
X28566666Y-115122438D01*
X28566666Y-115122438D02*
X28471428Y-115074819D01*
X28471428Y-115074819D02*
X28280952Y-115074819D01*
X28280952Y-115074819D02*
X28185714Y-115122438D01*
X28185714Y-115122438D02*
X28138095Y-115170057D01*
X28138095Y-115170057D02*
X28090476Y-115265295D01*
X28090476Y-115265295D02*
X28090476Y-115503390D01*
X28090476Y-115503390D02*
X28138095Y-115598628D01*
X28138095Y-115598628D02*
X28185714Y-115646247D01*
X28185714Y-115646247D02*
X28280952Y-115693866D01*
X28280952Y-115693866D02*
X28471428Y-115693866D01*
X28471428Y-115693866D02*
X28566666Y-115646247D01*
X28566666Y-115646247D02*
X28614285Y-115598628D01*
X28614285Y-115598628D02*
X28661904Y-115503390D01*
X33454819Y-102242857D02*
X32978628Y-102576190D01*
X33454819Y-102814285D02*
X32454819Y-102814285D01*
X32454819Y-102814285D02*
X32454819Y-102433333D01*
X32454819Y-102433333D02*
X32502438Y-102338095D01*
X32502438Y-102338095D02*
X32550057Y-102290476D01*
X32550057Y-102290476D02*
X32645295Y-102242857D01*
X32645295Y-102242857D02*
X32788152Y-102242857D01*
X32788152Y-102242857D02*
X32883390Y-102290476D01*
X32883390Y-102290476D02*
X32931009Y-102338095D01*
X32931009Y-102338095D02*
X32978628Y-102433333D01*
X32978628Y-102433333D02*
X32978628Y-102814285D01*
X32550057Y-101861904D02*
X32502438Y-101814285D01*
X32502438Y-101814285D02*
X32454819Y-101719047D01*
X32454819Y-101719047D02*
X32454819Y-101480952D01*
X32454819Y-101480952D02*
X32502438Y-101385714D01*
X32502438Y-101385714D02*
X32550057Y-101338095D01*
X32550057Y-101338095D02*
X32645295Y-101290476D01*
X32645295Y-101290476D02*
X32740533Y-101290476D01*
X32740533Y-101290476D02*
X32883390Y-101338095D01*
X32883390Y-101338095D02*
X33454819Y-101909523D01*
X33454819Y-101909523D02*
X33454819Y-101290476D01*
X32454819Y-100671428D02*
X32454819Y-100576190D01*
X32454819Y-100576190D02*
X32502438Y-100480952D01*
X32502438Y-100480952D02*
X32550057Y-100433333D01*
X32550057Y-100433333D02*
X32645295Y-100385714D01*
X32645295Y-100385714D02*
X32835771Y-100338095D01*
X32835771Y-100338095D02*
X33073866Y-100338095D01*
X33073866Y-100338095D02*
X33264342Y-100385714D01*
X33264342Y-100385714D02*
X33359580Y-100433333D01*
X33359580Y-100433333D02*
X33407200Y-100480952D01*
X33407200Y-100480952D02*
X33454819Y-100576190D01*
X33454819Y-100576190D02*
X33454819Y-100671428D01*
X33454819Y-100671428D02*
X33407200Y-100766666D01*
X33407200Y-100766666D02*
X33359580Y-100814285D01*
X33359580Y-100814285D02*
X33264342Y-100861904D01*
X33264342Y-100861904D02*
X33073866Y-100909523D01*
X33073866Y-100909523D02*
X32835771Y-100909523D01*
X32835771Y-100909523D02*
X32645295Y-100861904D01*
X32645295Y-100861904D02*
X32550057Y-100814285D01*
X32550057Y-100814285D02*
X32502438Y-100766666D01*
X32502438Y-100766666D02*
X32454819Y-100671428D01*
X34766666Y-53754819D02*
X34766666Y-54469104D01*
X34766666Y-54469104D02*
X34719047Y-54611961D01*
X34719047Y-54611961D02*
X34623809Y-54707200D01*
X34623809Y-54707200D02*
X34480952Y-54754819D01*
X34480952Y-54754819D02*
X34385714Y-54754819D01*
X35671428Y-54088152D02*
X35671428Y-54754819D01*
X35433333Y-53707200D02*
X35195238Y-54421485D01*
X35195238Y-54421485D02*
X35814285Y-54421485D01*
X21338095Y-22654819D02*
X21338095Y-21654819D01*
X21338095Y-22131009D02*
X21909523Y-22131009D01*
X21909523Y-22654819D02*
X21909523Y-21654819D01*
X22909523Y-22654819D02*
X22338095Y-22654819D01*
X22623809Y-22654819D02*
X22623809Y-21654819D01*
X22623809Y-21654819D02*
X22528571Y-21797676D01*
X22528571Y-21797676D02*
X22433333Y-21892914D01*
X22433333Y-21892914D02*
X22338095Y-21940533D01*
X36954819Y-102342857D02*
X36478628Y-102676190D01*
X36954819Y-102914285D02*
X35954819Y-102914285D01*
X35954819Y-102914285D02*
X35954819Y-102533333D01*
X35954819Y-102533333D02*
X36002438Y-102438095D01*
X36002438Y-102438095D02*
X36050057Y-102390476D01*
X36050057Y-102390476D02*
X36145295Y-102342857D01*
X36145295Y-102342857D02*
X36288152Y-102342857D01*
X36288152Y-102342857D02*
X36383390Y-102390476D01*
X36383390Y-102390476D02*
X36431009Y-102438095D01*
X36431009Y-102438095D02*
X36478628Y-102533333D01*
X36478628Y-102533333D02*
X36478628Y-102914285D01*
X36954819Y-101390476D02*
X36954819Y-101961904D01*
X36954819Y-101676190D02*
X35954819Y-101676190D01*
X35954819Y-101676190D02*
X36097676Y-101771428D01*
X36097676Y-101771428D02*
X36192914Y-101866666D01*
X36192914Y-101866666D02*
X36240533Y-101961904D01*
X36954819Y-100914285D02*
X36954819Y-100723809D01*
X36954819Y-100723809D02*
X36907200Y-100628571D01*
X36907200Y-100628571D02*
X36859580Y-100580952D01*
X36859580Y-100580952D02*
X36716723Y-100485714D01*
X36716723Y-100485714D02*
X36526247Y-100438095D01*
X36526247Y-100438095D02*
X36145295Y-100438095D01*
X36145295Y-100438095D02*
X36050057Y-100485714D01*
X36050057Y-100485714D02*
X36002438Y-100533333D01*
X36002438Y-100533333D02*
X35954819Y-100628571D01*
X35954819Y-100628571D02*
X35954819Y-100819047D01*
X35954819Y-100819047D02*
X36002438Y-100914285D01*
X36002438Y-100914285D02*
X36050057Y-100961904D01*
X36050057Y-100961904D02*
X36145295Y-101009523D01*
X36145295Y-101009523D02*
X36383390Y-101009523D01*
X36383390Y-101009523D02*
X36478628Y-100961904D01*
X36478628Y-100961904D02*
X36526247Y-100914285D01*
X36526247Y-100914285D02*
X36573866Y-100819047D01*
X36573866Y-100819047D02*
X36573866Y-100628571D01*
X36573866Y-100628571D02*
X36526247Y-100533333D01*
X36526247Y-100533333D02*
X36478628Y-100485714D01*
X36478628Y-100485714D02*
X36383390Y-100438095D01*
X94228571Y-59250057D02*
X94133333Y-59202438D01*
X94133333Y-59202438D02*
X94038095Y-59107200D01*
X94038095Y-59107200D02*
X93895238Y-58964342D01*
X93895238Y-58964342D02*
X93800000Y-58916723D01*
X93800000Y-58916723D02*
X93704762Y-58916723D01*
X93752381Y-59154819D02*
X93657143Y-59107200D01*
X93657143Y-59107200D02*
X93561905Y-59011961D01*
X93561905Y-59011961D02*
X93514286Y-58821485D01*
X93514286Y-58821485D02*
X93514286Y-58488152D01*
X93514286Y-58488152D02*
X93561905Y-58297676D01*
X93561905Y-58297676D02*
X93657143Y-58202438D01*
X93657143Y-58202438D02*
X93752381Y-58154819D01*
X93752381Y-58154819D02*
X93942857Y-58154819D01*
X93942857Y-58154819D02*
X94038095Y-58202438D01*
X94038095Y-58202438D02*
X94133333Y-58297676D01*
X94133333Y-58297676D02*
X94180952Y-58488152D01*
X94180952Y-58488152D02*
X94180952Y-58821485D01*
X94180952Y-58821485D02*
X94133333Y-59011961D01*
X94133333Y-59011961D02*
X94038095Y-59107200D01*
X94038095Y-59107200D02*
X93942857Y-59154819D01*
X93942857Y-59154819D02*
X93752381Y-59154819D01*
X95133333Y-59154819D02*
X94561905Y-59154819D01*
X94847619Y-59154819D02*
X94847619Y-58154819D01*
X94847619Y-58154819D02*
X94752381Y-58297676D01*
X94752381Y-58297676D02*
X94657143Y-58392914D01*
X94657143Y-58392914D02*
X94561905Y-58440533D01*
X95990476Y-58488152D02*
X95990476Y-59154819D01*
X95752381Y-58107200D02*
X95514286Y-58821485D01*
X95514286Y-58821485D02*
X96133333Y-58821485D01*
X47287142Y-53894819D02*
X46953809Y-53418628D01*
X46715714Y-53894819D02*
X46715714Y-52894819D01*
X46715714Y-52894819D02*
X47096666Y-52894819D01*
X47096666Y-52894819D02*
X47191904Y-52942438D01*
X47191904Y-52942438D02*
X47239523Y-52990057D01*
X47239523Y-52990057D02*
X47287142Y-53085295D01*
X47287142Y-53085295D02*
X47287142Y-53228152D01*
X47287142Y-53228152D02*
X47239523Y-53323390D01*
X47239523Y-53323390D02*
X47191904Y-53371009D01*
X47191904Y-53371009D02*
X47096666Y-53418628D01*
X47096666Y-53418628D02*
X46715714Y-53418628D01*
X48144285Y-53228152D02*
X48144285Y-53894819D01*
X47906190Y-52847200D02*
X47668095Y-53561485D01*
X47668095Y-53561485D02*
X48287142Y-53561485D01*
X48715714Y-53894819D02*
X48906190Y-53894819D01*
X48906190Y-53894819D02*
X49001428Y-53847200D01*
X49001428Y-53847200D02*
X49049047Y-53799580D01*
X49049047Y-53799580D02*
X49144285Y-53656723D01*
X49144285Y-53656723D02*
X49191904Y-53466247D01*
X49191904Y-53466247D02*
X49191904Y-53085295D01*
X49191904Y-53085295D02*
X49144285Y-52990057D01*
X49144285Y-52990057D02*
X49096666Y-52942438D01*
X49096666Y-52942438D02*
X49001428Y-52894819D01*
X49001428Y-52894819D02*
X48810952Y-52894819D01*
X48810952Y-52894819D02*
X48715714Y-52942438D01*
X48715714Y-52942438D02*
X48668095Y-52990057D01*
X48668095Y-52990057D02*
X48620476Y-53085295D01*
X48620476Y-53085295D02*
X48620476Y-53323390D01*
X48620476Y-53323390D02*
X48668095Y-53418628D01*
X48668095Y-53418628D02*
X48715714Y-53466247D01*
X48715714Y-53466247D02*
X48810952Y-53513866D01*
X48810952Y-53513866D02*
X49001428Y-53513866D01*
X49001428Y-53513866D02*
X49096666Y-53466247D01*
X49096666Y-53466247D02*
X49144285Y-53418628D01*
X49144285Y-53418628D02*
X49191904Y-53323390D01*
X76774819Y-116464285D02*
X75774819Y-116464285D01*
X75774819Y-116464285D02*
X75774819Y-116226190D01*
X75774819Y-116226190D02*
X75822438Y-116083333D01*
X75822438Y-116083333D02*
X75917676Y-115988095D01*
X75917676Y-115988095D02*
X76012914Y-115940476D01*
X76012914Y-115940476D02*
X76203390Y-115892857D01*
X76203390Y-115892857D02*
X76346247Y-115892857D01*
X76346247Y-115892857D02*
X76536723Y-115940476D01*
X76536723Y-115940476D02*
X76631961Y-115988095D01*
X76631961Y-115988095D02*
X76727200Y-116083333D01*
X76727200Y-116083333D02*
X76774819Y-116226190D01*
X76774819Y-116226190D02*
X76774819Y-116464285D01*
X75870057Y-115511904D02*
X75822438Y-115464285D01*
X75822438Y-115464285D02*
X75774819Y-115369047D01*
X75774819Y-115369047D02*
X75774819Y-115130952D01*
X75774819Y-115130952D02*
X75822438Y-115035714D01*
X75822438Y-115035714D02*
X75870057Y-114988095D01*
X75870057Y-114988095D02*
X75965295Y-114940476D01*
X75965295Y-114940476D02*
X76060533Y-114940476D01*
X76060533Y-114940476D02*
X76203390Y-114988095D01*
X76203390Y-114988095D02*
X76774819Y-115559523D01*
X76774819Y-115559523D02*
X76774819Y-114940476D01*
X75774819Y-114321428D02*
X75774819Y-114226190D01*
X75774819Y-114226190D02*
X75822438Y-114130952D01*
X75822438Y-114130952D02*
X75870057Y-114083333D01*
X75870057Y-114083333D02*
X75965295Y-114035714D01*
X75965295Y-114035714D02*
X76155771Y-113988095D01*
X76155771Y-113988095D02*
X76393866Y-113988095D01*
X76393866Y-113988095D02*
X76584342Y-114035714D01*
X76584342Y-114035714D02*
X76679580Y-114083333D01*
X76679580Y-114083333D02*
X76727200Y-114130952D01*
X76727200Y-114130952D02*
X76774819Y-114226190D01*
X76774819Y-114226190D02*
X76774819Y-114321428D01*
X76774819Y-114321428D02*
X76727200Y-114416666D01*
X76727200Y-114416666D02*
X76679580Y-114464285D01*
X76679580Y-114464285D02*
X76584342Y-114511904D01*
X76584342Y-114511904D02*
X76393866Y-114559523D01*
X76393866Y-114559523D02*
X76155771Y-114559523D01*
X76155771Y-114559523D02*
X75965295Y-114511904D01*
X75965295Y-114511904D02*
X75870057Y-114464285D01*
X75870057Y-114464285D02*
X75822438Y-114416666D01*
X75822438Y-114416666D02*
X75774819Y-114321428D01*
X36819819Y-91873333D02*
X37534104Y-91873333D01*
X37534104Y-91873333D02*
X37676961Y-91920952D01*
X37676961Y-91920952D02*
X37772200Y-92016190D01*
X37772200Y-92016190D02*
X37819819Y-92159047D01*
X37819819Y-92159047D02*
X37819819Y-92254285D01*
X37819819Y-91349523D02*
X37819819Y-91159047D01*
X37819819Y-91159047D02*
X37772200Y-91063809D01*
X37772200Y-91063809D02*
X37724580Y-91016190D01*
X37724580Y-91016190D02*
X37581723Y-90920952D01*
X37581723Y-90920952D02*
X37391247Y-90873333D01*
X37391247Y-90873333D02*
X37010295Y-90873333D01*
X37010295Y-90873333D02*
X36915057Y-90920952D01*
X36915057Y-90920952D02*
X36867438Y-90968571D01*
X36867438Y-90968571D02*
X36819819Y-91063809D01*
X36819819Y-91063809D02*
X36819819Y-91254285D01*
X36819819Y-91254285D02*
X36867438Y-91349523D01*
X36867438Y-91349523D02*
X36915057Y-91397142D01*
X36915057Y-91397142D02*
X37010295Y-91444761D01*
X37010295Y-91444761D02*
X37248390Y-91444761D01*
X37248390Y-91444761D02*
X37343628Y-91397142D01*
X37343628Y-91397142D02*
X37391247Y-91349523D01*
X37391247Y-91349523D02*
X37438866Y-91254285D01*
X37438866Y-91254285D02*
X37438866Y-91063809D01*
X37438866Y-91063809D02*
X37391247Y-90968571D01*
X37391247Y-90968571D02*
X37343628Y-90920952D01*
X37343628Y-90920952D02*
X37248390Y-90873333D01*
D13*
%TO.C,F1*%
X43720000Y-21350000D02*
X43720000Y-40650000D01*
X38280000Y-21350000D02*
X43720000Y-21350000D01*
X38280000Y-40650000D02*
X38280000Y-21350000D01*
X38280000Y-40650000D02*
X43720000Y-40650000D01*
%TO.C,R51*%
X96925000Y-63400000D02*
X97675000Y-63400000D01*
X96925000Y-64400000D02*
X97675000Y-64400000D01*
%TO.C,R24*%
X24500000Y-97875000D02*
X24500000Y-98625000D01*
X23500000Y-97875000D02*
X23500000Y-98625000D01*
%TO.C,C34*%
X45900000Y-70675000D02*
X45900000Y-69925000D01*
X46900000Y-70675000D02*
X46900000Y-69925000D01*
D12*
%TO.C,J18*%
X119750000Y-94800000D02*
X119750000Y-96800000D01*
X118500000Y-94800000D02*
X119750000Y-94800000D01*
X119360000Y-95190000D02*
X111890000Y-95190000D01*
X111890000Y-95190000D02*
X111890000Y-114310000D01*
X118400000Y-96250000D02*
X118400000Y-99250000D01*
X117050000Y-96250000D02*
X117050000Y-97000000D01*
X112750000Y-96250000D02*
X117050000Y-96250000D01*
X117400000Y-96500000D02*
X118400000Y-96250000D01*
X117400000Y-97000000D02*
X117400000Y-96500000D01*
X117050000Y-97000000D02*
X117400000Y-97000000D01*
X112750000Y-97000000D02*
X112750000Y-96250000D01*
X117400000Y-98500000D02*
X117050000Y-98500000D01*
X117050000Y-98500000D02*
X117050000Y-99250000D01*
X117400000Y-99000000D02*
X117400000Y-98500000D01*
X118400000Y-99250000D02*
X117400000Y-99000000D01*
X117050000Y-99250000D02*
X112750000Y-99250000D01*
X112750000Y-99250000D02*
X112750000Y-98500000D01*
X118400000Y-99750000D02*
X118400000Y-102750000D01*
X117050000Y-99750000D02*
X117050000Y-100500000D01*
X112750000Y-99750000D02*
X117050000Y-99750000D01*
X117400000Y-100000000D02*
X118400000Y-99750000D01*
X117400000Y-100500000D02*
X117400000Y-100000000D01*
X117050000Y-100500000D02*
X117400000Y-100500000D01*
X112750000Y-100500000D02*
X112750000Y-99750000D01*
X117400000Y-102000000D02*
X117050000Y-102000000D01*
X117050000Y-102000000D02*
X117050000Y-102750000D01*
X117400000Y-102500000D02*
X117400000Y-102000000D01*
X118400000Y-102750000D02*
X117400000Y-102500000D01*
X117050000Y-102750000D02*
X112750000Y-102750000D01*
X112750000Y-102750000D02*
X112750000Y-102000000D01*
X118400000Y-103250000D02*
X118400000Y-106250000D01*
X117050000Y-103250000D02*
X117050000Y-104000000D01*
X112750000Y-103250000D02*
X117050000Y-103250000D01*
X117400000Y-103500000D02*
X118400000Y-103250000D01*
X117400000Y-104000000D02*
X117400000Y-103500000D01*
X117050000Y-104000000D02*
X117400000Y-104000000D01*
X112750000Y-104000000D02*
X112750000Y-103250000D01*
X117400000Y-105500000D02*
X117050000Y-105500000D01*
X117050000Y-105500000D02*
X117050000Y-106250000D01*
X117400000Y-106000000D02*
X117400000Y-105500000D01*
X118400000Y-106250000D02*
X117400000Y-106000000D01*
X117050000Y-106250000D02*
X112750000Y-106250000D01*
X112750000Y-106250000D02*
X112750000Y-105500000D01*
X118400000Y-106750000D02*
X118400000Y-109750000D01*
X117050000Y-106750000D02*
X117050000Y-107500000D01*
X112750000Y-106750000D02*
X117050000Y-106750000D01*
X117400000Y-107000000D02*
X118400000Y-106750000D01*
X117400000Y-107500000D02*
X117400000Y-107000000D01*
X117050000Y-107500000D02*
X117400000Y-107500000D01*
X112750000Y-107500000D02*
X112750000Y-106750000D01*
X117400000Y-109000000D02*
X117050000Y-109000000D01*
X117050000Y-109000000D02*
X117050000Y-109750000D01*
X117400000Y-109500000D02*
X117400000Y-109000000D01*
X118400000Y-109750000D02*
X117400000Y-109500000D01*
X117050000Y-109750000D02*
X112750000Y-109750000D01*
X112750000Y-109750000D02*
X112750000Y-109000000D01*
X118400000Y-110250000D02*
X118400000Y-113250000D01*
X117050000Y-110250000D02*
X117050000Y-111000000D01*
X112750000Y-110250000D02*
X117050000Y-110250000D01*
X117400000Y-110500000D02*
X118400000Y-110250000D01*
X117400000Y-111000000D02*
X117400000Y-110500000D01*
X117050000Y-111000000D02*
X117400000Y-111000000D01*
X112750000Y-111000000D02*
X112750000Y-110250000D01*
X117400000Y-112500000D02*
X117050000Y-112500000D01*
X117050000Y-112500000D02*
X117050000Y-113250000D01*
X117400000Y-113000000D02*
X117400000Y-112500000D01*
X118400000Y-113250000D02*
X117400000Y-113000000D01*
X117050000Y-113250000D02*
X112750000Y-113250000D01*
X112750000Y-113250000D02*
X112750000Y-112500000D01*
X119360000Y-114310000D02*
X119360000Y-95190000D01*
X111890000Y-114310000D02*
X119360000Y-114310000D01*
X112750155Y-98499647D02*
G75*
G03*
X112750000Y-97000000I-1700155J749647D01*
G01*
X112750155Y-101999647D02*
G75*
G03*
X112750000Y-100500000I-1700155J749647D01*
G01*
X112750155Y-105499647D02*
G75*
G03*
X112750000Y-104000000I-1700155J749647D01*
G01*
X112750155Y-108999647D02*
G75*
G03*
X112750000Y-107500000I-1700155J749647D01*
G01*
X112750155Y-112499647D02*
G75*
G03*
X112750000Y-111000000I-1700155J749647D01*
G01*
%TO.C,J22*%
X87317500Y-120892500D02*
X89317500Y-120892500D01*
X87317500Y-122142500D02*
X87317500Y-120892500D01*
X87707500Y-121282500D02*
X87707500Y-128752500D01*
X87707500Y-128752500D02*
X103327500Y-128752500D01*
X88767500Y-122242500D02*
X91767500Y-122242500D01*
X88767500Y-123592500D02*
X89517500Y-123592500D01*
X88767500Y-127892500D02*
X88767500Y-123592500D01*
X89017500Y-123242500D02*
X88767500Y-122242500D01*
X89517500Y-123242500D02*
X89017500Y-123242500D01*
X89517500Y-123592500D02*
X89517500Y-123242500D01*
X89517500Y-127892500D02*
X88767500Y-127892500D01*
X91017500Y-123242500D02*
X91017500Y-123592500D01*
X91017500Y-123592500D02*
X91767500Y-123592500D01*
X91517500Y-123242500D02*
X91017500Y-123242500D01*
X91767500Y-122242500D02*
X91517500Y-123242500D01*
X91767500Y-123592500D02*
X91767500Y-127892500D01*
X91767500Y-127892500D02*
X91017500Y-127892500D01*
X92267500Y-122242500D02*
X95267500Y-122242500D01*
X92267500Y-123592500D02*
X93017500Y-123592500D01*
X92267500Y-127892500D02*
X92267500Y-123592500D01*
X92517500Y-123242500D02*
X92267500Y-122242500D01*
X93017500Y-123242500D02*
X92517500Y-123242500D01*
X93017500Y-123592500D02*
X93017500Y-123242500D01*
X93017500Y-127892500D02*
X92267500Y-127892500D01*
X94517500Y-123242500D02*
X94517500Y-123592500D01*
X94517500Y-123592500D02*
X95267500Y-123592500D01*
X95017500Y-123242500D02*
X94517500Y-123242500D01*
X95267500Y-122242500D02*
X95017500Y-123242500D01*
X95267500Y-123592500D02*
X95267500Y-127892500D01*
X95267500Y-127892500D02*
X94517500Y-127892500D01*
X95767500Y-122242500D02*
X98767500Y-122242500D01*
X95767500Y-123592500D02*
X96517500Y-123592500D01*
X95767500Y-127892500D02*
X95767500Y-123592500D01*
X96017500Y-123242500D02*
X95767500Y-122242500D01*
X96517500Y-123242500D02*
X96017500Y-123242500D01*
X96517500Y-123592500D02*
X96517500Y-123242500D01*
X96517500Y-127892500D02*
X95767500Y-127892500D01*
X98017500Y-123242500D02*
X98017500Y-123592500D01*
X98017500Y-123592500D02*
X98767500Y-123592500D01*
X98517500Y-123242500D02*
X98017500Y-123242500D01*
X98767500Y-122242500D02*
X98517500Y-123242500D01*
X98767500Y-123592500D02*
X98767500Y-127892500D01*
X98767500Y-127892500D02*
X98017500Y-127892500D01*
X99267500Y-122242500D02*
X102267500Y-122242500D01*
X99267500Y-123592500D02*
X100017500Y-123592500D01*
X99267500Y-127892500D02*
X99267500Y-123592500D01*
X99517500Y-123242500D02*
X99267500Y-122242500D01*
X100017500Y-123242500D02*
X99517500Y-123242500D01*
X100017500Y-123592500D02*
X100017500Y-123242500D01*
X100017500Y-127892500D02*
X99267500Y-127892500D01*
X101517500Y-123242500D02*
X101517500Y-123592500D01*
X101517500Y-123592500D02*
X102267500Y-123592500D01*
X102017500Y-123242500D02*
X101517500Y-123242500D01*
X102267500Y-122242500D02*
X102017500Y-123242500D01*
X102267500Y-123592500D02*
X102267500Y-127892500D01*
X102267500Y-127892500D02*
X101517500Y-127892500D01*
X103327500Y-121282500D02*
X87707500Y-121282500D01*
X103327500Y-128752500D02*
X103327500Y-121282500D01*
X91017147Y-127892345D02*
G75*
G03*
X89517500Y-127892500I-749647J-1700155D01*
G01*
X94517147Y-127892345D02*
G75*
G03*
X93017500Y-127892500I-749647J-1700155D01*
G01*
X98017147Y-127892345D02*
G75*
G03*
X96517500Y-127892500I-749647J-1700155D01*
G01*
X101517147Y-127892345D02*
G75*
G03*
X100017500Y-127892500I-749647J-1700155D01*
G01*
%TO.C,D18*%
X23950000Y-102000000D02*
X23700000Y-101500000D01*
X23975000Y-102000000D02*
X24250000Y-101500000D01*
X24250000Y-102000000D02*
X23700000Y-102000000D01*
X24250000Y-101500000D02*
X23700000Y-101500000D01*
X23500000Y-101400000D02*
X23500000Y-102150000D01*
X24450000Y-101400000D02*
X24450000Y-102100000D01*
%TO.C,J19*%
X36817500Y-120892500D02*
X38817500Y-120892500D01*
X36817500Y-122142500D02*
X36817500Y-120892500D01*
X37207500Y-121282500D02*
X37207500Y-128752500D01*
X37207500Y-128752500D02*
X52827500Y-128752500D01*
X38267500Y-122242500D02*
X41267500Y-122242500D01*
X38267500Y-123592500D02*
X39017500Y-123592500D01*
X38267500Y-127892500D02*
X38267500Y-123592500D01*
X38517500Y-123242500D02*
X38267500Y-122242500D01*
X39017500Y-123242500D02*
X38517500Y-123242500D01*
X39017500Y-123592500D02*
X39017500Y-123242500D01*
X39017500Y-127892500D02*
X38267500Y-127892500D01*
X40517500Y-123242500D02*
X40517500Y-123592500D01*
X40517500Y-123592500D02*
X41267500Y-123592500D01*
X41017500Y-123242500D02*
X40517500Y-123242500D01*
X41267500Y-122242500D02*
X41017500Y-123242500D01*
X41267500Y-123592500D02*
X41267500Y-127892500D01*
X41267500Y-127892500D02*
X40517500Y-127892500D01*
X41767500Y-122242500D02*
X44767500Y-122242500D01*
X41767500Y-123592500D02*
X42517500Y-123592500D01*
X41767500Y-127892500D02*
X41767500Y-123592500D01*
X42017500Y-123242500D02*
X41767500Y-122242500D01*
X42517500Y-123242500D02*
X42017500Y-123242500D01*
X42517500Y-123592500D02*
X42517500Y-123242500D01*
X42517500Y-127892500D02*
X41767500Y-127892500D01*
X44017500Y-123242500D02*
X44017500Y-123592500D01*
X44017500Y-123592500D02*
X44767500Y-123592500D01*
X44517500Y-123242500D02*
X44017500Y-123242500D01*
X44767500Y-122242500D02*
X44517500Y-123242500D01*
X44767500Y-123592500D02*
X44767500Y-127892500D01*
X44767500Y-127892500D02*
X44017500Y-127892500D01*
X45267500Y-122242500D02*
X48267500Y-122242500D01*
X45267500Y-123592500D02*
X46017500Y-123592500D01*
X45267500Y-127892500D02*
X45267500Y-123592500D01*
X45517500Y-123242500D02*
X45267500Y-122242500D01*
X46017500Y-123242500D02*
X45517500Y-123242500D01*
X46017500Y-123592500D02*
X46017500Y-123242500D01*
X46017500Y-127892500D02*
X45267500Y-127892500D01*
X47517500Y-123242500D02*
X47517500Y-123592500D01*
X47517500Y-123592500D02*
X48267500Y-123592500D01*
X48017500Y-123242500D02*
X47517500Y-123242500D01*
X48267500Y-122242500D02*
X48017500Y-123242500D01*
X48267500Y-123592500D02*
X48267500Y-127892500D01*
X48267500Y-127892500D02*
X47517500Y-127892500D01*
X48767500Y-122242500D02*
X51767500Y-122242500D01*
X48767500Y-123592500D02*
X49517500Y-123592500D01*
X48767500Y-127892500D02*
X48767500Y-123592500D01*
X49017500Y-123242500D02*
X48767500Y-122242500D01*
X49517500Y-123242500D02*
X49017500Y-123242500D01*
X49517500Y-123592500D02*
X49517500Y-123242500D01*
X49517500Y-127892500D02*
X48767500Y-127892500D01*
X51017500Y-123242500D02*
X51017500Y-123592500D01*
X51017500Y-123592500D02*
X51767500Y-123592500D01*
X51517500Y-123242500D02*
X51017500Y-123242500D01*
X51767500Y-122242500D02*
X51517500Y-123242500D01*
X51767500Y-123592500D02*
X51767500Y-127892500D01*
X51767500Y-127892500D02*
X51017500Y-127892500D01*
X52827500Y-121282500D02*
X37207500Y-121282500D01*
X52827500Y-128752500D02*
X52827500Y-121282500D01*
X40517147Y-127892345D02*
G75*
G03*
X39017500Y-127892500I-749647J-1700155D01*
G01*
X44017147Y-127892345D02*
G75*
G03*
X42517500Y-127892500I-749647J-1700155D01*
G01*
X47517147Y-127892345D02*
G75*
G03*
X46017500Y-127892500I-749647J-1700155D01*
G01*
X51017147Y-127892345D02*
G75*
G03*
X49517500Y-127892500I-749647J-1700155D01*
G01*
%TO.C,J15*%
X73820000Y-120080000D02*
X73820000Y-118750000D01*
X75150000Y-120080000D02*
X73820000Y-120080000D01*
X76420000Y-120080000D02*
X84100000Y-120080000D01*
X76420000Y-120080000D02*
X76420000Y-117420000D01*
X84100000Y-120080000D02*
X84100000Y-117420000D01*
X76420000Y-117420000D02*
X84100000Y-117420000D01*
D13*
%TO.C,Q13*%
X41620000Y-59200000D02*
X41620000Y-55800000D01*
X41620000Y-55800000D02*
X37780000Y-55800000D01*
X37780000Y-59200000D02*
X41620000Y-59200000D01*
X37780000Y-55800000D02*
X37780000Y-59200000D01*
D12*
%TO.C,J5*%
X118615773Y-78000000D02*
G75*
G03*
X118615773Y-78000000I-7615773J0D01*
G01*
%TO.C,D17*%
X21700000Y-102000000D02*
X21450000Y-101500000D01*
X21725000Y-102000000D02*
X22000000Y-101500000D01*
X22000000Y-102000000D02*
X21450000Y-102000000D01*
X22000000Y-101500000D02*
X21450000Y-101500000D01*
X21250000Y-101400000D02*
X21250000Y-102150000D01*
X22200000Y-101400000D02*
X22200000Y-102100000D01*
%TO.C,J16*%
X53330000Y-97580000D02*
X52000000Y-97580000D01*
X53330000Y-96250000D02*
X53330000Y-97580000D01*
X53330000Y-94980000D02*
X53330000Y-89840000D01*
X53330000Y-94980000D02*
X50670000Y-94980000D01*
X53330000Y-89840000D02*
X50670000Y-89840000D01*
X50670000Y-94980000D02*
X50670000Y-89840000D01*
D13*
%TO.C,R48*%
X43945000Y-54120000D02*
X44695000Y-54120000D01*
X43945000Y-55120000D02*
X44695000Y-55120000D01*
%TO.C,F2*%
X85720000Y-21350000D02*
X85720000Y-40650000D01*
X80280000Y-21350000D02*
X85720000Y-21350000D01*
X80280000Y-40650000D02*
X80280000Y-21350000D01*
X80280000Y-40650000D02*
X85720000Y-40650000D01*
%TO.C,RESET1*%
X76000000Y-89500000D02*
X82000000Y-89500000D01*
X76000000Y-91350000D02*
X76000000Y-94700000D01*
X76000000Y-96500000D02*
X82000000Y-96500000D01*
X82000000Y-91400000D02*
X82000000Y-94750000D01*
%TO.C,C13*%
X38070000Y-116755000D02*
X38070000Y-116005000D01*
X39470000Y-116755000D02*
X39470000Y-116005000D01*
D12*
%TO.C,J1*%
X118615773Y-44000000D02*
G75*
G03*
X118615773Y-44000000I-7615773J0D01*
G01*
%TO.C,J7*%
X78615773Y-29000000D02*
G75*
G03*
X78615773Y-29000000I-7615773J0D01*
G01*
%TO.C,L1*%
X48570000Y-77500000D02*
G75*
G03*
X48570000Y-77500000I-4870000J0D01*
G01*
%TO.C,J13*%
X98105000Y-117420000D02*
X98105000Y-118750000D01*
X96775000Y-117420000D02*
X98105000Y-117420000D01*
X95505000Y-117420000D02*
X90365000Y-117420000D01*
X95505000Y-117420000D02*
X95505000Y-120080000D01*
X90365000Y-117420000D02*
X90365000Y-120080000D01*
X95505000Y-120080000D02*
X90365000Y-120080000D01*
D13*
%TO.C,R44*%
X35900000Y-68325000D02*
X35900000Y-69075000D01*
X34900000Y-68325000D02*
X34900000Y-69075000D01*
%TO.C,C33*%
X44400000Y-69475000D02*
X44400000Y-68725000D01*
X45400000Y-69475000D02*
X45400000Y-68725000D01*
%TO.C,C18*%
X27125000Y-105900000D02*
X27875000Y-105900000D01*
X27125000Y-106900000D02*
X27875000Y-106900000D01*
%TO.C,C14*%
X27875000Y-113250000D02*
X27125000Y-113250000D01*
X27875000Y-112250000D02*
X27125000Y-112250000D01*
D12*
%TO.C,J21*%
X70585000Y-120892500D02*
X72585000Y-120892500D01*
X70585000Y-122142500D02*
X70585000Y-120892500D01*
X70975000Y-121282500D02*
X70975000Y-128752500D01*
X70975000Y-128752500D02*
X86595000Y-128752500D01*
X72035000Y-122242500D02*
X75035000Y-122242500D01*
X72035000Y-123592500D02*
X72785000Y-123592500D01*
X72035000Y-127892500D02*
X72035000Y-123592500D01*
X72285000Y-123242500D02*
X72035000Y-122242500D01*
X72785000Y-123242500D02*
X72285000Y-123242500D01*
X72785000Y-123592500D02*
X72785000Y-123242500D01*
X72785000Y-127892500D02*
X72035000Y-127892500D01*
X74285000Y-123242500D02*
X74285000Y-123592500D01*
X74285000Y-123592500D02*
X75035000Y-123592500D01*
X74785000Y-123242500D02*
X74285000Y-123242500D01*
X75035000Y-122242500D02*
X74785000Y-123242500D01*
X75035000Y-123592500D02*
X75035000Y-127892500D01*
X75035000Y-127892500D02*
X74285000Y-127892500D01*
X75535000Y-122242500D02*
X78535000Y-122242500D01*
X75535000Y-123592500D02*
X76285000Y-123592500D01*
X75535000Y-127892500D02*
X75535000Y-123592500D01*
X75785000Y-123242500D02*
X75535000Y-122242500D01*
X76285000Y-123242500D02*
X75785000Y-123242500D01*
X76285000Y-123592500D02*
X76285000Y-123242500D01*
X76285000Y-127892500D02*
X75535000Y-127892500D01*
X77785000Y-123242500D02*
X77785000Y-123592500D01*
X77785000Y-123592500D02*
X78535000Y-123592500D01*
X78285000Y-123242500D02*
X77785000Y-123242500D01*
X78535000Y-122242500D02*
X78285000Y-123242500D01*
X78535000Y-123592500D02*
X78535000Y-127892500D01*
X78535000Y-127892500D02*
X77785000Y-127892500D01*
X79035000Y-122242500D02*
X82035000Y-122242500D01*
X79035000Y-123592500D02*
X79785000Y-123592500D01*
X79035000Y-127892500D02*
X79035000Y-123592500D01*
X79285000Y-123242500D02*
X79035000Y-122242500D01*
X79785000Y-123242500D02*
X79285000Y-123242500D01*
X79785000Y-123592500D02*
X79785000Y-123242500D01*
X79785000Y-127892500D02*
X79035000Y-127892500D01*
X81285000Y-123242500D02*
X81285000Y-123592500D01*
X81285000Y-123592500D02*
X82035000Y-123592500D01*
X81785000Y-123242500D02*
X81285000Y-123242500D01*
X82035000Y-122242500D02*
X81785000Y-123242500D01*
X82035000Y-123592500D02*
X82035000Y-127892500D01*
X82035000Y-127892500D02*
X81285000Y-127892500D01*
X82535000Y-122242500D02*
X85535000Y-122242500D01*
X82535000Y-123592500D02*
X83285000Y-123592500D01*
X82535000Y-127892500D02*
X82535000Y-123592500D01*
X82785000Y-123242500D02*
X82535000Y-122242500D01*
X83285000Y-123242500D02*
X82785000Y-123242500D01*
X83285000Y-123592500D02*
X83285000Y-123242500D01*
X83285000Y-127892500D02*
X82535000Y-127892500D01*
X84785000Y-123242500D02*
X84785000Y-123592500D01*
X84785000Y-123592500D02*
X85535000Y-123592500D01*
X85285000Y-123242500D02*
X84785000Y-123242500D01*
X85535000Y-122242500D02*
X85285000Y-123242500D01*
X85535000Y-123592500D02*
X85535000Y-127892500D01*
X85535000Y-127892500D02*
X84785000Y-127892500D01*
X86595000Y-121282500D02*
X70975000Y-121282500D01*
X86595000Y-128752500D02*
X86595000Y-121282500D01*
X74284647Y-127892345D02*
G75*
G03*
X72785000Y-127892500I-749647J-1700155D01*
G01*
X77784647Y-127892345D02*
G75*
G03*
X76285000Y-127892500I-749647J-1700155D01*
G01*
X81284647Y-127892345D02*
G75*
G03*
X79785000Y-127892500I-749647J-1700155D01*
G01*
X84784647Y-127892345D02*
G75*
G03*
X83285000Y-127892500I-749647J-1700155D01*
G01*
D13*
%TO.C,R50*%
X93325000Y-63400000D02*
X94075000Y-63400000D01*
X93325000Y-64400000D02*
X94075000Y-64400000D01*
%TO.C,R42*%
X38675000Y-65800000D02*
X37925000Y-65800000D01*
X38675000Y-64800000D02*
X37925000Y-64800000D01*
%TO.C,R46*%
X95800000Y-56775000D02*
X95800000Y-56025000D01*
X96800000Y-56775000D02*
X96800000Y-56025000D01*
D12*
%TO.C,J20*%
X53817500Y-120892500D02*
X55817500Y-120892500D01*
X53817500Y-122142500D02*
X53817500Y-120892500D01*
X54207500Y-121282500D02*
X54207500Y-128752500D01*
X54207500Y-128752500D02*
X69827500Y-128752500D01*
X55267500Y-122242500D02*
X58267500Y-122242500D01*
X55267500Y-123592500D02*
X56017500Y-123592500D01*
X55267500Y-127892500D02*
X55267500Y-123592500D01*
X55517500Y-123242500D02*
X55267500Y-122242500D01*
X56017500Y-123242500D02*
X55517500Y-123242500D01*
X56017500Y-123592500D02*
X56017500Y-123242500D01*
X56017500Y-127892500D02*
X55267500Y-127892500D01*
X57517500Y-123242500D02*
X57517500Y-123592500D01*
X57517500Y-123592500D02*
X58267500Y-123592500D01*
X58017500Y-123242500D02*
X57517500Y-123242500D01*
X58267500Y-122242500D02*
X58017500Y-123242500D01*
X58267500Y-123592500D02*
X58267500Y-127892500D01*
X58267500Y-127892500D02*
X57517500Y-127892500D01*
X58767500Y-122242500D02*
X61767500Y-122242500D01*
X58767500Y-123592500D02*
X59517500Y-123592500D01*
X58767500Y-127892500D02*
X58767500Y-123592500D01*
X59017500Y-123242500D02*
X58767500Y-122242500D01*
X59517500Y-123242500D02*
X59017500Y-123242500D01*
X59517500Y-123592500D02*
X59517500Y-123242500D01*
X59517500Y-127892500D02*
X58767500Y-127892500D01*
X61017500Y-123242500D02*
X61017500Y-123592500D01*
X61017500Y-123592500D02*
X61767500Y-123592500D01*
X61517500Y-123242500D02*
X61017500Y-123242500D01*
X61767500Y-122242500D02*
X61517500Y-123242500D01*
X61767500Y-123592500D02*
X61767500Y-127892500D01*
X61767500Y-127892500D02*
X61017500Y-127892500D01*
X62267500Y-122242500D02*
X65267500Y-122242500D01*
X62267500Y-123592500D02*
X63017500Y-123592500D01*
X62267500Y-127892500D02*
X62267500Y-123592500D01*
X62517500Y-123242500D02*
X62267500Y-122242500D01*
X63017500Y-123242500D02*
X62517500Y-123242500D01*
X63017500Y-123592500D02*
X63017500Y-123242500D01*
X63017500Y-127892500D02*
X62267500Y-127892500D01*
X64517500Y-123242500D02*
X64517500Y-123592500D01*
X64517500Y-123592500D02*
X65267500Y-123592500D01*
X65017500Y-123242500D02*
X64517500Y-123242500D01*
X65267500Y-122242500D02*
X65017500Y-123242500D01*
X65267500Y-123592500D02*
X65267500Y-127892500D01*
X65267500Y-127892500D02*
X64517500Y-127892500D01*
X65767500Y-122242500D02*
X68767500Y-122242500D01*
X65767500Y-123592500D02*
X66517500Y-123592500D01*
X65767500Y-127892500D02*
X65767500Y-123592500D01*
X66017500Y-123242500D02*
X65767500Y-122242500D01*
X66517500Y-123242500D02*
X66017500Y-123242500D01*
X66517500Y-123592500D02*
X66517500Y-123242500D01*
X66517500Y-127892500D02*
X65767500Y-127892500D01*
X68017500Y-123242500D02*
X68017500Y-123592500D01*
X68017500Y-123592500D02*
X68767500Y-123592500D01*
X68517500Y-123242500D02*
X68017500Y-123242500D01*
X68767500Y-122242500D02*
X68517500Y-123242500D01*
X68767500Y-123592500D02*
X68767500Y-127892500D01*
X68767500Y-127892500D02*
X68017500Y-127892500D01*
X69827500Y-121282500D02*
X54207500Y-121282500D01*
X69827500Y-128752500D02*
X69827500Y-121282500D01*
X57517147Y-127892345D02*
G75*
G03*
X56017500Y-127892500I-749647J-1700155D01*
G01*
X61017147Y-127892345D02*
G75*
G03*
X59517500Y-127892500I-749647J-1700155D01*
G01*
X64517147Y-127892345D02*
G75*
G03*
X63017500Y-127892500I-749647J-1700155D01*
G01*
X68017147Y-127892345D02*
G75*
G03*
X66517500Y-127892500I-749647J-1700155D01*
G01*
D13*
%TO.C,FB1*%
X27125000Y-104250000D02*
X27875000Y-104250000D01*
X27125000Y-105250000D02*
X27875000Y-105250000D01*
%TO.C,R21*%
X35200000Y-104625000D02*
X35200000Y-105375000D01*
X34200000Y-104625000D02*
X34200000Y-105375000D01*
D12*
%TO.C,J17*%
X42170000Y-107395000D02*
X43500000Y-107395000D01*
X42170000Y-108725000D02*
X42170000Y-107395000D01*
X42170000Y-109995000D02*
X42170000Y-115135000D01*
X42170000Y-109995000D02*
X44830000Y-109995000D01*
X42170000Y-115135000D02*
X44830000Y-115135000D01*
X44830000Y-109995000D02*
X44830000Y-115135000D01*
D13*
%TO.C,H4*%
X34650000Y-123000000D02*
G75*
G03*
X34650000Y-123000000I-6650000J0D01*
G01*
%TO.C,R47*%
X95800000Y-53175000D02*
X95800000Y-52425000D01*
X96800000Y-53175000D02*
X96800000Y-52425000D01*
D12*
%TO.C,J23*%
X93920000Y-93595000D02*
X95250000Y-93595000D01*
X93920000Y-94925000D02*
X93920000Y-93595000D01*
X93920000Y-96195000D02*
X93920000Y-106415000D01*
X93920000Y-96195000D02*
X96580000Y-96195000D01*
X93920000Y-106415000D02*
X96580000Y-106415000D01*
X96580000Y-96195000D02*
X96580000Y-106415000D01*
%TO.C,J6*%
X60615773Y-29000000D02*
G75*
G03*
X60615773Y-29000000I-7615773J0D01*
G01*
%TO.C,J11*%
X38370000Y-89030000D02*
X38370000Y-87700000D01*
X39700000Y-89030000D02*
X38370000Y-89030000D01*
X40970000Y-89030000D02*
X46110000Y-89030000D01*
X40970000Y-89030000D02*
X40970000Y-86370000D01*
X46110000Y-89030000D02*
X46110000Y-86370000D01*
X40970000Y-86370000D02*
X46110000Y-86370000D01*
D13*
%TO.C,Q11*%
X52600000Y-68580000D02*
X49200000Y-68580000D01*
X49200000Y-68580000D02*
X49200000Y-72420000D01*
X52600000Y-72420000D02*
X52600000Y-68580000D01*
X49200000Y-72420000D02*
X52600000Y-72420000D01*
%TO.C,R23*%
X22250000Y-97875000D02*
X22250000Y-98625000D01*
X21250000Y-97875000D02*
X21250000Y-98625000D01*
%TO.C,H2*%
X118650000Y-28000000D02*
G75*
G03*
X118650000Y-28000000I-6650000J0D01*
G01*
D12*
%TO.C,J3*%
X118615773Y-61000000D02*
G75*
G03*
X118615773Y-61000000I-7615773J0D01*
G01*
D13*
%TO.C,U11*%
X87050000Y-58280000D02*
X90050000Y-58280000D01*
D12*
X86550000Y-57700000D02*
X87050000Y-58280000D01*
D13*
X86550000Y-51920000D02*
X86550000Y-57700000D01*
X86550000Y-51900000D02*
X90050000Y-51900000D01*
X90050000Y-51900000D02*
X90050000Y-58260000D01*
D12*
%TO.C,J14*%
X100330000Y-106605000D02*
X99000000Y-106605000D01*
X100330000Y-105275000D02*
X100330000Y-106605000D01*
X100330000Y-104005000D02*
X100330000Y-98865000D01*
X100330000Y-104005000D02*
X97670000Y-104005000D01*
X100330000Y-98865000D02*
X97670000Y-98865000D01*
X97670000Y-104005000D02*
X97670000Y-98865000D01*
D13*
%TO.C,R39*%
X47585000Y-109920000D02*
X46835000Y-109920000D01*
X47585000Y-108920000D02*
X46835000Y-108920000D01*
D12*
%TO.C,D19*%
X75000000Y-115500000D02*
X74750000Y-115000000D01*
X75025000Y-115500000D02*
X75300000Y-115000000D01*
X75300000Y-115500000D02*
X74750000Y-115500000D01*
X75300000Y-115000000D02*
X74750000Y-115000000D01*
X74550000Y-114900000D02*
X74550000Y-115650000D01*
X75500000Y-114900000D02*
X75500000Y-115600000D01*
D13*
%TO.C,R38*%
X47585000Y-108160000D02*
X46835000Y-108160000D01*
X47585000Y-107160000D02*
X46835000Y-107160000D01*
%TO.C,Q10*%
X53200000Y-72420000D02*
X56600000Y-72420000D01*
X56600000Y-72420000D02*
X56600000Y-68580000D01*
X53200000Y-68580000D02*
X53200000Y-72420000D01*
X56600000Y-68580000D02*
X53200000Y-68580000D01*
D12*
%TO.C,J24*%
X58530000Y-55070000D02*
X58530000Y-56400000D01*
X57200000Y-55070000D02*
X58530000Y-55070000D01*
X55930000Y-55070000D02*
X53330000Y-55070000D01*
X55930000Y-55070000D02*
X55930000Y-57730000D01*
X53330000Y-55070000D02*
X53330000Y-57730000D01*
X55930000Y-57730000D02*
X53330000Y-57730000D01*
D13*
%TO.C,R52*%
X43125000Y-60300000D02*
X43875000Y-60300000D01*
X43125000Y-61300000D02*
X43875000Y-61300000D01*
%TO.C,Q12*%
X91600000Y-57920000D02*
X95000000Y-57920000D01*
X95000000Y-57920000D02*
X95000000Y-54080000D01*
X91600000Y-54080000D02*
X91600000Y-57920000D01*
X95000000Y-54080000D02*
X91600000Y-54080000D01*
%TO.C,H3*%
X118650000Y-123000000D02*
G75*
G03*
X118650000Y-123000000I-6650000J0D01*
G01*
%TO.C,C16*%
X27875000Y-111700000D02*
X27125000Y-111700000D01*
X27875000Y-110700000D02*
X27125000Y-110700000D01*
%TO.C,U12*%
X43550000Y-64220000D02*
X40550000Y-64220000D01*
D12*
X44050000Y-64800000D02*
X43550000Y-64220000D01*
D13*
X44050000Y-70580000D02*
X44050000Y-64800000D01*
X44050000Y-70600000D02*
X40550000Y-70600000D01*
X40550000Y-70600000D02*
X40550000Y-64240000D01*
D12*
%TO.C,J25*%
X63530000Y-47930000D02*
X62200000Y-47930000D01*
X63530000Y-46600000D02*
X63530000Y-47930000D01*
X63530000Y-45330000D02*
X63530000Y-42730000D01*
X63530000Y-45330000D02*
X60870000Y-45330000D01*
X63530000Y-42730000D02*
X60870000Y-42730000D01*
X60870000Y-45330000D02*
X60870000Y-42730000D01*
D13*
%TO.C,C17*%
X34530000Y-116925000D02*
X34530000Y-116175000D01*
X35530000Y-116925000D02*
X35530000Y-116175000D01*
D14*
%TO.C,U6*%
X92500000Y-109100000D02*
X83600000Y-109100000D01*
X92500000Y-101200000D02*
X92500000Y-109100000D01*
X92500000Y-101200000D02*
X91000000Y-101200000D01*
X92500000Y-96800000D02*
X92500000Y-101200000D01*
X92500000Y-88900000D02*
X92500000Y-96800000D01*
X91000000Y-101200000D02*
X91000000Y-96800000D01*
X91000000Y-96800000D02*
X92500000Y-96800000D01*
X90775000Y-104715000D02*
X90775000Y-103445000D01*
X83500000Y-109100000D02*
X83500000Y-88900000D01*
X83500000Y-88900000D02*
X92500000Y-88900000D01*
D12*
%TO.C,J2*%
X36615773Y-44000000D02*
G75*
G03*
X36615773Y-44000000I-7615773J0D01*
G01*
D13*
%TO.C,Q9*%
X40000000Y-66680000D02*
X36600000Y-66680000D01*
X36600000Y-66680000D02*
X36600000Y-70520000D01*
X40000000Y-70520000D02*
X40000000Y-66680000D01*
X36600000Y-70520000D02*
X40000000Y-70520000D01*
%TO.C,R43*%
X54525000Y-73100000D02*
X55275000Y-73100000D01*
X54525000Y-74100000D02*
X55275000Y-74100000D01*
D12*
%TO.C,L2*%
X47370000Y-101900000D02*
G75*
G03*
X47370000Y-101900000I-4870000J0D01*
G01*
%TO.C,D21*%
X80200000Y-115500000D02*
X79950000Y-115000000D01*
X80225000Y-115500000D02*
X80500000Y-115000000D01*
X80500000Y-115500000D02*
X79950000Y-115500000D01*
X80500000Y-115000000D02*
X79950000Y-115000000D01*
X79750000Y-114900000D02*
X79750000Y-115650000D01*
X80700000Y-114900000D02*
X80700000Y-115600000D01*
D13*
%TO.C,C32*%
X84300000Y-53225000D02*
X84300000Y-53975000D01*
X83300000Y-53225000D02*
X83300000Y-53975000D01*
D12*
%TO.C,J10*%
X62745000Y-97130000D02*
X62745000Y-95800000D01*
X64075000Y-97130000D02*
X62745000Y-97130000D01*
X65345000Y-97130000D02*
X70485000Y-97130000D01*
X65345000Y-97130000D02*
X65345000Y-94470000D01*
X70485000Y-97130000D02*
X70485000Y-94470000D01*
X65345000Y-94470000D02*
X70485000Y-94470000D01*
D13*
%TO.C,R53*%
X43875000Y-63000000D02*
X43125000Y-63000000D01*
X43875000Y-62000000D02*
X43125000Y-62000000D01*
%TO.C,R22*%
X31800000Y-104625000D02*
X31800000Y-105375000D01*
X30800000Y-104625000D02*
X30800000Y-105375000D01*
%TO.C,Q15*%
X41620000Y-63400000D02*
X41620000Y-60000000D01*
X41620000Y-60000000D02*
X37780000Y-60000000D01*
X37780000Y-63400000D02*
X41620000Y-63400000D01*
X37780000Y-60000000D02*
X37780000Y-63400000D01*
%TO.C,R17*%
X27875000Y-108500000D02*
X27125000Y-108500000D01*
X27875000Y-107500000D02*
X27125000Y-107500000D01*
%TO.C,R18*%
X27875000Y-110100000D02*
X27125000Y-110100000D01*
X27875000Y-109100000D02*
X27125000Y-109100000D01*
%TO.C,U5*%
X36825000Y-107655000D02*
X31175000Y-107655000D01*
X36825000Y-107655000D02*
X36825000Y-114555000D01*
X31175000Y-107655000D02*
X31175000Y-114555000D01*
X36825000Y-114555000D02*
X31175000Y-114555000D01*
D15*
X36480000Y-107105000D02*
G75*
G03*
X36480000Y-107105000I-105000J0D01*
G01*
D13*
%TO.C,C31*%
X85900000Y-53225000D02*
X85900000Y-53975000D01*
X84900000Y-53225000D02*
X84900000Y-53975000D01*
%TO.C,R45*%
X50525000Y-73100000D02*
X51275000Y-73100000D01*
X50525000Y-74100000D02*
X51275000Y-74100000D01*
D16*
%TO.C,J12*%
X24450000Y-104300000D02*
X22695000Y-104300000D01*
X24450000Y-104300000D02*
X24450000Y-104380000D01*
X20150000Y-104300000D02*
X20505000Y-104300000D01*
X20150000Y-104300000D02*
X20150000Y-111700000D01*
X24450000Y-111620000D02*
X24450000Y-111700000D01*
X22695000Y-111700000D02*
X24450000Y-111700000D01*
X20150000Y-111700000D02*
X20505000Y-111700000D01*
D17*
X25800000Y-106650000D02*
G75*
G03*
X25800000Y-106650000I-100000J0D01*
G01*
D13*
%TO.C,C15*%
X36280000Y-116945000D02*
X36280000Y-116195000D01*
X37280000Y-116945000D02*
X37280000Y-116195000D01*
D12*
%TO.C,J8*%
X102615773Y-29000000D02*
G75*
G03*
X102615773Y-29000000I-7615773J0D01*
G01*
D13*
%TO.C,C19*%
X27875000Y-114820000D02*
X27125000Y-114820000D01*
X27875000Y-113820000D02*
X27125000Y-113820000D01*
%TO.C,R20*%
X33500000Y-104625000D02*
X33500000Y-105375000D01*
X32500000Y-104625000D02*
X32500000Y-105375000D01*
D12*
%TO.C,J4*%
X36615773Y-61000000D02*
G75*
G03*
X36615773Y-61000000I-7615773J0D01*
G01*
D13*
%TO.C,H1*%
X34650000Y-28000000D02*
G75*
G03*
X34650000Y-28000000I-6650000J0D01*
G01*
%TO.C,R19*%
X36900000Y-104625000D02*
X36900000Y-105375000D01*
X35900000Y-104625000D02*
X35900000Y-105375000D01*
%TO.C,Q14*%
X92880000Y-59400000D02*
X92880000Y-62800000D01*
X92880000Y-62800000D02*
X96720000Y-62800000D01*
X96720000Y-59400000D02*
X92880000Y-59400000D01*
X96720000Y-62800000D02*
X96720000Y-59400000D01*
%TO.C,R49*%
X43955000Y-52440000D02*
X44705000Y-52440000D01*
X43955000Y-53440000D02*
X44705000Y-53440000D01*
D12*
%TO.C,D20*%
X77700000Y-115500000D02*
X77450000Y-115000000D01*
X77725000Y-115500000D02*
X78000000Y-115000000D01*
X78000000Y-115500000D02*
X77450000Y-115500000D01*
X78000000Y-115000000D02*
X77450000Y-115000000D01*
X77250000Y-114900000D02*
X77250000Y-115650000D01*
X78200000Y-114900000D02*
X78200000Y-115600000D01*
%TO.C,J9*%
X38365000Y-92870000D02*
X38365000Y-91540000D01*
X39695000Y-92870000D02*
X38365000Y-92870000D01*
X40965000Y-92870000D02*
X46105000Y-92870000D01*
X40965000Y-92870000D02*
X40965000Y-90210000D01*
X46105000Y-92870000D02*
X46105000Y-90210000D01*
X40965000Y-90210000D02*
X46105000Y-90210000D01*
%TD*%
D18*
X20000000Y-20000000D02*
X120000000Y-20000000D01*
X120000000Y-131000000D01*
X20000000Y-131000000D01*
X20000000Y-20000000D01*
M02*
