M48
; DRILL file {KiCad 7.0.9-7.0.9~ubuntu23.04.1} date Sat 02 Dec 2023 08:50:29 PM CET
; FORMAT={-:-/ absolute / inch / decimal}
; #@! TF.CreationDate,2023-12-02T20:50:29+01:00
; #@! TF.GenerationSoftware,Kicad,Pcbnew,7.0.9-7.0.9~ubuntu23.04.1
; #@! TF.FileFunction,Plated,1,4,PTH
FMAT,2
INCH
; #@! TA.AperFunction,Plated,PTH,ViaDrill
T1C0.0079
; #@! TA.AperFunction,Plated,PTH,ViaDrill
T2C0.0157
; #@! TA.AperFunction,Plated,PTH,ComponentDrill
T3C0.0157
; #@! TA.AperFunction,Plated,PTH,ViaDrill
T4C0.0197
; #@! TA.AperFunction,Plated,PTH,ComponentDrill
T5C0.0217
; #@! TA.AperFunction,Plated,PTH,ComponentDrill
T6C0.0236
; #@! TA.AperFunction,Plated,PTH,ViaDrill
T7C0.0394
; #@! TA.AperFunction,Plated,PTH,ComponentDrill
T8C0.0394
; #@! TA.AperFunction,Plated,PTH,ComponentDrill
T9C0.0400
; #@! TA.AperFunction,Plated,PTH,ComponentDrill
T10C0.0472
; #@! TA.AperFunction,Plated,PTH,ComponentDrill
T11C0.0512
; #@! TA.AperFunction,Plated,PTH,ComponentDrill
T12C0.1000
; #@! TA.AperFunction,Plated,PTH,ComponentDrill
T13C0.2520
%
G90
G05
T1
X1.063Y-3.8583
X1.063Y-3.9252
X1.063Y-3.9961
X1.2205Y-3.8583
X1.2244Y-3.9331
X1.3701Y-3.9252
X1.4173Y-3.8031
X1.4173Y-3.9252
X1.4449Y-3.8465
X1.4456Y-4.0106
X1.4685Y-3.8031
X1.5206Y-4.0118
X1.9488Y-1.5276
X2.0394Y-4.2835
X2.1417Y-3.5787
X2.1496Y-3.4764
X2.1533Y-4.1434
X2.2293Y-2.7136
X2.3071Y-2.6801
X2.3108Y-1.7517
X2.3543Y-2.1181
X2.4449Y-1.7835
X2.4901Y-2.6457
X2.4921Y-1.9528
X2.6929Y-1.5276
X2.7126Y-2.126
X2.8366Y-1.5603
X2.9173Y-1.9055
X2.9252Y-1.6811
X2.9762Y-4.2126
X3.0866Y-1.6516
X3.1299Y-4.1417
X3.3543Y-1.6457
X3.4793Y-2.8179
X3.5039Y-2.7953
X3.5276Y-1.7291
X3.5787Y-1.6929
X3.6929Y-2.6969
X3.7559Y-1.685
X4.0492Y-2.7126
X4.1068Y-1.9419
X4.1102Y-2.3268
X4.1102Y-2.4646
X4.1162Y-2.1654
X4.126Y-2.3504
X4.1408Y-2.3749
X4.2124Y-3.7005
X4.2402Y-3.7047
X4.252Y-3.5157
X4.2633Y-2.1575
X4.2775Y-2.3149
X4.436Y-1.6594
X4.4921Y-4.1535
X4.5394Y-3.9213
X4.5748Y-1.5394
X4.5906Y-3.5197
X4.5906Y-3.5591
X4.6122Y-3.9493
X4.6653Y-3.6658
X4.6848Y-3.6853
X4.6861Y-2.3307
X4.7087Y-2.2638
X4.7323Y-1.6024
X4.7362Y-2.4843
X4.7598Y-3.6181
X4.7635Y-3.417
X4.7638Y-2.4724
X4.7677Y-2.4134
X4.7717Y-3.2707
X4.7735Y-3.5139
X4.7795Y-3.6417
X4.8043Y-2.8531
X4.8071Y-3.6417
X4.8161Y-3.5124
X4.8504Y-4.1575
X4.8583Y-2.3701
X4.8622Y-2.5157
X4.8622Y-2.6654
X4.8622Y-2.811
X4.8829Y-2.9055
X4.8858Y-2.6299
X4.8858Y-2.7717
X4.8898Y-2.3307
X4.8898Y-2.4803
X4.9094Y-3.5836
X4.9252Y-3.5236
X4.9331Y-3.5512
X4.937Y-1.5984
X4.9567Y-1.5276
X4.9685Y-2.3543
X4.9724Y-3.2731
X4.9803Y-3.4724
X4.9983Y-2.3565
X5.0118Y-2.4882
X5.0145Y-3.4732
X5.028Y-2.3587
X5.0394Y-3.3425
X5.0477Y-1.6216
X5.063Y-2.4843
X5.0787Y-3.626
X5.0827Y-3.7598
X5.0916Y-3.2362
X5.1102Y-3.3346
X5.127Y-3.3071
X5.1447Y-3.3346
X5.1614Y-2.3465
X5.185Y-1.7677
X5.2126Y-1.8189
X5.5Y-1.6181
X5.5228Y-1.7081
X5.5984Y-1.6063
X5.6004Y-1.7598
X5.6012Y-1.89
X5.6024Y-1.6811
X5.6063Y-1.937
X5.6299Y-1.561
T2
X1.1058Y-3.6028
X1.1102Y-3.6821
X2.2402Y-2.7761
X2.3071Y-2.4213
X2.4963Y-2.3388
X3.4331Y-1.5276
X4.2559Y-1.4449
X4.3386Y-2.1772
X4.4488Y-2.0079
X4.6417Y-2.1467
X4.7165Y-2.1142
T3
X5.5693Y-2.8134
X5.5693Y-3.0134
X5.7693Y-2.8134
X5.7693Y-3.0134
T4
X1.3307Y-4.2087
X1.5472Y-3.6732
X1.7283Y-3.6955
X1.8858Y-3.4843
X1.9567Y-2.9055
X2.0945Y-2.9764
X2.2165Y-3.0276
X2.6811Y-2.9961
X3.0118Y-2.8898
X3.3622Y-3.0197
X3.4857Y-3.0576
X3.5754Y-2.8928
X3.7283Y-3.0354
X4.2091Y-2.402
X4.311Y-2.1102
X4.4055Y-3.431
X4.6378Y-2.2677
X4.8209Y-2.3701
T7
X0.9213Y-2.5157
X0.9291Y-3.1496
X1.3417Y-3.6242
X1.5882Y-3.7311
X1.5918Y-3.5263
X1.811Y-3.5472
X1.8172Y-3.9124
X1.8731Y-3.2343
X2.122Y-2.5512
X2.5197Y-3.1339
X2.9755Y-3.1623
X3.1053Y-2.4423
X3.311Y-2.5532
X3.3976Y-4.5591
X3.4921Y-2.7362
X3.7835Y-2.4213
X4.1135Y-2.5811
T8
X1.4331Y-4.2559
X1.5331Y-4.2559
X1.549Y-3.2638
X1.6331Y-4.2559
X1.6339Y-3.9006
X1.6339Y-4.0006
X1.6339Y-4.1006
X1.649Y-3.2638
X1.749Y-3.2638
X2.4331Y-2.9055
X2.4331Y-3.5354
X2.4331Y-4.1654
X2.4961Y-1.6173
X2.4961Y-1.8173
X2.4961Y-2.0173
X2.4961Y-2.2173
X2.6299Y-2.5118
X2.6299Y-3.1417
X2.6299Y-3.7717
X2.7283Y-1.6173
X2.7283Y-1.8173
X2.7283Y-2.0173
X2.7283Y-2.2173
X2.8268Y-2.9055
X2.8268Y-3.5354
X2.8268Y-4.1654
X2.9646Y-1.6173
X2.9646Y-1.8173
X2.9646Y-2.0173
X2.9646Y-2.2173
X3.1929Y-1.6173
X3.1929Y-1.8173
X3.1929Y-2.0173
X3.1929Y-2.2173
X3.4252Y-1.6173
X3.4252Y-1.8173
X3.4252Y-2.0173
X3.4252Y-2.2173
X3.5748Y-3.1929
X3.5748Y-3.2929
X3.5748Y-3.3929
X3.6181Y-2.4344
X3.6181Y-2.5344
X3.6457Y-1.6173
X3.6457Y-1.8173
X3.6457Y-2.0173
X3.6457Y-2.2173
X3.7785Y-4.252
X3.8701Y-1.6173
X3.8701Y-1.8173
X3.8701Y-2.0173
X3.8701Y-2.2173
X3.8785Y-4.252
X3.9785Y-4.252
X4.0866Y-1.6173
X4.0866Y-1.8173
X4.0866Y-2.0173
X4.0866Y-2.2173
X4.1858Y-2.7165
X4.2785Y-1.7717
X4.2858Y-2.7165
X4.3785Y-1.7717
X4.3858Y-2.7165
X4.4785Y-1.7717
X4.5394Y-2.315
X4.5394Y-2.415
X4.5394Y-2.515
X4.5394Y-2.615
X4.5394Y-2.715
X4.5687Y-4.248
X4.6687Y-4.248
X4.6969Y-2.6457
X4.6969Y-2.7457
X4.6969Y-2.8457
X4.6969Y-2.9457
X4.6969Y-3.0457
X4.7687Y-4.248
X4.9961Y-1.7892
X4.9961Y-1.8892
X4.9961Y-1.9892
X5.811Y-1.5701
X5.811Y-1.6701
X5.811Y-1.7701
X5.811Y-1.8701
T9
X5.6193Y-3.3827
X5.6193Y-3.4827
X5.6193Y-3.5827
X5.6193Y-3.6827
X5.6193Y-3.7827
X5.7193Y-3.3827
X5.7193Y-3.4827
X5.7193Y-3.5827
X5.7193Y-3.6827
X5.7193Y-3.7827
T10
X1.5354Y-4.5276
X1.6732Y-4.5276
X1.811Y-4.5276
X1.9488Y-4.5276
X2.2047Y-4.5276
X2.3425Y-4.5276
X2.4803Y-4.5276
X2.6181Y-4.5276
X2.8649Y-4.5276
X3.0027Y-4.5276
X3.1405Y-4.5276
X3.2782Y-4.5276
X3.5236Y-4.5276
X3.6614Y-4.5276
X3.7992Y-4.5276
X3.937Y-4.5276
X4.1732Y-4.5276
X4.311Y-4.5276
X4.4488Y-4.5276
X4.5866Y-4.5276
X4.7244Y-4.5276
T11
X1.2126Y-3.5394
X1.4094Y-3.5394
X3.815Y-2.5433
X4.0118Y-2.5433
T12
X1.6535Y-1.6535
X1.6535Y-1.8535
X1.6535Y-2.0134
X1.6535Y-2.2134
X1.6535Y-2.4803
X1.6535Y-2.6803
X1.6535Y-2.8402
X1.6535Y-3.0402
T13
X1.1024Y-1.1024
X1.1024Y-4.4094
X1.1811Y-1.811
X1.1811Y-2.8465
X1.811Y-1.1811
X2.5591Y-1.1811
X3.3071Y-1.1811
X4.0551Y-1.1811
X4.8031Y-1.1811
X5.5512Y-1.1811
X5.5906Y-4.4094
T5
G00X0.8632Y-3.7982
M15
G01X0.8376Y-3.7982
M16
G05
G00X0.8632Y-4.0758
M15
G01X0.8376Y-4.0758
M16
G05
T6
G00X0.9567Y-3.8327
M15
G01X0.9567Y-3.8445
M16
G05
G00X0.9567Y-4.0295
M15
G01X0.9567Y-4.0413
M16
G05
T0
M30
