%TF.GenerationSoftware,KiCad,Pcbnew,7.0.9-7.0.9~ubuntu22.04.1*%
%TF.CreationDate,2023-11-27T19:51:50+01:00*%
%TF.ProjectId,battery-management-system,62617474-6572-4792-9d6d-616e6167656d,rev?*%
%TF.SameCoordinates,Original*%
%TF.FileFunction,Legend,Top*%
%TF.FilePolarity,Positive*%
%FSLAX46Y46*%
G04 Gerber Fmt 4.6, Leading zero omitted, Abs format (unit mm)*
G04 Created by KiCad (PCBNEW 7.0.9-7.0.9~ubuntu22.04.1) date 2023-11-27 19:51:50*
%MOMM*%
%LPD*%
G01*
G04 APERTURE LIST*
%ADD10C,0.150000*%
%ADD11C,0.120000*%
%ADD12C,0.203200*%
%ADD13C,0.127000*%
%ADD14C,0.200000*%
G04 APERTURE END LIST*
D10*
X38578990Y-49076666D02*
X38578990Y-48743333D01*
X38055180Y-48743333D02*
X39055180Y-48743333D01*
X39055180Y-48743333D02*
X39055180Y-49219523D01*
X38055180Y-50124285D02*
X38055180Y-49552857D01*
X38055180Y-49838571D02*
X39055180Y-49838571D01*
X39055180Y-49838571D02*
X38912323Y-49743333D01*
X38912323Y-49743333D02*
X38817085Y-49648095D01*
X38817085Y-49648095D02*
X38769466Y-49552857D01*
X26657142Y-96284819D02*
X26323809Y-95808628D01*
X26085714Y-96284819D02*
X26085714Y-95284819D01*
X26085714Y-95284819D02*
X26466666Y-95284819D01*
X26466666Y-95284819D02*
X26561904Y-95332438D01*
X26561904Y-95332438D02*
X26609523Y-95380057D01*
X26609523Y-95380057D02*
X26657142Y-95475295D01*
X26657142Y-95475295D02*
X26657142Y-95618152D01*
X26657142Y-95618152D02*
X26609523Y-95713390D01*
X26609523Y-95713390D02*
X26561904Y-95761009D01*
X26561904Y-95761009D02*
X26466666Y-95808628D01*
X26466666Y-95808628D02*
X26085714Y-95808628D01*
X27609523Y-96284819D02*
X27038095Y-96284819D01*
X27323809Y-96284819D02*
X27323809Y-95284819D01*
X27323809Y-95284819D02*
X27228571Y-95427676D01*
X27228571Y-95427676D02*
X27133333Y-95522914D01*
X27133333Y-95522914D02*
X27038095Y-95570533D01*
X28085714Y-96284819D02*
X28276190Y-96284819D01*
X28276190Y-96284819D02*
X28371428Y-96237200D01*
X28371428Y-96237200D02*
X28419047Y-96189580D01*
X28419047Y-96189580D02*
X28514285Y-96046723D01*
X28514285Y-96046723D02*
X28561904Y-95856247D01*
X28561904Y-95856247D02*
X28561904Y-95475295D01*
X28561904Y-95475295D02*
X28514285Y-95380057D01*
X28514285Y-95380057D02*
X28466666Y-95332438D01*
X28466666Y-95332438D02*
X28371428Y-95284819D01*
X28371428Y-95284819D02*
X28180952Y-95284819D01*
X28180952Y-95284819D02*
X28085714Y-95332438D01*
X28085714Y-95332438D02*
X28038095Y-95380057D01*
X28038095Y-95380057D02*
X27990476Y-95475295D01*
X27990476Y-95475295D02*
X27990476Y-95713390D01*
X27990476Y-95713390D02*
X28038095Y-95808628D01*
X28038095Y-95808628D02*
X28085714Y-95856247D01*
X28085714Y-95856247D02*
X28180952Y-95903866D01*
X28180952Y-95903866D02*
X28371428Y-95903866D01*
X28371428Y-95903866D02*
X28466666Y-95856247D01*
X28466666Y-95856247D02*
X28514285Y-95808628D01*
X28514285Y-95808628D02*
X28561904Y-95713390D01*
X87092800Y-47366667D02*
X87045180Y-47509524D01*
X87045180Y-47509524D02*
X87045180Y-47747619D01*
X87045180Y-47747619D02*
X87092800Y-47842857D01*
X87092800Y-47842857D02*
X87140419Y-47890476D01*
X87140419Y-47890476D02*
X87235657Y-47938095D01*
X87235657Y-47938095D02*
X87330895Y-47938095D01*
X87330895Y-47938095D02*
X87426133Y-47890476D01*
X87426133Y-47890476D02*
X87473752Y-47842857D01*
X87473752Y-47842857D02*
X87521371Y-47747619D01*
X87521371Y-47747619D02*
X87568990Y-47557143D01*
X87568990Y-47557143D02*
X87616609Y-47461905D01*
X87616609Y-47461905D02*
X87664228Y-47414286D01*
X87664228Y-47414286D02*
X87759466Y-47366667D01*
X87759466Y-47366667D02*
X87854704Y-47366667D01*
X87854704Y-47366667D02*
X87949942Y-47414286D01*
X87949942Y-47414286D02*
X87997561Y-47461905D01*
X87997561Y-47461905D02*
X88045180Y-47557143D01*
X88045180Y-47557143D02*
X88045180Y-47795238D01*
X88045180Y-47795238D02*
X87997561Y-47938095D01*
X88045180Y-48271429D02*
X87045180Y-48509524D01*
X87045180Y-48509524D02*
X87759466Y-48700000D01*
X87759466Y-48700000D02*
X87045180Y-48890476D01*
X87045180Y-48890476D02*
X88045180Y-49128572D01*
X88045180Y-49938095D02*
X88045180Y-49747619D01*
X88045180Y-49747619D02*
X87997561Y-49652381D01*
X87997561Y-49652381D02*
X87949942Y-49604762D01*
X87949942Y-49604762D02*
X87807085Y-49509524D01*
X87807085Y-49509524D02*
X87616609Y-49461905D01*
X87616609Y-49461905D02*
X87235657Y-49461905D01*
X87235657Y-49461905D02*
X87140419Y-49509524D01*
X87140419Y-49509524D02*
X87092800Y-49557143D01*
X87092800Y-49557143D02*
X87045180Y-49652381D01*
X87045180Y-49652381D02*
X87045180Y-49842857D01*
X87045180Y-49842857D02*
X87092800Y-49938095D01*
X87092800Y-49938095D02*
X87140419Y-49985714D01*
X87140419Y-49985714D02*
X87235657Y-50033333D01*
X87235657Y-50033333D02*
X87473752Y-50033333D01*
X87473752Y-50033333D02*
X87568990Y-49985714D01*
X87568990Y-49985714D02*
X87616609Y-49938095D01*
X87616609Y-49938095D02*
X87664228Y-49842857D01*
X87664228Y-49842857D02*
X87664228Y-49652381D01*
X87664228Y-49652381D02*
X87616609Y-49557143D01*
X87616609Y-49557143D02*
X87568990Y-49509524D01*
X87568990Y-49509524D02*
X87473752Y-49461905D01*
X112666666Y-109004819D02*
X112666666Y-109719104D01*
X112666666Y-109719104D02*
X112619047Y-109861961D01*
X112619047Y-109861961D02*
X112523809Y-109957200D01*
X112523809Y-109957200D02*
X112380952Y-110004819D01*
X112380952Y-110004819D02*
X112285714Y-110004819D01*
X113190476Y-110004819D02*
X113380952Y-110004819D01*
X113380952Y-110004819D02*
X113476190Y-109957200D01*
X113476190Y-109957200D02*
X113523809Y-109909580D01*
X113523809Y-109909580D02*
X113619047Y-109766723D01*
X113619047Y-109766723D02*
X113666666Y-109576247D01*
X113666666Y-109576247D02*
X113666666Y-109195295D01*
X113666666Y-109195295D02*
X113619047Y-109100057D01*
X113619047Y-109100057D02*
X113571428Y-109052438D01*
X113571428Y-109052438D02*
X113476190Y-109004819D01*
X113476190Y-109004819D02*
X113285714Y-109004819D01*
X113285714Y-109004819D02*
X113190476Y-109052438D01*
X113190476Y-109052438D02*
X113142857Y-109100057D01*
X113142857Y-109100057D02*
X113095238Y-109195295D01*
X113095238Y-109195295D02*
X113095238Y-109433390D01*
X113095238Y-109433390D02*
X113142857Y-109528628D01*
X113142857Y-109528628D02*
X113190476Y-109576247D01*
X113190476Y-109576247D02*
X113285714Y-109623866D01*
X113285714Y-109623866D02*
X113476190Y-109623866D01*
X113476190Y-109623866D02*
X113571428Y-109576247D01*
X113571428Y-109576247D02*
X113619047Y-109528628D01*
X113619047Y-109528628D02*
X113666666Y-109433390D01*
X122485714Y-61604819D02*
X122485714Y-60604819D01*
X122485714Y-60604819D02*
X122723809Y-60604819D01*
X122723809Y-60604819D02*
X122866666Y-60652438D01*
X122866666Y-60652438D02*
X122961904Y-60747676D01*
X122961904Y-60747676D02*
X123009523Y-60842914D01*
X123009523Y-60842914D02*
X123057142Y-61033390D01*
X123057142Y-61033390D02*
X123057142Y-61176247D01*
X123057142Y-61176247D02*
X123009523Y-61366723D01*
X123009523Y-61366723D02*
X122961904Y-61461961D01*
X122961904Y-61461961D02*
X122866666Y-61557200D01*
X122866666Y-61557200D02*
X122723809Y-61604819D01*
X122723809Y-61604819D02*
X122485714Y-61604819D01*
X124009523Y-61604819D02*
X123438095Y-61604819D01*
X123723809Y-61604819D02*
X123723809Y-60604819D01*
X123723809Y-60604819D02*
X123628571Y-60747676D01*
X123628571Y-60747676D02*
X123533333Y-60842914D01*
X123533333Y-60842914D02*
X123438095Y-60890533D01*
X124342857Y-60604819D02*
X125009523Y-60604819D01*
X125009523Y-60604819D02*
X124580952Y-61604819D01*
X93940476Y-109004819D02*
X93940476Y-109719104D01*
X93940476Y-109719104D02*
X93892857Y-109861961D01*
X93892857Y-109861961D02*
X93797619Y-109957200D01*
X93797619Y-109957200D02*
X93654762Y-110004819D01*
X93654762Y-110004819D02*
X93559524Y-110004819D01*
X94940476Y-110004819D02*
X94369048Y-110004819D01*
X94654762Y-110004819D02*
X94654762Y-109004819D01*
X94654762Y-109004819D02*
X94559524Y-109147676D01*
X94559524Y-109147676D02*
X94464286Y-109242914D01*
X94464286Y-109242914D02*
X94369048Y-109290533D01*
X95511905Y-109433390D02*
X95416667Y-109385771D01*
X95416667Y-109385771D02*
X95369048Y-109338152D01*
X95369048Y-109338152D02*
X95321429Y-109242914D01*
X95321429Y-109242914D02*
X95321429Y-109195295D01*
X95321429Y-109195295D02*
X95369048Y-109100057D01*
X95369048Y-109100057D02*
X95416667Y-109052438D01*
X95416667Y-109052438D02*
X95511905Y-109004819D01*
X95511905Y-109004819D02*
X95702381Y-109004819D01*
X95702381Y-109004819D02*
X95797619Y-109052438D01*
X95797619Y-109052438D02*
X95845238Y-109100057D01*
X95845238Y-109100057D02*
X95892857Y-109195295D01*
X95892857Y-109195295D02*
X95892857Y-109242914D01*
X95892857Y-109242914D02*
X95845238Y-109338152D01*
X95845238Y-109338152D02*
X95797619Y-109385771D01*
X95797619Y-109385771D02*
X95702381Y-109433390D01*
X95702381Y-109433390D02*
X95511905Y-109433390D01*
X95511905Y-109433390D02*
X95416667Y-109481009D01*
X95416667Y-109481009D02*
X95369048Y-109528628D01*
X95369048Y-109528628D02*
X95321429Y-109623866D01*
X95321429Y-109623866D02*
X95321429Y-109814342D01*
X95321429Y-109814342D02*
X95369048Y-109909580D01*
X95369048Y-109909580D02*
X95416667Y-109957200D01*
X95416667Y-109957200D02*
X95511905Y-110004819D01*
X95511905Y-110004819D02*
X95702381Y-110004819D01*
X95702381Y-110004819D02*
X95797619Y-109957200D01*
X95797619Y-109957200D02*
X95845238Y-109909580D01*
X95845238Y-109909580D02*
X95892857Y-109814342D01*
X95892857Y-109814342D02*
X95892857Y-109623866D01*
X95892857Y-109623866D02*
X95845238Y-109528628D01*
X95845238Y-109528628D02*
X95797619Y-109481009D01*
X95797619Y-109481009D02*
X95702381Y-109433390D01*
X22761905Y-93424819D02*
X22761905Y-92424819D01*
X22761905Y-92424819D02*
X23000000Y-92424819D01*
X23000000Y-92424819D02*
X23142857Y-92472438D01*
X23142857Y-92472438D02*
X23238095Y-92567676D01*
X23238095Y-92567676D02*
X23285714Y-92662914D01*
X23285714Y-92662914D02*
X23333333Y-92853390D01*
X23333333Y-92853390D02*
X23333333Y-92996247D01*
X23333333Y-92996247D02*
X23285714Y-93186723D01*
X23285714Y-93186723D02*
X23238095Y-93281961D01*
X23238095Y-93281961D02*
X23142857Y-93377200D01*
X23142857Y-93377200D02*
X23000000Y-93424819D01*
X23000000Y-93424819D02*
X22761905Y-93424819D01*
X23666667Y-92424819D02*
X24333333Y-92424819D01*
X24333333Y-92424819D02*
X23904762Y-93424819D01*
X43440476Y-109004819D02*
X43440476Y-109719104D01*
X43440476Y-109719104D02*
X43392857Y-109861961D01*
X43392857Y-109861961D02*
X43297619Y-109957200D01*
X43297619Y-109957200D02*
X43154762Y-110004819D01*
X43154762Y-110004819D02*
X43059524Y-110004819D01*
X44440476Y-110004819D02*
X43869048Y-110004819D01*
X44154762Y-110004819D02*
X44154762Y-109004819D01*
X44154762Y-109004819D02*
X44059524Y-109147676D01*
X44059524Y-109147676D02*
X43964286Y-109242914D01*
X43964286Y-109242914D02*
X43869048Y-109290533D01*
X45345238Y-109004819D02*
X44869048Y-109004819D01*
X44869048Y-109004819D02*
X44821429Y-109481009D01*
X44821429Y-109481009D02*
X44869048Y-109433390D01*
X44869048Y-109433390D02*
X44964286Y-109385771D01*
X44964286Y-109385771D02*
X45202381Y-109385771D01*
X45202381Y-109385771D02*
X45297619Y-109433390D01*
X45297619Y-109433390D02*
X45345238Y-109481009D01*
X45345238Y-109481009D02*
X45392857Y-109576247D01*
X45392857Y-109576247D02*
X45392857Y-109814342D01*
X45392857Y-109814342D02*
X45345238Y-109909580D01*
X45345238Y-109909580D02*
X45297619Y-109957200D01*
X45297619Y-109957200D02*
X45202381Y-110004819D01*
X45202381Y-110004819D02*
X44964286Y-110004819D01*
X44964286Y-110004819D02*
X44869048Y-109957200D01*
X44869048Y-109957200D02*
X44821429Y-109909580D01*
X121666666Y-22054819D02*
X121666666Y-22769104D01*
X121666666Y-22769104D02*
X121619047Y-22911961D01*
X121619047Y-22911961D02*
X121523809Y-23007200D01*
X121523809Y-23007200D02*
X121380952Y-23054819D01*
X121380952Y-23054819D02*
X121285714Y-23054819D01*
X122619047Y-22054819D02*
X122142857Y-22054819D01*
X122142857Y-22054819D02*
X122095238Y-22531009D01*
X122095238Y-22531009D02*
X122142857Y-22483390D01*
X122142857Y-22483390D02*
X122238095Y-22435771D01*
X122238095Y-22435771D02*
X122476190Y-22435771D01*
X122476190Y-22435771D02*
X122571428Y-22483390D01*
X122571428Y-22483390D02*
X122619047Y-22531009D01*
X122619047Y-22531009D02*
X122666666Y-22626247D01*
X122666666Y-22626247D02*
X122666666Y-22864342D01*
X122666666Y-22864342D02*
X122619047Y-22959580D01*
X122619047Y-22959580D02*
X122571428Y-23007200D01*
X122571428Y-23007200D02*
X122476190Y-23054819D01*
X122476190Y-23054819D02*
X122238095Y-23054819D01*
X122238095Y-23054819D02*
X122142857Y-23007200D01*
X122142857Y-23007200D02*
X122095238Y-22959580D01*
X22686905Y-91024819D02*
X22686905Y-90024819D01*
X22686905Y-90024819D02*
X22925000Y-90024819D01*
X22925000Y-90024819D02*
X23067857Y-90072438D01*
X23067857Y-90072438D02*
X23163095Y-90167676D01*
X23163095Y-90167676D02*
X23210714Y-90262914D01*
X23210714Y-90262914D02*
X23258333Y-90453390D01*
X23258333Y-90453390D02*
X23258333Y-90596247D01*
X23258333Y-90596247D02*
X23210714Y-90786723D01*
X23210714Y-90786723D02*
X23163095Y-90881961D01*
X23163095Y-90881961D02*
X23067857Y-90977200D01*
X23067857Y-90977200D02*
X22925000Y-91024819D01*
X22925000Y-91024819D02*
X22686905Y-91024819D01*
X24115476Y-90024819D02*
X23925000Y-90024819D01*
X23925000Y-90024819D02*
X23829762Y-90072438D01*
X23829762Y-90072438D02*
X23782143Y-90120057D01*
X23782143Y-90120057D02*
X23686905Y-90262914D01*
X23686905Y-90262914D02*
X23639286Y-90453390D01*
X23639286Y-90453390D02*
X23639286Y-90834342D01*
X23639286Y-90834342D02*
X23686905Y-90929580D01*
X23686905Y-90929580D02*
X23734524Y-90977200D01*
X23734524Y-90977200D02*
X23829762Y-91024819D01*
X23829762Y-91024819D02*
X24020238Y-91024819D01*
X24020238Y-91024819D02*
X24115476Y-90977200D01*
X24115476Y-90977200D02*
X24163095Y-90929580D01*
X24163095Y-90929580D02*
X24210714Y-90834342D01*
X24210714Y-90834342D02*
X24210714Y-90596247D01*
X24210714Y-90596247D02*
X24163095Y-90501009D01*
X24163095Y-90501009D02*
X24115476Y-90453390D01*
X24115476Y-90453390D02*
X24020238Y-90405771D01*
X24020238Y-90405771D02*
X23829762Y-90405771D01*
X23829762Y-90405771D02*
X23734524Y-90453390D01*
X23734524Y-90453390D02*
X23686905Y-90501009D01*
X23686905Y-90501009D02*
X23639286Y-90596247D01*
X113184819Y-69809523D02*
X113899104Y-69809523D01*
X113899104Y-69809523D02*
X114041961Y-69857142D01*
X114041961Y-69857142D02*
X114137200Y-69952380D01*
X114137200Y-69952380D02*
X114184819Y-70095237D01*
X114184819Y-70095237D02*
X114184819Y-70190475D01*
X114184819Y-68809523D02*
X114184819Y-69380951D01*
X114184819Y-69095237D02*
X113184819Y-69095237D01*
X113184819Y-69095237D02*
X113327676Y-69190475D01*
X113327676Y-69190475D02*
X113422914Y-69285713D01*
X113422914Y-69285713D02*
X113470533Y-69380951D01*
X114184819Y-68333332D02*
X114184819Y-68142856D01*
X114184819Y-68142856D02*
X114137200Y-68047618D01*
X114137200Y-68047618D02*
X114089580Y-67999999D01*
X114089580Y-67999999D02*
X113946723Y-67904761D01*
X113946723Y-67904761D02*
X113756247Y-67857142D01*
X113756247Y-67857142D02*
X113375295Y-67857142D01*
X113375295Y-67857142D02*
X113280057Y-67904761D01*
X113280057Y-67904761D02*
X113232438Y-67952380D01*
X113232438Y-67952380D02*
X113184819Y-68047618D01*
X113184819Y-68047618D02*
X113184819Y-68238094D01*
X113184819Y-68238094D02*
X113232438Y-68333332D01*
X113232438Y-68333332D02*
X113280057Y-68380951D01*
X113280057Y-68380951D02*
X113375295Y-68428570D01*
X113375295Y-68428570D02*
X113613390Y-68428570D01*
X113613390Y-68428570D02*
X113708628Y-68380951D01*
X113708628Y-68380951D02*
X113756247Y-68333332D01*
X113756247Y-68333332D02*
X113803866Y-68238094D01*
X113803866Y-68238094D02*
X113803866Y-68047618D01*
X113803866Y-68047618D02*
X113756247Y-67952380D01*
X113756247Y-67952380D02*
X113708628Y-67904761D01*
X113708628Y-67904761D02*
X113613390Y-67857142D01*
X98392800Y-47366667D02*
X98345180Y-47509524D01*
X98345180Y-47509524D02*
X98345180Y-47747619D01*
X98345180Y-47747619D02*
X98392800Y-47842857D01*
X98392800Y-47842857D02*
X98440419Y-47890476D01*
X98440419Y-47890476D02*
X98535657Y-47938095D01*
X98535657Y-47938095D02*
X98630895Y-47938095D01*
X98630895Y-47938095D02*
X98726133Y-47890476D01*
X98726133Y-47890476D02*
X98773752Y-47842857D01*
X98773752Y-47842857D02*
X98821371Y-47747619D01*
X98821371Y-47747619D02*
X98868990Y-47557143D01*
X98868990Y-47557143D02*
X98916609Y-47461905D01*
X98916609Y-47461905D02*
X98964228Y-47414286D01*
X98964228Y-47414286D02*
X99059466Y-47366667D01*
X99059466Y-47366667D02*
X99154704Y-47366667D01*
X99154704Y-47366667D02*
X99249942Y-47414286D01*
X99249942Y-47414286D02*
X99297561Y-47461905D01*
X99297561Y-47461905D02*
X99345180Y-47557143D01*
X99345180Y-47557143D02*
X99345180Y-47795238D01*
X99345180Y-47795238D02*
X99297561Y-47938095D01*
X99345180Y-48271429D02*
X98345180Y-48509524D01*
X98345180Y-48509524D02*
X99059466Y-48700000D01*
X99059466Y-48700000D02*
X98345180Y-48890476D01*
X98345180Y-48890476D02*
X99345180Y-49128572D01*
X99345180Y-49414286D02*
X99345180Y-50033333D01*
X99345180Y-50033333D02*
X98964228Y-49700000D01*
X98964228Y-49700000D02*
X98964228Y-49842857D01*
X98964228Y-49842857D02*
X98916609Y-49938095D01*
X98916609Y-49938095D02*
X98868990Y-49985714D01*
X98868990Y-49985714D02*
X98773752Y-50033333D01*
X98773752Y-50033333D02*
X98535657Y-50033333D01*
X98535657Y-50033333D02*
X98440419Y-49985714D01*
X98440419Y-49985714D02*
X98392800Y-49938095D01*
X98392800Y-49938095D02*
X98345180Y-49842857D01*
X98345180Y-49842857D02*
X98345180Y-49557143D01*
X98345180Y-49557143D02*
X98392800Y-49461905D01*
X98392800Y-49461905D02*
X98440419Y-49414286D01*
X38578990Y-70076666D02*
X38578990Y-69743333D01*
X38055180Y-69743333D02*
X39055180Y-69743333D01*
X39055180Y-69743333D02*
X39055180Y-70219523D01*
X38959942Y-70552857D02*
X39007561Y-70600476D01*
X39007561Y-70600476D02*
X39055180Y-70695714D01*
X39055180Y-70695714D02*
X39055180Y-70933809D01*
X39055180Y-70933809D02*
X39007561Y-71029047D01*
X39007561Y-71029047D02*
X38959942Y-71076666D01*
X38959942Y-71076666D02*
X38864704Y-71124285D01*
X38864704Y-71124285D02*
X38769466Y-71124285D01*
X38769466Y-71124285D02*
X38626609Y-71076666D01*
X38626609Y-71076666D02*
X38055180Y-70505238D01*
X38055180Y-70505238D02*
X38055180Y-71124285D01*
X142071428Y-81854819D02*
X141738095Y-81378628D01*
X141500000Y-81854819D02*
X141500000Y-80854819D01*
X141500000Y-80854819D02*
X141880952Y-80854819D01*
X141880952Y-80854819D02*
X141976190Y-80902438D01*
X141976190Y-80902438D02*
X142023809Y-80950057D01*
X142023809Y-80950057D02*
X142071428Y-81045295D01*
X142071428Y-81045295D02*
X142071428Y-81188152D01*
X142071428Y-81188152D02*
X142023809Y-81283390D01*
X142023809Y-81283390D02*
X141976190Y-81331009D01*
X141976190Y-81331009D02*
X141880952Y-81378628D01*
X141880952Y-81378628D02*
X141500000Y-81378628D01*
X142500000Y-81331009D02*
X142833333Y-81331009D01*
X142976190Y-81854819D02*
X142500000Y-81854819D01*
X142500000Y-81854819D02*
X142500000Y-80854819D01*
X142500000Y-80854819D02*
X142976190Y-80854819D01*
X143357143Y-81807200D02*
X143500000Y-81854819D01*
X143500000Y-81854819D02*
X143738095Y-81854819D01*
X143738095Y-81854819D02*
X143833333Y-81807200D01*
X143833333Y-81807200D02*
X143880952Y-81759580D01*
X143880952Y-81759580D02*
X143928571Y-81664342D01*
X143928571Y-81664342D02*
X143928571Y-81569104D01*
X143928571Y-81569104D02*
X143880952Y-81473866D01*
X143880952Y-81473866D02*
X143833333Y-81426247D01*
X143833333Y-81426247D02*
X143738095Y-81378628D01*
X143738095Y-81378628D02*
X143547619Y-81331009D01*
X143547619Y-81331009D02*
X143452381Y-81283390D01*
X143452381Y-81283390D02*
X143404762Y-81235771D01*
X143404762Y-81235771D02*
X143357143Y-81140533D01*
X143357143Y-81140533D02*
X143357143Y-81045295D01*
X143357143Y-81045295D02*
X143404762Y-80950057D01*
X143404762Y-80950057D02*
X143452381Y-80902438D01*
X143452381Y-80902438D02*
X143547619Y-80854819D01*
X143547619Y-80854819D02*
X143785714Y-80854819D01*
X143785714Y-80854819D02*
X143928571Y-80902438D01*
X144357143Y-81331009D02*
X144690476Y-81331009D01*
X144833333Y-81854819D02*
X144357143Y-81854819D01*
X144357143Y-81854819D02*
X144357143Y-80854819D01*
X144357143Y-80854819D02*
X144833333Y-80854819D01*
X145119048Y-80854819D02*
X145690476Y-80854819D01*
X145404762Y-81854819D02*
X145404762Y-80854819D01*
X146547619Y-81854819D02*
X145976191Y-81854819D01*
X146261905Y-81854819D02*
X146261905Y-80854819D01*
X146261905Y-80854819D02*
X146166667Y-80997676D01*
X146166667Y-80997676D02*
X146071429Y-81092914D01*
X146071429Y-81092914D02*
X145976191Y-81140533D01*
X66157142Y-105659580D02*
X66109523Y-105707200D01*
X66109523Y-105707200D02*
X65966666Y-105754819D01*
X65966666Y-105754819D02*
X65871428Y-105754819D01*
X65871428Y-105754819D02*
X65728571Y-105707200D01*
X65728571Y-105707200D02*
X65633333Y-105611961D01*
X65633333Y-105611961D02*
X65585714Y-105516723D01*
X65585714Y-105516723D02*
X65538095Y-105326247D01*
X65538095Y-105326247D02*
X65538095Y-105183390D01*
X65538095Y-105183390D02*
X65585714Y-104992914D01*
X65585714Y-104992914D02*
X65633333Y-104897676D01*
X65633333Y-104897676D02*
X65728571Y-104802438D01*
X65728571Y-104802438D02*
X65871428Y-104754819D01*
X65871428Y-104754819D02*
X65966666Y-104754819D01*
X65966666Y-104754819D02*
X66109523Y-104802438D01*
X66109523Y-104802438D02*
X66157142Y-104850057D01*
X66490476Y-104754819D02*
X67109523Y-104754819D01*
X67109523Y-104754819D02*
X66776190Y-105135771D01*
X66776190Y-105135771D02*
X66919047Y-105135771D01*
X66919047Y-105135771D02*
X67014285Y-105183390D01*
X67014285Y-105183390D02*
X67061904Y-105231009D01*
X67061904Y-105231009D02*
X67109523Y-105326247D01*
X67109523Y-105326247D02*
X67109523Y-105564342D01*
X67109523Y-105564342D02*
X67061904Y-105659580D01*
X67061904Y-105659580D02*
X67014285Y-105707200D01*
X67014285Y-105707200D02*
X66919047Y-105754819D01*
X66919047Y-105754819D02*
X66633333Y-105754819D01*
X66633333Y-105754819D02*
X66538095Y-105707200D01*
X66538095Y-105707200D02*
X66490476Y-105659580D01*
X67490476Y-104850057D02*
X67538095Y-104802438D01*
X67538095Y-104802438D02*
X67633333Y-104754819D01*
X67633333Y-104754819D02*
X67871428Y-104754819D01*
X67871428Y-104754819D02*
X67966666Y-104802438D01*
X67966666Y-104802438D02*
X68014285Y-104850057D01*
X68014285Y-104850057D02*
X68061904Y-104945295D01*
X68061904Y-104945295D02*
X68061904Y-105040533D01*
X68061904Y-105040533D02*
X68014285Y-105183390D01*
X68014285Y-105183390D02*
X67442857Y-105754819D01*
X67442857Y-105754819D02*
X68061904Y-105754819D01*
X122385714Y-65404819D02*
X122385714Y-64404819D01*
X122385714Y-64404819D02*
X122623809Y-64404819D01*
X122623809Y-64404819D02*
X122766666Y-64452438D01*
X122766666Y-64452438D02*
X122861904Y-64547676D01*
X122861904Y-64547676D02*
X122909523Y-64642914D01*
X122909523Y-64642914D02*
X122957142Y-64833390D01*
X122957142Y-64833390D02*
X122957142Y-64976247D01*
X122957142Y-64976247D02*
X122909523Y-65166723D01*
X122909523Y-65166723D02*
X122861904Y-65261961D01*
X122861904Y-65261961D02*
X122766666Y-65357200D01*
X122766666Y-65357200D02*
X122623809Y-65404819D01*
X122623809Y-65404819D02*
X122385714Y-65404819D01*
X123909523Y-65404819D02*
X123338095Y-65404819D01*
X123623809Y-65404819D02*
X123623809Y-64404819D01*
X123623809Y-64404819D02*
X123528571Y-64547676D01*
X123528571Y-64547676D02*
X123433333Y-64642914D01*
X123433333Y-64642914D02*
X123338095Y-64690533D01*
X124480952Y-64833390D02*
X124385714Y-64785771D01*
X124385714Y-64785771D02*
X124338095Y-64738152D01*
X124338095Y-64738152D02*
X124290476Y-64642914D01*
X124290476Y-64642914D02*
X124290476Y-64595295D01*
X124290476Y-64595295D02*
X124338095Y-64500057D01*
X124338095Y-64500057D02*
X124385714Y-64452438D01*
X124385714Y-64452438D02*
X124480952Y-64404819D01*
X124480952Y-64404819D02*
X124671428Y-64404819D01*
X124671428Y-64404819D02*
X124766666Y-64452438D01*
X124766666Y-64452438D02*
X124814285Y-64500057D01*
X124814285Y-64500057D02*
X124861904Y-64595295D01*
X124861904Y-64595295D02*
X124861904Y-64642914D01*
X124861904Y-64642914D02*
X124814285Y-64738152D01*
X124814285Y-64738152D02*
X124766666Y-64785771D01*
X124766666Y-64785771D02*
X124671428Y-64833390D01*
X124671428Y-64833390D02*
X124480952Y-64833390D01*
X124480952Y-64833390D02*
X124385714Y-64881009D01*
X124385714Y-64881009D02*
X124338095Y-64928628D01*
X124338095Y-64928628D02*
X124290476Y-65023866D01*
X124290476Y-65023866D02*
X124290476Y-65214342D01*
X124290476Y-65214342D02*
X124338095Y-65309580D01*
X124338095Y-65309580D02*
X124385714Y-65357200D01*
X124385714Y-65357200D02*
X124480952Y-65404819D01*
X124480952Y-65404819D02*
X124671428Y-65404819D01*
X124671428Y-65404819D02*
X124766666Y-65357200D01*
X124766666Y-65357200D02*
X124814285Y-65309580D01*
X124814285Y-65309580D02*
X124861904Y-65214342D01*
X124861904Y-65214342D02*
X124861904Y-65023866D01*
X124861904Y-65023866D02*
X124814285Y-64928628D01*
X124814285Y-64928628D02*
X124766666Y-64881009D01*
X124766666Y-64881009D02*
X124671428Y-64833390D01*
X45666666Y-22054819D02*
X45666666Y-22769104D01*
X45666666Y-22769104D02*
X45619047Y-22911961D01*
X45619047Y-22911961D02*
X45523809Y-23007200D01*
X45523809Y-23007200D02*
X45380952Y-23054819D01*
X45380952Y-23054819D02*
X45285714Y-23054819D01*
X46666666Y-23054819D02*
X46095238Y-23054819D01*
X46380952Y-23054819D02*
X46380952Y-22054819D01*
X46380952Y-22054819D02*
X46285714Y-22197676D01*
X46285714Y-22197676D02*
X46190476Y-22292914D01*
X46190476Y-22292914D02*
X46095238Y-22340533D01*
X29190476Y-64354819D02*
X29190476Y-65069104D01*
X29190476Y-65069104D02*
X29142857Y-65211961D01*
X29142857Y-65211961D02*
X29047619Y-65307200D01*
X29047619Y-65307200D02*
X28904762Y-65354819D01*
X28904762Y-65354819D02*
X28809524Y-65354819D01*
X30190476Y-65354819D02*
X29619048Y-65354819D01*
X29904762Y-65354819D02*
X29904762Y-64354819D01*
X29904762Y-64354819D02*
X29809524Y-64497676D01*
X29809524Y-64497676D02*
X29714286Y-64592914D01*
X29714286Y-64592914D02*
X29619048Y-64640533D01*
X30809524Y-64354819D02*
X30904762Y-64354819D01*
X30904762Y-64354819D02*
X31000000Y-64402438D01*
X31000000Y-64402438D02*
X31047619Y-64450057D01*
X31047619Y-64450057D02*
X31095238Y-64545295D01*
X31095238Y-64545295D02*
X31142857Y-64735771D01*
X31142857Y-64735771D02*
X31142857Y-64973866D01*
X31142857Y-64973866D02*
X31095238Y-65164342D01*
X31095238Y-65164342D02*
X31047619Y-65259580D01*
X31047619Y-65259580D02*
X31000000Y-65307200D01*
X31000000Y-65307200D02*
X30904762Y-65354819D01*
X30904762Y-65354819D02*
X30809524Y-65354819D01*
X30809524Y-65354819D02*
X30714286Y-65307200D01*
X30714286Y-65307200D02*
X30666667Y-65259580D01*
X30666667Y-65259580D02*
X30619048Y-65164342D01*
X30619048Y-65164342D02*
X30571429Y-64973866D01*
X30571429Y-64973866D02*
X30571429Y-64735771D01*
X30571429Y-64735771D02*
X30619048Y-64545295D01*
X30619048Y-64545295D02*
X30666667Y-64450057D01*
X30666667Y-64450057D02*
X30714286Y-64402438D01*
X30714286Y-64402438D02*
X30809524Y-64354819D01*
X33133333Y-96354819D02*
X32657143Y-96354819D01*
X32657143Y-96354819D02*
X32657143Y-95354819D01*
X33990476Y-96354819D02*
X33419048Y-96354819D01*
X33704762Y-96354819D02*
X33704762Y-95354819D01*
X33704762Y-95354819D02*
X33609524Y-95497676D01*
X33609524Y-95497676D02*
X33514286Y-95592914D01*
X33514286Y-95592914D02*
X33419048Y-95640533D01*
X122385714Y-69004819D02*
X122385714Y-68004819D01*
X122385714Y-68004819D02*
X122623809Y-68004819D01*
X122623809Y-68004819D02*
X122766666Y-68052438D01*
X122766666Y-68052438D02*
X122861904Y-68147676D01*
X122861904Y-68147676D02*
X122909523Y-68242914D01*
X122909523Y-68242914D02*
X122957142Y-68433390D01*
X122957142Y-68433390D02*
X122957142Y-68576247D01*
X122957142Y-68576247D02*
X122909523Y-68766723D01*
X122909523Y-68766723D02*
X122861904Y-68861961D01*
X122861904Y-68861961D02*
X122766666Y-68957200D01*
X122766666Y-68957200D02*
X122623809Y-69004819D01*
X122623809Y-69004819D02*
X122385714Y-69004819D01*
X123909523Y-69004819D02*
X123338095Y-69004819D01*
X123623809Y-69004819D02*
X123623809Y-68004819D01*
X123623809Y-68004819D02*
X123528571Y-68147676D01*
X123528571Y-68147676D02*
X123433333Y-68242914D01*
X123433333Y-68242914D02*
X123338095Y-68290533D01*
X124385714Y-69004819D02*
X124576190Y-69004819D01*
X124576190Y-69004819D02*
X124671428Y-68957200D01*
X124671428Y-68957200D02*
X124719047Y-68909580D01*
X124719047Y-68909580D02*
X124814285Y-68766723D01*
X124814285Y-68766723D02*
X124861904Y-68576247D01*
X124861904Y-68576247D02*
X124861904Y-68195295D01*
X124861904Y-68195295D02*
X124814285Y-68100057D01*
X124814285Y-68100057D02*
X124766666Y-68052438D01*
X124766666Y-68052438D02*
X124671428Y-68004819D01*
X124671428Y-68004819D02*
X124480952Y-68004819D01*
X124480952Y-68004819D02*
X124385714Y-68052438D01*
X124385714Y-68052438D02*
X124338095Y-68100057D01*
X124338095Y-68100057D02*
X124290476Y-68195295D01*
X124290476Y-68195295D02*
X124290476Y-68433390D01*
X124290476Y-68433390D02*
X124338095Y-68528628D01*
X124338095Y-68528628D02*
X124385714Y-68576247D01*
X124385714Y-68576247D02*
X124480952Y-68623866D01*
X124480952Y-68623866D02*
X124671428Y-68623866D01*
X124671428Y-68623866D02*
X124766666Y-68576247D01*
X124766666Y-68576247D02*
X124814285Y-68528628D01*
X124814285Y-68528628D02*
X124861904Y-68433390D01*
X66157142Y-73659580D02*
X66109523Y-73707200D01*
X66109523Y-73707200D02*
X65966666Y-73754819D01*
X65966666Y-73754819D02*
X65871428Y-73754819D01*
X65871428Y-73754819D02*
X65728571Y-73707200D01*
X65728571Y-73707200D02*
X65633333Y-73611961D01*
X65633333Y-73611961D02*
X65585714Y-73516723D01*
X65585714Y-73516723D02*
X65538095Y-73326247D01*
X65538095Y-73326247D02*
X65538095Y-73183390D01*
X65538095Y-73183390D02*
X65585714Y-72992914D01*
X65585714Y-72992914D02*
X65633333Y-72897676D01*
X65633333Y-72897676D02*
X65728571Y-72802438D01*
X65728571Y-72802438D02*
X65871428Y-72754819D01*
X65871428Y-72754819D02*
X65966666Y-72754819D01*
X65966666Y-72754819D02*
X66109523Y-72802438D01*
X66109523Y-72802438D02*
X66157142Y-72850057D01*
X66490476Y-72754819D02*
X67109523Y-72754819D01*
X67109523Y-72754819D02*
X66776190Y-73135771D01*
X66776190Y-73135771D02*
X66919047Y-73135771D01*
X66919047Y-73135771D02*
X67014285Y-73183390D01*
X67014285Y-73183390D02*
X67061904Y-73231009D01*
X67061904Y-73231009D02*
X67109523Y-73326247D01*
X67109523Y-73326247D02*
X67109523Y-73564342D01*
X67109523Y-73564342D02*
X67061904Y-73659580D01*
X67061904Y-73659580D02*
X67014285Y-73707200D01*
X67014285Y-73707200D02*
X66919047Y-73754819D01*
X66919047Y-73754819D02*
X66633333Y-73754819D01*
X66633333Y-73754819D02*
X66538095Y-73707200D01*
X66538095Y-73707200D02*
X66490476Y-73659580D01*
X67728571Y-72754819D02*
X67823809Y-72754819D01*
X67823809Y-72754819D02*
X67919047Y-72802438D01*
X67919047Y-72802438D02*
X67966666Y-72850057D01*
X67966666Y-72850057D02*
X68014285Y-72945295D01*
X68014285Y-72945295D02*
X68061904Y-73135771D01*
X68061904Y-73135771D02*
X68061904Y-73373866D01*
X68061904Y-73373866D02*
X68014285Y-73564342D01*
X68014285Y-73564342D02*
X67966666Y-73659580D01*
X67966666Y-73659580D02*
X67919047Y-73707200D01*
X67919047Y-73707200D02*
X67823809Y-73754819D01*
X67823809Y-73754819D02*
X67728571Y-73754819D01*
X67728571Y-73754819D02*
X67633333Y-73707200D01*
X67633333Y-73707200D02*
X67585714Y-73659580D01*
X67585714Y-73659580D02*
X67538095Y-73564342D01*
X67538095Y-73564342D02*
X67490476Y-73373866D01*
X67490476Y-73373866D02*
X67490476Y-73135771D01*
X67490476Y-73135771D02*
X67538095Y-72945295D01*
X67538095Y-72945295D02*
X67585714Y-72850057D01*
X67585714Y-72850057D02*
X67633333Y-72802438D01*
X67633333Y-72802438D02*
X67728571Y-72754819D01*
X103892800Y-47366667D02*
X103845180Y-47509524D01*
X103845180Y-47509524D02*
X103845180Y-47747619D01*
X103845180Y-47747619D02*
X103892800Y-47842857D01*
X103892800Y-47842857D02*
X103940419Y-47890476D01*
X103940419Y-47890476D02*
X104035657Y-47938095D01*
X104035657Y-47938095D02*
X104130895Y-47938095D01*
X104130895Y-47938095D02*
X104226133Y-47890476D01*
X104226133Y-47890476D02*
X104273752Y-47842857D01*
X104273752Y-47842857D02*
X104321371Y-47747619D01*
X104321371Y-47747619D02*
X104368990Y-47557143D01*
X104368990Y-47557143D02*
X104416609Y-47461905D01*
X104416609Y-47461905D02*
X104464228Y-47414286D01*
X104464228Y-47414286D02*
X104559466Y-47366667D01*
X104559466Y-47366667D02*
X104654704Y-47366667D01*
X104654704Y-47366667D02*
X104749942Y-47414286D01*
X104749942Y-47414286D02*
X104797561Y-47461905D01*
X104797561Y-47461905D02*
X104845180Y-47557143D01*
X104845180Y-47557143D02*
X104845180Y-47795238D01*
X104845180Y-47795238D02*
X104797561Y-47938095D01*
X104845180Y-48271429D02*
X103845180Y-48509524D01*
X103845180Y-48509524D02*
X104559466Y-48700000D01*
X104559466Y-48700000D02*
X103845180Y-48890476D01*
X103845180Y-48890476D02*
X104845180Y-49128572D01*
X103845180Y-50033333D02*
X103845180Y-49461905D01*
X103845180Y-49747619D02*
X104845180Y-49747619D01*
X104845180Y-49747619D02*
X104702323Y-49652381D01*
X104702323Y-49652381D02*
X104607085Y-49557143D01*
X104607085Y-49557143D02*
X104559466Y-49461905D01*
X118490476Y-64324819D02*
X118490476Y-65039104D01*
X118490476Y-65039104D02*
X118442857Y-65181961D01*
X118442857Y-65181961D02*
X118347619Y-65277200D01*
X118347619Y-65277200D02*
X118204762Y-65324819D01*
X118204762Y-65324819D02*
X118109524Y-65324819D01*
X118919048Y-64420057D02*
X118966667Y-64372438D01*
X118966667Y-64372438D02*
X119061905Y-64324819D01*
X119061905Y-64324819D02*
X119300000Y-64324819D01*
X119300000Y-64324819D02*
X119395238Y-64372438D01*
X119395238Y-64372438D02*
X119442857Y-64420057D01*
X119442857Y-64420057D02*
X119490476Y-64515295D01*
X119490476Y-64515295D02*
X119490476Y-64610533D01*
X119490476Y-64610533D02*
X119442857Y-64753390D01*
X119442857Y-64753390D02*
X118871429Y-65324819D01*
X118871429Y-65324819D02*
X119490476Y-65324819D01*
X119871429Y-64420057D02*
X119919048Y-64372438D01*
X119919048Y-64372438D02*
X120014286Y-64324819D01*
X120014286Y-64324819D02*
X120252381Y-64324819D01*
X120252381Y-64324819D02*
X120347619Y-64372438D01*
X120347619Y-64372438D02*
X120395238Y-64420057D01*
X120395238Y-64420057D02*
X120442857Y-64515295D01*
X120442857Y-64515295D02*
X120442857Y-64610533D01*
X120442857Y-64610533D02*
X120395238Y-64753390D01*
X120395238Y-64753390D02*
X119823810Y-65324819D01*
X119823810Y-65324819D02*
X120442857Y-65324819D01*
X92585714Y-99844819D02*
X92585714Y-98844819D01*
X92585714Y-98844819D02*
X92823809Y-98844819D01*
X92823809Y-98844819D02*
X92966666Y-98892438D01*
X92966666Y-98892438D02*
X93061904Y-98987676D01*
X93061904Y-98987676D02*
X93109523Y-99082914D01*
X93109523Y-99082914D02*
X93157142Y-99273390D01*
X93157142Y-99273390D02*
X93157142Y-99416247D01*
X93157142Y-99416247D02*
X93109523Y-99606723D01*
X93109523Y-99606723D02*
X93061904Y-99701961D01*
X93061904Y-99701961D02*
X92966666Y-99797200D01*
X92966666Y-99797200D02*
X92823809Y-99844819D01*
X92823809Y-99844819D02*
X92585714Y-99844819D01*
X94109523Y-99844819D02*
X93538095Y-99844819D01*
X93823809Y-99844819D02*
X93823809Y-98844819D01*
X93823809Y-98844819D02*
X93728571Y-98987676D01*
X93728571Y-98987676D02*
X93633333Y-99082914D01*
X93633333Y-99082914D02*
X93538095Y-99130533D01*
X94728571Y-98844819D02*
X94823809Y-98844819D01*
X94823809Y-98844819D02*
X94919047Y-98892438D01*
X94919047Y-98892438D02*
X94966666Y-98940057D01*
X94966666Y-98940057D02*
X95014285Y-99035295D01*
X95014285Y-99035295D02*
X95061904Y-99225771D01*
X95061904Y-99225771D02*
X95061904Y-99463866D01*
X95061904Y-99463866D02*
X95014285Y-99654342D01*
X95014285Y-99654342D02*
X94966666Y-99749580D01*
X94966666Y-99749580D02*
X94919047Y-99797200D01*
X94919047Y-99797200D02*
X94823809Y-99844819D01*
X94823809Y-99844819D02*
X94728571Y-99844819D01*
X94728571Y-99844819D02*
X94633333Y-99797200D01*
X94633333Y-99797200D02*
X94585714Y-99749580D01*
X94585714Y-99749580D02*
X94538095Y-99654342D01*
X94538095Y-99654342D02*
X94490476Y-99463866D01*
X94490476Y-99463866D02*
X94490476Y-99225771D01*
X94490476Y-99225771D02*
X94538095Y-99035295D01*
X94538095Y-99035295D02*
X94585714Y-98940057D01*
X94585714Y-98940057D02*
X94633333Y-98892438D01*
X94633333Y-98892438D02*
X94728571Y-98844819D01*
X93099819Y-108809523D02*
X93814104Y-108809523D01*
X93814104Y-108809523D02*
X93956961Y-108857142D01*
X93956961Y-108857142D02*
X94052200Y-108952380D01*
X94052200Y-108952380D02*
X94099819Y-109095237D01*
X94099819Y-109095237D02*
X94099819Y-109190475D01*
X94099819Y-107809523D02*
X94099819Y-108380951D01*
X94099819Y-108095237D02*
X93099819Y-108095237D01*
X93099819Y-108095237D02*
X93242676Y-108190475D01*
X93242676Y-108190475D02*
X93337914Y-108285713D01*
X93337914Y-108285713D02*
X93385533Y-108380951D01*
X94099819Y-106857142D02*
X94099819Y-107428570D01*
X94099819Y-107142856D02*
X93099819Y-107142856D01*
X93099819Y-107142856D02*
X93242676Y-107238094D01*
X93242676Y-107238094D02*
X93337914Y-107333332D01*
X93337914Y-107333332D02*
X93385533Y-107428570D01*
X97057142Y-96984819D02*
X96723809Y-96508628D01*
X96485714Y-96984819D02*
X96485714Y-95984819D01*
X96485714Y-95984819D02*
X96866666Y-95984819D01*
X96866666Y-95984819D02*
X96961904Y-96032438D01*
X96961904Y-96032438D02*
X97009523Y-96080057D01*
X97009523Y-96080057D02*
X97057142Y-96175295D01*
X97057142Y-96175295D02*
X97057142Y-96318152D01*
X97057142Y-96318152D02*
X97009523Y-96413390D01*
X97009523Y-96413390D02*
X96961904Y-96461009D01*
X96961904Y-96461009D02*
X96866666Y-96508628D01*
X96866666Y-96508628D02*
X96485714Y-96508628D01*
X97390476Y-95984819D02*
X98009523Y-95984819D01*
X98009523Y-95984819D02*
X97676190Y-96365771D01*
X97676190Y-96365771D02*
X97819047Y-96365771D01*
X97819047Y-96365771D02*
X97914285Y-96413390D01*
X97914285Y-96413390D02*
X97961904Y-96461009D01*
X97961904Y-96461009D02*
X98009523Y-96556247D01*
X98009523Y-96556247D02*
X98009523Y-96794342D01*
X98009523Y-96794342D02*
X97961904Y-96889580D01*
X97961904Y-96889580D02*
X97914285Y-96937200D01*
X97914285Y-96937200D02*
X97819047Y-96984819D01*
X97819047Y-96984819D02*
X97533333Y-96984819D01*
X97533333Y-96984819D02*
X97438095Y-96937200D01*
X97438095Y-96937200D02*
X97390476Y-96889580D01*
X98390476Y-96080057D02*
X98438095Y-96032438D01*
X98438095Y-96032438D02*
X98533333Y-95984819D01*
X98533333Y-95984819D02*
X98771428Y-95984819D01*
X98771428Y-95984819D02*
X98866666Y-96032438D01*
X98866666Y-96032438D02*
X98914285Y-96080057D01*
X98914285Y-96080057D02*
X98961904Y-96175295D01*
X98961904Y-96175295D02*
X98961904Y-96270533D01*
X98961904Y-96270533D02*
X98914285Y-96413390D01*
X98914285Y-96413390D02*
X98342857Y-96984819D01*
X98342857Y-96984819D02*
X98961904Y-96984819D01*
X122190476Y-81124819D02*
X122190476Y-81839104D01*
X122190476Y-81839104D02*
X122142857Y-81981961D01*
X122142857Y-81981961D02*
X122047619Y-82077200D01*
X122047619Y-82077200D02*
X121904762Y-82124819D01*
X121904762Y-82124819D02*
X121809524Y-82124819D01*
X123190476Y-82124819D02*
X122619048Y-82124819D01*
X122904762Y-82124819D02*
X122904762Y-81124819D01*
X122904762Y-81124819D02*
X122809524Y-81267676D01*
X122809524Y-81267676D02*
X122714286Y-81362914D01*
X122714286Y-81362914D02*
X122619048Y-81410533D01*
X123571429Y-81220057D02*
X123619048Y-81172438D01*
X123619048Y-81172438D02*
X123714286Y-81124819D01*
X123714286Y-81124819D02*
X123952381Y-81124819D01*
X123952381Y-81124819D02*
X124047619Y-81172438D01*
X124047619Y-81172438D02*
X124095238Y-81220057D01*
X124095238Y-81220057D02*
X124142857Y-81315295D01*
X124142857Y-81315295D02*
X124142857Y-81410533D01*
X124142857Y-81410533D02*
X124095238Y-81553390D01*
X124095238Y-81553390D02*
X123523810Y-82124819D01*
X123523810Y-82124819D02*
X124142857Y-82124819D01*
X77207976Y-109004819D02*
X77207976Y-109719104D01*
X77207976Y-109719104D02*
X77160357Y-109861961D01*
X77160357Y-109861961D02*
X77065119Y-109957200D01*
X77065119Y-109957200D02*
X76922262Y-110004819D01*
X76922262Y-110004819D02*
X76827024Y-110004819D01*
X78207976Y-110004819D02*
X77636548Y-110004819D01*
X77922262Y-110004819D02*
X77922262Y-109004819D01*
X77922262Y-109004819D02*
X77827024Y-109147676D01*
X77827024Y-109147676D02*
X77731786Y-109242914D01*
X77731786Y-109242914D02*
X77636548Y-109290533D01*
X78541310Y-109004819D02*
X79207976Y-109004819D01*
X79207976Y-109004819D02*
X78779405Y-110004819D01*
X66157142Y-89659580D02*
X66109523Y-89707200D01*
X66109523Y-89707200D02*
X65966666Y-89754819D01*
X65966666Y-89754819D02*
X65871428Y-89754819D01*
X65871428Y-89754819D02*
X65728571Y-89707200D01*
X65728571Y-89707200D02*
X65633333Y-89611961D01*
X65633333Y-89611961D02*
X65585714Y-89516723D01*
X65585714Y-89516723D02*
X65538095Y-89326247D01*
X65538095Y-89326247D02*
X65538095Y-89183390D01*
X65538095Y-89183390D02*
X65585714Y-88992914D01*
X65585714Y-88992914D02*
X65633333Y-88897676D01*
X65633333Y-88897676D02*
X65728571Y-88802438D01*
X65728571Y-88802438D02*
X65871428Y-88754819D01*
X65871428Y-88754819D02*
X65966666Y-88754819D01*
X65966666Y-88754819D02*
X66109523Y-88802438D01*
X66109523Y-88802438D02*
X66157142Y-88850057D01*
X66490476Y-88754819D02*
X67109523Y-88754819D01*
X67109523Y-88754819D02*
X66776190Y-89135771D01*
X66776190Y-89135771D02*
X66919047Y-89135771D01*
X66919047Y-89135771D02*
X67014285Y-89183390D01*
X67014285Y-89183390D02*
X67061904Y-89231009D01*
X67061904Y-89231009D02*
X67109523Y-89326247D01*
X67109523Y-89326247D02*
X67109523Y-89564342D01*
X67109523Y-89564342D02*
X67061904Y-89659580D01*
X67061904Y-89659580D02*
X67014285Y-89707200D01*
X67014285Y-89707200D02*
X66919047Y-89754819D01*
X66919047Y-89754819D02*
X66633333Y-89754819D01*
X66633333Y-89754819D02*
X66538095Y-89707200D01*
X66538095Y-89707200D02*
X66490476Y-89659580D01*
X68061904Y-89754819D02*
X67490476Y-89754819D01*
X67776190Y-89754819D02*
X67776190Y-88754819D01*
X67776190Y-88754819D02*
X67680952Y-88897676D01*
X67680952Y-88897676D02*
X67585714Y-88992914D01*
X67585714Y-88992914D02*
X67490476Y-89040533D01*
X91090476Y-66159819D02*
X91090476Y-66874104D01*
X91090476Y-66874104D02*
X91042857Y-67016961D01*
X91042857Y-67016961D02*
X90947619Y-67112200D01*
X90947619Y-67112200D02*
X90804762Y-67159819D01*
X90804762Y-67159819D02*
X90709524Y-67159819D01*
X91519048Y-66255057D02*
X91566667Y-66207438D01*
X91566667Y-66207438D02*
X91661905Y-66159819D01*
X91661905Y-66159819D02*
X91900000Y-66159819D01*
X91900000Y-66159819D02*
X91995238Y-66207438D01*
X91995238Y-66207438D02*
X92042857Y-66255057D01*
X92042857Y-66255057D02*
X92090476Y-66350295D01*
X92090476Y-66350295D02*
X92090476Y-66445533D01*
X92090476Y-66445533D02*
X92042857Y-66588390D01*
X92042857Y-66588390D02*
X91471429Y-67159819D01*
X91471429Y-67159819D02*
X92090476Y-67159819D01*
X92423810Y-66159819D02*
X93042857Y-66159819D01*
X93042857Y-66159819D02*
X92709524Y-66540771D01*
X92709524Y-66540771D02*
X92852381Y-66540771D01*
X92852381Y-66540771D02*
X92947619Y-66588390D01*
X92947619Y-66588390D02*
X92995238Y-66636009D01*
X92995238Y-66636009D02*
X93042857Y-66731247D01*
X93042857Y-66731247D02*
X93042857Y-66969342D01*
X93042857Y-66969342D02*
X92995238Y-67064580D01*
X92995238Y-67064580D02*
X92947619Y-67112200D01*
X92947619Y-67112200D02*
X92852381Y-67159819D01*
X92852381Y-67159819D02*
X92566667Y-67159819D01*
X92566667Y-67159819D02*
X92471429Y-67112200D01*
X92471429Y-67112200D02*
X92423810Y-67064580D01*
X60440476Y-109004819D02*
X60440476Y-109719104D01*
X60440476Y-109719104D02*
X60392857Y-109861961D01*
X60392857Y-109861961D02*
X60297619Y-109957200D01*
X60297619Y-109957200D02*
X60154762Y-110004819D01*
X60154762Y-110004819D02*
X60059524Y-110004819D01*
X61440476Y-110004819D02*
X60869048Y-110004819D01*
X61154762Y-110004819D02*
X61154762Y-109004819D01*
X61154762Y-109004819D02*
X61059524Y-109147676D01*
X61059524Y-109147676D02*
X60964286Y-109242914D01*
X60964286Y-109242914D02*
X60869048Y-109290533D01*
X62297619Y-109004819D02*
X62107143Y-109004819D01*
X62107143Y-109004819D02*
X62011905Y-109052438D01*
X62011905Y-109052438D02*
X61964286Y-109100057D01*
X61964286Y-109100057D02*
X61869048Y-109242914D01*
X61869048Y-109242914D02*
X61821429Y-109433390D01*
X61821429Y-109433390D02*
X61821429Y-109814342D01*
X61821429Y-109814342D02*
X61869048Y-109909580D01*
X61869048Y-109909580D02*
X61916667Y-109957200D01*
X61916667Y-109957200D02*
X62011905Y-110004819D01*
X62011905Y-110004819D02*
X62202381Y-110004819D01*
X62202381Y-110004819D02*
X62297619Y-109957200D01*
X62297619Y-109957200D02*
X62345238Y-109909580D01*
X62345238Y-109909580D02*
X62392857Y-109814342D01*
X62392857Y-109814342D02*
X62392857Y-109576247D01*
X62392857Y-109576247D02*
X62345238Y-109481009D01*
X62345238Y-109481009D02*
X62297619Y-109433390D01*
X62297619Y-109433390D02*
X62202381Y-109385771D01*
X62202381Y-109385771D02*
X62011905Y-109385771D01*
X62011905Y-109385771D02*
X61916667Y-109433390D01*
X61916667Y-109433390D02*
X61869048Y-109481009D01*
X61869048Y-109481009D02*
X61821429Y-109576247D01*
X33524819Y-108909523D02*
X34239104Y-108909523D01*
X34239104Y-108909523D02*
X34381961Y-108957142D01*
X34381961Y-108957142D02*
X34477200Y-109052380D01*
X34477200Y-109052380D02*
X34524819Y-109195237D01*
X34524819Y-109195237D02*
X34524819Y-109290475D01*
X33620057Y-108480951D02*
X33572438Y-108433332D01*
X33572438Y-108433332D02*
X33524819Y-108338094D01*
X33524819Y-108338094D02*
X33524819Y-108099999D01*
X33524819Y-108099999D02*
X33572438Y-108004761D01*
X33572438Y-108004761D02*
X33620057Y-107957142D01*
X33620057Y-107957142D02*
X33715295Y-107909523D01*
X33715295Y-107909523D02*
X33810533Y-107909523D01*
X33810533Y-107909523D02*
X33953390Y-107957142D01*
X33953390Y-107957142D02*
X34524819Y-108528570D01*
X34524819Y-108528570D02*
X34524819Y-107909523D01*
X34524819Y-106957142D02*
X34524819Y-107528570D01*
X34524819Y-107242856D02*
X33524819Y-107242856D01*
X33524819Y-107242856D02*
X33667676Y-107338094D01*
X33667676Y-107338094D02*
X33762914Y-107433332D01*
X33762914Y-107433332D02*
X33810533Y-107528570D01*
X46209819Y-83709523D02*
X46924104Y-83709523D01*
X46924104Y-83709523D02*
X47066961Y-83757142D01*
X47066961Y-83757142D02*
X47162200Y-83852380D01*
X47162200Y-83852380D02*
X47209819Y-83995237D01*
X47209819Y-83995237D02*
X47209819Y-84090475D01*
X47209819Y-82709523D02*
X47209819Y-83280951D01*
X47209819Y-82995237D02*
X46209819Y-82995237D01*
X46209819Y-82995237D02*
X46352676Y-83090475D01*
X46352676Y-83090475D02*
X46447914Y-83185713D01*
X46447914Y-83185713D02*
X46495533Y-83280951D01*
X46543152Y-81852380D02*
X47209819Y-81852380D01*
X46162200Y-82090475D02*
X46876485Y-82328570D01*
X46876485Y-82328570D02*
X46876485Y-81709523D01*
X29666666Y-38054819D02*
X29666666Y-38769104D01*
X29666666Y-38769104D02*
X29619047Y-38911961D01*
X29619047Y-38911961D02*
X29523809Y-39007200D01*
X29523809Y-39007200D02*
X29380952Y-39054819D01*
X29380952Y-39054819D02*
X29285714Y-39054819D01*
X30571428Y-38054819D02*
X30380952Y-38054819D01*
X30380952Y-38054819D02*
X30285714Y-38102438D01*
X30285714Y-38102438D02*
X30238095Y-38150057D01*
X30238095Y-38150057D02*
X30142857Y-38292914D01*
X30142857Y-38292914D02*
X30095238Y-38483390D01*
X30095238Y-38483390D02*
X30095238Y-38864342D01*
X30095238Y-38864342D02*
X30142857Y-38959580D01*
X30142857Y-38959580D02*
X30190476Y-39007200D01*
X30190476Y-39007200D02*
X30285714Y-39054819D01*
X30285714Y-39054819D02*
X30476190Y-39054819D01*
X30476190Y-39054819D02*
X30571428Y-39007200D01*
X30571428Y-39007200D02*
X30619047Y-38959580D01*
X30619047Y-38959580D02*
X30666666Y-38864342D01*
X30666666Y-38864342D02*
X30666666Y-38626247D01*
X30666666Y-38626247D02*
X30619047Y-38531009D01*
X30619047Y-38531009D02*
X30571428Y-38483390D01*
X30571428Y-38483390D02*
X30476190Y-38435771D01*
X30476190Y-38435771D02*
X30285714Y-38435771D01*
X30285714Y-38435771D02*
X30190476Y-38483390D01*
X30190476Y-38483390D02*
X30142857Y-38531009D01*
X30142857Y-38531009D02*
X30095238Y-38626247D01*
X40690476Y-96199819D02*
X40690476Y-96914104D01*
X40690476Y-96914104D02*
X40642857Y-97056961D01*
X40642857Y-97056961D02*
X40547619Y-97152200D01*
X40547619Y-97152200D02*
X40404762Y-97199819D01*
X40404762Y-97199819D02*
X40309524Y-97199819D01*
X41119048Y-96295057D02*
X41166667Y-96247438D01*
X41166667Y-96247438D02*
X41261905Y-96199819D01*
X41261905Y-96199819D02*
X41500000Y-96199819D01*
X41500000Y-96199819D02*
X41595238Y-96247438D01*
X41595238Y-96247438D02*
X41642857Y-96295057D01*
X41642857Y-96295057D02*
X41690476Y-96390295D01*
X41690476Y-96390295D02*
X41690476Y-96485533D01*
X41690476Y-96485533D02*
X41642857Y-96628390D01*
X41642857Y-96628390D02*
X41071429Y-97199819D01*
X41071429Y-97199819D02*
X41690476Y-97199819D01*
X42547619Y-96533152D02*
X42547619Y-97199819D01*
X42309524Y-96152200D02*
X42071429Y-96866485D01*
X42071429Y-96866485D02*
X42690476Y-96866485D01*
X26582142Y-93884819D02*
X26248809Y-93408628D01*
X26010714Y-93884819D02*
X26010714Y-92884819D01*
X26010714Y-92884819D02*
X26391666Y-92884819D01*
X26391666Y-92884819D02*
X26486904Y-92932438D01*
X26486904Y-92932438D02*
X26534523Y-92980057D01*
X26534523Y-92980057D02*
X26582142Y-93075295D01*
X26582142Y-93075295D02*
X26582142Y-93218152D01*
X26582142Y-93218152D02*
X26534523Y-93313390D01*
X26534523Y-93313390D02*
X26486904Y-93361009D01*
X26486904Y-93361009D02*
X26391666Y-93408628D01*
X26391666Y-93408628D02*
X26010714Y-93408628D01*
X27534523Y-93884819D02*
X26963095Y-93884819D01*
X27248809Y-93884819D02*
X27248809Y-92884819D01*
X27248809Y-92884819D02*
X27153571Y-93027676D01*
X27153571Y-93027676D02*
X27058333Y-93122914D01*
X27058333Y-93122914D02*
X26963095Y-93170533D01*
X28105952Y-93313390D02*
X28010714Y-93265771D01*
X28010714Y-93265771D02*
X27963095Y-93218152D01*
X27963095Y-93218152D02*
X27915476Y-93122914D01*
X27915476Y-93122914D02*
X27915476Y-93075295D01*
X27915476Y-93075295D02*
X27963095Y-92980057D01*
X27963095Y-92980057D02*
X28010714Y-92932438D01*
X28010714Y-92932438D02*
X28105952Y-92884819D01*
X28105952Y-92884819D02*
X28296428Y-92884819D01*
X28296428Y-92884819D02*
X28391666Y-92932438D01*
X28391666Y-92932438D02*
X28439285Y-92980057D01*
X28439285Y-92980057D02*
X28486904Y-93075295D01*
X28486904Y-93075295D02*
X28486904Y-93122914D01*
X28486904Y-93122914D02*
X28439285Y-93218152D01*
X28439285Y-93218152D02*
X28391666Y-93265771D01*
X28391666Y-93265771D02*
X28296428Y-93313390D01*
X28296428Y-93313390D02*
X28105952Y-93313390D01*
X28105952Y-93313390D02*
X28010714Y-93361009D01*
X28010714Y-93361009D02*
X27963095Y-93408628D01*
X27963095Y-93408628D02*
X27915476Y-93503866D01*
X27915476Y-93503866D02*
X27915476Y-93694342D01*
X27915476Y-93694342D02*
X27963095Y-93789580D01*
X27963095Y-93789580D02*
X28010714Y-93837200D01*
X28010714Y-93837200D02*
X28105952Y-93884819D01*
X28105952Y-93884819D02*
X28296428Y-93884819D01*
X28296428Y-93884819D02*
X28391666Y-93837200D01*
X28391666Y-93837200D02*
X28439285Y-93789580D01*
X28439285Y-93789580D02*
X28486904Y-93694342D01*
X28486904Y-93694342D02*
X28486904Y-93503866D01*
X28486904Y-93503866D02*
X28439285Y-93408628D01*
X28439285Y-93408628D02*
X28391666Y-93361009D01*
X28391666Y-93361009D02*
X28296428Y-93313390D01*
X83666666Y-22054819D02*
X83666666Y-22769104D01*
X83666666Y-22769104D02*
X83619047Y-22911961D01*
X83619047Y-22911961D02*
X83523809Y-23007200D01*
X83523809Y-23007200D02*
X83380952Y-23054819D01*
X83380952Y-23054819D02*
X83285714Y-23054819D01*
X84047619Y-22054819D02*
X84666666Y-22054819D01*
X84666666Y-22054819D02*
X84333333Y-22435771D01*
X84333333Y-22435771D02*
X84476190Y-22435771D01*
X84476190Y-22435771D02*
X84571428Y-22483390D01*
X84571428Y-22483390D02*
X84619047Y-22531009D01*
X84619047Y-22531009D02*
X84666666Y-22626247D01*
X84666666Y-22626247D02*
X84666666Y-22864342D01*
X84666666Y-22864342D02*
X84619047Y-22959580D01*
X84619047Y-22959580D02*
X84571428Y-23007200D01*
X84571428Y-23007200D02*
X84476190Y-23054819D01*
X84476190Y-23054819D02*
X84190476Y-23054819D01*
X84190476Y-23054819D02*
X84095238Y-23007200D01*
X84095238Y-23007200D02*
X84047619Y-22959580D01*
X122909819Y-108709523D02*
X123624104Y-108709523D01*
X123624104Y-108709523D02*
X123766961Y-108757142D01*
X123766961Y-108757142D02*
X123862200Y-108852380D01*
X123862200Y-108852380D02*
X123909819Y-108995237D01*
X123909819Y-108995237D02*
X123909819Y-109090475D01*
X123005057Y-108280951D02*
X122957438Y-108233332D01*
X122957438Y-108233332D02*
X122909819Y-108138094D01*
X122909819Y-108138094D02*
X122909819Y-107899999D01*
X122909819Y-107899999D02*
X122957438Y-107804761D01*
X122957438Y-107804761D02*
X123005057Y-107757142D01*
X123005057Y-107757142D02*
X123100295Y-107709523D01*
X123100295Y-107709523D02*
X123195533Y-107709523D01*
X123195533Y-107709523D02*
X123338390Y-107757142D01*
X123338390Y-107757142D02*
X123909819Y-108328570D01*
X123909819Y-108328570D02*
X123909819Y-107709523D01*
X122909819Y-107090475D02*
X122909819Y-106995237D01*
X122909819Y-106995237D02*
X122957438Y-106899999D01*
X122957438Y-106899999D02*
X123005057Y-106852380D01*
X123005057Y-106852380D02*
X123100295Y-106804761D01*
X123100295Y-106804761D02*
X123290771Y-106757142D01*
X123290771Y-106757142D02*
X123528866Y-106757142D01*
X123528866Y-106757142D02*
X123719342Y-106804761D01*
X123719342Y-106804761D02*
X123814580Y-106852380D01*
X123814580Y-106852380D02*
X123862200Y-106899999D01*
X123862200Y-106899999D02*
X123909819Y-106995237D01*
X123909819Y-106995237D02*
X123909819Y-107090475D01*
X123909819Y-107090475D02*
X123862200Y-107185713D01*
X123862200Y-107185713D02*
X123814580Y-107233332D01*
X123814580Y-107233332D02*
X123719342Y-107280951D01*
X123719342Y-107280951D02*
X123528866Y-107328570D01*
X123528866Y-107328570D02*
X123290771Y-107328570D01*
X123290771Y-107328570D02*
X123100295Y-107280951D01*
X123100295Y-107280951D02*
X123005057Y-107233332D01*
X123005057Y-107233332D02*
X122957438Y-107185713D01*
X122957438Y-107185713D02*
X122909819Y-107090475D01*
X27238095Y-105054819D02*
X27238095Y-104054819D01*
X27238095Y-104531009D02*
X27809523Y-104531009D01*
X27809523Y-105054819D02*
X27809523Y-104054819D01*
X28238095Y-104150057D02*
X28285714Y-104102438D01*
X28285714Y-104102438D02*
X28380952Y-104054819D01*
X28380952Y-104054819D02*
X28619047Y-104054819D01*
X28619047Y-104054819D02*
X28714285Y-104102438D01*
X28714285Y-104102438D02*
X28761904Y-104150057D01*
X28761904Y-104150057D02*
X28809523Y-104245295D01*
X28809523Y-104245295D02*
X28809523Y-104340533D01*
X28809523Y-104340533D02*
X28761904Y-104483390D01*
X28761904Y-104483390D02*
X28190476Y-105054819D01*
X28190476Y-105054819D02*
X28809523Y-105054819D01*
X97057142Y-101984819D02*
X96723809Y-101508628D01*
X96485714Y-101984819D02*
X96485714Y-100984819D01*
X96485714Y-100984819D02*
X96866666Y-100984819D01*
X96866666Y-100984819D02*
X96961904Y-101032438D01*
X96961904Y-101032438D02*
X97009523Y-101080057D01*
X97009523Y-101080057D02*
X97057142Y-101175295D01*
X97057142Y-101175295D02*
X97057142Y-101318152D01*
X97057142Y-101318152D02*
X97009523Y-101413390D01*
X97009523Y-101413390D02*
X96961904Y-101461009D01*
X96961904Y-101461009D02*
X96866666Y-101508628D01*
X96866666Y-101508628D02*
X96485714Y-101508628D01*
X97390476Y-100984819D02*
X98009523Y-100984819D01*
X98009523Y-100984819D02*
X97676190Y-101365771D01*
X97676190Y-101365771D02*
X97819047Y-101365771D01*
X97819047Y-101365771D02*
X97914285Y-101413390D01*
X97914285Y-101413390D02*
X97961904Y-101461009D01*
X97961904Y-101461009D02*
X98009523Y-101556247D01*
X98009523Y-101556247D02*
X98009523Y-101794342D01*
X98009523Y-101794342D02*
X97961904Y-101889580D01*
X97961904Y-101889580D02*
X97914285Y-101937200D01*
X97914285Y-101937200D02*
X97819047Y-101984819D01*
X97819047Y-101984819D02*
X97533333Y-101984819D01*
X97533333Y-101984819D02*
X97438095Y-101937200D01*
X97438095Y-101937200D02*
X97390476Y-101889580D01*
X98866666Y-101318152D02*
X98866666Y-101984819D01*
X98628571Y-100937200D02*
X98390476Y-101651485D01*
X98390476Y-101651485D02*
X99009523Y-101651485D01*
X141238095Y-105054819D02*
X141238095Y-104054819D01*
X141238095Y-104531009D02*
X141809523Y-104531009D01*
X141809523Y-105054819D02*
X141809523Y-104054819D01*
X142190476Y-104054819D02*
X142809523Y-104054819D01*
X142809523Y-104054819D02*
X142476190Y-104435771D01*
X142476190Y-104435771D02*
X142619047Y-104435771D01*
X142619047Y-104435771D02*
X142714285Y-104483390D01*
X142714285Y-104483390D02*
X142761904Y-104531009D01*
X142761904Y-104531009D02*
X142809523Y-104626247D01*
X142809523Y-104626247D02*
X142809523Y-104864342D01*
X142809523Y-104864342D02*
X142761904Y-104959580D01*
X142761904Y-104959580D02*
X142714285Y-105007200D01*
X142714285Y-105007200D02*
X142619047Y-105054819D01*
X142619047Y-105054819D02*
X142333333Y-105054819D01*
X142333333Y-105054819D02*
X142238095Y-105007200D01*
X142238095Y-105007200D02*
X142190476Y-104959580D01*
X92585714Y-102244819D02*
X92585714Y-101244819D01*
X92585714Y-101244819D02*
X92823809Y-101244819D01*
X92823809Y-101244819D02*
X92966666Y-101292438D01*
X92966666Y-101292438D02*
X93061904Y-101387676D01*
X93061904Y-101387676D02*
X93109523Y-101482914D01*
X93109523Y-101482914D02*
X93157142Y-101673390D01*
X93157142Y-101673390D02*
X93157142Y-101816247D01*
X93157142Y-101816247D02*
X93109523Y-102006723D01*
X93109523Y-102006723D02*
X93061904Y-102101961D01*
X93061904Y-102101961D02*
X92966666Y-102197200D01*
X92966666Y-102197200D02*
X92823809Y-102244819D01*
X92823809Y-102244819D02*
X92585714Y-102244819D01*
X94109523Y-102244819D02*
X93538095Y-102244819D01*
X93823809Y-102244819D02*
X93823809Y-101244819D01*
X93823809Y-101244819D02*
X93728571Y-101387676D01*
X93728571Y-101387676D02*
X93633333Y-101482914D01*
X93633333Y-101482914D02*
X93538095Y-101530533D01*
X95061904Y-102244819D02*
X94490476Y-102244819D01*
X94776190Y-102244819D02*
X94776190Y-101244819D01*
X94776190Y-101244819D02*
X94680952Y-101387676D01*
X94680952Y-101387676D02*
X94585714Y-101482914D01*
X94585714Y-101482914D02*
X94490476Y-101530533D01*
X92692800Y-47366667D02*
X92645180Y-47509524D01*
X92645180Y-47509524D02*
X92645180Y-47747619D01*
X92645180Y-47747619D02*
X92692800Y-47842857D01*
X92692800Y-47842857D02*
X92740419Y-47890476D01*
X92740419Y-47890476D02*
X92835657Y-47938095D01*
X92835657Y-47938095D02*
X92930895Y-47938095D01*
X92930895Y-47938095D02*
X93026133Y-47890476D01*
X93026133Y-47890476D02*
X93073752Y-47842857D01*
X93073752Y-47842857D02*
X93121371Y-47747619D01*
X93121371Y-47747619D02*
X93168990Y-47557143D01*
X93168990Y-47557143D02*
X93216609Y-47461905D01*
X93216609Y-47461905D02*
X93264228Y-47414286D01*
X93264228Y-47414286D02*
X93359466Y-47366667D01*
X93359466Y-47366667D02*
X93454704Y-47366667D01*
X93454704Y-47366667D02*
X93549942Y-47414286D01*
X93549942Y-47414286D02*
X93597561Y-47461905D01*
X93597561Y-47461905D02*
X93645180Y-47557143D01*
X93645180Y-47557143D02*
X93645180Y-47795238D01*
X93645180Y-47795238D02*
X93597561Y-47938095D01*
X93645180Y-48271429D02*
X92645180Y-48509524D01*
X92645180Y-48509524D02*
X93359466Y-48700000D01*
X93359466Y-48700000D02*
X92645180Y-48890476D01*
X92645180Y-48890476D02*
X93645180Y-49128572D01*
X93549942Y-49461905D02*
X93597561Y-49509524D01*
X93597561Y-49509524D02*
X93645180Y-49604762D01*
X93645180Y-49604762D02*
X93645180Y-49842857D01*
X93645180Y-49842857D02*
X93597561Y-49938095D01*
X93597561Y-49938095D02*
X93549942Y-49985714D01*
X93549942Y-49985714D02*
X93454704Y-50033333D01*
X93454704Y-50033333D02*
X93359466Y-50033333D01*
X93359466Y-50033333D02*
X93216609Y-49985714D01*
X93216609Y-49985714D02*
X92645180Y-49414286D01*
X92645180Y-49414286D02*
X92645180Y-50033333D01*
D11*
X140840285Y-80017017D02*
X140840285Y-80405588D01*
X140840285Y-80405588D02*
X140863142Y-80451302D01*
X140863142Y-80451302D02*
X140886000Y-80474160D01*
X140886000Y-80474160D02*
X140931714Y-80497017D01*
X140931714Y-80497017D02*
X141023142Y-80497017D01*
X141023142Y-80497017D02*
X141068857Y-80474160D01*
X141068857Y-80474160D02*
X141091714Y-80451302D01*
X141091714Y-80451302D02*
X141114571Y-80405588D01*
X141114571Y-80405588D02*
X141114571Y-80017017D01*
X141571714Y-80017017D02*
X141343142Y-80017017D01*
X141343142Y-80017017D02*
X141320285Y-80245588D01*
X141320285Y-80245588D02*
X141343142Y-80222731D01*
X141343142Y-80222731D02*
X141388857Y-80199874D01*
X141388857Y-80199874D02*
X141503142Y-80199874D01*
X141503142Y-80199874D02*
X141548857Y-80222731D01*
X141548857Y-80222731D02*
X141571714Y-80245588D01*
X141571714Y-80245588D02*
X141594571Y-80291302D01*
X141594571Y-80291302D02*
X141594571Y-80405588D01*
X141594571Y-80405588D02*
X141571714Y-80451302D01*
X141571714Y-80451302D02*
X141548857Y-80474160D01*
X141548857Y-80474160D02*
X141503142Y-80497017D01*
X141503142Y-80497017D02*
X141388857Y-80497017D01*
X141388857Y-80497017D02*
X141343142Y-80474160D01*
X141343142Y-80474160D02*
X141320285Y-80451302D01*
D10*
X64666666Y-22054819D02*
X64666666Y-22769104D01*
X64666666Y-22769104D02*
X64619047Y-22911961D01*
X64619047Y-22911961D02*
X64523809Y-23007200D01*
X64523809Y-23007200D02*
X64380952Y-23054819D01*
X64380952Y-23054819D02*
X64285714Y-23054819D01*
X65095238Y-22150057D02*
X65142857Y-22102438D01*
X65142857Y-22102438D02*
X65238095Y-22054819D01*
X65238095Y-22054819D02*
X65476190Y-22054819D01*
X65476190Y-22054819D02*
X65571428Y-22102438D01*
X65571428Y-22102438D02*
X65619047Y-22150057D01*
X65619047Y-22150057D02*
X65666666Y-22245295D01*
X65666666Y-22245295D02*
X65666666Y-22340533D01*
X65666666Y-22340533D02*
X65619047Y-22483390D01*
X65619047Y-22483390D02*
X65047619Y-23054819D01*
X65047619Y-23054819D02*
X65666666Y-23054819D01*
X99233333Y-71054819D02*
X98757143Y-71054819D01*
X98757143Y-71054819D02*
X98757143Y-70054819D01*
X99519048Y-70150057D02*
X99566667Y-70102438D01*
X99566667Y-70102438D02*
X99661905Y-70054819D01*
X99661905Y-70054819D02*
X99900000Y-70054819D01*
X99900000Y-70054819D02*
X99995238Y-70102438D01*
X99995238Y-70102438D02*
X100042857Y-70150057D01*
X100042857Y-70150057D02*
X100090476Y-70245295D01*
X100090476Y-70245295D02*
X100090476Y-70340533D01*
X100090476Y-70340533D02*
X100042857Y-70483390D01*
X100042857Y-70483390D02*
X99471429Y-71054819D01*
X99471429Y-71054819D02*
X100090476Y-71054819D01*
X88690476Y-95084819D02*
X88690476Y-95799104D01*
X88690476Y-95799104D02*
X88642857Y-95941961D01*
X88642857Y-95941961D02*
X88547619Y-96037200D01*
X88547619Y-96037200D02*
X88404762Y-96084819D01*
X88404762Y-96084819D02*
X88309524Y-96084819D01*
X89690476Y-96084819D02*
X89119048Y-96084819D01*
X89404762Y-96084819D02*
X89404762Y-95084819D01*
X89404762Y-95084819D02*
X89309524Y-95227676D01*
X89309524Y-95227676D02*
X89214286Y-95322914D01*
X89214286Y-95322914D02*
X89119048Y-95370533D01*
X90023810Y-95084819D02*
X90642857Y-95084819D01*
X90642857Y-95084819D02*
X90309524Y-95465771D01*
X90309524Y-95465771D02*
X90452381Y-95465771D01*
X90452381Y-95465771D02*
X90547619Y-95513390D01*
X90547619Y-95513390D02*
X90595238Y-95561009D01*
X90595238Y-95561009D02*
X90642857Y-95656247D01*
X90642857Y-95656247D02*
X90642857Y-95894342D01*
X90642857Y-95894342D02*
X90595238Y-95989580D01*
X90595238Y-95989580D02*
X90547619Y-96037200D01*
X90547619Y-96037200D02*
X90452381Y-96084819D01*
X90452381Y-96084819D02*
X90166667Y-96084819D01*
X90166667Y-96084819D02*
X90071429Y-96037200D01*
X90071429Y-96037200D02*
X90023810Y-95989580D01*
X122485714Y-57904819D02*
X122485714Y-56904819D01*
X122485714Y-56904819D02*
X122723809Y-56904819D01*
X122723809Y-56904819D02*
X122866666Y-56952438D01*
X122866666Y-56952438D02*
X122961904Y-57047676D01*
X122961904Y-57047676D02*
X123009523Y-57142914D01*
X123009523Y-57142914D02*
X123057142Y-57333390D01*
X123057142Y-57333390D02*
X123057142Y-57476247D01*
X123057142Y-57476247D02*
X123009523Y-57666723D01*
X123009523Y-57666723D02*
X122961904Y-57761961D01*
X122961904Y-57761961D02*
X122866666Y-57857200D01*
X122866666Y-57857200D02*
X122723809Y-57904819D01*
X122723809Y-57904819D02*
X122485714Y-57904819D01*
X124009523Y-57904819D02*
X123438095Y-57904819D01*
X123723809Y-57904819D02*
X123723809Y-56904819D01*
X123723809Y-56904819D02*
X123628571Y-57047676D01*
X123628571Y-57047676D02*
X123533333Y-57142914D01*
X123533333Y-57142914D02*
X123438095Y-57190533D01*
X124866666Y-56904819D02*
X124676190Y-56904819D01*
X124676190Y-56904819D02*
X124580952Y-56952438D01*
X124580952Y-56952438D02*
X124533333Y-57000057D01*
X124533333Y-57000057D02*
X124438095Y-57142914D01*
X124438095Y-57142914D02*
X124390476Y-57333390D01*
X124390476Y-57333390D02*
X124390476Y-57714342D01*
X124390476Y-57714342D02*
X124438095Y-57809580D01*
X124438095Y-57809580D02*
X124485714Y-57857200D01*
X124485714Y-57857200D02*
X124580952Y-57904819D01*
X124580952Y-57904819D02*
X124771428Y-57904819D01*
X124771428Y-57904819D02*
X124866666Y-57857200D01*
X124866666Y-57857200D02*
X124914285Y-57809580D01*
X124914285Y-57809580D02*
X124961904Y-57714342D01*
X124961904Y-57714342D02*
X124961904Y-57476247D01*
X124961904Y-57476247D02*
X124914285Y-57381009D01*
X124914285Y-57381009D02*
X124866666Y-57333390D01*
X124866666Y-57333390D02*
X124771428Y-57285771D01*
X124771428Y-57285771D02*
X124580952Y-57285771D01*
X124580952Y-57285771D02*
X124485714Y-57333390D01*
X124485714Y-57333390D02*
X124438095Y-57381009D01*
X124438095Y-57381009D02*
X124390476Y-57476247D01*
X105799819Y-45809523D02*
X106514104Y-45809523D01*
X106514104Y-45809523D02*
X106656961Y-45857142D01*
X106656961Y-45857142D02*
X106752200Y-45952380D01*
X106752200Y-45952380D02*
X106799819Y-46095237D01*
X106799819Y-46095237D02*
X106799819Y-46190475D01*
X105895057Y-45380951D02*
X105847438Y-45333332D01*
X105847438Y-45333332D02*
X105799819Y-45238094D01*
X105799819Y-45238094D02*
X105799819Y-44999999D01*
X105799819Y-44999999D02*
X105847438Y-44904761D01*
X105847438Y-44904761D02*
X105895057Y-44857142D01*
X105895057Y-44857142D02*
X105990295Y-44809523D01*
X105990295Y-44809523D02*
X106085533Y-44809523D01*
X106085533Y-44809523D02*
X106228390Y-44857142D01*
X106228390Y-44857142D02*
X106799819Y-45428570D01*
X106799819Y-45428570D02*
X106799819Y-44809523D01*
X105799819Y-43952380D02*
X105799819Y-44142856D01*
X105799819Y-44142856D02*
X105847438Y-44238094D01*
X105847438Y-44238094D02*
X105895057Y-44285713D01*
X105895057Y-44285713D02*
X106037914Y-44380951D01*
X106037914Y-44380951D02*
X106228390Y-44428570D01*
X106228390Y-44428570D02*
X106609342Y-44428570D01*
X106609342Y-44428570D02*
X106704580Y-44380951D01*
X106704580Y-44380951D02*
X106752200Y-44333332D01*
X106752200Y-44333332D02*
X106799819Y-44238094D01*
X106799819Y-44238094D02*
X106799819Y-44047618D01*
X106799819Y-44047618D02*
X106752200Y-43952380D01*
X106752200Y-43952380D02*
X106704580Y-43904761D01*
X106704580Y-43904761D02*
X106609342Y-43857142D01*
X106609342Y-43857142D02*
X106371247Y-43857142D01*
X106371247Y-43857142D02*
X106276009Y-43904761D01*
X106276009Y-43904761D02*
X106228390Y-43952380D01*
X106228390Y-43952380D02*
X106180771Y-44047618D01*
X106180771Y-44047618D02*
X106180771Y-44238094D01*
X106180771Y-44238094D02*
X106228390Y-44333332D01*
X106228390Y-44333332D02*
X106276009Y-44380951D01*
X106276009Y-44380951D02*
X106371247Y-44428570D01*
X97057142Y-99384819D02*
X96723809Y-98908628D01*
X96485714Y-99384819D02*
X96485714Y-98384819D01*
X96485714Y-98384819D02*
X96866666Y-98384819D01*
X96866666Y-98384819D02*
X96961904Y-98432438D01*
X96961904Y-98432438D02*
X97009523Y-98480057D01*
X97009523Y-98480057D02*
X97057142Y-98575295D01*
X97057142Y-98575295D02*
X97057142Y-98718152D01*
X97057142Y-98718152D02*
X97009523Y-98813390D01*
X97009523Y-98813390D02*
X96961904Y-98861009D01*
X96961904Y-98861009D02*
X96866666Y-98908628D01*
X96866666Y-98908628D02*
X96485714Y-98908628D01*
X97390476Y-98384819D02*
X98009523Y-98384819D01*
X98009523Y-98384819D02*
X97676190Y-98765771D01*
X97676190Y-98765771D02*
X97819047Y-98765771D01*
X97819047Y-98765771D02*
X97914285Y-98813390D01*
X97914285Y-98813390D02*
X97961904Y-98861009D01*
X97961904Y-98861009D02*
X98009523Y-98956247D01*
X98009523Y-98956247D02*
X98009523Y-99194342D01*
X98009523Y-99194342D02*
X97961904Y-99289580D01*
X97961904Y-99289580D02*
X97914285Y-99337200D01*
X97914285Y-99337200D02*
X97819047Y-99384819D01*
X97819047Y-99384819D02*
X97533333Y-99384819D01*
X97533333Y-99384819D02*
X97438095Y-99337200D01*
X97438095Y-99337200D02*
X97390476Y-99289580D01*
X98342857Y-98384819D02*
X98961904Y-98384819D01*
X98961904Y-98384819D02*
X98628571Y-98765771D01*
X98628571Y-98765771D02*
X98771428Y-98765771D01*
X98771428Y-98765771D02*
X98866666Y-98813390D01*
X98866666Y-98813390D02*
X98914285Y-98861009D01*
X98914285Y-98861009D02*
X98961904Y-98956247D01*
X98961904Y-98956247D02*
X98961904Y-99194342D01*
X98961904Y-99194342D02*
X98914285Y-99289580D01*
X98914285Y-99289580D02*
X98866666Y-99337200D01*
X98866666Y-99337200D02*
X98771428Y-99384819D01*
X98771428Y-99384819D02*
X98485714Y-99384819D01*
X98485714Y-99384819D02*
X98390476Y-99337200D01*
X98390476Y-99337200D02*
X98342857Y-99289580D01*
X92585714Y-104844819D02*
X92585714Y-103844819D01*
X92585714Y-103844819D02*
X92823809Y-103844819D01*
X92823809Y-103844819D02*
X92966666Y-103892438D01*
X92966666Y-103892438D02*
X93061904Y-103987676D01*
X93061904Y-103987676D02*
X93109523Y-104082914D01*
X93109523Y-104082914D02*
X93157142Y-104273390D01*
X93157142Y-104273390D02*
X93157142Y-104416247D01*
X93157142Y-104416247D02*
X93109523Y-104606723D01*
X93109523Y-104606723D02*
X93061904Y-104701961D01*
X93061904Y-104701961D02*
X92966666Y-104797200D01*
X92966666Y-104797200D02*
X92823809Y-104844819D01*
X92823809Y-104844819D02*
X92585714Y-104844819D01*
X94109523Y-104844819D02*
X93538095Y-104844819D01*
X93823809Y-104844819D02*
X93823809Y-103844819D01*
X93823809Y-103844819D02*
X93728571Y-103987676D01*
X93728571Y-103987676D02*
X93633333Y-104082914D01*
X93633333Y-104082914D02*
X93538095Y-104130533D01*
X94490476Y-103940057D02*
X94538095Y-103892438D01*
X94538095Y-103892438D02*
X94633333Y-103844819D01*
X94633333Y-103844819D02*
X94871428Y-103844819D01*
X94871428Y-103844819D02*
X94966666Y-103892438D01*
X94966666Y-103892438D02*
X95014285Y-103940057D01*
X95014285Y-103940057D02*
X95061904Y-104035295D01*
X95061904Y-104035295D02*
X95061904Y-104130533D01*
X95061904Y-104130533D02*
X95014285Y-104273390D01*
X95014285Y-104273390D02*
X94442857Y-104844819D01*
X94442857Y-104844819D02*
X95061904Y-104844819D01*
X29789819Y-99233333D02*
X30504104Y-99233333D01*
X30504104Y-99233333D02*
X30646961Y-99280952D01*
X30646961Y-99280952D02*
X30742200Y-99376190D01*
X30742200Y-99376190D02*
X30789819Y-99519047D01*
X30789819Y-99519047D02*
X30789819Y-99614285D01*
X29789819Y-98852380D02*
X29789819Y-98185714D01*
X29789819Y-98185714D02*
X30789819Y-98614285D01*
X140866666Y-21854819D02*
X140866666Y-22569104D01*
X140866666Y-22569104D02*
X140819047Y-22711961D01*
X140819047Y-22711961D02*
X140723809Y-22807200D01*
X140723809Y-22807200D02*
X140580952Y-22854819D01*
X140580952Y-22854819D02*
X140485714Y-22854819D01*
X141485714Y-22283390D02*
X141390476Y-22235771D01*
X141390476Y-22235771D02*
X141342857Y-22188152D01*
X141342857Y-22188152D02*
X141295238Y-22092914D01*
X141295238Y-22092914D02*
X141295238Y-22045295D01*
X141295238Y-22045295D02*
X141342857Y-21950057D01*
X141342857Y-21950057D02*
X141390476Y-21902438D01*
X141390476Y-21902438D02*
X141485714Y-21854819D01*
X141485714Y-21854819D02*
X141676190Y-21854819D01*
X141676190Y-21854819D02*
X141771428Y-21902438D01*
X141771428Y-21902438D02*
X141819047Y-21950057D01*
X141819047Y-21950057D02*
X141866666Y-22045295D01*
X141866666Y-22045295D02*
X141866666Y-22092914D01*
X141866666Y-22092914D02*
X141819047Y-22188152D01*
X141819047Y-22188152D02*
X141771428Y-22235771D01*
X141771428Y-22235771D02*
X141676190Y-22283390D01*
X141676190Y-22283390D02*
X141485714Y-22283390D01*
X141485714Y-22283390D02*
X141390476Y-22331009D01*
X141390476Y-22331009D02*
X141342857Y-22378628D01*
X141342857Y-22378628D02*
X141295238Y-22473866D01*
X141295238Y-22473866D02*
X141295238Y-22664342D01*
X141295238Y-22664342D02*
X141342857Y-22759580D01*
X141342857Y-22759580D02*
X141390476Y-22807200D01*
X141390476Y-22807200D02*
X141485714Y-22854819D01*
X141485714Y-22854819D02*
X141676190Y-22854819D01*
X141676190Y-22854819D02*
X141771428Y-22807200D01*
X141771428Y-22807200D02*
X141819047Y-22759580D01*
X141819047Y-22759580D02*
X141866666Y-22664342D01*
X141866666Y-22664342D02*
X141866666Y-22473866D01*
X141866666Y-22473866D02*
X141819047Y-22378628D01*
X141819047Y-22378628D02*
X141771428Y-22331009D01*
X141771428Y-22331009D02*
X141676190Y-22283390D01*
X114490476Y-55924819D02*
X114490476Y-56639104D01*
X114490476Y-56639104D02*
X114442857Y-56781961D01*
X114442857Y-56781961D02*
X114347619Y-56877200D01*
X114347619Y-56877200D02*
X114204762Y-56924819D01*
X114204762Y-56924819D02*
X114109524Y-56924819D01*
X114919048Y-56020057D02*
X114966667Y-55972438D01*
X114966667Y-55972438D02*
X115061905Y-55924819D01*
X115061905Y-55924819D02*
X115300000Y-55924819D01*
X115300000Y-55924819D02*
X115395238Y-55972438D01*
X115395238Y-55972438D02*
X115442857Y-56020057D01*
X115442857Y-56020057D02*
X115490476Y-56115295D01*
X115490476Y-56115295D02*
X115490476Y-56210533D01*
X115490476Y-56210533D02*
X115442857Y-56353390D01*
X115442857Y-56353390D02*
X114871429Y-56924819D01*
X114871429Y-56924819D02*
X115490476Y-56924819D01*
X115823810Y-55924819D02*
X116490476Y-55924819D01*
X116490476Y-55924819D02*
X116061905Y-56924819D01*
X63492800Y-47366667D02*
X63445180Y-47509524D01*
X63445180Y-47509524D02*
X63445180Y-47747619D01*
X63445180Y-47747619D02*
X63492800Y-47842857D01*
X63492800Y-47842857D02*
X63540419Y-47890476D01*
X63540419Y-47890476D02*
X63635657Y-47938095D01*
X63635657Y-47938095D02*
X63730895Y-47938095D01*
X63730895Y-47938095D02*
X63826133Y-47890476D01*
X63826133Y-47890476D02*
X63873752Y-47842857D01*
X63873752Y-47842857D02*
X63921371Y-47747619D01*
X63921371Y-47747619D02*
X63968990Y-47557143D01*
X63968990Y-47557143D02*
X64016609Y-47461905D01*
X64016609Y-47461905D02*
X64064228Y-47414286D01*
X64064228Y-47414286D02*
X64159466Y-47366667D01*
X64159466Y-47366667D02*
X64254704Y-47366667D01*
X64254704Y-47366667D02*
X64349942Y-47414286D01*
X64349942Y-47414286D02*
X64397561Y-47461905D01*
X64397561Y-47461905D02*
X64445180Y-47557143D01*
X64445180Y-47557143D02*
X64445180Y-47795238D01*
X64445180Y-47795238D02*
X64397561Y-47938095D01*
X64445180Y-48271429D02*
X63445180Y-48509524D01*
X63445180Y-48509524D02*
X64159466Y-48700000D01*
X64159466Y-48700000D02*
X63445180Y-48890476D01*
X63445180Y-48890476D02*
X64445180Y-49128572D01*
X64445180Y-49414286D02*
X64445180Y-50080952D01*
X64445180Y-50080952D02*
X63445180Y-49652381D01*
X75392800Y-47366667D02*
X75345180Y-47509524D01*
X75345180Y-47509524D02*
X75345180Y-47747619D01*
X75345180Y-47747619D02*
X75392800Y-47842857D01*
X75392800Y-47842857D02*
X75440419Y-47890476D01*
X75440419Y-47890476D02*
X75535657Y-47938095D01*
X75535657Y-47938095D02*
X75630895Y-47938095D01*
X75630895Y-47938095D02*
X75726133Y-47890476D01*
X75726133Y-47890476D02*
X75773752Y-47842857D01*
X75773752Y-47842857D02*
X75821371Y-47747619D01*
X75821371Y-47747619D02*
X75868990Y-47557143D01*
X75868990Y-47557143D02*
X75916609Y-47461905D01*
X75916609Y-47461905D02*
X75964228Y-47414286D01*
X75964228Y-47414286D02*
X76059466Y-47366667D01*
X76059466Y-47366667D02*
X76154704Y-47366667D01*
X76154704Y-47366667D02*
X76249942Y-47414286D01*
X76249942Y-47414286D02*
X76297561Y-47461905D01*
X76297561Y-47461905D02*
X76345180Y-47557143D01*
X76345180Y-47557143D02*
X76345180Y-47795238D01*
X76345180Y-47795238D02*
X76297561Y-47938095D01*
X76345180Y-48271429D02*
X75345180Y-48509524D01*
X75345180Y-48509524D02*
X76059466Y-48700000D01*
X76059466Y-48700000D02*
X75345180Y-48890476D01*
X75345180Y-48890476D02*
X76345180Y-49128572D01*
X75916609Y-49652381D02*
X75964228Y-49557143D01*
X75964228Y-49557143D02*
X76011847Y-49509524D01*
X76011847Y-49509524D02*
X76107085Y-49461905D01*
X76107085Y-49461905D02*
X76154704Y-49461905D01*
X76154704Y-49461905D02*
X76249942Y-49509524D01*
X76249942Y-49509524D02*
X76297561Y-49557143D01*
X76297561Y-49557143D02*
X76345180Y-49652381D01*
X76345180Y-49652381D02*
X76345180Y-49842857D01*
X76345180Y-49842857D02*
X76297561Y-49938095D01*
X76297561Y-49938095D02*
X76249942Y-49985714D01*
X76249942Y-49985714D02*
X76154704Y-50033333D01*
X76154704Y-50033333D02*
X76107085Y-50033333D01*
X76107085Y-50033333D02*
X76011847Y-49985714D01*
X76011847Y-49985714D02*
X75964228Y-49938095D01*
X75964228Y-49938095D02*
X75916609Y-49842857D01*
X75916609Y-49842857D02*
X75916609Y-49652381D01*
X75916609Y-49652381D02*
X75868990Y-49557143D01*
X75868990Y-49557143D02*
X75821371Y-49509524D01*
X75821371Y-49509524D02*
X75726133Y-49461905D01*
X75726133Y-49461905D02*
X75535657Y-49461905D01*
X75535657Y-49461905D02*
X75440419Y-49509524D01*
X75440419Y-49509524D02*
X75392800Y-49557143D01*
X75392800Y-49557143D02*
X75345180Y-49652381D01*
X75345180Y-49652381D02*
X75345180Y-49842857D01*
X75345180Y-49842857D02*
X75392800Y-49938095D01*
X75392800Y-49938095D02*
X75440419Y-49985714D01*
X75440419Y-49985714D02*
X75535657Y-50033333D01*
X75535657Y-50033333D02*
X75726133Y-50033333D01*
X75726133Y-50033333D02*
X75821371Y-49985714D01*
X75821371Y-49985714D02*
X75868990Y-49938095D01*
X75868990Y-49938095D02*
X75916609Y-49842857D01*
X102666666Y-22054819D02*
X102666666Y-22769104D01*
X102666666Y-22769104D02*
X102619047Y-22911961D01*
X102619047Y-22911961D02*
X102523809Y-23007200D01*
X102523809Y-23007200D02*
X102380952Y-23054819D01*
X102380952Y-23054819D02*
X102285714Y-23054819D01*
X103571428Y-22388152D02*
X103571428Y-23054819D01*
X103333333Y-22007200D02*
X103095238Y-22721485D01*
X103095238Y-22721485D02*
X103714285Y-22721485D01*
X27238095Y-21054819D02*
X27238095Y-20054819D01*
X27238095Y-20531009D02*
X27809523Y-20531009D01*
X27809523Y-21054819D02*
X27809523Y-20054819D01*
X28809523Y-21054819D02*
X28238095Y-21054819D01*
X28523809Y-21054819D02*
X28523809Y-20054819D01*
X28523809Y-20054819D02*
X28428571Y-20197676D01*
X28428571Y-20197676D02*
X28333333Y-20292914D01*
X28333333Y-20292914D02*
X28238095Y-20340533D01*
X126090476Y-52309819D02*
X126090476Y-53024104D01*
X126090476Y-53024104D02*
X126042857Y-53166961D01*
X126042857Y-53166961D02*
X125947619Y-53262200D01*
X125947619Y-53262200D02*
X125804762Y-53309819D01*
X125804762Y-53309819D02*
X125709524Y-53309819D01*
X126519048Y-52405057D02*
X126566667Y-52357438D01*
X126566667Y-52357438D02*
X126661905Y-52309819D01*
X126661905Y-52309819D02*
X126900000Y-52309819D01*
X126900000Y-52309819D02*
X126995238Y-52357438D01*
X126995238Y-52357438D02*
X127042857Y-52405057D01*
X127042857Y-52405057D02*
X127090476Y-52500295D01*
X127090476Y-52500295D02*
X127090476Y-52595533D01*
X127090476Y-52595533D02*
X127042857Y-52738390D01*
X127042857Y-52738390D02*
X126471429Y-53309819D01*
X126471429Y-53309819D02*
X127090476Y-53309819D01*
X127661905Y-52738390D02*
X127566667Y-52690771D01*
X127566667Y-52690771D02*
X127519048Y-52643152D01*
X127519048Y-52643152D02*
X127471429Y-52547914D01*
X127471429Y-52547914D02*
X127471429Y-52500295D01*
X127471429Y-52500295D02*
X127519048Y-52405057D01*
X127519048Y-52405057D02*
X127566667Y-52357438D01*
X127566667Y-52357438D02*
X127661905Y-52309819D01*
X127661905Y-52309819D02*
X127852381Y-52309819D01*
X127852381Y-52309819D02*
X127947619Y-52357438D01*
X127947619Y-52357438D02*
X127995238Y-52405057D01*
X127995238Y-52405057D02*
X128042857Y-52500295D01*
X128042857Y-52500295D02*
X128042857Y-52547914D01*
X128042857Y-52547914D02*
X127995238Y-52643152D01*
X127995238Y-52643152D02*
X127947619Y-52690771D01*
X127947619Y-52690771D02*
X127852381Y-52738390D01*
X127852381Y-52738390D02*
X127661905Y-52738390D01*
X127661905Y-52738390D02*
X127566667Y-52786009D01*
X127566667Y-52786009D02*
X127519048Y-52833628D01*
X127519048Y-52833628D02*
X127471429Y-52928866D01*
X127471429Y-52928866D02*
X127471429Y-53119342D01*
X127471429Y-53119342D02*
X127519048Y-53214580D01*
X127519048Y-53214580D02*
X127566667Y-53262200D01*
X127566667Y-53262200D02*
X127661905Y-53309819D01*
X127661905Y-53309819D02*
X127852381Y-53309819D01*
X127852381Y-53309819D02*
X127947619Y-53262200D01*
X127947619Y-53262200D02*
X127995238Y-53214580D01*
X127995238Y-53214580D02*
X128042857Y-53119342D01*
X128042857Y-53119342D02*
X128042857Y-52928866D01*
X128042857Y-52928866D02*
X127995238Y-52833628D01*
X127995238Y-52833628D02*
X127947619Y-52786009D01*
X127947619Y-52786009D02*
X127852381Y-52738390D01*
X69392800Y-47366667D02*
X69345180Y-47509524D01*
X69345180Y-47509524D02*
X69345180Y-47747619D01*
X69345180Y-47747619D02*
X69392800Y-47842857D01*
X69392800Y-47842857D02*
X69440419Y-47890476D01*
X69440419Y-47890476D02*
X69535657Y-47938095D01*
X69535657Y-47938095D02*
X69630895Y-47938095D01*
X69630895Y-47938095D02*
X69726133Y-47890476D01*
X69726133Y-47890476D02*
X69773752Y-47842857D01*
X69773752Y-47842857D02*
X69821371Y-47747619D01*
X69821371Y-47747619D02*
X69868990Y-47557143D01*
X69868990Y-47557143D02*
X69916609Y-47461905D01*
X69916609Y-47461905D02*
X69964228Y-47414286D01*
X69964228Y-47414286D02*
X70059466Y-47366667D01*
X70059466Y-47366667D02*
X70154704Y-47366667D01*
X70154704Y-47366667D02*
X70249942Y-47414286D01*
X70249942Y-47414286D02*
X70297561Y-47461905D01*
X70297561Y-47461905D02*
X70345180Y-47557143D01*
X70345180Y-47557143D02*
X70345180Y-47795238D01*
X70345180Y-47795238D02*
X70297561Y-47938095D01*
X70345180Y-48271429D02*
X69345180Y-48509524D01*
X69345180Y-48509524D02*
X70059466Y-48700000D01*
X70059466Y-48700000D02*
X69345180Y-48890476D01*
X69345180Y-48890476D02*
X70345180Y-49128572D01*
X70345180Y-49985714D02*
X70345180Y-49509524D01*
X70345180Y-49509524D02*
X69868990Y-49461905D01*
X69868990Y-49461905D02*
X69916609Y-49509524D01*
X69916609Y-49509524D02*
X69964228Y-49604762D01*
X69964228Y-49604762D02*
X69964228Y-49842857D01*
X69964228Y-49842857D02*
X69916609Y-49938095D01*
X69916609Y-49938095D02*
X69868990Y-49985714D01*
X69868990Y-49985714D02*
X69773752Y-50033333D01*
X69773752Y-50033333D02*
X69535657Y-50033333D01*
X69535657Y-50033333D02*
X69440419Y-49985714D01*
X69440419Y-49985714D02*
X69392800Y-49938095D01*
X69392800Y-49938095D02*
X69345180Y-49842857D01*
X69345180Y-49842857D02*
X69345180Y-49604762D01*
X69345180Y-49604762D02*
X69392800Y-49509524D01*
X69392800Y-49509524D02*
X69440419Y-49461905D01*
X81192800Y-47366667D02*
X81145180Y-47509524D01*
X81145180Y-47509524D02*
X81145180Y-47747619D01*
X81145180Y-47747619D02*
X81192800Y-47842857D01*
X81192800Y-47842857D02*
X81240419Y-47890476D01*
X81240419Y-47890476D02*
X81335657Y-47938095D01*
X81335657Y-47938095D02*
X81430895Y-47938095D01*
X81430895Y-47938095D02*
X81526133Y-47890476D01*
X81526133Y-47890476D02*
X81573752Y-47842857D01*
X81573752Y-47842857D02*
X81621371Y-47747619D01*
X81621371Y-47747619D02*
X81668990Y-47557143D01*
X81668990Y-47557143D02*
X81716609Y-47461905D01*
X81716609Y-47461905D02*
X81764228Y-47414286D01*
X81764228Y-47414286D02*
X81859466Y-47366667D01*
X81859466Y-47366667D02*
X81954704Y-47366667D01*
X81954704Y-47366667D02*
X82049942Y-47414286D01*
X82049942Y-47414286D02*
X82097561Y-47461905D01*
X82097561Y-47461905D02*
X82145180Y-47557143D01*
X82145180Y-47557143D02*
X82145180Y-47795238D01*
X82145180Y-47795238D02*
X82097561Y-47938095D01*
X82145180Y-48271429D02*
X81145180Y-48509524D01*
X81145180Y-48509524D02*
X81859466Y-48700000D01*
X81859466Y-48700000D02*
X81145180Y-48890476D01*
X81145180Y-48890476D02*
X82145180Y-49128572D01*
X81811847Y-49938095D02*
X81145180Y-49938095D01*
X82192800Y-49700000D02*
X81478514Y-49461905D01*
X81478514Y-49461905D02*
X81478514Y-50080952D01*
X89990476Y-78224819D02*
X89990476Y-78939104D01*
X89990476Y-78939104D02*
X89942857Y-79081961D01*
X89942857Y-79081961D02*
X89847619Y-79177200D01*
X89847619Y-79177200D02*
X89704762Y-79224819D01*
X89704762Y-79224819D02*
X89609524Y-79224819D01*
X90419048Y-78320057D02*
X90466667Y-78272438D01*
X90466667Y-78272438D02*
X90561905Y-78224819D01*
X90561905Y-78224819D02*
X90800000Y-78224819D01*
X90800000Y-78224819D02*
X90895238Y-78272438D01*
X90895238Y-78272438D02*
X90942857Y-78320057D01*
X90942857Y-78320057D02*
X90990476Y-78415295D01*
X90990476Y-78415295D02*
X90990476Y-78510533D01*
X90990476Y-78510533D02*
X90942857Y-78653390D01*
X90942857Y-78653390D02*
X90371429Y-79224819D01*
X90371429Y-79224819D02*
X90990476Y-79224819D01*
X91895238Y-78224819D02*
X91419048Y-78224819D01*
X91419048Y-78224819D02*
X91371429Y-78701009D01*
X91371429Y-78701009D02*
X91419048Y-78653390D01*
X91419048Y-78653390D02*
X91514286Y-78605771D01*
X91514286Y-78605771D02*
X91752381Y-78605771D01*
X91752381Y-78605771D02*
X91847619Y-78653390D01*
X91847619Y-78653390D02*
X91895238Y-78701009D01*
X91895238Y-78701009D02*
X91942857Y-78796247D01*
X91942857Y-78796247D02*
X91942857Y-79034342D01*
X91942857Y-79034342D02*
X91895238Y-79129580D01*
X91895238Y-79129580D02*
X91847619Y-79177200D01*
X91847619Y-79177200D02*
X91752381Y-79224819D01*
X91752381Y-79224819D02*
X91514286Y-79224819D01*
X91514286Y-79224819D02*
X91419048Y-79177200D01*
X91419048Y-79177200D02*
X91371429Y-79129580D01*
D11*
%TO.C,R19*%
X27554724Y-94922500D02*
X27045276Y-94922500D01*
X27554724Y-93877500D02*
X27045276Y-93877500D01*
%TO.C,J9*%
X103050000Y-110250000D02*
X105050000Y-110250000D01*
X103050000Y-111500000D02*
X103050000Y-110250000D01*
X103440000Y-110640000D02*
X103440000Y-118110000D01*
X103440000Y-118110000D02*
X122560000Y-118110000D01*
X104500000Y-111600000D02*
X107500000Y-111600000D01*
X104500000Y-112950000D02*
X105250000Y-112950000D01*
X104500000Y-117250000D02*
X104500000Y-112950000D01*
X104750000Y-112600000D02*
X104500000Y-111600000D01*
X105250000Y-112600000D02*
X104750000Y-112600000D01*
X105250000Y-112950000D02*
X105250000Y-112600000D01*
X105250000Y-117250000D02*
X104500000Y-117250000D01*
X106750000Y-112600000D02*
X106750000Y-112950000D01*
X106750000Y-112950000D02*
X107500000Y-112950000D01*
X107250000Y-112600000D02*
X106750000Y-112600000D01*
X107500000Y-111600000D02*
X107250000Y-112600000D01*
X107500000Y-112950000D02*
X107500000Y-117250000D01*
X107500000Y-117250000D02*
X106750000Y-117250000D01*
X108000000Y-111600000D02*
X111000000Y-111600000D01*
X108000000Y-112950000D02*
X108750000Y-112950000D01*
X108000000Y-117250000D02*
X108000000Y-112950000D01*
X108250000Y-112600000D02*
X108000000Y-111600000D01*
X108750000Y-112600000D02*
X108250000Y-112600000D01*
X108750000Y-112950000D02*
X108750000Y-112600000D01*
X108750000Y-117250000D02*
X108000000Y-117250000D01*
X110250000Y-112600000D02*
X110250000Y-112950000D01*
X110250000Y-112950000D02*
X111000000Y-112950000D01*
X110750000Y-112600000D02*
X110250000Y-112600000D01*
X111000000Y-111600000D02*
X110750000Y-112600000D01*
X111000000Y-112950000D02*
X111000000Y-117250000D01*
X111000000Y-117250000D02*
X110250000Y-117250000D01*
X111500000Y-111600000D02*
X114500000Y-111600000D01*
X111500000Y-112950000D02*
X112250000Y-112950000D01*
X111500000Y-117250000D02*
X111500000Y-112950000D01*
X111750000Y-112600000D02*
X111500000Y-111600000D01*
X112250000Y-112600000D02*
X111750000Y-112600000D01*
X112250000Y-112950000D02*
X112250000Y-112600000D01*
X112250000Y-117250000D02*
X111500000Y-117250000D01*
X113750000Y-112600000D02*
X113750000Y-112950000D01*
X113750000Y-112950000D02*
X114500000Y-112950000D01*
X114250000Y-112600000D02*
X113750000Y-112600000D01*
X114500000Y-111600000D02*
X114250000Y-112600000D01*
X114500000Y-112950000D02*
X114500000Y-117250000D01*
X114500000Y-117250000D02*
X113750000Y-117250000D01*
X115000000Y-111600000D02*
X118000000Y-111600000D01*
X115000000Y-112950000D02*
X115750000Y-112950000D01*
X115000000Y-117250000D02*
X115000000Y-112950000D01*
X115250000Y-112600000D02*
X115000000Y-111600000D01*
X115750000Y-112600000D02*
X115250000Y-112600000D01*
X115750000Y-112950000D02*
X115750000Y-112600000D01*
X115750000Y-117250000D02*
X115000000Y-117250000D01*
X117250000Y-112600000D02*
X117250000Y-112950000D01*
X117250000Y-112950000D02*
X118000000Y-112950000D01*
X117750000Y-112600000D02*
X117250000Y-112600000D01*
X118000000Y-111600000D02*
X117750000Y-112600000D01*
X118000000Y-112950000D02*
X118000000Y-117250000D01*
X118000000Y-117250000D02*
X117250000Y-117250000D01*
X118500000Y-111600000D02*
X121500000Y-111600000D01*
X118500000Y-112950000D02*
X119250000Y-112950000D01*
X118500000Y-117250000D02*
X118500000Y-112950000D01*
X118750000Y-112600000D02*
X118500000Y-111600000D01*
X119250000Y-112600000D02*
X118750000Y-112600000D01*
X119250000Y-112950000D02*
X119250000Y-112600000D01*
X119250000Y-117250000D02*
X118500000Y-117250000D01*
X120750000Y-112600000D02*
X120750000Y-112950000D01*
X120750000Y-112950000D02*
X121500000Y-112950000D01*
X121250000Y-112600000D02*
X120750000Y-112600000D01*
X121500000Y-111600000D02*
X121250000Y-112600000D01*
X121500000Y-112950000D02*
X121500000Y-117250000D01*
X121500000Y-117250000D02*
X120750000Y-117250000D01*
X122560000Y-110640000D02*
X103440000Y-110640000D01*
X122560000Y-118110000D02*
X122560000Y-110640000D01*
X106749647Y-117249845D02*
G75*
G03*
X105250000Y-117250000I-749647J-1700155D01*
G01*
X110249647Y-117249845D02*
G75*
G03*
X108750000Y-117250000I-749647J-1700155D01*
G01*
X113749647Y-117249845D02*
G75*
G03*
X112250000Y-117250000I-749647J-1700155D01*
G01*
X117249647Y-117249845D02*
G75*
G03*
X115750000Y-117250000I-749647J-1700155D01*
G01*
X120749647Y-117249845D02*
G75*
G03*
X119250000Y-117250000I-749647J-1700155D01*
G01*
%TO.C,D17*%
X122200000Y-62150000D02*
X122200000Y-63850000D01*
X122200000Y-62150000D02*
X124750000Y-62150000D01*
X122200000Y-63850000D02*
X124750000Y-63850000D01*
%TO.C,J18*%
X86550000Y-110250000D02*
X88550000Y-110250000D01*
X86550000Y-111500000D02*
X86550000Y-110250000D01*
X86940000Y-110640000D02*
X86940000Y-118110000D01*
X86940000Y-118110000D02*
X102560000Y-118110000D01*
X88000000Y-111600000D02*
X91000000Y-111600000D01*
X88000000Y-112950000D02*
X88750000Y-112950000D01*
X88000000Y-117250000D02*
X88000000Y-112950000D01*
X88250000Y-112600000D02*
X88000000Y-111600000D01*
X88750000Y-112600000D02*
X88250000Y-112600000D01*
X88750000Y-112950000D02*
X88750000Y-112600000D01*
X88750000Y-117250000D02*
X88000000Y-117250000D01*
X90250000Y-112600000D02*
X90250000Y-112950000D01*
X90250000Y-112950000D02*
X91000000Y-112950000D01*
X90750000Y-112600000D02*
X90250000Y-112600000D01*
X91000000Y-111600000D02*
X90750000Y-112600000D01*
X91000000Y-112950000D02*
X91000000Y-117250000D01*
X91000000Y-117250000D02*
X90250000Y-117250000D01*
X91500000Y-111600000D02*
X94500000Y-111600000D01*
X91500000Y-112950000D02*
X92250000Y-112950000D01*
X91500000Y-117250000D02*
X91500000Y-112950000D01*
X91750000Y-112600000D02*
X91500000Y-111600000D01*
X92250000Y-112600000D02*
X91750000Y-112600000D01*
X92250000Y-112950000D02*
X92250000Y-112600000D01*
X92250000Y-117250000D02*
X91500000Y-117250000D01*
X93750000Y-112600000D02*
X93750000Y-112950000D01*
X93750000Y-112950000D02*
X94500000Y-112950000D01*
X94250000Y-112600000D02*
X93750000Y-112600000D01*
X94500000Y-111600000D02*
X94250000Y-112600000D01*
X94500000Y-112950000D02*
X94500000Y-117250000D01*
X94500000Y-117250000D02*
X93750000Y-117250000D01*
X95000000Y-111600000D02*
X98000000Y-111600000D01*
X95000000Y-112950000D02*
X95750000Y-112950000D01*
X95000000Y-117250000D02*
X95000000Y-112950000D01*
X95250000Y-112600000D02*
X95000000Y-111600000D01*
X95750000Y-112600000D02*
X95250000Y-112600000D01*
X95750000Y-112950000D02*
X95750000Y-112600000D01*
X95750000Y-117250000D02*
X95000000Y-117250000D01*
X97250000Y-112600000D02*
X97250000Y-112950000D01*
X97250000Y-112950000D02*
X98000000Y-112950000D01*
X97750000Y-112600000D02*
X97250000Y-112600000D01*
X98000000Y-111600000D02*
X97750000Y-112600000D01*
X98000000Y-112950000D02*
X98000000Y-117250000D01*
X98000000Y-117250000D02*
X97250000Y-117250000D01*
X98500000Y-111600000D02*
X101500000Y-111600000D01*
X98500000Y-112950000D02*
X99250000Y-112950000D01*
X98500000Y-117250000D02*
X98500000Y-112950000D01*
X98750000Y-112600000D02*
X98500000Y-111600000D01*
X99250000Y-112600000D02*
X98750000Y-112600000D01*
X99250000Y-112950000D02*
X99250000Y-112600000D01*
X99250000Y-117250000D02*
X98500000Y-117250000D01*
X100750000Y-112600000D02*
X100750000Y-112950000D01*
X100750000Y-112950000D02*
X101500000Y-112950000D01*
X101250000Y-112600000D02*
X100750000Y-112600000D01*
X101500000Y-111600000D02*
X101250000Y-112600000D01*
X101500000Y-112950000D02*
X101500000Y-117250000D01*
X101500000Y-117250000D02*
X100750000Y-117250000D01*
X102560000Y-110640000D02*
X86940000Y-110640000D01*
X102560000Y-118110000D02*
X102560000Y-110640000D01*
X90249647Y-117249845D02*
G75*
G03*
X88750000Y-117250000I-749647J-1700155D01*
G01*
X93749647Y-117249845D02*
G75*
G03*
X92250000Y-117250000I-749647J-1700155D01*
G01*
X97249647Y-117249845D02*
G75*
G03*
X95750000Y-117250000I-749647J-1700155D01*
G01*
X100749647Y-117249845D02*
G75*
G03*
X99250000Y-117250000I-749647J-1700155D01*
G01*
%TO.C,D7*%
X21840000Y-93665000D02*
X21840000Y-95135000D01*
X21840000Y-95135000D02*
X24300000Y-95135000D01*
X24300000Y-93665000D02*
X21840000Y-93665000D01*
%TO.C,J15*%
X36050000Y-110250000D02*
X38050000Y-110250000D01*
X36050000Y-111500000D02*
X36050000Y-110250000D01*
X36440000Y-110640000D02*
X36440000Y-118110000D01*
X36440000Y-118110000D02*
X52060000Y-118110000D01*
X37500000Y-111600000D02*
X40500000Y-111600000D01*
X37500000Y-112950000D02*
X38250000Y-112950000D01*
X37500000Y-117250000D02*
X37500000Y-112950000D01*
X37750000Y-112600000D02*
X37500000Y-111600000D01*
X38250000Y-112600000D02*
X37750000Y-112600000D01*
X38250000Y-112950000D02*
X38250000Y-112600000D01*
X38250000Y-117250000D02*
X37500000Y-117250000D01*
X39750000Y-112600000D02*
X39750000Y-112950000D01*
X39750000Y-112950000D02*
X40500000Y-112950000D01*
X40250000Y-112600000D02*
X39750000Y-112600000D01*
X40500000Y-111600000D02*
X40250000Y-112600000D01*
X40500000Y-112950000D02*
X40500000Y-117250000D01*
X40500000Y-117250000D02*
X39750000Y-117250000D01*
X41000000Y-111600000D02*
X44000000Y-111600000D01*
X41000000Y-112950000D02*
X41750000Y-112950000D01*
X41000000Y-117250000D02*
X41000000Y-112950000D01*
X41250000Y-112600000D02*
X41000000Y-111600000D01*
X41750000Y-112600000D02*
X41250000Y-112600000D01*
X41750000Y-112950000D02*
X41750000Y-112600000D01*
X41750000Y-117250000D02*
X41000000Y-117250000D01*
X43250000Y-112600000D02*
X43250000Y-112950000D01*
X43250000Y-112950000D02*
X44000000Y-112950000D01*
X43750000Y-112600000D02*
X43250000Y-112600000D01*
X44000000Y-111600000D02*
X43750000Y-112600000D01*
X44000000Y-112950000D02*
X44000000Y-117250000D01*
X44000000Y-117250000D02*
X43250000Y-117250000D01*
X44500000Y-111600000D02*
X47500000Y-111600000D01*
X44500000Y-112950000D02*
X45250000Y-112950000D01*
X44500000Y-117250000D02*
X44500000Y-112950000D01*
X44750000Y-112600000D02*
X44500000Y-111600000D01*
X45250000Y-112600000D02*
X44750000Y-112600000D01*
X45250000Y-112950000D02*
X45250000Y-112600000D01*
X45250000Y-117250000D02*
X44500000Y-117250000D01*
X46750000Y-112600000D02*
X46750000Y-112950000D01*
X46750000Y-112950000D02*
X47500000Y-112950000D01*
X47250000Y-112600000D02*
X46750000Y-112600000D01*
X47500000Y-111600000D02*
X47250000Y-112600000D01*
X47500000Y-112950000D02*
X47500000Y-117250000D01*
X47500000Y-117250000D02*
X46750000Y-117250000D01*
X48000000Y-111600000D02*
X51000000Y-111600000D01*
X48000000Y-112950000D02*
X48750000Y-112950000D01*
X48000000Y-117250000D02*
X48000000Y-112950000D01*
X48250000Y-112600000D02*
X48000000Y-111600000D01*
X48750000Y-112600000D02*
X48250000Y-112600000D01*
X48750000Y-112950000D02*
X48750000Y-112600000D01*
X48750000Y-117250000D02*
X48000000Y-117250000D01*
X50250000Y-112600000D02*
X50250000Y-112950000D01*
X50250000Y-112950000D02*
X51000000Y-112950000D01*
X50750000Y-112600000D02*
X50250000Y-112600000D01*
X51000000Y-111600000D02*
X50750000Y-112600000D01*
X51000000Y-112950000D02*
X51000000Y-117250000D01*
X51000000Y-117250000D02*
X50250000Y-117250000D01*
X52060000Y-110640000D02*
X36440000Y-110640000D01*
X52060000Y-118110000D02*
X52060000Y-110640000D01*
X39749647Y-117249845D02*
G75*
G03*
X38250000Y-117250000I-749647J-1700155D01*
G01*
X43249647Y-117249845D02*
G75*
G03*
X41750000Y-117250000I-749647J-1700155D01*
G01*
X46749647Y-117249845D02*
G75*
G03*
X45250000Y-117250000I-749647J-1700155D01*
G01*
X50249647Y-117249845D02*
G75*
G03*
X48750000Y-117250000I-749647J-1700155D01*
G01*
%TO.C,D6*%
X21765000Y-91265000D02*
X21765000Y-92735000D01*
X21765000Y-92735000D02*
X24225000Y-92735000D01*
X24225000Y-91265000D02*
X21765000Y-91265000D01*
%TO.C,J19*%
X112730000Y-67670000D02*
X112730000Y-69000000D01*
X111400000Y-67670000D02*
X112730000Y-67670000D01*
X110130000Y-67670000D02*
X104990000Y-67670000D01*
X110130000Y-67670000D02*
X110130000Y-70330000D01*
X104990000Y-67670000D02*
X104990000Y-70330000D01*
X110130000Y-70330000D02*
X104990000Y-70330000D01*
%TO.C,D18*%
X122100000Y-65950000D02*
X122100000Y-67650000D01*
X122100000Y-65950000D02*
X124650000Y-65950000D01*
X122100000Y-67650000D02*
X124650000Y-67650000D01*
%TO.C,L1*%
X38170000Y-89900000D02*
G75*
G03*
X38170000Y-89900000I-4870000J0D01*
G01*
%TO.C,D19*%
X122100000Y-69550000D02*
X122100000Y-71250000D01*
X122100000Y-69550000D02*
X124650000Y-69550000D01*
X122100000Y-71250000D02*
X124650000Y-71250000D01*
%TO.C,J22*%
X117970000Y-65870000D02*
X119300000Y-65870000D01*
X117970000Y-67200000D02*
X117970000Y-65870000D01*
X117970000Y-68470000D02*
X117970000Y-78690000D01*
X117970000Y-68470000D02*
X120630000Y-68470000D01*
X117970000Y-78690000D02*
X120630000Y-78690000D01*
X120630000Y-68470000D02*
X120630000Y-78690000D01*
%TO.C,D10*%
X95460000Y-98695000D02*
X95460000Y-97225000D01*
X95460000Y-97225000D02*
X93000000Y-97225000D01*
X93000000Y-98695000D02*
X95460000Y-98695000D01*
%TO.C,J11*%
X94645000Y-109330000D02*
X94645000Y-108000000D01*
X95975000Y-109330000D02*
X94645000Y-109330000D01*
X97245000Y-109330000D02*
X102385000Y-109330000D01*
X97245000Y-109330000D02*
X97245000Y-106670000D01*
X102385000Y-109330000D02*
X102385000Y-106670000D01*
X97245000Y-106670000D02*
X102385000Y-106670000D01*
%TO.C,R32*%
X97445276Y-97437500D02*
X97954724Y-97437500D01*
X97445276Y-98482500D02*
X97954724Y-98482500D01*
%TO.C,J12*%
X121670000Y-82670000D02*
X123000000Y-82670000D01*
X121670000Y-84000000D02*
X121670000Y-82670000D01*
X121670000Y-85270000D02*
X121670000Y-90410000D01*
X121670000Y-85270000D02*
X124330000Y-85270000D01*
X121670000Y-90410000D02*
X124330000Y-90410000D01*
X124330000Y-85270000D02*
X124330000Y-90410000D01*
%TO.C,J17*%
X69817500Y-110250000D02*
X71817500Y-110250000D01*
X69817500Y-111500000D02*
X69817500Y-110250000D01*
X70207500Y-110640000D02*
X70207500Y-118110000D01*
X70207500Y-118110000D02*
X85827500Y-118110000D01*
X71267500Y-111600000D02*
X74267500Y-111600000D01*
X71267500Y-112950000D02*
X72017500Y-112950000D01*
X71267500Y-117250000D02*
X71267500Y-112950000D01*
X71517500Y-112600000D02*
X71267500Y-111600000D01*
X72017500Y-112600000D02*
X71517500Y-112600000D01*
X72017500Y-112950000D02*
X72017500Y-112600000D01*
X72017500Y-117250000D02*
X71267500Y-117250000D01*
X73517500Y-112600000D02*
X73517500Y-112950000D01*
X73517500Y-112950000D02*
X74267500Y-112950000D01*
X74017500Y-112600000D02*
X73517500Y-112600000D01*
X74267500Y-111600000D02*
X74017500Y-112600000D01*
X74267500Y-112950000D02*
X74267500Y-117250000D01*
X74267500Y-117250000D02*
X73517500Y-117250000D01*
X74767500Y-111600000D02*
X77767500Y-111600000D01*
X74767500Y-112950000D02*
X75517500Y-112950000D01*
X74767500Y-117250000D02*
X74767500Y-112950000D01*
X75017500Y-112600000D02*
X74767500Y-111600000D01*
X75517500Y-112600000D02*
X75017500Y-112600000D01*
X75517500Y-112950000D02*
X75517500Y-112600000D01*
X75517500Y-117250000D02*
X74767500Y-117250000D01*
X77017500Y-112600000D02*
X77017500Y-112950000D01*
X77017500Y-112950000D02*
X77767500Y-112950000D01*
X77517500Y-112600000D02*
X77017500Y-112600000D01*
X77767500Y-111600000D02*
X77517500Y-112600000D01*
X77767500Y-112950000D02*
X77767500Y-117250000D01*
X77767500Y-117250000D02*
X77017500Y-117250000D01*
X78267500Y-111600000D02*
X81267500Y-111600000D01*
X78267500Y-112950000D02*
X79017500Y-112950000D01*
X78267500Y-117250000D02*
X78267500Y-112950000D01*
X78517500Y-112600000D02*
X78267500Y-111600000D01*
X79017500Y-112600000D02*
X78517500Y-112600000D01*
X79017500Y-112950000D02*
X79017500Y-112600000D01*
X79017500Y-117250000D02*
X78267500Y-117250000D01*
X80517500Y-112600000D02*
X80517500Y-112950000D01*
X80517500Y-112950000D02*
X81267500Y-112950000D01*
X81017500Y-112600000D02*
X80517500Y-112600000D01*
X81267500Y-111600000D02*
X81017500Y-112600000D01*
X81267500Y-112950000D02*
X81267500Y-117250000D01*
X81267500Y-117250000D02*
X80517500Y-117250000D01*
X81767500Y-111600000D02*
X84767500Y-111600000D01*
X81767500Y-112950000D02*
X82517500Y-112950000D01*
X81767500Y-117250000D02*
X81767500Y-112950000D01*
X82017500Y-112600000D02*
X81767500Y-111600000D01*
X82517500Y-112600000D02*
X82017500Y-112600000D01*
X82517500Y-112950000D02*
X82517500Y-112600000D01*
X82517500Y-117250000D02*
X81767500Y-117250000D01*
X84017500Y-112600000D02*
X84017500Y-112950000D01*
X84017500Y-112950000D02*
X84767500Y-112950000D01*
X84517500Y-112600000D02*
X84017500Y-112600000D01*
X84767500Y-111600000D02*
X84517500Y-112600000D01*
X84767500Y-112950000D02*
X84767500Y-117250000D01*
X84767500Y-117250000D02*
X84017500Y-117250000D01*
X85827500Y-110640000D02*
X70207500Y-110640000D01*
X85827500Y-118110000D02*
X85827500Y-110640000D01*
X73517147Y-117249845D02*
G75*
G03*
X72017500Y-117250000I-749647J-1700155D01*
G01*
X77017147Y-117249845D02*
G75*
G03*
X75517500Y-117250000I-749647J-1700155D01*
G01*
X80517147Y-117249845D02*
G75*
G03*
X79017500Y-117250000I-749647J-1700155D01*
G01*
X84017147Y-117249845D02*
G75*
G03*
X82517500Y-117250000I-749647J-1700155D01*
G01*
%TO.C,J23*%
X93230000Y-65705000D02*
X91900000Y-65705000D01*
X93230000Y-64375000D02*
X93230000Y-65705000D01*
X93230000Y-63105000D02*
X93230000Y-60505000D01*
X93230000Y-63105000D02*
X90570000Y-63105000D01*
X93230000Y-60505000D02*
X90570000Y-60505000D01*
X90570000Y-63105000D02*
X90570000Y-60505000D01*
%TO.C,J16*%
X53050000Y-110250000D02*
X55050000Y-110250000D01*
X53050000Y-111500000D02*
X53050000Y-110250000D01*
X53440000Y-110640000D02*
X53440000Y-118110000D01*
X53440000Y-118110000D02*
X69060000Y-118110000D01*
X54500000Y-111600000D02*
X57500000Y-111600000D01*
X54500000Y-112950000D02*
X55250000Y-112950000D01*
X54500000Y-117250000D02*
X54500000Y-112950000D01*
X54750000Y-112600000D02*
X54500000Y-111600000D01*
X55250000Y-112600000D02*
X54750000Y-112600000D01*
X55250000Y-112950000D02*
X55250000Y-112600000D01*
X55250000Y-117250000D02*
X54500000Y-117250000D01*
X56750000Y-112600000D02*
X56750000Y-112950000D01*
X56750000Y-112950000D02*
X57500000Y-112950000D01*
X57250000Y-112600000D02*
X56750000Y-112600000D01*
X57500000Y-111600000D02*
X57250000Y-112600000D01*
X57500000Y-112950000D02*
X57500000Y-117250000D01*
X57500000Y-117250000D02*
X56750000Y-117250000D01*
X58000000Y-111600000D02*
X61000000Y-111600000D01*
X58000000Y-112950000D02*
X58750000Y-112950000D01*
X58000000Y-117250000D02*
X58000000Y-112950000D01*
X58250000Y-112600000D02*
X58000000Y-111600000D01*
X58750000Y-112600000D02*
X58250000Y-112600000D01*
X58750000Y-112950000D02*
X58750000Y-112600000D01*
X58750000Y-117250000D02*
X58000000Y-117250000D01*
X60250000Y-112600000D02*
X60250000Y-112950000D01*
X60250000Y-112950000D02*
X61000000Y-112950000D01*
X60750000Y-112600000D02*
X60250000Y-112600000D01*
X61000000Y-111600000D02*
X60750000Y-112600000D01*
X61000000Y-112950000D02*
X61000000Y-117250000D01*
X61000000Y-117250000D02*
X60250000Y-117250000D01*
X61500000Y-111600000D02*
X64500000Y-111600000D01*
X61500000Y-112950000D02*
X62250000Y-112950000D01*
X61500000Y-117250000D02*
X61500000Y-112950000D01*
X61750000Y-112600000D02*
X61500000Y-111600000D01*
X62250000Y-112600000D02*
X61750000Y-112600000D01*
X62250000Y-112950000D02*
X62250000Y-112600000D01*
X62250000Y-117250000D02*
X61500000Y-117250000D01*
X63750000Y-112600000D02*
X63750000Y-112950000D01*
X63750000Y-112950000D02*
X64500000Y-112950000D01*
X64250000Y-112600000D02*
X63750000Y-112600000D01*
X64500000Y-111600000D02*
X64250000Y-112600000D01*
X64500000Y-112950000D02*
X64500000Y-117250000D01*
X64500000Y-117250000D02*
X63750000Y-117250000D01*
X65000000Y-111600000D02*
X68000000Y-111600000D01*
X65000000Y-112950000D02*
X65750000Y-112950000D01*
X65000000Y-117250000D02*
X65000000Y-112950000D01*
X65250000Y-112600000D02*
X65000000Y-111600000D01*
X65750000Y-112600000D02*
X65250000Y-112600000D01*
X65750000Y-112950000D02*
X65750000Y-112600000D01*
X65750000Y-117250000D02*
X65000000Y-117250000D01*
X67250000Y-112600000D02*
X67250000Y-112950000D01*
X67250000Y-112950000D02*
X68000000Y-112950000D01*
X67750000Y-112600000D02*
X67250000Y-112600000D01*
X68000000Y-111600000D02*
X67750000Y-112600000D01*
X68000000Y-112950000D02*
X68000000Y-117250000D01*
X68000000Y-117250000D02*
X67250000Y-117250000D01*
X69060000Y-110640000D02*
X53440000Y-110640000D01*
X69060000Y-118110000D02*
X69060000Y-110640000D01*
X56749647Y-117249845D02*
G75*
G03*
X55250000Y-117250000I-749647J-1700155D01*
G01*
X60249647Y-117249845D02*
G75*
G03*
X58750000Y-117250000I-749647J-1700155D01*
G01*
X63749647Y-117249845D02*
G75*
G03*
X62250000Y-117250000I-749647J-1700155D01*
G01*
X67249647Y-117249845D02*
G75*
G03*
X65750000Y-117250000I-749647J-1700155D01*
G01*
%TO.C,J21*%
X35070000Y-109430000D02*
X35070000Y-108100000D01*
X36400000Y-109430000D02*
X35070000Y-109430000D01*
X37670000Y-109430000D02*
X42810000Y-109430000D01*
X37670000Y-109430000D02*
X37670000Y-106770000D01*
X42810000Y-109430000D02*
X42810000Y-106770000D01*
X37670000Y-106770000D02*
X42810000Y-106770000D01*
%TO.C,J14*%
X45755000Y-81570000D02*
X45755000Y-82900000D01*
X44425000Y-81570000D02*
X45755000Y-81570000D01*
X43155000Y-81570000D02*
X38015000Y-81570000D01*
X43155000Y-81570000D02*
X43155000Y-84230000D01*
X38015000Y-81570000D02*
X38015000Y-84230000D01*
X43155000Y-84230000D02*
X38015000Y-84230000D01*
%TO.C,J24*%
X40170000Y-97745000D02*
X41500000Y-97745000D01*
X40170000Y-99075000D02*
X40170000Y-97745000D01*
X40170000Y-100345000D02*
X40170000Y-105485000D01*
X40170000Y-100345000D02*
X42830000Y-100345000D01*
X40170000Y-105485000D02*
X42830000Y-105485000D01*
X42830000Y-100345000D02*
X42830000Y-105485000D01*
%TO.C,R18*%
X27479724Y-92522500D02*
X26970276Y-92522500D01*
X27479724Y-91477500D02*
X26970276Y-91477500D01*
%TO.C,J20*%
X122455000Y-106570000D02*
X122455000Y-107900000D01*
X121125000Y-106570000D02*
X122455000Y-106570000D01*
X119855000Y-106570000D02*
X114715000Y-106570000D01*
X119855000Y-106570000D02*
X119855000Y-109230000D01*
X114715000Y-106570000D02*
X114715000Y-109230000D01*
X119855000Y-109230000D02*
X114715000Y-109230000D01*
%TO.C,R34*%
X97445276Y-102437500D02*
X97954724Y-102437500D01*
X97445276Y-103482500D02*
X97954724Y-103482500D01*
%TO.C,D11*%
X95460000Y-101095000D02*
X95460000Y-99625000D01*
X95460000Y-99625000D02*
X93000000Y-99625000D01*
X93000000Y-101095000D02*
X95460000Y-101095000D01*
D12*
%TO.C,U5*%
X139500000Y-80900000D02*
X148400000Y-80900000D01*
X139500000Y-88800000D02*
X139500000Y-80900000D01*
X139500000Y-88800000D02*
X141000000Y-88800000D01*
X139500000Y-93200000D02*
X139500000Y-88800000D01*
X139500000Y-101100000D02*
X139500000Y-93200000D01*
X141000000Y-88800000D02*
X141000000Y-93200000D01*
X141000000Y-93200000D02*
X139500000Y-93200000D01*
X141225000Y-85285000D02*
X141225000Y-86555000D01*
X148500000Y-80900000D02*
X148500000Y-101100000D01*
X148500000Y-101100000D02*
X139500000Y-101100000D01*
D11*
%TO.C,L2*%
X104270000Y-64600000D02*
G75*
G03*
X104270000Y-64600000I-4870000J0D01*
G01*
%TO.C,J13*%
X88170000Y-96630000D02*
X89500000Y-96630000D01*
X88170000Y-97960000D02*
X88170000Y-96630000D01*
X88170000Y-99230000D02*
X88170000Y-106910000D01*
X88170000Y-99230000D02*
X90830000Y-99230000D01*
X88170000Y-106910000D02*
X90830000Y-106910000D01*
X90830000Y-99230000D02*
X90830000Y-106910000D01*
%TO.C,D16*%
X122200000Y-58450000D02*
X122200000Y-60150000D01*
X122200000Y-58450000D02*
X124750000Y-58450000D01*
X122200000Y-60150000D02*
X124750000Y-60150000D01*
%TO.C,J26*%
X107345000Y-46330000D02*
X107345000Y-45000000D01*
X108675000Y-46330000D02*
X107345000Y-46330000D01*
X109945000Y-46330000D02*
X115085000Y-46330000D01*
X109945000Y-46330000D02*
X109945000Y-43670000D01*
X115085000Y-46330000D02*
X115085000Y-43670000D01*
X109945000Y-43670000D02*
X115085000Y-43670000D01*
%TO.C,R33*%
X97445276Y-99837500D02*
X97954724Y-99837500D01*
X97445276Y-100882500D02*
X97954724Y-100882500D01*
%TO.C,D12*%
X95460000Y-103695000D02*
X95460000Y-102225000D01*
X95460000Y-102225000D02*
X93000000Y-102225000D01*
X93000000Y-103695000D02*
X95460000Y-103695000D01*
D13*
%TO.C,J7*%
X25950000Y-96300000D02*
X24195000Y-96300000D01*
X25950000Y-96300000D02*
X25950000Y-96380000D01*
X21650000Y-96300000D02*
X22005000Y-96300000D01*
X21650000Y-96300000D02*
X21650000Y-103700000D01*
X25950000Y-103620000D02*
X25950000Y-103700000D01*
X24195000Y-103700000D02*
X25950000Y-103700000D01*
X21650000Y-103700000D02*
X22005000Y-103700000D01*
D14*
X27300000Y-98650000D02*
G75*
G03*
X27300000Y-98650000I-100000J0D01*
G01*
D11*
%TO.C,J27*%
X113970000Y-57470000D02*
X115300000Y-57470000D01*
X113970000Y-58800000D02*
X113970000Y-57470000D01*
X113970000Y-60070000D02*
X113970000Y-70290000D01*
X113970000Y-60070000D02*
X116630000Y-60070000D01*
X113970000Y-70290000D02*
X116630000Y-70290000D01*
X116630000Y-60070000D02*
X116630000Y-70290000D01*
%TO.C,J28*%
X128230000Y-51855000D02*
X126900000Y-51855000D01*
X128230000Y-50525000D02*
X128230000Y-51855000D01*
X128230000Y-49255000D02*
X128230000Y-44115000D01*
X128230000Y-49255000D02*
X125570000Y-49255000D01*
X128230000Y-44115000D02*
X125570000Y-44115000D01*
X125570000Y-49255000D02*
X125570000Y-44115000D01*
%TO.C,J25*%
X89470000Y-79770000D02*
X90800000Y-79770000D01*
X89470000Y-81100000D02*
X89470000Y-79770000D01*
X89470000Y-82370000D02*
X89470000Y-87510000D01*
X89470000Y-82370000D02*
X92130000Y-82370000D01*
X89470000Y-87510000D02*
X92130000Y-87510000D01*
X92130000Y-82370000D02*
X92130000Y-87510000D01*
%TD*%
M02*
