%TF.GenerationSoftware,KiCad,Pcbnew,7.0.9-7.0.9~ubuntu22.04.1*%
%TF.CreationDate,2023-11-29T19:20:40+01:00*%
%TF.ProjectId,battery-management-system,62617474-6572-4792-9d6d-616e6167656d,rev?*%
%TF.SameCoordinates,Original*%
%TF.FileFunction,Soldermask,Top*%
%TF.FilePolarity,Negative*%
%FSLAX46Y46*%
G04 Gerber Fmt 4.6, Leading zero omitted, Abs format (unit mm)*
G04 Created by KiCad (PCBNEW 7.0.9-7.0.9~ubuntu22.04.1) date 2023-11-29 19:20:40*
%MOMM*%
%LPD*%
G01*
G04 APERTURE LIST*
G04 Aperture macros list*
%AMRoundRect*
0 Rectangle with rounded corners*
0 $1 Rounding radius*
0 $2 $3 $4 $5 $6 $7 $8 $9 X,Y pos of 4 corners*
0 Add a 4 corners polygon primitive as box body*
4,1,4,$2,$3,$4,$5,$6,$7,$8,$9,$2,$3,0*
0 Add four circle primitives for the rounded corners*
1,1,$1+$1,$2,$3*
1,1,$1+$1,$4,$5*
1,1,$1+$1,$6,$7*
1,1,$1+$1,$8,$9*
0 Add four rect primitives between the rounded corners*
20,1,$1+$1,$2,$3,$4,$5,0*
20,1,$1+$1,$4,$5,$6,$7,0*
20,1,$1+$1,$6,$7,$8,$9,0*
20,1,$1+$1,$8,$9,$2,$3,0*%
G04 Aperture macros list end*
%ADD10C,3.500000*%
%ADD11RoundRect,0.237500X0.250000X0.237500X-0.250000X0.237500X-0.250000X-0.237500X0.250000X-0.237500X0*%
%ADD12C,2.000000*%
%ADD13RoundRect,0.250000X-0.650000X-1.550000X0.650000X-1.550000X0.650000X1.550000X-0.650000X1.550000X0*%
%ADD14O,1.800000X3.600000*%
%ADD15R,0.600000X0.450000*%
%ADD16RoundRect,0.237500X0.287500X0.237500X-0.287500X0.237500X-0.287500X-0.237500X0.287500X-0.237500X0*%
%ADD17C,6.800000*%
%ADD18C,12.800000*%
%ADD19R,1.700000X1.700000*%
%ADD20O,1.700000X1.700000*%
%ADD21C,1.500000*%
%ADD22C,2.600000*%
%ADD23RoundRect,0.237500X-0.250000X-0.237500X0.250000X-0.237500X0.250000X0.237500X-0.250000X0.237500X0*%
%ADD24C,2.083600*%
G04 APERTURE END LIST*
D10*
%TO.C,F1*%
X42000000Y-42000000D03*
X42000000Y-47080000D03*
X42000000Y-51140000D03*
X42000000Y-56220000D03*
%TD*%
D11*
%TO.C,R19*%
X24712500Y-94500000D03*
X22887500Y-94500000D03*
%TD*%
D12*
%TO.C,SW6*%
X87000000Y-41080000D03*
X87000000Y-46160000D03*
X87000000Y-51240000D03*
X87000000Y-56320000D03*
%TD*%
D13*
%TO.C,J9*%
X106000000Y-115000000D03*
D14*
X109500000Y-115000000D03*
X113000000Y-115000000D03*
X116500000Y-115000000D03*
X120000000Y-115000000D03*
%TD*%
D15*
%TO.C,D17*%
X122650000Y-63000000D03*
X124750000Y-63000000D03*
%TD*%
D13*
%TO.C,J18*%
X89500000Y-115000000D03*
D14*
X93000000Y-115000000D03*
X96500000Y-115000000D03*
X100000000Y-115000000D03*
%TD*%
D16*
%TO.C,D7*%
X24675000Y-92800000D03*
X22925000Y-92800000D03*
%TD*%
D13*
%TO.C,J15*%
X39000000Y-115000000D03*
D14*
X42500000Y-115000000D03*
X46000000Y-115000000D03*
X49500000Y-115000000D03*
%TD*%
D17*
%TO.C,J5*%
X122000000Y-30000000D03*
D18*
X122000000Y-30000000D03*
%TD*%
D16*
%TO.C,D6*%
X24675000Y-89400000D03*
X22925000Y-89400000D03*
%TD*%
D19*
%TO.C,J19*%
X111400000Y-69000000D03*
D20*
X108860000Y-69000000D03*
X106320000Y-69000000D03*
%TD*%
D12*
%TO.C,SW3*%
X98300000Y-41080000D03*
X98300000Y-46160000D03*
X98300000Y-51240000D03*
X98300000Y-56320000D03*
%TD*%
D10*
%TO.C,F2*%
X42000000Y-63000000D03*
X42000000Y-68080000D03*
X42000000Y-72140000D03*
X42000000Y-77220000D03*
%TD*%
D21*
%TO.C,RESET1*%
X146540000Y-76540000D03*
X146540000Y-71460000D03*
X141460000Y-76540000D03*
X141460000Y-71460000D03*
%TD*%
D12*
%TO.C,C32*%
X66800000Y-95800000D03*
X61800000Y-105800000D03*
X71800000Y-105800000D03*
%TD*%
D15*
%TO.C,D18*%
X122550000Y-66800000D03*
X124650000Y-66800000D03*
%TD*%
D17*
%TO.C,J1*%
X46000000Y-30000000D03*
D18*
X46000000Y-30000000D03*
%TD*%
D17*
%TO.C,J10*%
X30000000Y-72300000D03*
D18*
X30000000Y-72300000D03*
%TD*%
D22*
%TO.C,L1*%
X35800000Y-89900000D03*
X30800000Y-89900000D03*
%TD*%
D15*
%TO.C,D19*%
X122550000Y-70400000D03*
X124650000Y-70400000D03*
%TD*%
D12*
%TO.C,C30*%
X66800000Y-63800000D03*
X61800000Y-73800000D03*
X71800000Y-73800000D03*
%TD*%
%TO.C,SW1*%
X103800000Y-41080000D03*
X103800000Y-46160000D03*
X103800000Y-51240000D03*
X103800000Y-56320000D03*
%TD*%
D19*
%TO.C,J22*%
X119300000Y-67200000D03*
D20*
X119300000Y-69740000D03*
X119300000Y-72280000D03*
X119300000Y-74820000D03*
X119300000Y-77360000D03*
%TD*%
D16*
%TO.C,D10*%
X94675000Y-97960000D03*
X92925000Y-97960000D03*
%TD*%
D19*
%TO.C,J11*%
X95975000Y-108000000D03*
D20*
X98515000Y-108000000D03*
X101055000Y-108000000D03*
%TD*%
D23*
%TO.C,R32*%
X96787500Y-97960000D03*
X98612500Y-97960000D03*
%TD*%
D19*
%TO.C,J12*%
X123000000Y-84000000D03*
D20*
X123000000Y-86540000D03*
X123000000Y-89080000D03*
%TD*%
D13*
%TO.C,J17*%
X72767500Y-115000000D03*
D14*
X76267500Y-115000000D03*
X79767500Y-115000000D03*
X83267500Y-115000000D03*
%TD*%
D12*
%TO.C,C31*%
X66800000Y-79800000D03*
X61800000Y-89800000D03*
X71800000Y-89800000D03*
%TD*%
D19*
%TO.C,J23*%
X91900000Y-64375000D03*
D20*
X91900000Y-61835000D03*
%TD*%
D13*
%TO.C,J16*%
X56000000Y-115000000D03*
D14*
X59500000Y-115000000D03*
X63000000Y-115000000D03*
X66500000Y-115000000D03*
%TD*%
D19*
%TO.C,J21*%
X36400000Y-108100000D03*
D20*
X38940000Y-108100000D03*
X41480000Y-108100000D03*
%TD*%
D19*
%TO.C,J14*%
X44425000Y-82900000D03*
D20*
X41885000Y-82900000D03*
X39345000Y-82900000D03*
%TD*%
D17*
%TO.C,J6*%
X30000000Y-46000000D03*
D18*
X30000000Y-46000000D03*
%TD*%
D19*
%TO.C,J24*%
X41500000Y-99075000D03*
D20*
X41500000Y-101615000D03*
X41500000Y-104155000D03*
%TD*%
D11*
%TO.C,R18*%
X24712500Y-91100000D03*
X22887500Y-91100000D03*
%TD*%
D17*
%TO.C,J3*%
X84000000Y-30000000D03*
D18*
X84000000Y-30000000D03*
%TD*%
D19*
%TO.C,J20*%
X121125000Y-107900000D03*
D20*
X118585000Y-107900000D03*
X116045000Y-107900000D03*
%TD*%
D18*
%TO.C,H2*%
X28000000Y-112000000D03*
%TD*%
D23*
%TO.C,R34*%
X96787500Y-102960000D03*
X98612500Y-102960000D03*
%TD*%
D18*
%TO.C,H3*%
X142000000Y-112000000D03*
%TD*%
D16*
%TO.C,D11*%
X94675000Y-100360000D03*
X92925000Y-100360000D03*
%TD*%
D12*
%TO.C,SW2*%
X92600000Y-41080000D03*
X92600000Y-46160000D03*
X92600000Y-51240000D03*
X92600000Y-56320000D03*
%TD*%
D24*
%TO.C,U5*%
X142730000Y-88460000D03*
X142730000Y-91000000D03*
X142730000Y-96080000D03*
X145270000Y-96080000D03*
X142730000Y-93540000D03*
X145270000Y-88460000D03*
X145270000Y-85920000D03*
X145270000Y-91000000D03*
X145270000Y-93540000D03*
X142730000Y-85920000D03*
%TD*%
D17*
%TO.C,J2*%
X65000000Y-30000000D03*
D18*
X65000000Y-30000000D03*
%TD*%
D22*
%TO.C,L2*%
X101900000Y-64600000D03*
X96900000Y-64600000D03*
%TD*%
D19*
%TO.C,J13*%
X89500000Y-97960000D03*
D20*
X89500000Y-100500000D03*
X89500000Y-103040000D03*
X89500000Y-105580000D03*
%TD*%
D15*
%TO.C,D16*%
X122650000Y-59300000D03*
X124750000Y-59300000D03*
%TD*%
D19*
%TO.C,J26*%
X108675000Y-45000000D03*
D20*
X111215000Y-45000000D03*
X113755000Y-45000000D03*
%TD*%
D23*
%TO.C,R33*%
X96787500Y-100360000D03*
X98612500Y-100360000D03*
%TD*%
D16*
%TO.C,D12*%
X94675000Y-102960000D03*
X92925000Y-102960000D03*
%TD*%
D17*
%TO.C,J8*%
X141000000Y-30000000D03*
D18*
X141000000Y-30000000D03*
%TD*%
D19*
%TO.C,J27*%
X115300000Y-58800000D03*
D20*
X115300000Y-61340000D03*
X115300000Y-63880000D03*
X115300000Y-66420000D03*
X115300000Y-68960000D03*
%TD*%
D12*
%TO.C,SW7*%
X63400000Y-41080000D03*
X63400000Y-46160000D03*
X63400000Y-51240000D03*
X63400000Y-56320000D03*
%TD*%
%TO.C,SW8*%
X75300000Y-41080000D03*
X75300000Y-46160000D03*
X75300000Y-51240000D03*
X75300000Y-56320000D03*
%TD*%
D17*
%TO.C,J4*%
X103000000Y-30000000D03*
D18*
X103000000Y-30000000D03*
%TD*%
%TO.C,H1*%
X28000000Y-28000000D03*
%TD*%
D19*
%TO.C,J28*%
X126900000Y-50525000D03*
D20*
X126900000Y-47985000D03*
X126900000Y-45445000D03*
%TD*%
D12*
%TO.C,SW5*%
X69300000Y-41080000D03*
X69300000Y-46160000D03*
X69300000Y-51240000D03*
X69300000Y-56320000D03*
%TD*%
%TO.C,SW4*%
X81100000Y-41080000D03*
X81100000Y-46160000D03*
X81100000Y-51240000D03*
X81100000Y-56320000D03*
%TD*%
D19*
%TO.C,J25*%
X90800000Y-81100000D03*
D20*
X90800000Y-83640000D03*
X90800000Y-86180000D03*
%TD*%
M02*
