%TF.GenerationSoftware,KiCad,Pcbnew,7.0.9-7.0.9~ubuntu22.04.1*%
%TF.CreationDate,2023-11-29T19:20:39+01:00*%
%TF.ProjectId,battery-management-system,62617474-6572-4792-9d6d-616e6167656d,rev?*%
%TF.SameCoordinates,Original*%
%TF.FileFunction,Copper,L1,Top*%
%TF.FilePolarity,Positive*%
%FSLAX46Y46*%
G04 Gerber Fmt 4.6, Leading zero omitted, Abs format (unit mm)*
G04 Created by KiCad (PCBNEW 7.0.9-7.0.9~ubuntu22.04.1) date 2023-11-29 19:20:39*
%MOMM*%
%LPD*%
G01*
G04 APERTURE LIST*
G04 Aperture macros list*
%AMRoundRect*
0 Rectangle with rounded corners*
0 $1 Rounding radius*
0 $2 $3 $4 $5 $6 $7 $8 $9 X,Y pos of 4 corners*
0 Add a 4 corners polygon primitive as box body*
4,1,4,$2,$3,$4,$5,$6,$7,$8,$9,$2,$3,0*
0 Add four circle primitives for the rounded corners*
1,1,$1+$1,$2,$3*
1,1,$1+$1,$4,$5*
1,1,$1+$1,$6,$7*
1,1,$1+$1,$8,$9*
0 Add four rect primitives between the rounded corners*
20,1,$1+$1,$2,$3,$4,$5,0*
20,1,$1+$1,$4,$5,$6,$7,0*
20,1,$1+$1,$6,$7,$8,$9,0*
20,1,$1+$1,$8,$9,$2,$3,0*%
G04 Aperture macros list end*
%TA.AperFunction,ComponentPad*%
%ADD10C,3.500000*%
%TD*%
%TA.AperFunction,SMDPad,CuDef*%
%ADD11RoundRect,0.237500X0.250000X0.237500X-0.250000X0.237500X-0.250000X-0.237500X0.250000X-0.237500X0*%
%TD*%
%TA.AperFunction,ComponentPad*%
%ADD12C,2.000000*%
%TD*%
%TA.AperFunction,ComponentPad*%
%ADD13RoundRect,0.250000X-0.650000X-1.550000X0.650000X-1.550000X0.650000X1.550000X-0.650000X1.550000X0*%
%TD*%
%TA.AperFunction,ComponentPad*%
%ADD14O,1.800000X3.600000*%
%TD*%
%TA.AperFunction,SMDPad,CuDef*%
%ADD15R,0.600000X0.450000*%
%TD*%
%TA.AperFunction,SMDPad,CuDef*%
%ADD16RoundRect,0.237500X0.287500X0.237500X-0.287500X0.237500X-0.287500X-0.237500X0.287500X-0.237500X0*%
%TD*%
%TA.AperFunction,ComponentPad*%
%ADD17C,6.800000*%
%TD*%
%TA.AperFunction,SMDPad,CuDef*%
%ADD18C,12.800000*%
%TD*%
%TA.AperFunction,ComponentPad*%
%ADD19R,1.700000X1.700000*%
%TD*%
%TA.AperFunction,ComponentPad*%
%ADD20O,1.700000X1.700000*%
%TD*%
%TA.AperFunction,ComponentPad*%
%ADD21C,1.500000*%
%TD*%
%TA.AperFunction,ComponentPad*%
%ADD22C,2.600000*%
%TD*%
%TA.AperFunction,SMDPad,CuDef*%
%ADD23RoundRect,0.237500X-0.250000X-0.237500X0.250000X-0.237500X0.250000X0.237500X-0.250000X0.237500X0*%
%TD*%
%TA.AperFunction,ComponentPad*%
%ADD24C,12.800000*%
%TD*%
%TA.AperFunction,ComponentPad*%
%ADD25C,1.879600*%
%TD*%
%TA.AperFunction,SMDPad,CuDef*%
%ADD26R,1.350000X0.400000*%
%TD*%
%TA.AperFunction,ComponentPad*%
%ADD27O,1.000000X1.600000*%
%TD*%
%TA.AperFunction,ComponentPad*%
%ADD28O,1.600000X1.000000*%
%TD*%
%TA.AperFunction,SMDPad,CuDef*%
%ADD29R,1.550000X1.500000*%
%TD*%
%TA.AperFunction,ViaPad*%
%ADD30C,0.800000*%
%TD*%
%TA.AperFunction,ViaPad*%
%ADD31C,0.500000*%
%TD*%
%TA.AperFunction,ViaPad*%
%ADD32C,1.000000*%
%TD*%
%TA.AperFunction,ViaPad*%
%ADD33C,2.000000*%
%TD*%
%TA.AperFunction,Conductor*%
%ADD34C,0.250000*%
%TD*%
%TA.AperFunction,Conductor*%
%ADD35C,1.000000*%
%TD*%
%TA.AperFunction,Conductor*%
%ADD36C,2.000000*%
%TD*%
G04 APERTURE END LIST*
D10*
%TO.P,F1,1*%
%TO.N,Net-(J6-Pin_1)*%
X42000000Y-42000000D03*
X42000000Y-47080000D03*
%TO.P,F1,2*%
%TO.N,Net-(D13-K)*%
X42000000Y-51140000D03*
X42000000Y-56220000D03*
%TD*%
D11*
%TO.P,R19,1*%
%TO.N,/5V_USB*%
X24712500Y-94500000D03*
%TO.P,R19,2*%
%TO.N,Net-(D7-A)*%
X22887500Y-94500000D03*
%TD*%
D12*
%TO.P,SW6,1,-*%
%TO.N,/Battery Pack/CELL3_MINUS*%
X87000000Y-41080000D03*
%TO.P,SW6,2,+*%
%TO.N,/5V*%
X87000000Y-46160000D03*
%TO.P,SW6,6,-*%
%TO.N,/Cell Balancing/CELL3*%
X87000000Y-51240000D03*
%TO.P,SW6,7,+*%
%TO.N,Net-(Q11-S)*%
X87000000Y-56320000D03*
%TD*%
D13*
%TO.P,J9,1,Pin_1*%
%TO.N,GND*%
X106000000Y-115000000D03*
D14*
%TO.P,J9,2,Pin_2*%
%TO.N,/5V*%
X109500000Y-115000000D03*
%TO.P,J9,3,Pin_3*%
%TO.N,/5V_EXT*%
X113000000Y-115000000D03*
%TO.P,J9,4,Pin_4*%
%TO.N,/Interconnect/UART_RX*%
X116500000Y-115000000D03*
%TO.P,J9,5,Pin_5*%
%TO.N,/Interconnect/UART_TX*%
X120000000Y-115000000D03*
%TD*%
D15*
%TO.P,D17,1,K*%
%TO.N,/5V*%
X122650000Y-63000000D03*
%TO.P,D17,2,A*%
%TO.N,/Cell Balancing/CELL2*%
X124750000Y-63000000D03*
%TD*%
D13*
%TO.P,J18,1,Pin_1*%
%TO.N,/3V3*%
X89500000Y-115000000D03*
D14*
%TO.P,J18,2,Pin_2*%
%TO.N,/MCU/SCL*%
X93000000Y-115000000D03*
%TO.P,J18,3,Pin_3*%
%TO.N,/MCU/SDA*%
X96500000Y-115000000D03*
%TO.P,J18,4,Pin_4*%
%TO.N,GND*%
X100000000Y-115000000D03*
%TD*%
D16*
%TO.P,D7,1,K*%
%TO.N,Net-(D7-K)*%
X24675000Y-92800000D03*
%TO.P,D7,2,A*%
%TO.N,Net-(D7-A)*%
X22925000Y-92800000D03*
%TD*%
D13*
%TO.P,J15,1,Pin_1*%
%TO.N,/3V3*%
X39000000Y-115000000D03*
D14*
%TO.P,J15,2,Pin_2*%
%TO.N,/MCU/SCL*%
X42500000Y-115000000D03*
%TO.P,J15,3,Pin_3*%
%TO.N,/MCU/SDA*%
X46000000Y-115000000D03*
%TO.P,J15,4,Pin_4*%
%TO.N,GND*%
X49500000Y-115000000D03*
%TD*%
D17*
%TO.P,J5,1,Pin_1*%
%TO.N,/Battery Pack/CELL1_MINUS*%
X122000000Y-30000000D03*
D18*
X122000000Y-30000000D03*
%TD*%
D16*
%TO.P,D6,1,K*%
%TO.N,Net-(D6-K)*%
X24675000Y-89400000D03*
%TO.P,D6,2,A*%
%TO.N,Net-(D6-A)*%
X22925000Y-89400000D03*
%TD*%
D19*
%TO.P,J19,1,Pin_1*%
%TO.N,/CHARGE*%
X111400000Y-69000000D03*
D20*
%TO.P,J19,2,Pin_2*%
%TO.N,/DISCHARGE*%
X108860000Y-69000000D03*
%TO.P,J19,3,Pin_3*%
%TO.N,GND*%
X106320000Y-69000000D03*
%TD*%
D12*
%TO.P,SW3,1,-*%
%TO.N,/Battery Pack/CELL2_MINUS*%
X98300000Y-41080000D03*
%TO.P,SW3,2,+*%
%TO.N,/5V*%
X98300000Y-46160000D03*
%TO.P,SW3,6,-*%
%TO.N,/Cell Balancing/CELL2*%
X98300000Y-51240000D03*
%TO.P,SW3,7,+*%
%TO.N,Net-(Q11-S)*%
X98300000Y-56320000D03*
%TD*%
D10*
%TO.P,F2,1*%
%TO.N,Net-(J10-Pin_1)*%
X42000000Y-63000000D03*
X42000000Y-68080000D03*
%TO.P,F2,2*%
%TO.N,Net-(D14-K)*%
X42000000Y-72140000D03*
X42000000Y-77220000D03*
%TD*%
D21*
%TO.P,RESET1,1,A*%
%TO.N,GND*%
X146540000Y-76540000D03*
%TO.P,RESET1,2,A*%
X146540000Y-71460000D03*
%TO.P,RESET1,3,B*%
%TO.N,/MCU/NRST*%
X141460000Y-76540000D03*
%TO.P,RESET1,4,B*%
X141460000Y-71460000D03*
%TD*%
D12*
%TO.P,C32,1*%
%TO.N,/BALANCE_CAP_MINUS_RAW*%
X66800000Y-95800000D03*
%TO.P,C32,2*%
%TO.N,/BALANCE_CAP_PLUS_RAW*%
X61800000Y-105800000D03*
%TO.P,C32,3*%
X71800000Y-105800000D03*
%TD*%
D15*
%TO.P,D18,1,K*%
%TO.N,/5V*%
X122550000Y-66800000D03*
%TO.P,D18,2,A*%
%TO.N,/Cell Balancing/CELL3*%
X124650000Y-66800000D03*
%TD*%
D17*
%TO.P,J1,1,Pin_1*%
%TO.N,/Battery Pack/PACK*%
X46000000Y-30000000D03*
D18*
X46000000Y-30000000D03*
%TD*%
D17*
%TO.P,J10,1,Pin_1*%
%TO.N,Net-(J10-Pin_1)*%
X30000000Y-72300000D03*
D18*
X30000000Y-72300000D03*
%TD*%
D22*
%TO.P,L1,1,1*%
%TO.N,Net-(J24-Pin_1)*%
X35800000Y-89900000D03*
%TO.P,L1,2,2*%
%TO.N,Net-(U1-SW)*%
X30800000Y-89900000D03*
%TD*%
D15*
%TO.P,D19,1,K*%
%TO.N,/5V*%
X122550000Y-70400000D03*
%TO.P,D19,2,A*%
%TO.N,/Cell Balancing/CELL4*%
X124650000Y-70400000D03*
%TD*%
D12*
%TO.P,C30,1*%
%TO.N,/BALANCE_CAP_MINUS_RAW*%
X66800000Y-63800000D03*
%TO.P,C30,2*%
%TO.N,/BALANCE_CAP_PLUS_RAW*%
X61800000Y-73800000D03*
%TO.P,C30,3*%
X71800000Y-73800000D03*
%TD*%
%TO.P,SW1,1,-*%
%TO.N,/Battery Pack/CELL1_MINUS*%
X103800000Y-41080000D03*
%TO.P,SW1,2,+*%
%TO.N,/5V*%
X103800000Y-46160000D03*
%TO.P,SW1,6,-*%
%TO.N,/Cell Balancing/CELL1*%
X103800000Y-51240000D03*
%TO.P,SW1,7,+*%
%TO.N,Net-(Q11-S)*%
X103800000Y-56320000D03*
%TD*%
D19*
%TO.P,J22,1,Pin_1*%
%TO.N,/EN_CELL_BALANCING*%
X119300000Y-67200000D03*
D20*
%TO.P,J22,2,Pin_2*%
%TO.N,/CELL_BALANCING_A0*%
X119300000Y-69740000D03*
%TO.P,J22,3,Pin_3*%
%TO.N,/CELL_BALANCING_A1*%
X119300000Y-72280000D03*
%TO.P,J22,4,Pin_4*%
%TO.N,/LIMIT_BALANCING_CURRENT*%
X119300000Y-74820000D03*
%TO.P,J22,5,Pin_5*%
%TO.N,GND*%
X119300000Y-77360000D03*
%TD*%
D16*
%TO.P,D10,1,K*%
%TO.N,Net-(D10-K)*%
X94675000Y-97960000D03*
%TO.P,D10,2,A*%
%TO.N,/MCU/LED1*%
X92925000Y-97960000D03*
%TD*%
D19*
%TO.P,J11,1,Pin_1*%
%TO.N,/MCU/SCL*%
X95975000Y-108000000D03*
D20*
%TO.P,J11,2,Pin_2*%
%TO.N,/MCU/SDA*%
X98515000Y-108000000D03*
%TO.P,J11,3,Pin_3*%
%TO.N,GND*%
X101055000Y-108000000D03*
%TD*%
D23*
%TO.P,R32,1*%
%TO.N,Net-(D10-K)*%
X96787500Y-97960000D03*
%TO.P,R32,2*%
%TO.N,GND*%
X98612500Y-97960000D03*
%TD*%
D19*
%TO.P,J12,1,Pin_1*%
%TO.N,/3V3*%
X123000000Y-84000000D03*
D20*
%TO.P,J12,2,Pin_2*%
%TO.N,Net-(J12-Pin_2)*%
X123000000Y-86540000D03*
%TO.P,J12,3,Pin_3*%
%TO.N,GND*%
X123000000Y-89080000D03*
%TD*%
D13*
%TO.P,J17,1,Pin_1*%
%TO.N,/3V3*%
X72767500Y-115000000D03*
D14*
%TO.P,J17,2,Pin_2*%
%TO.N,/MCU/SCL*%
X76267500Y-115000000D03*
%TO.P,J17,3,Pin_3*%
%TO.N,/MCU/SDA*%
X79767500Y-115000000D03*
%TO.P,J17,4,Pin_4*%
%TO.N,GND*%
X83267500Y-115000000D03*
%TD*%
D12*
%TO.P,C31,1*%
%TO.N,/BALANCE_CAP_MINUS_RAW*%
X66800000Y-79800000D03*
%TO.P,C31,2*%
%TO.N,/BALANCE_CAP_PLUS_RAW*%
X61800000Y-89800000D03*
%TO.P,C31,3*%
X71800000Y-89800000D03*
%TD*%
D19*
%TO.P,J23,1,Pin_1*%
%TO.N,Net-(J23-Pin_1)*%
X91900000Y-64375000D03*
D20*
%TO.P,J23,2,Pin_2*%
%TO.N,/BALANCE_CAP_MINUS_RAW*%
X91900000Y-61835000D03*
%TD*%
D13*
%TO.P,J16,1,Pin_1*%
%TO.N,/3V3*%
X56000000Y-115000000D03*
D14*
%TO.P,J16,2,Pin_2*%
%TO.N,/MCU/SCL*%
X59500000Y-115000000D03*
%TO.P,J16,3,Pin_3*%
%TO.N,/MCU/SDA*%
X63000000Y-115000000D03*
%TO.P,J16,4,Pin_4*%
%TO.N,GND*%
X66500000Y-115000000D03*
%TD*%
D19*
%TO.P,J21,1,Pin_1*%
%TO.N,/MCU/UART_USB_TX*%
X36400000Y-108100000D03*
D20*
%TO.P,J21,2,Pin_2*%
%TO.N,/MCU/UART_USB_RX*%
X38940000Y-108100000D03*
%TO.P,J21,3,Pin_3*%
%TO.N,GND*%
X41480000Y-108100000D03*
%TD*%
D19*
%TO.P,J14,1,Pin_1*%
%TO.N,Net-(J14-Pin_1)*%
X44425000Y-82900000D03*
D20*
%TO.P,J14,2,Pin_2*%
%TO.N,/-5V*%
X41885000Y-82900000D03*
%TO.P,J14,3,Pin_3*%
%TO.N,GND*%
X39345000Y-82900000D03*
%TD*%
D17*
%TO.P,J6,1,Pin_1*%
%TO.N,Net-(J6-Pin_1)*%
X30000000Y-46000000D03*
D18*
X30000000Y-46000000D03*
%TD*%
D19*
%TO.P,J24,1,Pin_1*%
%TO.N,Net-(J24-Pin_1)*%
X41500000Y-99075000D03*
D20*
%TO.P,J24,2,Pin_2*%
%TO.N,/3V3*%
X41500000Y-101615000D03*
%TO.P,J24,3,Pin_3*%
%TO.N,GND*%
X41500000Y-104155000D03*
%TD*%
D11*
%TO.P,R18,1*%
%TO.N,/5V_USB*%
X24712500Y-91100000D03*
%TO.P,R18,2*%
%TO.N,Net-(D6-A)*%
X22887500Y-91100000D03*
%TD*%
D17*
%TO.P,J3,1,Pin_1*%
%TO.N,/Battery Pack/CELL3_MINUS*%
X84000000Y-30000000D03*
D18*
X84000000Y-30000000D03*
%TD*%
D19*
%TO.P,J20,1,Pin_1*%
%TO.N,/Interconnect/UART_TX*%
X121125000Y-107900000D03*
D20*
%TO.P,J20,2,Pin_2*%
%TO.N,/Interconnect/UART_RX*%
X118585000Y-107900000D03*
%TO.P,J20,3,Pin_3*%
%TO.N,GND*%
X116045000Y-107900000D03*
%TD*%
D24*
%TO.P,H2,1,1*%
%TO.N,GND*%
X28000000Y-112000000D03*
%TD*%
D23*
%TO.P,R34,1*%
%TO.N,Net-(D12-K)*%
X96787500Y-102960000D03*
%TO.P,R34,2*%
%TO.N,GND*%
X98612500Y-102960000D03*
%TD*%
D24*
%TO.P,H3,1,1*%
%TO.N,GND*%
X142000000Y-112000000D03*
%TD*%
D16*
%TO.P,D11,1,K*%
%TO.N,Net-(D11-K)*%
X94675000Y-100360000D03*
%TO.P,D11,2,A*%
%TO.N,/MCU/LED2*%
X92925000Y-100360000D03*
%TD*%
D12*
%TO.P,SW2,1,-*%
%TO.N,/Battery Pack/CELL2_MINUS*%
X92600000Y-41080000D03*
%TO.P,SW2,2,+*%
%TO.N,/5V*%
X92600000Y-46160000D03*
%TO.P,SW2,6,-*%
%TO.N,/Cell Balancing/CELL1*%
X92600000Y-51240000D03*
%TO.P,SW2,7,+*%
%TO.N,/BALANCE_CAP_PLUS_RAW*%
X92600000Y-56320000D03*
%TD*%
D25*
%TO.P,U5,GND@1,GND*%
%TO.N,GND*%
X142730000Y-88460000D03*
%TO.P,U5,GND@2,GND*%
X142730000Y-91000000D03*
%TO.P,U5,GND@3,GND*%
X142730000Y-96080000D03*
%TO.P,U5,RESET,RESET*%
%TO.N,/MCU/NRST*%
X145270000Y-96080000D03*
%TO.P,U5,RXI,RXI*%
%TO.N,unconnected-(U5-PadRXI)*%
X142730000Y-93540000D03*
%TO.P,U5,SWCLK,SWCLK*%
%TO.N,/MCU/SWCLK*%
X145270000Y-88460000D03*
%TO.P,U5,SWDIO,SWDIO*%
%TO.N,/MCU/SWDIO*%
X145270000Y-85920000D03*
%TO.P,U5,SWO,SWO*%
%TO.N,unconnected-(U5-PadSWO)*%
X145270000Y-91000000D03*
%TO.P,U5,TXO,TXO*%
%TO.N,unconnected-(U5-PadTXO)*%
X145270000Y-93540000D03*
%TO.P,U5,VREF,VREF*%
%TO.N,/3V3*%
X142730000Y-85920000D03*
%TD*%
D17*
%TO.P,J2,1,Pin_1*%
%TO.N,/Battery Pack/CELL4_MINUS*%
X65000000Y-30000000D03*
D18*
X65000000Y-30000000D03*
%TD*%
D22*
%TO.P,L2,1,1*%
%TO.N,Net-(J25-Pin_1)*%
X101900000Y-64600000D03*
%TO.P,L2,2,2*%
%TO.N,Net-(U2-SW)*%
X96900000Y-64600000D03*
%TD*%
D19*
%TO.P,J13,1,Pin_1*%
%TO.N,/MCU/LED1*%
X89500000Y-97960000D03*
D20*
%TO.P,J13,2,Pin_2*%
%TO.N,/MCU/LED2*%
X89500000Y-100500000D03*
%TO.P,J13,3,Pin_3*%
%TO.N,/MCU/LED3*%
X89500000Y-103040000D03*
%TO.P,J13,4,Pin_4*%
%TO.N,GND*%
X89500000Y-105580000D03*
%TD*%
D15*
%TO.P,D16,1,K*%
%TO.N,/5V*%
X122650000Y-59300000D03*
%TO.P,D16,2,A*%
%TO.N,/Cell Balancing/CELL1*%
X124750000Y-59300000D03*
%TD*%
D19*
%TO.P,J26,1,Pin_1*%
%TO.N,Net-(D25-K)*%
X108675000Y-45000000D03*
D20*
%TO.P,J26,2,Pin_2*%
%TO.N,/18V*%
X111215000Y-45000000D03*
%TO.P,J26,3,Pin_3*%
%TO.N,GND*%
X113755000Y-45000000D03*
%TD*%
D23*
%TO.P,R33,1*%
%TO.N,Net-(D11-K)*%
X96787500Y-100360000D03*
%TO.P,R33,2*%
%TO.N,GND*%
X98612500Y-100360000D03*
%TD*%
D16*
%TO.P,D12,1,K*%
%TO.N,Net-(D12-K)*%
X94675000Y-102960000D03*
%TO.P,D12,2,A*%
%TO.N,/MCU/LED3*%
X92925000Y-102960000D03*
%TD*%
D26*
%TO.P,J7,1,VCC*%
%TO.N,Net-(J7-VCC)*%
X24275000Y-98700000D03*
%TO.P,J7,2,D-*%
%TO.N,Net-(J7-D-)*%
X24275000Y-99350000D03*
%TO.P,J7,3,D+*%
%TO.N,Net-(J7-D+)*%
X24275000Y-100000000D03*
%TO.P,J7,4,ID*%
%TO.N,unconnected-(J7-ID-Pad4)*%
X24275000Y-100650000D03*
%TO.P,J7,5,GND*%
%TO.N,GND*%
X24275000Y-101300000D03*
D27*
%TO.P,J7,S1,SHIELD*%
X24300000Y-97500000D03*
%TO.P,J7,S2,SHIELD*%
X24300000Y-102500000D03*
D28*
%TO.P,J7,S3,SHIELD*%
X21600000Y-96475000D03*
D29*
%TO.P,J7,S4,SHIELD*%
X21600000Y-99000000D03*
%TO.P,J7,S5,SHIELD*%
X21600000Y-101000000D03*
D28*
%TO.P,J7,S6,SHIELD*%
X21600000Y-103525000D03*
%TD*%
D17*
%TO.P,J8,1,Pin_1*%
%TO.N,GND*%
X141000000Y-30000000D03*
D18*
X141000000Y-30000000D03*
%TD*%
D19*
%TO.P,J27,1,Pin_1*%
%TO.N,/Cell Balancing/CELL1*%
X115300000Y-58800000D03*
D20*
%TO.P,J27,2,Pin_2*%
%TO.N,/Cell Balancing/CELL2*%
X115300000Y-61340000D03*
%TO.P,J27,3,Pin_3*%
%TO.N,/Cell Balancing/CELL3*%
X115300000Y-63880000D03*
%TO.P,J27,4,Pin_4*%
%TO.N,/Cell Balancing/CELL4*%
X115300000Y-66420000D03*
%TO.P,J27,5,Pin_5*%
%TO.N,GND*%
X115300000Y-68960000D03*
%TD*%
D12*
%TO.P,SW7,1,-*%
%TO.N,/Battery Pack/PACK*%
X63400000Y-41080000D03*
%TO.P,SW7,2,+*%
%TO.N,/5V*%
X63400000Y-46160000D03*
%TO.P,SW7,6,-*%
%TO.N,/Cell Balancing/CELL4*%
X63400000Y-51240000D03*
%TO.P,SW7,7,+*%
%TO.N,/BALANCE_CAP_PLUS_RAW*%
X63400000Y-56320000D03*
%TD*%
%TO.P,SW8,1,-*%
%TO.N,/Battery Pack/CELL4_MINUS*%
X75300000Y-41080000D03*
%TO.P,SW8,2,+*%
%TO.N,/5V*%
X75300000Y-46160000D03*
%TO.P,SW8,6,-*%
%TO.N,/Cell Balancing/CELL4*%
X75300000Y-51240000D03*
%TO.P,SW8,7,+*%
%TO.N,Net-(Q11-S)*%
X75300000Y-56320000D03*
%TD*%
D17*
%TO.P,J4,1,Pin_1*%
%TO.N,/Battery Pack/CELL2_MINUS*%
X103000000Y-30000000D03*
D18*
X103000000Y-30000000D03*
%TD*%
D24*
%TO.P,H1,1,1*%
%TO.N,GND*%
X28000000Y-28000000D03*
%TD*%
D19*
%TO.P,J28,1,Pin_1*%
%TO.N,/Power Supply/9V4*%
X126900000Y-50525000D03*
D20*
%TO.P,J28,2,Pin_2*%
%TO.N,Net-(D24-A)*%
X126900000Y-47985000D03*
%TO.P,J28,3,Pin_3*%
%TO.N,GND*%
X126900000Y-45445000D03*
%TD*%
D12*
%TO.P,SW5,1,-*%
%TO.N,/Battery Pack/CELL4_MINUS*%
X69300000Y-41080000D03*
%TO.P,SW5,2,+*%
%TO.N,/5V*%
X69300000Y-46160000D03*
%TO.P,SW5,6,-*%
%TO.N,/Cell Balancing/CELL3*%
X69300000Y-51240000D03*
%TO.P,SW5,7,+*%
%TO.N,/BALANCE_CAP_PLUS_RAW*%
X69300000Y-56320000D03*
%TD*%
%TO.P,SW4,1,-*%
%TO.N,/Battery Pack/CELL3_MINUS*%
X81100000Y-41080000D03*
%TO.P,SW4,2,+*%
%TO.N,/5V*%
X81100000Y-46160000D03*
%TO.P,SW4,6,-*%
%TO.N,/Cell Balancing/CELL2*%
X81100000Y-51240000D03*
%TO.P,SW4,7,+*%
%TO.N,/BALANCE_CAP_PLUS_RAW*%
X81100000Y-56320000D03*
%TD*%
D19*
%TO.P,J25,1,Pin_1*%
%TO.N,Net-(J25-Pin_1)*%
X90800000Y-81100000D03*
D20*
%TO.P,J25,2,Pin_2*%
%TO.N,Net-(D20-A)*%
X90800000Y-83640000D03*
%TO.P,J25,3,Pin_3*%
%TO.N,GND*%
X90800000Y-86180000D03*
%TD*%
D30*
%TO.N,/-5V*%
X58800000Y-68100000D03*
D31*
X120200000Y-40700000D03*
X88000000Y-43900000D03*
X73700000Y-43400000D03*
X128212483Y-41187517D03*
D32*
X49700000Y-73800000D03*
D33*
%TO.N,GND*%
X23400000Y-63900000D03*
D30*
X129239831Y-41301484D03*
D32*
X56300000Y-76900000D03*
X88537715Y-77662285D03*
D31*
X123500000Y-67700000D03*
D30*
X87200000Y-38800000D03*
X114264751Y-84638705D03*
X109200000Y-95700000D03*
D31*
X68900000Y-54000000D03*
X120300000Y-63100000D03*
X31000000Y-98000000D03*
X36700000Y-97700000D03*
D33*
X96100000Y-61500000D03*
D32*
X109500000Y-53600000D03*
D30*
X108100000Y-36700000D03*
X63405799Y-59406299D03*
D33*
X40340820Y-94769001D03*
D32*
X133131250Y-84931250D03*
D31*
X125400000Y-40600000D03*
D32*
X125600000Y-94700000D03*
D30*
X117900000Y-54525500D03*
D31*
X112675500Y-42149500D03*
D32*
X76500000Y-73400000D03*
D30*
X58600000Y-61500000D03*
D31*
X131100000Y-59600000D03*
D30*
X113315825Y-80528022D03*
D33*
X78873498Y-62035134D03*
D31*
X36000000Y-99700000D03*
X123500000Y-63900000D03*
D32*
X53200000Y-75600000D03*
D33*
X23600000Y-80000000D03*
D30*
X109042185Y-87772866D03*
D31*
X123400000Y-60200000D03*
X123500000Y-71400000D03*
X128600000Y-63100000D03*
X62100000Y-45300000D03*
X75595000Y-107000000D03*
D32*
X94700000Y-77100000D03*
D33*
X40431250Y-89568750D03*
D31*
X54695000Y-105242500D03*
X98903721Y-101596279D03*
X116200000Y-39100000D03*
X31100000Y-99900000D03*
D33*
X104483099Y-65560855D03*
D31*
X49500000Y-38800000D03*
D30*
X113480106Y-90986171D03*
D33*
X46156547Y-99374500D03*
D31*
X54600000Y-88300000D03*
X68400000Y-38800000D03*
D33*
%TO.N,Net-(U1-SW)*%
X46000000Y-90100000D03*
X34080141Y-92053512D03*
D30*
%TO.N,/5V_USB*%
X28087701Y-91512299D03*
X28200000Y-93524500D03*
D33*
X63999500Y-79600000D03*
D31*
X36000000Y-96600000D03*
D30*
%TO.N,/3V3*%
X111500000Y-78400000D03*
X139200000Y-72900000D03*
D31*
X123200000Y-105600000D03*
X51800000Y-108800000D03*
X131700000Y-44900000D03*
X114100000Y-105500000D03*
D32*
X33800000Y-106900000D03*
D31*
X132400000Y-46200000D03*
X127300000Y-63200000D03*
X54400000Y-90900000D03*
D32*
X121900000Y-94600000D03*
D31*
X119600000Y-57500000D03*
X79500000Y-105200000D03*
%TO.N,Net-(J7-VCC)*%
X27000000Y-98000000D03*
D33*
%TO.N,Net-(D3-K)*%
X44399499Y-94272011D03*
X48250564Y-90267107D03*
X86300000Y-115800500D03*
D31*
%TO.N,Net-(D6-K)*%
X37300000Y-96600000D03*
%TO.N,Net-(D7-K)*%
X34800000Y-99700000D03*
%TO.N,/PACK_EXT*%
X63300000Y-49600000D03*
D33*
X53900000Y-64800000D03*
X47577263Y-82150498D03*
D31*
X59800000Y-53800000D03*
%TO.N,Net-(J7-D-)*%
X27000000Y-99700000D03*
%TO.N,Net-(J7-D+)*%
X27000000Y-101500000D03*
%TO.N,/MCU/UART_USB_RX*%
X38622500Y-101900000D03*
D30*
X104825049Y-89999549D03*
D31*
%TO.N,/MCU/UART_USB_TX*%
X36717500Y-101870000D03*
D30*
X105400000Y-90900000D03*
%TO.N,/Interconnect/UART_RX*%
X110300000Y-95600000D03*
%TO.N,Net-(J12-Pin_2)*%
X108200000Y-94300000D03*
X107500000Y-86323366D03*
X117822631Y-87522631D03*
D32*
%TO.N,Net-(U2-FB{slash}VOUT)*%
X90815676Y-73478329D03*
X85400000Y-76700000D03*
D30*
%TO.N,/MCU/SCL*%
X110904636Y-87904636D03*
%TO.N,/MCU/SDA*%
X111943750Y-82456250D03*
X110392676Y-89052992D03*
X113474500Y-83500000D03*
%TO.N,/MCU/SWDIO*%
X101673805Y-91500155D03*
X102541495Y-87979571D03*
X106488893Y-87789600D03*
X102000000Y-98000000D03*
%TO.N,/MCU/SWCLK*%
X102397945Y-96375346D03*
X104950500Y-86000000D03*
X108400000Y-85598866D03*
X103337299Y-89837299D03*
%TO.N,/Interconnect/UART_TX*%
X111300000Y-95700000D03*
D31*
%TO.N,/5V*%
X90900000Y-43000000D03*
D32*
X106910000Y-61010000D03*
X122450000Y-60199500D03*
D30*
X56900000Y-70512500D03*
D33*
X75578769Y-80321231D03*
D31*
X125900000Y-38800000D03*
D32*
X67988730Y-76000000D03*
D31*
%TO.N,/Cell Balancing/CELL1*%
X124200000Y-59200000D03*
X119026623Y-59199750D03*
X104313150Y-49325500D03*
%TO.N,/Cell Balancing/CELL2*%
X105175500Y-60322706D03*
X121100000Y-61300000D03*
X124200000Y-63000000D03*
%TO.N,/Cell Balancing/CELL3*%
X104800000Y-59700000D03*
X124100000Y-66800000D03*
D30*
%TO.N,/Cell Measurement/CELL3*%
X117900000Y-92700000D03*
D31*
X76700000Y-41950500D03*
%TO.N,/Cell Measurement/CELL4*%
X108647352Y-58799500D03*
D30*
X114515281Y-92851880D03*
D31*
%TO.N,/Cell Measurement/CELL1*%
X108287940Y-54799303D03*
D30*
X114800000Y-91700000D03*
%TO.N,/Cell Measurement/CELL2*%
X118800000Y-91974500D03*
D31*
X89600000Y-43919177D03*
%TO.N,/Cell Balancing/CELL4*%
X124100000Y-70400000D03*
X104400000Y-59100000D03*
X104550500Y-55000000D03*
%TO.N,/Cell Measurement/BALANCE_CAP_PLUS*%
X88374346Y-71574500D03*
D30*
X114400000Y-95600000D03*
%TO.N,/Cell Measurement/BALANCE_CAP_MINUS*%
X113496164Y-92847317D03*
D31*
X89000000Y-71000000D03*
%TO.N,/CHARGE*%
X58693677Y-44493677D03*
D30*
X113838763Y-88401826D03*
D31*
%TO.N,/DISCHARGE*%
X104400000Y-62600000D03*
D30*
X113421256Y-87493700D03*
D31*
%TO.N,/EN_CELL_BALANCING*%
X126200000Y-59800000D03*
D30*
%TO.N,/CELL_BALANCING_A0*%
X121300000Y-73824500D03*
D31*
X126956233Y-59856233D03*
D30*
X121280000Y-71720000D03*
X114220664Y-90100000D03*
D31*
%TO.N,/CELL_BALANCING_A1*%
X127712082Y-59910306D03*
D30*
X114837113Y-88449809D03*
D31*
%TO.N,/LIMIT_BALANCING_CURRENT*%
X121000000Y-62800000D03*
D30*
%TO.N,/Battery Pack/CHARGE_AVAILABLE*%
X110900032Y-92829328D03*
X104375195Y-93600000D03*
D31*
%TO.N,Net-(Q11-G)*%
X93800000Y-68500000D03*
X102849500Y-68900000D03*
D33*
%TO.N,Net-(Q11-S)*%
X88700000Y-69500000D03*
X84100000Y-64850500D03*
D30*
%TO.N,/Power Supply/9V4*%
X119800000Y-53700000D03*
X110200000Y-55300000D03*
%TO.N,/18V*%
X113000000Y-51000000D03*
D32*
X117800000Y-57600000D03*
%TD*%
D34*
%TO.N,GND*%
X98612500Y-97960000D02*
X98612500Y-100360000D01*
X98612500Y-102960000D02*
X98612500Y-101887500D01*
X24200000Y-102500000D02*
X23000000Y-102500000D01*
X23000000Y-97500000D02*
X24200000Y-97500000D01*
X98612500Y-101887500D02*
X98903721Y-101596279D01*
X24200000Y-102500000D02*
X24200000Y-101325000D01*
X98612500Y-100360000D02*
X98612500Y-101305058D01*
X23000000Y-102500000D02*
X21500000Y-101000000D01*
X21500000Y-99000000D02*
X23000000Y-97500000D01*
X98612500Y-101305058D02*
X98903721Y-101596279D01*
D35*
%TO.N,Net-(U1-SW)*%
X43700000Y-87800000D02*
X46000000Y-90100000D01*
X34080141Y-92053512D02*
X33800000Y-91773371D01*
X34900000Y-87800000D02*
X43700000Y-87800000D01*
X33800000Y-91773371D02*
X33800000Y-88900000D01*
X33800000Y-88900000D02*
X34900000Y-87800000D01*
%TO.N,Net-(J24-Pin_1)*%
X35800000Y-93375000D02*
X41500000Y-99075000D01*
X35800000Y-89900000D02*
X35800000Y-93375000D01*
D36*
%TO.N,/Battery Pack/PACK*%
X57080000Y-41080000D02*
X46000000Y-30000000D01*
X63400000Y-41080000D02*
X57080000Y-41080000D01*
D34*
%TO.N,/5V_USB*%
X24712500Y-91100000D02*
X27675402Y-91100000D01*
X24712500Y-94500000D02*
X27224500Y-94500000D01*
X27224500Y-94500000D02*
X28200000Y-93524500D01*
X27675402Y-91100000D02*
X28087701Y-91512299D01*
D36*
%TO.N,/Battery Pack/CELL4_MINUS*%
X67885787Y-41080000D02*
X65000000Y-38194213D01*
X65000000Y-38194213D02*
X65000000Y-30000000D01*
X69300000Y-41080000D02*
X67885787Y-41080000D01*
X75300000Y-41080000D02*
X69300000Y-41080000D01*
%TO.N,/Battery Pack/CELL3_MINUS*%
X84000000Y-38080000D02*
X84000000Y-30000000D01*
X87000000Y-41080000D02*
X84000000Y-38080000D01*
X81100000Y-41080000D02*
X81100000Y-32900000D01*
X81100000Y-32900000D02*
X84000000Y-30000000D01*
%TO.N,/Battery Pack/CELL2_MINUS*%
X98300000Y-41080000D02*
X98300000Y-34700000D01*
X92600000Y-40400000D02*
X103000000Y-30000000D01*
X92600000Y-41080000D02*
X92600000Y-40400000D01*
X98300000Y-34700000D02*
X103000000Y-30000000D01*
D34*
%TO.N,Net-(J7-VCC)*%
X27000000Y-98000000D02*
X26300000Y-98700000D01*
X26300000Y-98700000D02*
X24175000Y-98700000D01*
D35*
%TO.N,Net-(D3-K)*%
X48250564Y-90420946D02*
X44399499Y-94272011D01*
X48250564Y-90267107D02*
X48250564Y-90420946D01*
D34*
%TO.N,Net-(D6-K)*%
X33500000Y-95900000D02*
X36600000Y-95900000D01*
X24675000Y-89400000D02*
X27000000Y-89400000D01*
X36600000Y-95900000D02*
X37300000Y-96600000D01*
X27000000Y-89400000D02*
X33500000Y-95900000D01*
%TO.N,Net-(D6-A)*%
X22887500Y-91100000D02*
X22887500Y-89437500D01*
X22887500Y-89437500D02*
X22925000Y-89400000D01*
%TO.N,Net-(D7-K)*%
X29700000Y-92800000D02*
X24675000Y-92800000D01*
X32700000Y-97600000D02*
X32700000Y-95800000D01*
X34800000Y-99700000D02*
X32700000Y-97600000D01*
X32700000Y-95800000D02*
X29700000Y-92800000D01*
%TO.N,Net-(D7-A)*%
X22925000Y-94462500D02*
X22887500Y-94500000D01*
X22925000Y-92800000D02*
X22925000Y-94462500D01*
%TO.N,Net-(D10-K)*%
X94675000Y-97960000D02*
X96787500Y-97960000D01*
%TO.N,Net-(D11-K)*%
X94675000Y-100360000D02*
X96787500Y-100360000D01*
D36*
%TO.N,/BALANCE_CAP_MINUS_RAW*%
X74000000Y-71000000D02*
X83165000Y-61835000D01*
X66800000Y-95800000D02*
X68911270Y-95800000D01*
X74100000Y-87100000D02*
X66800000Y-79800000D01*
X83165000Y-61835000D02*
X91900000Y-61835000D01*
X74100000Y-90611270D02*
X74100000Y-87100000D01*
X74000000Y-74711270D02*
X74000000Y-71000000D01*
X68911270Y-95800000D02*
X74100000Y-90611270D01*
X66800000Y-79800000D02*
X68911270Y-79800000D01*
X68911270Y-79800000D02*
X74000000Y-74711270D01*
X74000000Y-71000000D02*
X66800000Y-63800000D01*
D34*
%TO.N,Net-(D12-K)*%
X94675000Y-102960000D02*
X96787500Y-102960000D01*
D36*
%TO.N,/BALANCE_CAP_PLUS_RAW*%
X78900000Y-58520000D02*
X81100000Y-56320000D01*
X61800000Y-73800000D02*
X61800000Y-57920000D01*
X83300000Y-58520000D02*
X90400000Y-58520000D01*
X81100000Y-56320000D02*
X83300000Y-58520000D01*
X71800000Y-89800000D02*
X61800000Y-89800000D01*
X71800000Y-105800000D02*
X61800000Y-105800000D01*
X69300000Y-56320000D02*
X71500000Y-58520000D01*
X61800000Y-57920000D02*
X63400000Y-56320000D01*
X69300000Y-56320000D02*
X63400000Y-56320000D01*
X71500000Y-58520000D02*
X78900000Y-58520000D01*
X90400000Y-58520000D02*
X92600000Y-56320000D01*
X61800000Y-89800000D02*
X61800000Y-105800000D01*
X61800000Y-73800000D02*
X61800000Y-89800000D01*
X61800000Y-73800000D02*
X71800000Y-73800000D01*
%TO.N,Net-(J6-Pin_1)*%
X42000000Y-42000000D02*
X42000000Y-47080000D01*
D34*
%TO.N,/PACK_EXT*%
X59800000Y-52966167D02*
X59800000Y-53800000D01*
X63166167Y-49600000D02*
X59800000Y-52966167D01*
X63300000Y-49600000D02*
X63166167Y-49600000D01*
%TO.N,Net-(J7-D-)*%
X27000000Y-99700000D02*
X26650000Y-99350000D01*
X26650000Y-99350000D02*
X24175000Y-99350000D01*
%TO.N,Net-(J7-D+)*%
X26486827Y-100000000D02*
X24175000Y-100000000D01*
X27000000Y-100513173D02*
X26486827Y-100000000D01*
X27000000Y-101500000D02*
X27000000Y-100513173D01*
%TO.N,/MCU/UART_USB_RX*%
X103325000Y-96275469D02*
X103325000Y-97675000D01*
X38940000Y-108100000D02*
X38940000Y-102217500D01*
X104825049Y-89999549D02*
X102900000Y-91924598D01*
X38940000Y-102217500D02*
X38622500Y-101900000D01*
X103325000Y-111975000D02*
X40911396Y-111975000D01*
X102900000Y-111550000D02*
X103325000Y-111975000D01*
X102900000Y-98100000D02*
X102900000Y-111550000D01*
X102900000Y-91924598D02*
X102900000Y-95850469D01*
X38940000Y-110003604D02*
X38940000Y-108100000D01*
X40911396Y-111975000D02*
X38940000Y-110003604D01*
X102900000Y-95850469D02*
X103325000Y-96275469D01*
X103325000Y-97675000D02*
X102900000Y-98100000D01*
%TO.N,/MCU/UART_USB_TX*%
X104560994Y-90900000D02*
X103350000Y-92110994D01*
X103775000Y-96089073D02*
X103775000Y-112161396D01*
X40725000Y-112425000D02*
X36400000Y-108100000D01*
X103511396Y-112425000D02*
X40725000Y-112425000D01*
X105400000Y-90900000D02*
X104560994Y-90900000D01*
X103350000Y-95664073D02*
X103775000Y-96089073D01*
X103775000Y-112161396D02*
X103511396Y-112425000D01*
X36400000Y-102187500D02*
X36717500Y-101870000D01*
X36400000Y-108100000D02*
X36400000Y-102187500D01*
X103350000Y-92110994D02*
X103350000Y-95664073D01*
%TO.N,/Interconnect/UART_RX*%
X111388604Y-96425000D02*
X118585000Y-103621396D01*
X110999695Y-96425000D02*
X111388604Y-96425000D01*
X110300000Y-95725305D02*
X110999695Y-96425000D01*
X118585000Y-103621396D02*
X118585000Y-107900000D01*
X116500000Y-109985000D02*
X118585000Y-107900000D01*
X110300000Y-95600000D02*
X110300000Y-95725305D01*
X116500000Y-115000000D02*
X116500000Y-109985000D01*
%TO.N,/MCU/LED1*%
X89500000Y-97960000D02*
X92925000Y-97960000D01*
%TO.N,/MCU/LED2*%
X89640000Y-100360000D02*
X89500000Y-100500000D01*
X92925000Y-100360000D02*
X89640000Y-100360000D01*
%TO.N,/MCU/LED3*%
X89580000Y-102960000D02*
X89500000Y-103040000D01*
X92925000Y-102960000D02*
X89580000Y-102960000D01*
D35*
%TO.N,Net-(U2-FB{slash}VOUT)*%
X88621671Y-73478329D02*
X85400000Y-76700000D01*
X90815676Y-73478329D02*
X88621671Y-73478329D01*
D34*
%TO.N,/MCU/SCL*%
X78392500Y-112875000D02*
X76267500Y-115000000D01*
X61625000Y-112875000D02*
X59500000Y-115000000D01*
X100400000Y-102462076D02*
X95975000Y-106887076D01*
X110481280Y-88327992D02*
X110092371Y-88327992D01*
X74142500Y-112875000D02*
X61625000Y-112875000D01*
X110092371Y-88327992D02*
X109817371Y-88602992D01*
X95975000Y-106887076D02*
X95975000Y-108000000D01*
X106700806Y-88602992D02*
X107213893Y-88089905D01*
X59500000Y-115000000D02*
X57375000Y-112875000D01*
X107213893Y-87489295D02*
X106789198Y-87064600D01*
X106789198Y-87064600D02*
X102431161Y-87064600D01*
X76267500Y-115000000D02*
X74142500Y-112875000D01*
X90875000Y-112875000D02*
X78392500Y-112875000D01*
X107213893Y-88089905D02*
X107213893Y-87489295D01*
X110904636Y-87904636D02*
X110481280Y-88327992D01*
X109817371Y-88602992D02*
X106700806Y-88602992D01*
X102431161Y-87064600D02*
X100400000Y-89095761D01*
X57375000Y-112875000D02*
X44625000Y-112875000D01*
X93000000Y-115000000D02*
X90875000Y-112875000D01*
X100400000Y-89095761D02*
X100400000Y-102462076D01*
X44625000Y-112875000D02*
X42500000Y-115000000D01*
%TO.N,/MCU/SDA*%
X63000000Y-115000000D02*
X65125000Y-117125000D01*
X65125000Y-117125000D02*
X77642500Y-117125000D01*
X100850000Y-90150000D02*
X100850000Y-105665000D01*
X110392676Y-89052992D02*
X101947008Y-89052992D01*
X77642500Y-117125000D02*
X79767500Y-115000000D01*
X94375000Y-117125000D02*
X96500000Y-115000000D01*
X46000000Y-115000000D02*
X48125000Y-117125000D01*
X81892500Y-117125000D02*
X94375000Y-117125000D01*
X79767500Y-115000000D02*
X81892500Y-117125000D01*
X60875000Y-117125000D02*
X63000000Y-115000000D01*
X112987500Y-83500000D02*
X111943750Y-82456250D01*
X100850000Y-105665000D02*
X98515000Y-108000000D01*
X113474500Y-83500000D02*
X112987500Y-83500000D01*
X48125000Y-117125000D02*
X60875000Y-117125000D01*
X101947008Y-89052992D02*
X100850000Y-90150000D01*
%TO.N,/MCU/SWDIO*%
X102541495Y-87979571D02*
X106298922Y-87979571D01*
X102000000Y-98000000D02*
X101300000Y-97300000D01*
X106298922Y-87979571D02*
X106488893Y-87789600D01*
X101300000Y-91873960D02*
X101673805Y-91500155D01*
X101300000Y-97300000D02*
X101300000Y-91873960D01*
%TO.N,/MCU/SWCLK*%
X105352134Y-85598366D02*
X108399500Y-85598366D01*
X102397945Y-96375346D02*
X102398305Y-96374986D01*
X102398305Y-90776293D02*
X103337299Y-89837299D01*
X104950500Y-86000000D02*
X105352134Y-85598366D01*
X102398305Y-96374986D02*
X102398305Y-90776293D01*
X108399500Y-85598366D02*
X108400000Y-85598866D01*
%TO.N,/Interconnect/UART_TX*%
X111300000Y-95700000D02*
X121125000Y-105525000D01*
X120000000Y-109025000D02*
X121125000Y-107900000D01*
X121125000Y-105525000D02*
X121125000Y-107900000D01*
X120000000Y-115000000D02*
X120000000Y-109025000D01*
D36*
%TO.N,Net-(J10-Pin_1)*%
X42000000Y-68080000D02*
X42000000Y-63000000D01*
D35*
%TO.N,/5V*%
X122450000Y-59500000D02*
X122450000Y-60199500D01*
X122650000Y-63000000D02*
X122450000Y-62800000D01*
X122450000Y-62800000D02*
X122450000Y-59500000D01*
X122550000Y-63100000D02*
X122650000Y-63000000D01*
X122550000Y-68600000D02*
X122550000Y-66800000D01*
X122550000Y-66800000D02*
X122550000Y-63100000D01*
X122450000Y-59500000D02*
X122650000Y-59300000D01*
X122550000Y-70400000D02*
X122550000Y-68600000D01*
D34*
%TO.N,/Cell Balancing/CELL1*%
X104313150Y-49325500D02*
X105186896Y-49325500D01*
X114700000Y-59400000D02*
X115300000Y-58800000D01*
X118400000Y-58800000D02*
X115300000Y-58800000D01*
D35*
X102100000Y-49540000D02*
X103800000Y-51240000D01*
X92600000Y-51240000D02*
X94300000Y-49540000D01*
D34*
X105575000Y-57875000D02*
X107100000Y-59400000D01*
D35*
X94300000Y-49540000D02*
X102100000Y-49540000D01*
D34*
X124750000Y-59300000D02*
X124300000Y-59300000D01*
X107100000Y-59400000D02*
X114700000Y-59400000D01*
X118800000Y-59200000D02*
X118400000Y-58800000D01*
X105186896Y-49325500D02*
X105575000Y-49713604D01*
X105575000Y-49713604D02*
X105575000Y-57875000D01*
X124300000Y-59300000D02*
X124200000Y-59200000D01*
%TO.N,/Cell Balancing/CELL2*%
X121100000Y-61300000D02*
X121060000Y-61340000D01*
X121060000Y-61340000D02*
X115300000Y-61340000D01*
X105175500Y-60322706D02*
X105175500Y-60442227D01*
X107793273Y-63060000D02*
X113580000Y-63060000D01*
X105175500Y-60442227D02*
X107793273Y-63060000D01*
X113580000Y-63060000D02*
X115300000Y-61340000D01*
X124750000Y-63000000D02*
X124200000Y-63000000D01*
%TO.N,/Cell Balancing/CELL3*%
X114930000Y-63510000D02*
X115300000Y-63880000D01*
X104800000Y-59700000D02*
X104300000Y-60200000D01*
D35*
X85300000Y-49540000D02*
X87000000Y-51240000D01*
D34*
X104300000Y-60260379D02*
X107549621Y-63510000D01*
X124650000Y-66800000D02*
X124100000Y-66800000D01*
D35*
X69300000Y-51240000D02*
X71000000Y-49540000D01*
D34*
X107549621Y-63510000D02*
X114930000Y-63510000D01*
X104300000Y-60200000D02*
X104300000Y-60260379D01*
D35*
X71000000Y-49540000D02*
X85300000Y-49540000D01*
D34*
%TO.N,/Cell Measurement/CELL3*%
X105600000Y-47700000D02*
X113150000Y-55250000D01*
X127563173Y-55250000D02*
X131700000Y-59386827D01*
X77174500Y-42425000D02*
X97711625Y-42425000D01*
X129786396Y-70486396D02*
X129786396Y-89213604D01*
X129786396Y-89213604D02*
X126300000Y-92700000D01*
X97711625Y-42425000D02*
X102986625Y-47700000D01*
X131700000Y-59386827D02*
X131700000Y-68572792D01*
X126300000Y-92700000D02*
X117900000Y-92700000D01*
X113150000Y-55250000D02*
X127563173Y-55250000D01*
X131700000Y-68572792D02*
X129786396Y-70486396D01*
X102986625Y-47700000D02*
X105600000Y-47700000D01*
X76700000Y-41950500D02*
X77174500Y-42425000D01*
%TO.N,/Cell Measurement/CELL4*%
X114075000Y-92411599D02*
X114515281Y-92851880D01*
X125400000Y-90600000D02*
X114874695Y-90600000D01*
X110846852Y-56600000D02*
X125214949Y-56600000D01*
X129175000Y-60560051D02*
X129175000Y-69161396D01*
X114874695Y-90600000D02*
X114075000Y-91399695D01*
X129175000Y-69161396D02*
X127918198Y-70418198D01*
X127800000Y-88900000D02*
X126100000Y-90600000D01*
X108647352Y-58799500D02*
X110846852Y-56600000D01*
X126100000Y-90600000D02*
X125400000Y-90600000D01*
X114075000Y-91399695D02*
X114075000Y-92411599D01*
X127918198Y-70418198D02*
X127918198Y-88781802D01*
X127918198Y-88781802D02*
X127800000Y-88900000D01*
X125214949Y-56600000D02*
X129175000Y-60560051D01*
%TO.N,/Cell Measurement/CELL1*%
X108287940Y-54799303D02*
X109638637Y-56150000D01*
X129900000Y-69100000D02*
X128400000Y-70600000D01*
X126100000Y-91249500D02*
X126000000Y-91249500D01*
X128400000Y-70600000D02*
X128400000Y-88949500D01*
X129900000Y-60648655D02*
X129900000Y-69100000D01*
X128400000Y-88949500D02*
X126100000Y-91249500D01*
X115250500Y-91249500D02*
X114800000Y-91700000D01*
X125401345Y-56150000D02*
X129900000Y-60648655D01*
X126000000Y-91249500D02*
X115250500Y-91249500D01*
X109638637Y-56150000D02*
X118000000Y-56150000D01*
X118000000Y-56150000D02*
X125401345Y-56150000D01*
%TO.N,/Cell Measurement/CELL2*%
X112800000Y-55700000D02*
X125587741Y-55700000D01*
X130350000Y-60462259D02*
X130350000Y-69286396D01*
X130350000Y-69286396D02*
X129068198Y-70568198D01*
X89600000Y-43919177D02*
X98569406Y-43919177D01*
X126074500Y-91974500D02*
X118800000Y-91974500D01*
X129068198Y-88980802D02*
X126074500Y-91974500D01*
X105250000Y-48150000D02*
X112800000Y-55700000D01*
X98569406Y-43919177D02*
X102800229Y-48150000D01*
X129068198Y-70568198D02*
X129068198Y-88980802D01*
X125587741Y-55700000D02*
X130350000Y-60462259D01*
X89600000Y-43919177D02*
X89724500Y-44043677D01*
X102800229Y-48150000D02*
X105250000Y-48150000D01*
%TO.N,/Cell Balancing/CELL4*%
X112930000Y-64050000D02*
X115300000Y-66420000D01*
X76625000Y-52565000D02*
X96665000Y-52565000D01*
X103600000Y-60350431D02*
X107299569Y-64050000D01*
X98700000Y-54600000D02*
X99900000Y-54600000D01*
D35*
X65100000Y-52940000D02*
X63400000Y-51240000D01*
D34*
X107299569Y-64050000D02*
X112930000Y-64050000D01*
D35*
X73600000Y-52940000D02*
X65100000Y-52940000D01*
D34*
X104150500Y-54600000D02*
X104550500Y-55000000D01*
D35*
X75300000Y-51240000D02*
X73600000Y-52940000D01*
D34*
X75300000Y-51240000D02*
X76625000Y-52565000D01*
X96665000Y-52565000D02*
X98700000Y-54600000D01*
X99900000Y-54600000D02*
X104150500Y-54600000D01*
X104400000Y-59100000D02*
X103600000Y-59900000D01*
X124650000Y-70400000D02*
X124100000Y-70400000D01*
X103600000Y-59900000D02*
X103600000Y-60350431D01*
D36*
%TO.N,/Battery Pack/CELL1_MINUS*%
X103800000Y-41080000D02*
X110920000Y-41080000D01*
X110920000Y-41080000D02*
X122000000Y-30000000D01*
D34*
%TO.N,/Cell Measurement/BALANCE_CAP_PLUS*%
X116150000Y-77562792D02*
X116150000Y-84181401D01*
X113907957Y-86318700D02*
X112934555Y-86318700D01*
X112246256Y-93446256D02*
X114400000Y-95600000D01*
X112934555Y-86318700D02*
X112246256Y-87006999D01*
X110161708Y-71574500D02*
X116150000Y-77562792D01*
X113939257Y-86350000D02*
X113907957Y-86318700D01*
X113981401Y-86350000D02*
X113939257Y-86350000D01*
X88374346Y-71574500D02*
X110161708Y-71574500D01*
X116150000Y-84181401D02*
X113981401Y-86350000D01*
X112246256Y-87006999D02*
X112246256Y-93446256D01*
%TO.N,/Cell Measurement/BALANCE_CAP_MINUS*%
X116600000Y-77376396D02*
X116600000Y-84367797D01*
X113120951Y-86768700D02*
X112696256Y-87193395D01*
X112696256Y-92047409D02*
X113496164Y-92847317D01*
X116600000Y-84367797D02*
X114167797Y-86800000D01*
X89124500Y-71124500D02*
X110348104Y-71124500D01*
X112696256Y-87193395D02*
X112696256Y-92047409D01*
X113721561Y-86768700D02*
X113120951Y-86768700D01*
X110348104Y-71124500D02*
X116600000Y-77376396D01*
X89000000Y-71000000D02*
X89124500Y-71124500D01*
X114167797Y-86800000D02*
X113752861Y-86800000D01*
X113752861Y-86800000D02*
X113721561Y-86768700D01*
%TO.N,/CHARGE*%
X104161827Y-58525000D02*
X103150000Y-59536827D01*
X58693677Y-44493677D02*
X98507510Y-44493677D01*
X105125000Y-57575000D02*
X104175000Y-58525000D01*
X98507510Y-44493677D02*
X103913833Y-49900000D01*
X104975000Y-62538604D02*
X111400000Y-68963604D01*
X117500000Y-75100000D02*
X111400000Y-69000000D01*
X111400000Y-68963604D02*
X111400000Y-69000000D01*
X105125000Y-49900000D02*
X105125000Y-57575000D01*
X104975000Y-62361827D02*
X104975000Y-62538604D01*
X103150000Y-59536827D02*
X103150000Y-60536827D01*
X104175000Y-58525000D02*
X104161827Y-58525000D01*
X103150000Y-60536827D02*
X104975000Y-62361827D01*
X103913833Y-49900000D02*
X105125000Y-49900000D01*
X117500000Y-84740589D02*
X117500000Y-75100000D01*
X113838763Y-88401826D02*
X117500000Y-84740589D01*
%TO.N,/DISCHARGE*%
X114110493Y-87493700D02*
X117050000Y-84554193D01*
X104400000Y-62600000D02*
X108860000Y-67060000D01*
X113421256Y-87493700D02*
X114110493Y-87493700D01*
X117050000Y-84554193D02*
X117050000Y-77190000D01*
X108860000Y-67060000D02*
X108860000Y-69000000D01*
X117050000Y-77190000D02*
X108860000Y-69000000D01*
%TO.N,/EN_CELL_BALANCING*%
X126200000Y-70025000D02*
X124025000Y-72200000D01*
X120475000Y-68375000D02*
X119300000Y-67200000D01*
X123183274Y-72200000D02*
X120475000Y-69491726D01*
X124025000Y-72200000D02*
X123183274Y-72200000D01*
X126200000Y-59800000D02*
X126200000Y-70025000D01*
X120475000Y-69491726D02*
X120475000Y-68375000D01*
%TO.N,/CELL_BALANCING_A0*%
X126956233Y-59856233D02*
X126956233Y-59856940D01*
X126650000Y-60163173D02*
X126650000Y-70211396D01*
X121300000Y-83020664D02*
X121300000Y-73824500D01*
X126956233Y-59856940D02*
X126650000Y-60163173D01*
X124211396Y-72650000D02*
X122210000Y-72650000D01*
X122210000Y-72650000D02*
X121280000Y-71720000D01*
X126650000Y-70211396D02*
X124211396Y-72650000D01*
X121280000Y-71720000D02*
X119300000Y-69740000D01*
X114220664Y-90100000D02*
X121300000Y-83020664D01*
%TO.N,/CELL_BALANCING_A1*%
X120500000Y-73300000D02*
X120300000Y-73100000D01*
X127875000Y-60073224D02*
X127875000Y-69825000D01*
X114837113Y-88449809D02*
X120500000Y-82786921D01*
X127712082Y-59910306D02*
X127875000Y-60073224D01*
X124600000Y-73100000D02*
X120300000Y-73100000D01*
X120120000Y-73100000D02*
X119300000Y-72280000D01*
X120300000Y-73100000D02*
X120120000Y-73100000D01*
X120500000Y-82786921D02*
X120500000Y-73300000D01*
X127875000Y-69825000D02*
X124600000Y-73100000D01*
%TO.N,/LIMIT_BALANCING_CURRENT*%
X118125000Y-73645000D02*
X119300000Y-74820000D01*
X118125000Y-66025000D02*
X118125000Y-73645000D01*
X118650000Y-65500000D02*
X118125000Y-66025000D01*
X121000000Y-62800000D02*
X121000000Y-65500000D01*
X121000000Y-65500000D02*
X118650000Y-65500000D01*
%TO.N,/Battery Pack/CHARGE_AVAILABLE*%
X110154360Y-93575000D02*
X104400195Y-93575000D01*
X104400195Y-93575000D02*
X104375195Y-93600000D01*
X110900032Y-92829328D02*
X110154360Y-93575000D01*
%TO.N,Net-(Q11-G)*%
X94200000Y-68900000D02*
X93800000Y-68500000D01*
X102849500Y-68900000D02*
X94200000Y-68900000D01*
D36*
%TO.N,Net-(Q11-S)*%
X89200000Y-54120000D02*
X96100000Y-54120000D01*
X87000000Y-56320000D02*
X89200000Y-54120000D01*
X77500000Y-54120000D02*
X75300000Y-56320000D01*
X98300000Y-56320000D02*
X103800000Y-56320000D01*
X84100000Y-64900000D02*
X88700000Y-69500000D01*
X96100000Y-54120000D02*
X98300000Y-56320000D01*
X87000000Y-56320000D02*
X84800000Y-54120000D01*
X84100000Y-64850500D02*
X84100000Y-64900000D01*
X84800000Y-54120000D02*
X77500000Y-54120000D01*
%TO.N,Net-(D13-K)*%
X42000000Y-51140000D02*
X42000000Y-56220000D01*
%TO.N,Net-(D14-K)*%
X42000000Y-72140000D02*
X42000000Y-77220000D01*
%TD*%
M02*
