%TF.GenerationSoftware,KiCad,Pcbnew,7.0.9-7.0.9~ubuntu22.04.1*%
%TF.CreationDate,2023-11-29T19:20:39+01:00*%
%TF.ProjectId,battery-management-system,62617474-6572-4792-9d6d-616e6167656d,rev?*%
%TF.SameCoordinates,Original*%
%TF.FileFunction,Copper,L4,Bot*%
%TF.FilePolarity,Positive*%
%FSLAX46Y46*%
G04 Gerber Fmt 4.6, Leading zero omitted, Abs format (unit mm)*
G04 Created by KiCad (PCBNEW 7.0.9-7.0.9~ubuntu22.04.1) date 2023-11-29 19:20:39*
%MOMM*%
%LPD*%
G01*
G04 APERTURE LIST*
G04 Aperture macros list*
%AMRoundRect*
0 Rectangle with rounded corners*
0 $1 Rounding radius*
0 $2 $3 $4 $5 $6 $7 $8 $9 X,Y pos of 4 corners*
0 Add a 4 corners polygon primitive as box body*
4,1,4,$2,$3,$4,$5,$6,$7,$8,$9,$2,$3,0*
0 Add four circle primitives for the rounded corners*
1,1,$1+$1,$2,$3*
1,1,$1+$1,$4,$5*
1,1,$1+$1,$6,$7*
1,1,$1+$1,$8,$9*
0 Add four rect primitives between the rounded corners*
20,1,$1+$1,$2,$3,$4,$5,0*
20,1,$1+$1,$4,$5,$6,$7,0*
20,1,$1+$1,$6,$7,$8,$9,0*
20,1,$1+$1,$8,$9,$2,$3,0*%
G04 Aperture macros list end*
%TA.AperFunction,ComponentPad*%
%ADD10C,3.500000*%
%TD*%
%TA.AperFunction,ComponentPad*%
%ADD11C,2.000000*%
%TD*%
%TA.AperFunction,ComponentPad*%
%ADD12RoundRect,0.250000X-0.650000X-1.550000X0.650000X-1.550000X0.650000X1.550000X-0.650000X1.550000X0*%
%TD*%
%TA.AperFunction,ComponentPad*%
%ADD13O,1.800000X3.600000*%
%TD*%
%TA.AperFunction,ComponentPad*%
%ADD14C,6.800000*%
%TD*%
%TA.AperFunction,SMDPad,CuDef*%
%ADD15C,12.800000*%
%TD*%
%TA.AperFunction,ComponentPad*%
%ADD16R,1.700000X1.700000*%
%TD*%
%TA.AperFunction,ComponentPad*%
%ADD17O,1.700000X1.700000*%
%TD*%
%TA.AperFunction,ComponentPad*%
%ADD18C,1.500000*%
%TD*%
%TA.AperFunction,ComponentPad*%
%ADD19C,2.600000*%
%TD*%
%TA.AperFunction,ComponentPad*%
%ADD20C,12.800000*%
%TD*%
%TA.AperFunction,ComponentPad*%
%ADD21C,1.879600*%
%TD*%
%TA.AperFunction,ComponentPad*%
%ADD22O,1.000000X1.600000*%
%TD*%
%TA.AperFunction,ComponentPad*%
%ADD23O,1.600000X1.000000*%
%TD*%
%TA.AperFunction,SMDPad,CuDef*%
%ADD24RoundRect,0.100000X-0.100000X0.712500X-0.100000X-0.712500X0.100000X-0.712500X0.100000X0.712500X0*%
%TD*%
%TA.AperFunction,SMDPad,CuDef*%
%ADD25RoundRect,0.237500X-0.237500X0.250000X-0.237500X-0.250000X0.237500X-0.250000X0.237500X0.250000X0*%
%TD*%
%TA.AperFunction,SMDPad,CuDef*%
%ADD26RoundRect,0.237500X0.250000X0.237500X-0.250000X0.237500X-0.250000X-0.237500X0.250000X-0.237500X0*%
%TD*%
%TA.AperFunction,SMDPad,CuDef*%
%ADD27R,5.760000X2.200000*%
%TD*%
%TA.AperFunction,SMDPad,CuDef*%
%ADD28R,5.800000X6.400000*%
%TD*%
%TA.AperFunction,SMDPad,CuDef*%
%ADD29RoundRect,0.249999X1.425001X-0.450001X1.425001X0.450001X-1.425001X0.450001X-1.425001X-0.450001X0*%
%TD*%
%TA.AperFunction,SMDPad,CuDef*%
%ADD30RoundRect,0.237500X-0.300000X-0.237500X0.300000X-0.237500X0.300000X0.237500X-0.300000X0.237500X0*%
%TD*%
%TA.AperFunction,SMDPad,CuDef*%
%ADD31RoundRect,0.150000X0.587500X0.150000X-0.587500X0.150000X-0.587500X-0.150000X0.587500X-0.150000X0*%
%TD*%
%TA.AperFunction,SMDPad,CuDef*%
%ADD32RoundRect,0.237500X-0.237500X0.300000X-0.237500X-0.300000X0.237500X-0.300000X0.237500X0.300000X0*%
%TD*%
%TA.AperFunction,SMDPad,CuDef*%
%ADD33RoundRect,0.237500X0.300000X0.237500X-0.300000X0.237500X-0.300000X-0.237500X0.300000X-0.237500X0*%
%TD*%
%TA.AperFunction,SMDPad,CuDef*%
%ADD34R,0.450000X0.600000*%
%TD*%
%TA.AperFunction,SMDPad,CuDef*%
%ADD35RoundRect,0.150000X0.150000X-0.587500X0.150000X0.587500X-0.150000X0.587500X-0.150000X-0.587500X0*%
%TD*%
%TA.AperFunction,SMDPad,CuDef*%
%ADD36RoundRect,0.250000X0.337500X0.475000X-0.337500X0.475000X-0.337500X-0.475000X0.337500X-0.475000X0*%
%TD*%
%TA.AperFunction,SMDPad,CuDef*%
%ADD37RoundRect,0.150000X0.825000X0.150000X-0.825000X0.150000X-0.825000X-0.150000X0.825000X-0.150000X0*%
%TD*%
%TA.AperFunction,SMDPad,CuDef*%
%ADD38RoundRect,0.100000X0.712500X0.100000X-0.712500X0.100000X-0.712500X-0.100000X0.712500X-0.100000X0*%
%TD*%
%TA.AperFunction,SMDPad,CuDef*%
%ADD39RoundRect,0.250000X-0.412500X-1.100000X0.412500X-1.100000X0.412500X1.100000X-0.412500X1.100000X0*%
%TD*%
%TA.AperFunction,SMDPad,CuDef*%
%ADD40RoundRect,0.237500X0.237500X-0.250000X0.237500X0.250000X-0.237500X0.250000X-0.237500X-0.250000X0*%
%TD*%
%TA.AperFunction,SMDPad,CuDef*%
%ADD41RoundRect,0.250000X1.100000X-0.412500X1.100000X0.412500X-1.100000X0.412500X-1.100000X-0.412500X0*%
%TD*%
%TA.AperFunction,SMDPad,CuDef*%
%ADD42RoundRect,0.237500X0.237500X-0.300000X0.237500X0.300000X-0.237500X0.300000X-0.237500X-0.300000X0*%
%TD*%
%TA.AperFunction,SMDPad,CuDef*%
%ADD43RoundRect,0.237500X-0.250000X-0.237500X0.250000X-0.237500X0.250000X0.237500X-0.250000X0.237500X0*%
%TD*%
%TA.AperFunction,SMDPad,CuDef*%
%ADD44RoundRect,0.150000X0.150000X-0.825000X0.150000X0.825000X-0.150000X0.825000X-0.150000X-0.825000X0*%
%TD*%
%TA.AperFunction,SMDPad,CuDef*%
%ADD45R,2.200000X1.200000*%
%TD*%
%TA.AperFunction,SMDPad,CuDef*%
%ADD46R,6.400000X5.800000*%
%TD*%
%TA.AperFunction,SMDPad,CuDef*%
%ADD47RoundRect,0.250000X-1.100000X0.412500X-1.100000X-0.412500X1.100000X-0.412500X1.100000X0.412500X0*%
%TD*%
%TA.AperFunction,SMDPad,CuDef*%
%ADD48RoundRect,0.100000X-0.100000X0.637500X-0.100000X-0.637500X0.100000X-0.637500X0.100000X0.637500X0*%
%TD*%
%TA.AperFunction,SMDPad,CuDef*%
%ADD49RoundRect,0.150000X-0.150000X0.587500X-0.150000X-0.587500X0.150000X-0.587500X0.150000X0.587500X0*%
%TD*%
%TA.AperFunction,SMDPad,CuDef*%
%ADD50R,0.600000X0.450000*%
%TD*%
%TA.AperFunction,SMDPad,CuDef*%
%ADD51RoundRect,0.250000X0.412500X1.100000X-0.412500X1.100000X-0.412500X-1.100000X0.412500X-1.100000X0*%
%TD*%
%TA.AperFunction,SMDPad,CuDef*%
%ADD52RoundRect,0.249999X-0.450001X-1.425001X0.450001X-1.425001X0.450001X1.425001X-0.450001X1.425001X0*%
%TD*%
%TA.AperFunction,SMDPad,CuDef*%
%ADD53RoundRect,0.250000X0.412500X0.650000X-0.412500X0.650000X-0.412500X-0.650000X0.412500X-0.650000X0*%
%TD*%
%TA.AperFunction,SMDPad,CuDef*%
%ADD54R,4.600000X1.100000*%
%TD*%
%TA.AperFunction,SMDPad,CuDef*%
%ADD55R,9.400000X10.800000*%
%TD*%
%TA.AperFunction,SMDPad,CuDef*%
%ADD56RoundRect,0.150000X0.725000X0.150000X-0.725000X0.150000X-0.725000X-0.150000X0.725000X-0.150000X0*%
%TD*%
%TA.AperFunction,SMDPad,CuDef*%
%ADD57RoundRect,0.100000X0.100000X-0.712500X0.100000X0.712500X-0.100000X0.712500X-0.100000X-0.712500X0*%
%TD*%
%TA.AperFunction,SMDPad,CuDef*%
%ADD58RoundRect,0.150000X-0.825000X-0.150000X0.825000X-0.150000X0.825000X0.150000X-0.825000X0.150000X0*%
%TD*%
%TA.AperFunction,SMDPad,CuDef*%
%ADD59RoundRect,0.249999X-1.425001X0.450001X-1.425001X-0.450001X1.425001X-0.450001X1.425001X0.450001X0*%
%TD*%
%TA.AperFunction,SMDPad,CuDef*%
%ADD60RoundRect,0.075000X0.662500X0.075000X-0.662500X0.075000X-0.662500X-0.075000X0.662500X-0.075000X0*%
%TD*%
%TA.AperFunction,SMDPad,CuDef*%
%ADD61RoundRect,0.075000X0.075000X0.662500X-0.075000X0.662500X-0.075000X-0.662500X0.075000X-0.662500X0*%
%TD*%
%TA.AperFunction,SMDPad,CuDef*%
%ADD62R,0.400000X1.200000*%
%TD*%
%TA.AperFunction,SMDPad,CuDef*%
%ADD63RoundRect,0.150000X-0.150000X0.825000X-0.150000X-0.825000X0.150000X-0.825000X0.150000X0.825000X0*%
%TD*%
%TA.AperFunction,SMDPad,CuDef*%
%ADD64RoundRect,0.250000X-0.650000X0.412500X-0.650000X-0.412500X0.650000X-0.412500X0.650000X0.412500X0*%
%TD*%
%TA.AperFunction,SMDPad,CuDef*%
%ADD65R,1.200000X2.200000*%
%TD*%
%TA.AperFunction,SMDPad,CuDef*%
%ADD66R,2.200000X5.760000*%
%TD*%
%TA.AperFunction,SMDPad,CuDef*%
%ADD67RoundRect,0.249999X0.450001X1.425001X-0.450001X1.425001X-0.450001X-1.425001X0.450001X-1.425001X0*%
%TD*%
%TA.AperFunction,ViaPad*%
%ADD68C,0.800000*%
%TD*%
%TA.AperFunction,ViaPad*%
%ADD69C,0.500000*%
%TD*%
%TA.AperFunction,ViaPad*%
%ADD70C,1.000000*%
%TD*%
%TA.AperFunction,ViaPad*%
%ADD71C,2.000000*%
%TD*%
%TA.AperFunction,Conductor*%
%ADD72C,0.250000*%
%TD*%
%TA.AperFunction,Conductor*%
%ADD73C,1.000000*%
%TD*%
%TA.AperFunction,Conductor*%
%ADD74C,2.000000*%
%TD*%
G04 APERTURE END LIST*
D10*
%TO.P,F1,1*%
%TO.N,Net-(J6-Pin_1)*%
X42000000Y-42000000D03*
X42000000Y-47080000D03*
%TO.P,F1,2*%
%TO.N,Net-(D13-K)*%
X42000000Y-51140000D03*
X42000000Y-56220000D03*
%TD*%
D11*
%TO.P,SW6,1,-*%
%TO.N,/Battery Pack/CELL3_MINUS*%
X87000000Y-41080000D03*
%TO.P,SW6,2,+*%
%TO.N,/5V*%
X87000000Y-46160000D03*
%TO.P,SW6,6,-*%
%TO.N,/Cell Balancing/CELL3*%
X87000000Y-51240000D03*
%TO.P,SW6,7,+*%
%TO.N,Net-(Q11-S)*%
X87000000Y-56320000D03*
%TD*%
D12*
%TO.P,J9,1,Pin_1*%
%TO.N,GND*%
X106000000Y-115000000D03*
D13*
%TO.P,J9,2,Pin_2*%
%TO.N,/5V*%
X109500000Y-115000000D03*
%TO.P,J9,3,Pin_3*%
%TO.N,/5V_EXT*%
X113000000Y-115000000D03*
%TO.P,J9,4,Pin_4*%
%TO.N,/Interconnect/UART_RX*%
X116500000Y-115000000D03*
%TO.P,J9,5,Pin_5*%
%TO.N,/Interconnect/UART_TX*%
X120000000Y-115000000D03*
%TD*%
D12*
%TO.P,J18,1,Pin_1*%
%TO.N,/3V3*%
X89500000Y-115000000D03*
D13*
%TO.P,J18,2,Pin_2*%
%TO.N,/MCU/SCL*%
X93000000Y-115000000D03*
%TO.P,J18,3,Pin_3*%
%TO.N,/MCU/SDA*%
X96500000Y-115000000D03*
%TO.P,J18,4,Pin_4*%
%TO.N,GND*%
X100000000Y-115000000D03*
%TD*%
D12*
%TO.P,J15,1,Pin_1*%
%TO.N,/3V3*%
X39000000Y-115000000D03*
D13*
%TO.P,J15,2,Pin_2*%
%TO.N,/MCU/SCL*%
X42500000Y-115000000D03*
%TO.P,J15,3,Pin_3*%
%TO.N,/MCU/SDA*%
X46000000Y-115000000D03*
%TO.P,J15,4,Pin_4*%
%TO.N,GND*%
X49500000Y-115000000D03*
%TD*%
D14*
%TO.P,J5,1,Pin_1*%
%TO.N,/Battery Pack/CELL1_MINUS*%
X122000000Y-30000000D03*
D15*
X122000000Y-30000000D03*
%TD*%
D16*
%TO.P,J19,1,Pin_1*%
%TO.N,/CHARGE*%
X111400000Y-69000000D03*
D17*
%TO.P,J19,2,Pin_2*%
%TO.N,/DISCHARGE*%
X108860000Y-69000000D03*
%TO.P,J19,3,Pin_3*%
%TO.N,GND*%
X106320000Y-69000000D03*
%TD*%
D11*
%TO.P,SW3,1,-*%
%TO.N,/Battery Pack/CELL2_MINUS*%
X98300000Y-41080000D03*
%TO.P,SW3,2,+*%
%TO.N,/5V*%
X98300000Y-46160000D03*
%TO.P,SW3,6,-*%
%TO.N,/Cell Balancing/CELL2*%
X98300000Y-51240000D03*
%TO.P,SW3,7,+*%
%TO.N,Net-(Q11-S)*%
X98300000Y-56320000D03*
%TD*%
D10*
%TO.P,F2,1*%
%TO.N,Net-(J10-Pin_1)*%
X42000000Y-63000000D03*
X42000000Y-68080000D03*
%TO.P,F2,2*%
%TO.N,Net-(D14-K)*%
X42000000Y-72140000D03*
X42000000Y-77220000D03*
%TD*%
D18*
%TO.P,RESET1,1,A*%
%TO.N,GND*%
X146540000Y-76540000D03*
%TO.P,RESET1,2,A*%
X146540000Y-71460000D03*
%TO.P,RESET1,3,B*%
%TO.N,/MCU/NRST*%
X141460000Y-76540000D03*
%TO.P,RESET1,4,B*%
X141460000Y-71460000D03*
%TD*%
D11*
%TO.P,C32,1*%
%TO.N,/BALANCE_CAP_MINUS_RAW*%
X66800000Y-95800000D03*
%TO.P,C32,2*%
%TO.N,/BALANCE_CAP_PLUS_RAW*%
X61800000Y-105800000D03*
%TO.P,C32,3*%
X71800000Y-105800000D03*
%TD*%
D14*
%TO.P,J1,1,Pin_1*%
%TO.N,/Battery Pack/PACK*%
X46000000Y-30000000D03*
D15*
X46000000Y-30000000D03*
%TD*%
D14*
%TO.P,J10,1,Pin_1*%
%TO.N,Net-(J10-Pin_1)*%
X30000000Y-72300000D03*
D15*
X30000000Y-72300000D03*
%TD*%
D19*
%TO.P,L1,1,1*%
%TO.N,Net-(J24-Pin_1)*%
X35800000Y-89900000D03*
%TO.P,L1,2,2*%
%TO.N,Net-(U1-SW)*%
X30800000Y-89900000D03*
%TD*%
D11*
%TO.P,C30,1*%
%TO.N,/BALANCE_CAP_MINUS_RAW*%
X66800000Y-63800000D03*
%TO.P,C30,2*%
%TO.N,/BALANCE_CAP_PLUS_RAW*%
X61800000Y-73800000D03*
%TO.P,C30,3*%
X71800000Y-73800000D03*
%TD*%
%TO.P,SW1,1,-*%
%TO.N,/Battery Pack/CELL1_MINUS*%
X103800000Y-41080000D03*
%TO.P,SW1,2,+*%
%TO.N,/5V*%
X103800000Y-46160000D03*
%TO.P,SW1,6,-*%
%TO.N,/Cell Balancing/CELL1*%
X103800000Y-51240000D03*
%TO.P,SW1,7,+*%
%TO.N,Net-(Q11-S)*%
X103800000Y-56320000D03*
%TD*%
D16*
%TO.P,J22,1,Pin_1*%
%TO.N,/EN_CELL_BALANCING*%
X119300000Y-67200000D03*
D17*
%TO.P,J22,2,Pin_2*%
%TO.N,/CELL_BALANCING_A0*%
X119300000Y-69740000D03*
%TO.P,J22,3,Pin_3*%
%TO.N,/CELL_BALANCING_A1*%
X119300000Y-72280000D03*
%TO.P,J22,4,Pin_4*%
%TO.N,/LIMIT_BALANCING_CURRENT*%
X119300000Y-74820000D03*
%TO.P,J22,5,Pin_5*%
%TO.N,GND*%
X119300000Y-77360000D03*
%TD*%
D16*
%TO.P,J11,1,Pin_1*%
%TO.N,/MCU/SCL*%
X95975000Y-108000000D03*
D17*
%TO.P,J11,2,Pin_2*%
%TO.N,/MCU/SDA*%
X98515000Y-108000000D03*
%TO.P,J11,3,Pin_3*%
%TO.N,GND*%
X101055000Y-108000000D03*
%TD*%
D16*
%TO.P,J12,1,Pin_1*%
%TO.N,/3V3*%
X123000000Y-84000000D03*
D17*
%TO.P,J12,2,Pin_2*%
%TO.N,Net-(J12-Pin_2)*%
X123000000Y-86540000D03*
%TO.P,J12,3,Pin_3*%
%TO.N,GND*%
X123000000Y-89080000D03*
%TD*%
D12*
%TO.P,J17,1,Pin_1*%
%TO.N,/3V3*%
X72767500Y-115000000D03*
D13*
%TO.P,J17,2,Pin_2*%
%TO.N,/MCU/SCL*%
X76267500Y-115000000D03*
%TO.P,J17,3,Pin_3*%
%TO.N,/MCU/SDA*%
X79767500Y-115000000D03*
%TO.P,J17,4,Pin_4*%
%TO.N,GND*%
X83267500Y-115000000D03*
%TD*%
D11*
%TO.P,C31,1*%
%TO.N,/BALANCE_CAP_MINUS_RAW*%
X66800000Y-79800000D03*
%TO.P,C31,2*%
%TO.N,/BALANCE_CAP_PLUS_RAW*%
X61800000Y-89800000D03*
%TO.P,C31,3*%
X71800000Y-89800000D03*
%TD*%
D16*
%TO.P,J23,1,Pin_1*%
%TO.N,Net-(J23-Pin_1)*%
X91900000Y-64375000D03*
D17*
%TO.P,J23,2,Pin_2*%
%TO.N,/BALANCE_CAP_MINUS_RAW*%
X91900000Y-61835000D03*
%TD*%
D12*
%TO.P,J16,1,Pin_1*%
%TO.N,/3V3*%
X56000000Y-115000000D03*
D13*
%TO.P,J16,2,Pin_2*%
%TO.N,/MCU/SCL*%
X59500000Y-115000000D03*
%TO.P,J16,3,Pin_3*%
%TO.N,/MCU/SDA*%
X63000000Y-115000000D03*
%TO.P,J16,4,Pin_4*%
%TO.N,GND*%
X66500000Y-115000000D03*
%TD*%
D16*
%TO.P,J21,1,Pin_1*%
%TO.N,/MCU/UART_USB_TX*%
X36400000Y-108100000D03*
D17*
%TO.P,J21,2,Pin_2*%
%TO.N,/MCU/UART_USB_RX*%
X38940000Y-108100000D03*
%TO.P,J21,3,Pin_3*%
%TO.N,GND*%
X41480000Y-108100000D03*
%TD*%
D16*
%TO.P,J14,1,Pin_1*%
%TO.N,Net-(J14-Pin_1)*%
X44425000Y-82900000D03*
D17*
%TO.P,J14,2,Pin_2*%
%TO.N,/-5V*%
X41885000Y-82900000D03*
%TO.P,J14,3,Pin_3*%
%TO.N,GND*%
X39345000Y-82900000D03*
%TD*%
D14*
%TO.P,J6,1,Pin_1*%
%TO.N,Net-(J6-Pin_1)*%
X30000000Y-46000000D03*
D15*
X30000000Y-46000000D03*
%TD*%
D16*
%TO.P,J24,1,Pin_1*%
%TO.N,Net-(J24-Pin_1)*%
X41500000Y-99075000D03*
D17*
%TO.P,J24,2,Pin_2*%
%TO.N,/3V3*%
X41500000Y-101615000D03*
%TO.P,J24,3,Pin_3*%
%TO.N,GND*%
X41500000Y-104155000D03*
%TD*%
D14*
%TO.P,J3,1,Pin_1*%
%TO.N,/Battery Pack/CELL3_MINUS*%
X84000000Y-30000000D03*
D15*
X84000000Y-30000000D03*
%TD*%
D16*
%TO.P,J20,1,Pin_1*%
%TO.N,/Interconnect/UART_TX*%
X121125000Y-107900000D03*
D17*
%TO.P,J20,2,Pin_2*%
%TO.N,/Interconnect/UART_RX*%
X118585000Y-107900000D03*
%TO.P,J20,3,Pin_3*%
%TO.N,GND*%
X116045000Y-107900000D03*
%TD*%
D20*
%TO.P,H2,1,1*%
%TO.N,GND*%
X28000000Y-112000000D03*
%TD*%
%TO.P,H3,1,1*%
%TO.N,GND*%
X142000000Y-112000000D03*
%TD*%
D11*
%TO.P,SW2,1,-*%
%TO.N,/Battery Pack/CELL2_MINUS*%
X92600000Y-41080000D03*
%TO.P,SW2,2,+*%
%TO.N,/5V*%
X92600000Y-46160000D03*
%TO.P,SW2,6,-*%
%TO.N,/Cell Balancing/CELL1*%
X92600000Y-51240000D03*
%TO.P,SW2,7,+*%
%TO.N,/BALANCE_CAP_PLUS_RAW*%
X92600000Y-56320000D03*
%TD*%
D21*
%TO.P,U5,GND@1,GND*%
%TO.N,GND*%
X142730000Y-88460000D03*
%TO.P,U5,GND@2,GND*%
X142730000Y-91000000D03*
%TO.P,U5,GND@3,GND*%
X142730000Y-96080000D03*
%TO.P,U5,RESET,RESET*%
%TO.N,/MCU/NRST*%
X145270000Y-96080000D03*
%TO.P,U5,RXI,RXI*%
%TO.N,unconnected-(U5-PadRXI)*%
X142730000Y-93540000D03*
%TO.P,U5,SWCLK,SWCLK*%
%TO.N,/MCU/SWCLK*%
X145270000Y-88460000D03*
%TO.P,U5,SWDIO,SWDIO*%
%TO.N,/MCU/SWDIO*%
X145270000Y-85920000D03*
%TO.P,U5,SWO,SWO*%
%TO.N,unconnected-(U5-PadSWO)*%
X145270000Y-91000000D03*
%TO.P,U5,TXO,TXO*%
%TO.N,unconnected-(U5-PadTXO)*%
X145270000Y-93540000D03*
%TO.P,U5,VREF,VREF*%
%TO.N,/3V3*%
X142730000Y-85920000D03*
%TD*%
D14*
%TO.P,J2,1,Pin_1*%
%TO.N,/Battery Pack/CELL4_MINUS*%
X65000000Y-30000000D03*
D15*
X65000000Y-30000000D03*
%TD*%
D19*
%TO.P,L2,1,1*%
%TO.N,Net-(J25-Pin_1)*%
X101900000Y-64600000D03*
%TO.P,L2,2,2*%
%TO.N,Net-(U2-SW)*%
X96900000Y-64600000D03*
%TD*%
D16*
%TO.P,J13,1,Pin_1*%
%TO.N,/MCU/LED1*%
X89500000Y-97960000D03*
D17*
%TO.P,J13,2,Pin_2*%
%TO.N,/MCU/LED2*%
X89500000Y-100500000D03*
%TO.P,J13,3,Pin_3*%
%TO.N,/MCU/LED3*%
X89500000Y-103040000D03*
%TO.P,J13,4,Pin_4*%
%TO.N,GND*%
X89500000Y-105580000D03*
%TD*%
D16*
%TO.P,J26,1,Pin_1*%
%TO.N,Net-(D25-K)*%
X108675000Y-45000000D03*
D17*
%TO.P,J26,2,Pin_2*%
%TO.N,/18V*%
X111215000Y-45000000D03*
%TO.P,J26,3,Pin_3*%
%TO.N,GND*%
X113755000Y-45000000D03*
%TD*%
D22*
%TO.P,J7,S1,SHIELD*%
%TO.N,GND*%
X24300000Y-97500000D03*
%TO.P,J7,S2,SHIELD*%
X24300000Y-102500000D03*
D23*
%TO.P,J7,S3,SHIELD*%
X21600000Y-96475000D03*
%TO.P,J7,S6,SHIELD*%
X21600000Y-103525000D03*
%TD*%
D14*
%TO.P,J8,1,Pin_1*%
%TO.N,GND*%
X141000000Y-30000000D03*
D15*
X141000000Y-30000000D03*
%TD*%
D16*
%TO.P,J27,1,Pin_1*%
%TO.N,/Cell Balancing/CELL1*%
X115300000Y-58800000D03*
D17*
%TO.P,J27,2,Pin_2*%
%TO.N,/Cell Balancing/CELL2*%
X115300000Y-61340000D03*
%TO.P,J27,3,Pin_3*%
%TO.N,/Cell Balancing/CELL3*%
X115300000Y-63880000D03*
%TO.P,J27,4,Pin_4*%
%TO.N,/Cell Balancing/CELL4*%
X115300000Y-66420000D03*
%TO.P,J27,5,Pin_5*%
%TO.N,GND*%
X115300000Y-68960000D03*
%TD*%
D11*
%TO.P,SW7,1,-*%
%TO.N,/Battery Pack/PACK*%
X63400000Y-41080000D03*
%TO.P,SW7,2,+*%
%TO.N,/5V*%
X63400000Y-46160000D03*
%TO.P,SW7,6,-*%
%TO.N,/Cell Balancing/CELL4*%
X63400000Y-51240000D03*
%TO.P,SW7,7,+*%
%TO.N,/BALANCE_CAP_PLUS_RAW*%
X63400000Y-56320000D03*
%TD*%
%TO.P,SW8,1,-*%
%TO.N,/Battery Pack/CELL4_MINUS*%
X75300000Y-41080000D03*
%TO.P,SW8,2,+*%
%TO.N,/5V*%
X75300000Y-46160000D03*
%TO.P,SW8,6,-*%
%TO.N,/Cell Balancing/CELL4*%
X75300000Y-51240000D03*
%TO.P,SW8,7,+*%
%TO.N,Net-(Q11-S)*%
X75300000Y-56320000D03*
%TD*%
D14*
%TO.P,J4,1,Pin_1*%
%TO.N,/Battery Pack/CELL2_MINUS*%
X103000000Y-30000000D03*
D15*
X103000000Y-30000000D03*
%TD*%
D20*
%TO.P,H1,1,1*%
%TO.N,GND*%
X28000000Y-28000000D03*
%TD*%
D16*
%TO.P,J28,1,Pin_1*%
%TO.N,/Power Supply/9V4*%
X126900000Y-50525000D03*
D17*
%TO.P,J28,2,Pin_2*%
%TO.N,Net-(D24-A)*%
X126900000Y-47985000D03*
%TO.P,J28,3,Pin_3*%
%TO.N,GND*%
X126900000Y-45445000D03*
%TD*%
D11*
%TO.P,SW5,1,-*%
%TO.N,/Battery Pack/CELL4_MINUS*%
X69300000Y-41080000D03*
%TO.P,SW5,2,+*%
%TO.N,/5V*%
X69300000Y-46160000D03*
%TO.P,SW5,6,-*%
%TO.N,/Cell Balancing/CELL3*%
X69300000Y-51240000D03*
%TO.P,SW5,7,+*%
%TO.N,/BALANCE_CAP_PLUS_RAW*%
X69300000Y-56320000D03*
%TD*%
%TO.P,SW4,1,-*%
%TO.N,/Battery Pack/CELL3_MINUS*%
X81100000Y-41080000D03*
%TO.P,SW4,2,+*%
%TO.N,/5V*%
X81100000Y-46160000D03*
%TO.P,SW4,6,-*%
%TO.N,/Cell Balancing/CELL2*%
X81100000Y-51240000D03*
%TO.P,SW4,7,+*%
%TO.N,/BALANCE_CAP_PLUS_RAW*%
X81100000Y-56320000D03*
%TD*%
D16*
%TO.P,J25,1,Pin_1*%
%TO.N,Net-(J25-Pin_1)*%
X90800000Y-81100000D03*
D17*
%TO.P,J25,2,Pin_2*%
%TO.N,Net-(D20-A)*%
X90800000Y-83640000D03*
%TO.P,J25,3,Pin_3*%
%TO.N,GND*%
X90800000Y-86180000D03*
%TD*%
D24*
%TO.P,U10,1*%
%TO.N,/Cell Measurement/BALANCE_CAP_PLUS*%
X57625000Y-66287500D03*
%TO.P,U10,2,-*%
X58275000Y-66287500D03*
%TO.P,U10,3,+*%
%TO.N,Net-(U10A-+)*%
X58925000Y-66287500D03*
%TO.P,U10,4,V-*%
%TO.N,/-5V*%
X59575000Y-66287500D03*
%TO.P,U10,5,+*%
%TO.N,Net-(U10B-+)*%
X59575000Y-70512500D03*
%TO.P,U10,6,-*%
%TO.N,/Cell Measurement/BALANCE_CAP_MINUS*%
X58925000Y-70512500D03*
%TO.P,U10,7*%
X58275000Y-70512500D03*
%TO.P,U10,8,V+*%
%TO.N,/5V*%
X57625000Y-70512500D03*
%TD*%
D25*
%TO.P,R50,1*%
%TO.N,/3V3*%
X120500000Y-58287500D03*
%TO.P,R50,2*%
%TO.N,/LIMIT_BALANCING_CURRENT*%
X120500000Y-60112500D03*
%TD*%
D26*
%TO.P,R29,1*%
%TO.N,Net-(U7B-+)*%
X90412500Y-38800000D03*
%TO.P,R29,2*%
%TO.N,GND*%
X88587500Y-38800000D03*
%TD*%
D27*
%TO.P,D9,1,A*%
%TO.N,Net-(D14-K)*%
X49100000Y-71300000D03*
D28*
%TO.P,D9,2,K*%
%TO.N,/PACK_EXT*%
X49100000Y-65000000D03*
%TD*%
D29*
%TO.P,R59,1*%
%TO.N,Net-(J12-Pin_2)*%
X128000000Y-89050000D03*
%TO.P,R59,2*%
%TO.N,/3V3*%
X128000000Y-82950000D03*
%TD*%
D30*
%TO.P,C17,1*%
%TO.N,/5V*%
X85337500Y-43800000D03*
%TO.P,C17,2*%
%TO.N,/-5V*%
X87062500Y-43800000D03*
%TD*%
D26*
%TO.P,R47,1*%
%TO.N,/3V3*%
X53112500Y-90900000D03*
%TO.P,R47,2*%
%TO.N,/Battery Pack/CHARGE_AVAILABLE*%
X51287500Y-90900000D03*
%TD*%
D30*
%TO.P,C26,1*%
%TO.N,/MCU/NRST*%
X143137500Y-74000000D03*
%TO.P,C26,2*%
%TO.N,GND*%
X144862500Y-74000000D03*
%TD*%
D31*
%TO.P,Q7,1,G*%
%TO.N,Net-(Q5-D)*%
X74875000Y-35050000D03*
%TO.P,Q7,2,D*%
%TO.N,Net-(Q7-D)*%
X74875000Y-36950000D03*
%TO.P,Q7,3,S*%
%TO.N,/Battery Pack/CELL4_MINUS*%
X73000000Y-36000000D03*
%TD*%
D32*
%TO.P,C24,1*%
%TO.N,/MCU/VDDA*%
X125600000Y-91937500D03*
%TO.P,C24,2*%
%TO.N,GND*%
X125600000Y-93662500D03*
%TD*%
D26*
%TO.P,R26,1*%
%TO.N,Net-(Q7-D)*%
X75112500Y-38800000D03*
%TO.P,R26,2*%
%TO.N,Net-(U6A-+)*%
X73287500Y-38800000D03*
%TD*%
D33*
%TO.P,C34,1*%
%TO.N,/3V3*%
X131962500Y-47900000D03*
%TO.P,C34,2*%
%TO.N,GND*%
X130237500Y-47900000D03*
%TD*%
D34*
%TO.P,D24,1,K*%
%TO.N,Net-(D24-K)*%
X119700000Y-51650000D03*
%TO.P,D24,2,A*%
%TO.N,Net-(D24-A)*%
X119700000Y-49550000D03*
%TD*%
D35*
%TO.P,Q11,1,G*%
%TO.N,Net-(Q11-G)*%
X92750000Y-69437500D03*
%TO.P,Q11,2,S*%
%TO.N,Net-(Q11-S)*%
X90850000Y-69437500D03*
%TO.P,Q11,3,D*%
%TO.N,Net-(J23-Pin_1)*%
X91800000Y-67562500D03*
%TD*%
D36*
%TO.P,C9,1*%
%TO.N,/5V_USB*%
X26537500Y-94100000D03*
%TO.P,C9,2*%
%TO.N,GND*%
X24462500Y-94100000D03*
%TD*%
D37*
%TO.P,U15,1,NC*%
%TO.N,unconnected-(U15-NC-Pad1)*%
X111075000Y-61795000D03*
%TO.P,U15,2,CAP+*%
%TO.N,Net-(U15-CAP+)*%
X111075000Y-63065000D03*
%TO.P,U15,3,GND*%
%TO.N,GND*%
X111075000Y-64335000D03*
%TO.P,U15,4,CAP-*%
%TO.N,unconnected-(U15-CAP--Pad4)*%
X111075000Y-65605000D03*
%TO.P,U15,5,V_{OUT}*%
%TO.N,GND*%
X106125000Y-65605000D03*
%TO.P,U15,6,LV*%
%TO.N,unconnected-(U15-LV-Pad6)*%
X106125000Y-64335000D03*
%TO.P,U15,7,OSC*%
%TO.N,unconnected-(U15-OSC-Pad7)*%
X106125000Y-63065000D03*
%TO.P,U15,8,V+*%
%TO.N,/5V*%
X106125000Y-61795000D03*
%TD*%
D38*
%TO.P,U11,1*%
%TO.N,/Cell Measurement/CURRENT_SENSE*%
X128212500Y-38625000D03*
%TO.P,U11,2,-*%
%TO.N,Net-(U11A--)*%
X128212500Y-39275000D03*
%TO.P,U11,3,+*%
%TO.N,/Battery Pack/CELL1_MINUS*%
X128212500Y-39925000D03*
%TO.P,U11,4,V-*%
%TO.N,/-5V*%
X128212500Y-40575000D03*
%TO.P,U11,5,+*%
%TO.N,GND*%
X123987500Y-40575000D03*
%TO.P,U11,6,-*%
X123987500Y-39925000D03*
%TO.P,U11,7*%
%TO.N,unconnected-(U11-Pad7)*%
X123987500Y-39275000D03*
%TO.P,U11,8,V+*%
%TO.N,/5V*%
X123987500Y-38625000D03*
%TD*%
D32*
%TO.P,C4,1*%
%TO.N,Net-(U2-VCC)*%
X89800000Y-76237500D03*
%TO.P,C4,2*%
%TO.N,GND*%
X89800000Y-77962500D03*
%TD*%
D30*
%TO.P,C33,1*%
%TO.N,/3V3*%
X126937500Y-66400000D03*
%TO.P,C33,2*%
%TO.N,GND*%
X128662500Y-66400000D03*
%TD*%
D32*
%TO.P,C25,1*%
%TO.N,/MCU/VDDA*%
X123800000Y-91937500D03*
%TO.P,C25,2*%
%TO.N,GND*%
X123800000Y-93662500D03*
%TD*%
D34*
%TO.P,D15,1,K*%
%TO.N,Net-(D15-K)*%
X107900000Y-57850000D03*
%TO.P,D15,2,A*%
%TO.N,/5V*%
X107900000Y-59950000D03*
%TD*%
D39*
%TO.P,C36,1*%
%TO.N,Net-(D15-K)*%
X110237500Y-58900000D03*
%TO.P,C36,2*%
%TO.N,Net-(U15-CAP+)*%
X113362500Y-58900000D03*
%TD*%
D40*
%TO.P,R8,1*%
%TO.N,Net-(J25-Pin_1)*%
X91700000Y-78012500D03*
%TO.P,R8,2*%
%TO.N,Net-(R8-Pad2)*%
X91700000Y-76187500D03*
%TD*%
D26*
%TO.P,R23,1*%
%TO.N,/18V*%
X113612500Y-40600000D03*
%TO.P,R23,2*%
%TO.N,Net-(Q5-D)*%
X111787500Y-40600000D03*
%TD*%
D40*
%TO.P,R9,1*%
%TO.N,Net-(R8-Pad2)*%
X91700000Y-74412500D03*
%TO.P,R9,2*%
%TO.N,Net-(U2-FB{slash}VOUT)*%
X91700000Y-72587500D03*
%TD*%
D25*
%TO.P,R39,1*%
%TO.N,/BALANCE_CAP_PLUS_RAW*%
X59600000Y-62187500D03*
%TO.P,R39,2*%
%TO.N,Net-(U10A-+)*%
X59600000Y-64012500D03*
%TD*%
D30*
%TO.P,C14,1*%
%TO.N,Net-(J7-VCC)*%
X28137500Y-98000000D03*
%TO.P,C14,2*%
%TO.N,GND*%
X29862500Y-98000000D03*
%TD*%
D41*
%TO.P,C1,1*%
%TO.N,Net-(D3-K)*%
X39200000Y-91462500D03*
%TO.P,C1,2*%
%TO.N,GND*%
X39200000Y-88337500D03*
%TD*%
D42*
%TO.P,C10,1*%
%TO.N,Net-(U3-USBDM)*%
X32200000Y-97862500D03*
%TO.P,C10,2*%
%TO.N,GND*%
X32200000Y-96137500D03*
%TD*%
D43*
%TO.P,R5,1*%
%TO.N,Net-(U1-FB{slash}VOUT)*%
X49087500Y-100100000D03*
%TO.P,R5,2*%
%TO.N,Net-(R5-Pad2)*%
X50912500Y-100100000D03*
%TD*%
D26*
%TO.P,R28,1*%
%TO.N,Net-(Q8-D)*%
X94112500Y-38800000D03*
%TO.P,R28,2*%
%TO.N,Net-(U7B-+)*%
X92287500Y-38800000D03*
%TD*%
D42*
%TO.P,C18,1*%
%TO.N,/3V3*%
X52800000Y-108862500D03*
%TO.P,C18,2*%
%TO.N,GND*%
X52800000Y-107137500D03*
%TD*%
D26*
%TO.P,R22,1*%
%TO.N,/18V*%
X113612500Y-42300000D03*
%TO.P,R22,2*%
%TO.N,GND*%
X111787500Y-42300000D03*
%TD*%
%TO.P,R24,1*%
%TO.N,Net-(Q6-D)*%
X56212500Y-38800000D03*
%TO.P,R24,2*%
%TO.N,Net-(U6B-+)*%
X54387500Y-38800000D03*
%TD*%
D44*
%TO.P,U9,1,SDA*%
%TO.N,/MCU/SDA*%
X79405000Y-108575000D03*
%TO.P,U9,2,SCL*%
%TO.N,/MCU/SCL*%
X78135000Y-108575000D03*
%TO.P,U9,3,ALERT*%
%TO.N,unconnected-(U9-ALERT-Pad3)*%
X76865000Y-108575000D03*
%TO.P,U9,4,GND*%
%TO.N,GND*%
X75595000Y-108575000D03*
%TO.P,U9,5,A2*%
X75595000Y-103625000D03*
%TO.P,U9,6,A1*%
X76865000Y-103625000D03*
%TO.P,U9,7,A0*%
X78135000Y-103625000D03*
%TO.P,U9,8,V_{CC}*%
%TO.N,/3V3*%
X79405000Y-103625000D03*
%TD*%
D45*
%TO.P,Q2,1,G*%
%TO.N,Net-(Q1-D)*%
X55400000Y-43420000D03*
D46*
%TO.P,Q2,2,D*%
%TO.N,/Battery Pack/PACK*%
X49100000Y-45700000D03*
D45*
%TO.P,Q2,3,S*%
%TO.N,Net-(Q2-S)*%
X55400000Y-47980000D03*
%TD*%
D26*
%TO.P,R21,1*%
%TO.N,/3V3*%
X121912500Y-105000000D03*
%TO.P,R21,2*%
%TO.N,/Interconnect/UART_TX*%
X120087500Y-105000000D03*
%TD*%
D40*
%TO.P,R42,1*%
%TO.N,Net-(U10B-+)*%
X61400000Y-64012500D03*
%TO.P,R42,2*%
%TO.N,GND*%
X61400000Y-62187500D03*
%TD*%
D31*
%TO.P,Q12,1,G*%
%TO.N,/LIMIT_BALANCING_CURRENT*%
X120337500Y-62050000D03*
%TO.P,Q12,2,S*%
%TO.N,GND*%
X120337500Y-63950000D03*
%TO.P,Q12,3,D*%
%TO.N,Net-(Q11-G)*%
X118462500Y-63000000D03*
%TD*%
D26*
%TO.P,R6,1*%
%TO.N,Net-(R4-Pad2)*%
X50912500Y-101900000D03*
%TO.P,R6,2*%
%TO.N,Net-(U1-FB{slash}VOUT)*%
X49087500Y-101900000D03*
%TD*%
D43*
%TO.P,FB1,1*%
%TO.N,Net-(J7-VCC)*%
X28087500Y-96200000D03*
%TO.P,FB1,2*%
%TO.N,/5V_USB*%
X29912500Y-96200000D03*
%TD*%
D34*
%TO.P,D3,1,K*%
%TO.N,Net-(D3-K)*%
X47500000Y-86050000D03*
%TO.P,D3,2,A*%
%TO.N,/PACK_EXT*%
X47500000Y-83950000D03*
%TD*%
D40*
%TO.P,R16,1*%
%TO.N,/3V3*%
X36800000Y-105412500D03*
%TO.P,R16,2*%
%TO.N,Net-(U3-~{RTS})*%
X36800000Y-103587500D03*
%TD*%
D26*
%TO.P,R7,1*%
%TO.N,Net-(R5-Pad2)*%
X50912500Y-98400000D03*
%TO.P,R7,2*%
%TO.N,GND*%
X49087500Y-98400000D03*
%TD*%
D47*
%TO.P,C19,1*%
%TO.N,/3V3*%
X132000000Y-82937500D03*
%TO.P,C19,2*%
%TO.N,GND*%
X132000000Y-86062500D03*
%TD*%
D42*
%TO.P,C27,1*%
%TO.N,/5V*%
X55800000Y-70762500D03*
%TO.P,C27,2*%
%TO.N,/-5V*%
X55800000Y-69037500D03*
%TD*%
D29*
%TO.P,R1,1*%
%TO.N,/Battery Pack/CELL1_MINUS*%
X131500000Y-38750000D03*
%TO.P,R1,2*%
%TO.N,GND*%
X131500000Y-32650000D03*
%TD*%
D48*
%TO.P,U13,1,Ea*%
%TO.N,/EN_CELL_BALANCING*%
X126625000Y-58537500D03*
%TO.P,U13,2,A0a*%
%TO.N,/CELL_BALANCING_A0*%
X127275000Y-58537500D03*
%TO.P,U13,3,A1a*%
%TO.N,/CELL_BALANCING_A1*%
X127925000Y-58537500D03*
%TO.P,U13,4,Y0a*%
%TO.N,Net-(Q14-G)*%
X128575000Y-58537500D03*
%TO.P,U13,5,Y1a*%
%TO.N,Net-(Q15-G)*%
X129225000Y-58537500D03*
%TO.P,U13,6,Y2a*%
%TO.N,Net-(Q16-G)*%
X129875000Y-58537500D03*
%TO.P,U13,7,Y3a*%
%TO.N,Net-(Q17-G)*%
X130525000Y-58537500D03*
%TO.P,U13,8,GND*%
%TO.N,GND*%
X131175000Y-58537500D03*
%TO.P,U13,9,Y3b*%
%TO.N,unconnected-(U13-Y3b-Pad9)*%
X131175000Y-64262500D03*
%TO.P,U13,10,Y2b*%
%TO.N,unconnected-(U13-Y2b-Pad10)*%
X130525000Y-64262500D03*
%TO.P,U13,11,Y1b*%
%TO.N,unconnected-(U13-Y1b-Pad11)*%
X129875000Y-64262500D03*
%TO.P,U13,12,Y0b*%
%TO.N,unconnected-(U13-Y0b-Pad12)*%
X129225000Y-64262500D03*
%TO.P,U13,13,A1b*%
%TO.N,GND*%
X128575000Y-64262500D03*
%TO.P,U13,14,A0b*%
X127925000Y-64262500D03*
%TO.P,U13,15,Eb*%
%TO.N,/3V3*%
X127275000Y-64262500D03*
%TO.P,U13,16,V_{CC}*%
X126625000Y-64262500D03*
%TD*%
D34*
%TO.P,D2,1,K*%
%TO.N,Net-(D1-K)*%
X67400000Y-47550000D03*
%TO.P,D2,2,A*%
%TO.N,/PACK_EXT*%
X67400000Y-49650000D03*
%TD*%
D31*
%TO.P,Q16,1,G*%
%TO.N,Net-(Q16-G)*%
X124537500Y-65850000D03*
%TO.P,Q16,2,S*%
%TO.N,GND*%
X124537500Y-67750000D03*
%TO.P,Q16,3,D*%
%TO.N,/Cell Balancing/CELL3*%
X122662500Y-66800000D03*
%TD*%
D26*
%TO.P,R55,1*%
%TO.N,Net-(U14-ROSC)*%
X133812500Y-42400000D03*
%TO.P,R55,2*%
%TO.N,GND*%
X131987500Y-42400000D03*
%TD*%
%TO.P,R25,1*%
%TO.N,Net-(U6B-+)*%
X52512500Y-38800000D03*
%TO.P,R25,2*%
%TO.N,GND*%
X50687500Y-38800000D03*
%TD*%
D49*
%TO.P,Q1,1,G*%
%TO.N,/CHARGE*%
X59250000Y-46062500D03*
%TO.P,Q1,2,S*%
%TO.N,GND*%
X61150000Y-46062500D03*
%TO.P,Q1,3,D*%
%TO.N,Net-(Q1-D)*%
X60200000Y-47937500D03*
%TD*%
D32*
%TO.P,C21,1*%
%TO.N,/3V3*%
X134700000Y-82837500D03*
%TO.P,C21,2*%
%TO.N,GND*%
X134700000Y-84562500D03*
%TD*%
D50*
%TO.P,D21,1,K*%
%TO.N,/5V*%
X110850000Y-108900000D03*
%TO.P,D21,2,A*%
%TO.N,/5V_EXT*%
X112950000Y-108900000D03*
%TD*%
D29*
%TO.P,R51,1*%
%TO.N,/3V3*%
X46000000Y-108750000D03*
%TO.P,R51,2*%
%TO.N,Net-(J24-Pin_1)*%
X46000000Y-102650000D03*
%TD*%
D51*
%TO.P,C28,1*%
%TO.N,Net-(U12-CAP+)*%
X56762500Y-82000000D03*
%TO.P,C28,2*%
%TO.N,Net-(U12-CAP-)*%
X53637500Y-82000000D03*
%TD*%
D43*
%TO.P,R35,1*%
%TO.N,/3V3*%
X139087500Y-74000000D03*
%TO.P,R35,2*%
%TO.N,/MCU/NRST*%
X140912500Y-74000000D03*
%TD*%
D24*
%TO.P,U6,1*%
%TO.N,/Cell Measurement/CELL3*%
X71325000Y-42087500D03*
%TO.P,U6,2,-*%
X71975000Y-42087500D03*
%TO.P,U6,3,+*%
%TO.N,Net-(U6A-+)*%
X72625000Y-42087500D03*
%TO.P,U6,4,V-*%
%TO.N,/-5V*%
X73275000Y-42087500D03*
%TO.P,U6,5,+*%
%TO.N,Net-(U6B-+)*%
X73275000Y-46312500D03*
%TO.P,U6,6,-*%
%TO.N,/Cell Measurement/CELL4*%
X72625000Y-46312500D03*
%TO.P,U6,7*%
X71975000Y-46312500D03*
%TO.P,U6,8,V+*%
%TO.N,/5V*%
X71325000Y-46312500D03*
%TD*%
D52*
%TO.P,R52,1*%
%TO.N,Net-(D20-A)*%
X81550000Y-80000000D03*
%TO.P,R52,2*%
%TO.N,Net-(J25-Pin_1)*%
X87650000Y-80000000D03*
%TD*%
D25*
%TO.P,R36,1*%
%TO.N,/3V3*%
X109200000Y-79787500D03*
%TO.P,R36,2*%
%TO.N,/MCU/SCL*%
X109200000Y-81612500D03*
%TD*%
%TO.P,R49,1*%
%TO.N,/18V*%
X118600000Y-58287500D03*
%TO.P,R49,2*%
%TO.N,Net-(Q11-G)*%
X118600000Y-60112500D03*
%TD*%
D33*
%TO.P,C3,1*%
%TO.N,Net-(U1-VCC)*%
X46162500Y-97700000D03*
%TO.P,C3,2*%
%TO.N,GND*%
X44437500Y-97700000D03*
%TD*%
D26*
%TO.P,R30,1*%
%TO.N,Net-(Q9-D)*%
X113112500Y-38800000D03*
%TO.P,R30,2*%
%TO.N,Net-(U7A-+)*%
X111287500Y-38800000D03*
%TD*%
D43*
%TO.P,R4,1*%
%TO.N,Net-(J24-Pin_1)*%
X49087500Y-103700000D03*
%TO.P,R4,2*%
%TO.N,Net-(R4-Pad2)*%
X50912500Y-103700000D03*
%TD*%
D53*
%TO.P,C8,1*%
%TO.N,Net-(J25-Pin_1)*%
X101262500Y-61400000D03*
%TO.P,C8,2*%
%TO.N,GND*%
X98137500Y-61400000D03*
%TD*%
D31*
%TO.P,Q10,1,G*%
%TO.N,Net-(D14-K)*%
X53337500Y-87250000D03*
%TO.P,Q10,2,S*%
%TO.N,GND*%
X53337500Y-89150000D03*
%TO.P,Q10,3,D*%
%TO.N,/Battery Pack/CHARGE_AVAILABLE*%
X51462500Y-88200000D03*
%TD*%
D40*
%TO.P,R57,1*%
%TO.N,Net-(U11A--)*%
X130300000Y-42512500D03*
%TO.P,R57,2*%
%TO.N,GND*%
X130300000Y-40687500D03*
%TD*%
D25*
%TO.P,R38,1*%
%TO.N,GND*%
X113000000Y-79787500D03*
%TO.P,R38,2*%
%TO.N,Net-(U4-BOOT0)*%
X113000000Y-81612500D03*
%TD*%
D31*
%TO.P,Q6,1,G*%
%TO.N,Net-(Q5-D)*%
X56000000Y-35000000D03*
%TO.P,Q6,2,D*%
%TO.N,Net-(Q6-D)*%
X56000000Y-36900000D03*
%TO.P,Q6,3,S*%
%TO.N,/Battery Pack/PACK*%
X54125000Y-35950000D03*
%TD*%
D33*
%TO.P,C23,1*%
%TO.N,/3V3*%
X79462500Y-101400000D03*
%TO.P,C23,2*%
%TO.N,GND*%
X77737500Y-101400000D03*
%TD*%
D25*
%TO.P,R2,1*%
%TO.N,Net-(D1-K)*%
X65400000Y-46987500D03*
%TO.P,R2,2*%
%TO.N,Net-(Q1-D)*%
X65400000Y-48812500D03*
%TD*%
D27*
%TO.P,D8,1,A*%
%TO.N,/PACK_EXT*%
X49100000Y-59600000D03*
D28*
%TO.P,D8,2,K*%
%TO.N,Net-(D13-K)*%
X49100000Y-53300000D03*
%TD*%
D54*
%TO.P,R48,1*%
%TO.N,Net-(Q11-S)*%
X82275000Y-63060000D03*
%TO.P,R48,2*%
%TO.N,Net-(J23-Pin_1)*%
X82275000Y-68140000D03*
D55*
%TO.P,R48,3,PAD*%
%TO.N,GND*%
X73125000Y-65600000D03*
%TD*%
D44*
%TO.P,U12,1,NC*%
%TO.N,unconnected-(U12-NC-Pad1)*%
X58605000Y-78775000D03*
%TO.P,U12,2,CAP+*%
%TO.N,Net-(U12-CAP+)*%
X57335000Y-78775000D03*
%TO.P,U12,3,GND*%
%TO.N,GND*%
X56065000Y-78775000D03*
%TO.P,U12,4,CAP-*%
%TO.N,Net-(U12-CAP-)*%
X54795000Y-78775000D03*
%TO.P,U12,5,V_{OUT}*%
%TO.N,Net-(J14-Pin_1)*%
X54795000Y-73825000D03*
%TO.P,U12,6,LV*%
%TO.N,unconnected-(U12-LV-Pad6)*%
X56065000Y-73825000D03*
%TO.P,U12,7,OSC*%
%TO.N,unconnected-(U12-OSC-Pad7)*%
X57335000Y-73825000D03*
%TO.P,U12,8,V+*%
%TO.N,/5V*%
X58605000Y-73825000D03*
%TD*%
D42*
%TO.P,C12,1*%
%TO.N,Net-(U3-USBDP)*%
X32200000Y-101662500D03*
%TO.P,C12,2*%
%TO.N,GND*%
X32200000Y-99937500D03*
%TD*%
D51*
%TO.P,C37,1*%
%TO.N,/Power Supply/9V4*%
X119862500Y-55700000D03*
%TO.P,C37,2*%
%TO.N,GND*%
X116737500Y-55700000D03*
%TD*%
D33*
%TO.P,C35,1*%
%TO.N,/5V*%
X124862500Y-42300000D03*
%TO.P,C35,2*%
%TO.N,/-5V*%
X123137500Y-42300000D03*
%TD*%
D56*
%TO.P,U1,1,SW*%
%TO.N,Net-(U1-SW)*%
X47475000Y-91895000D03*
%TO.P,U1,2,BOOT*%
%TO.N,Net-(U1-BOOT)*%
X47475000Y-93165000D03*
%TO.P,U1,3,VCC*%
%TO.N,Net-(U1-VCC)*%
X47475000Y-94435000D03*
%TO.P,U1,4,FB/VOUT*%
%TO.N,Net-(U1-FB{slash}VOUT)*%
X47475000Y-95705000D03*
%TO.P,U1,5,EN/CLKN*%
%TO.N,Net-(D3-K)*%
X42325000Y-95705000D03*
%TO.P,U1,6,AGND*%
%TO.N,GND*%
X42325000Y-94435000D03*
%TO.P,U1,7,VIN*%
%TO.N,Net-(D3-K)*%
X42325000Y-93165000D03*
%TO.P,U1,8,PGND*%
%TO.N,GND*%
X42325000Y-91895000D03*
%TD*%
D50*
%TO.P,D23,1,K*%
%TO.N,/Power Supply/9V4*%
X109550000Y-55900000D03*
%TO.P,D23,2,A*%
%TO.N,Net-(D15-K)*%
X107450000Y-55900000D03*
%TD*%
D25*
%TO.P,R37,1*%
%TO.N,/3V3*%
X111100000Y-79787500D03*
%TO.P,R37,2*%
%TO.N,/MCU/SDA*%
X111100000Y-81612500D03*
%TD*%
D34*
%TO.P,D1,1,K*%
%TO.N,Net-(D1-K)*%
X65600000Y-45450000D03*
%TO.P,D1,2,A*%
%TO.N,/Battery Pack/PACK*%
X65600000Y-43350000D03*
%TD*%
D25*
%TO.P,R10,1*%
%TO.N,Net-(U2-FB{slash}VOUT)*%
X93500000Y-72587500D03*
%TO.P,R10,2*%
%TO.N,Net-(R10-Pad2)*%
X93500000Y-74412500D03*
%TD*%
D57*
%TO.P,U7,1*%
%TO.N,/Cell Measurement/CELL1*%
X90875000Y-46012500D03*
%TO.P,U7,2,-*%
X90225000Y-46012500D03*
%TO.P,U7,3,+*%
%TO.N,Net-(U7A-+)*%
X89575000Y-46012500D03*
%TO.P,U7,4,V-*%
%TO.N,/-5V*%
X88925000Y-46012500D03*
%TO.P,U7,5,+*%
%TO.N,Net-(U7B-+)*%
X88925000Y-41787500D03*
%TO.P,U7,6,-*%
%TO.N,/Cell Measurement/CELL2*%
X89575000Y-41787500D03*
%TO.P,U7,7*%
X90225000Y-41787500D03*
%TO.P,U7,8,V+*%
%TO.N,/5V*%
X90875000Y-41787500D03*
%TD*%
D33*
%TO.P,C13,1*%
%TO.N,/5V_USB*%
X26662500Y-92100000D03*
%TO.P,C13,2*%
%TO.N,GND*%
X24937500Y-92100000D03*
%TD*%
D41*
%TO.P,C29,1*%
%TO.N,Net-(J14-Pin_1)*%
X50800000Y-79862500D03*
%TO.P,C29,2*%
%TO.N,GND*%
X50800000Y-76737500D03*
%TD*%
D56*
%TO.P,U2,1,SW*%
%TO.N,Net-(U2-SW)*%
X87475000Y-72895000D03*
%TO.P,U2,2,BOOT*%
%TO.N,Net-(U2-BOOT)*%
X87475000Y-74165000D03*
%TO.P,U2,3,VCC*%
%TO.N,Net-(U2-VCC)*%
X87475000Y-75435000D03*
%TO.P,U2,4,FB/VOUT*%
%TO.N,Net-(U2-FB{slash}VOUT)*%
X87475000Y-76705000D03*
%TO.P,U2,5,EN/CLKN*%
%TO.N,/PACK_EXT*%
X82325000Y-76705000D03*
%TO.P,U2,6,AGND*%
%TO.N,GND*%
X82325000Y-75435000D03*
%TO.P,U2,7,VIN*%
%TO.N,/PACK_EXT*%
X82325000Y-74165000D03*
%TO.P,U2,8,PGND*%
%TO.N,GND*%
X82325000Y-72895000D03*
%TD*%
D35*
%TO.P,Q5,1,G*%
%TO.N,/18V*%
X117150000Y-39437500D03*
%TO.P,Q5,2,S*%
%TO.N,GND*%
X115250000Y-39437500D03*
%TO.P,Q5,3,D*%
%TO.N,Net-(Q5-D)*%
X116200000Y-37562500D03*
%TD*%
D26*
%TO.P,R3,1*%
%TO.N,Net-(D1-K)*%
X67212500Y-51100000D03*
%TO.P,R3,2*%
%TO.N,Net-(Q3-G)*%
X65387500Y-51100000D03*
%TD*%
D31*
%TO.P,Q4,1,G*%
%TO.N,/DISCHARGE*%
X67237500Y-52850000D03*
%TO.P,Q4,2,S*%
%TO.N,GND*%
X67237500Y-54750000D03*
%TO.P,Q4,3,D*%
%TO.N,Net-(Q3-G)*%
X65362500Y-53800000D03*
%TD*%
D58*
%TO.P,U16,1,NC*%
%TO.N,unconnected-(U16-NC-Pad1)*%
X117125000Y-48005000D03*
%TO.P,U16,2,CAP+*%
%TO.N,Net-(U16-CAP+)*%
X117125000Y-46735000D03*
%TO.P,U16,3,GND*%
%TO.N,GND*%
X117125000Y-45465000D03*
%TO.P,U16,4,CAP-*%
%TO.N,unconnected-(U16-CAP--Pad4)*%
X117125000Y-44195000D03*
%TO.P,U16,5,V_{OUT}*%
%TO.N,GND*%
X122075000Y-44195000D03*
%TO.P,U16,6,LV*%
%TO.N,unconnected-(U16-LV-Pad6)*%
X122075000Y-45465000D03*
%TO.P,U16,7,OSC*%
%TO.N,unconnected-(U16-OSC-Pad7)*%
X122075000Y-46735000D03*
%TO.P,U16,8,V+*%
%TO.N,Net-(D24-A)*%
X122075000Y-48005000D03*
%TD*%
D31*
%TO.P,Q17,1,G*%
%TO.N,Net-(Q17-G)*%
X124537500Y-69550000D03*
%TO.P,Q17,2,S*%
%TO.N,GND*%
X124537500Y-71450000D03*
%TO.P,Q17,3,D*%
%TO.N,/Cell Balancing/CELL4*%
X122662500Y-70500000D03*
%TD*%
D50*
%TO.P,D20,1,K*%
%TO.N,/5V*%
X77650000Y-79000000D03*
%TO.P,D20,2,A*%
%TO.N,Net-(D20-A)*%
X79750000Y-79000000D03*
%TD*%
D33*
%TO.P,C16,1*%
%TO.N,/5V*%
X76862500Y-43700000D03*
%TO.P,C16,2*%
%TO.N,/-5V*%
X75137500Y-43700000D03*
%TD*%
D25*
%TO.P,R46,1*%
%TO.N,Net-(D14-K)*%
X55400000Y-87287500D03*
%TO.P,R46,2*%
%TO.N,GND*%
X55400000Y-89112500D03*
%TD*%
D59*
%TO.P,R43,1*%
%TO.N,/-5V*%
X47000000Y-73850000D03*
%TO.P,R43,2*%
%TO.N,Net-(J14-Pin_1)*%
X47000000Y-79950000D03*
%TD*%
D42*
%TO.P,C5,1*%
%TO.N,Net-(U1-SW)*%
X33200000Y-91062500D03*
%TO.P,C5,2*%
%TO.N,Net-(U1-BOOT)*%
X33200000Y-89337500D03*
%TD*%
D43*
%TO.P,R20,1*%
%TO.N,/3V3*%
X115187500Y-105000000D03*
%TO.P,R20,2*%
%TO.N,/Interconnect/UART_RX*%
X117012500Y-105000000D03*
%TD*%
D26*
%TO.P,R31,1*%
%TO.N,Net-(U7A-+)*%
X109412500Y-38800000D03*
%TO.P,R31,2*%
%TO.N,GND*%
X107587500Y-38800000D03*
%TD*%
D41*
%TO.P,C2,1*%
%TO.N,/PACK_EXT*%
X79100000Y-76462500D03*
%TO.P,C2,2*%
%TO.N,GND*%
X79100000Y-73337500D03*
%TD*%
D40*
%TO.P,R17,1*%
%TO.N,/3V3*%
X33300000Y-105412500D03*
%TO.P,R17,2*%
%TO.N,Net-(U3-~{CTS})*%
X33300000Y-103587500D03*
%TD*%
D43*
%TO.P,R56,1*%
%TO.N,/Cell Measurement/CURRENT_SENSE*%
X126687500Y-42300000D03*
%TO.P,R56,2*%
%TO.N,Net-(U11A--)*%
X128512500Y-42300000D03*
%TD*%
D31*
%TO.P,Q9,1,G*%
%TO.N,Net-(Q5-D)*%
X112875000Y-35050000D03*
%TO.P,Q9,2,D*%
%TO.N,Net-(Q9-D)*%
X112875000Y-36950000D03*
%TO.P,Q9,3,S*%
%TO.N,/Battery Pack/CELL2_MINUS*%
X111000000Y-36000000D03*
%TD*%
D50*
%TO.P,D5,1,K*%
%TO.N,Net-(D3-K)*%
X38250000Y-93700000D03*
%TO.P,D5,2,A*%
%TO.N,/5V_USB*%
X36150000Y-93700000D03*
%TD*%
D26*
%TO.P,R12,1*%
%TO.N,Net-(U3-USBDM)*%
X29912500Y-99800000D03*
%TO.P,R12,2*%
%TO.N,Net-(J7-D-)*%
X28087500Y-99800000D03*
%TD*%
%TO.P,R13,1*%
%TO.N,Net-(U3-USBDP)*%
X29912500Y-101600000D03*
%TO.P,R13,2*%
%TO.N,Net-(J7-D+)*%
X28087500Y-101600000D03*
%TD*%
D32*
%TO.P,C22,1*%
%TO.N,/3V3*%
X138300000Y-82837500D03*
%TO.P,C22,2*%
%TO.N,GND*%
X138300000Y-84562500D03*
%TD*%
D41*
%TO.P,C38,1*%
%TO.N,Net-(D24-K)*%
X116800000Y-53062500D03*
%TO.P,C38,2*%
%TO.N,Net-(U16-CAP+)*%
X116800000Y-49937500D03*
%TD*%
D31*
%TO.P,Q15,1,G*%
%TO.N,Net-(Q15-G)*%
X124537500Y-62050000D03*
%TO.P,Q15,2,S*%
%TO.N,GND*%
X124537500Y-63950000D03*
%TO.P,Q15,3,D*%
%TO.N,/Cell Balancing/CELL2*%
X122662500Y-63000000D03*
%TD*%
D60*
%TO.P,U4,1,VDD*%
%TO.N,Net-(J12-Pin_2)*%
X116162500Y-87250000D03*
%TO.P,U4,2,PC13*%
%TO.N,unconnected-(U4-PC13-Pad2)*%
X116162500Y-87750000D03*
%TO.P,U4,3,PC14*%
%TO.N,unconnected-(U4-PC14-Pad3)*%
X116162500Y-88250000D03*
%TO.P,U4,4,PC15*%
%TO.N,unconnected-(U4-PC15-Pad4)*%
X116162500Y-88750000D03*
%TO.P,U4,5,PH0*%
%TO.N,unconnected-(U4-PH0-Pad5)*%
X116162500Y-89250000D03*
%TO.P,U4,6,PH1*%
%TO.N,unconnected-(U4-PH1-Pad6)*%
X116162500Y-89750000D03*
%TO.P,U4,7,NRST*%
%TO.N,/MCU/NRST*%
X116162500Y-90250000D03*
%TO.P,U4,8,VSSA*%
%TO.N,GND*%
X116162500Y-90750000D03*
%TO.P,U4,9,VDDA*%
%TO.N,/MCU/VDDA*%
X116162500Y-91250000D03*
%TO.P,U4,10,PA0*%
%TO.N,/Cell Measurement/CELL1*%
X116162500Y-91750000D03*
%TO.P,U4,11,PA1*%
%TO.N,/Cell Measurement/CELL2*%
X116162500Y-92250000D03*
%TO.P,U4,12,PA2*%
%TO.N,/Cell Measurement/CELL3*%
X116162500Y-92750000D03*
D61*
%TO.P,U4,13,PA3*%
%TO.N,/Cell Measurement/CELL4*%
X114750000Y-94162500D03*
%TO.P,U4,14,PA4*%
%TO.N,/Cell Measurement/BALANCE_CAP_PLUS*%
X114250000Y-94162500D03*
%TO.P,U4,15,PA5*%
%TO.N,/Cell Measurement/BALANCE_CAP_MINUS*%
X113750000Y-94162500D03*
%TO.P,U4,16,PA6*%
%TO.N,unconnected-(U4-PA6-Pad16)*%
X113250000Y-94162500D03*
%TO.P,U4,17,PA7*%
%TO.N,/MCU/LED1*%
X112750000Y-94162500D03*
%TO.P,U4,18,PB0*%
%TO.N,/Battery Pack/CHARGE_AVAILABLE*%
X112250000Y-94162500D03*
%TO.P,U4,19,PB1*%
%TO.N,unconnected-(U4-PB1-Pad19)*%
X111750000Y-94162500D03*
%TO.P,U4,20,PB2*%
%TO.N,unconnected-(U4-PB2-Pad20)*%
X111250000Y-94162500D03*
%TO.P,U4,21,PB10*%
%TO.N,/Interconnect/UART_TX*%
X110750000Y-94162500D03*
%TO.P,U4,22,PB11*%
%TO.N,/Interconnect/UART_RX*%
X110250000Y-94162500D03*
%TO.P,U4,23,VSS*%
%TO.N,GND*%
X109750000Y-94162500D03*
%TO.P,U4,24,VDD*%
%TO.N,Net-(J12-Pin_2)*%
X109250000Y-94162500D03*
D60*
%TO.P,U4,25,PB12*%
%TO.N,/CELL_BALANCING_A0*%
X107837500Y-92750000D03*
%TO.P,U4,26,PB13*%
%TO.N,/CELL_BALANCING_A1*%
X107837500Y-92250000D03*
%TO.P,U4,27,PB14*%
%TO.N,/CHARGE*%
X107837500Y-91750000D03*
%TO.P,U4,28,PB15*%
%TO.N,/DISCHARGE*%
X107837500Y-91250000D03*
%TO.P,U4,29,PA8*%
%TO.N,/MCU/LED2*%
X107837500Y-90750000D03*
%TO.P,U4,30,PA9*%
%TO.N,/MCU/UART_USB_TX*%
X107837500Y-90250000D03*
%TO.P,U4,31,PA10*%
%TO.N,/MCU/UART_USB_RX*%
X107837500Y-89750000D03*
%TO.P,U4,32,PA11*%
%TO.N,/MCU/LED3*%
X107837500Y-89250000D03*
%TO.P,U4,33,PA12*%
%TO.N,/EN_CELL_BALANCING*%
X107837500Y-88750000D03*
%TO.P,U4,34,PA13*%
%TO.N,/MCU/SWDIO*%
X107837500Y-88250000D03*
%TO.P,U4,35,VSS*%
%TO.N,GND*%
X107837500Y-87750000D03*
%TO.P,U4,36,VDDIO2*%
%TO.N,Net-(J12-Pin_2)*%
X107837500Y-87250000D03*
D61*
%TO.P,U4,37,PA14*%
%TO.N,/MCU/SWCLK*%
X109250000Y-85837500D03*
%TO.P,U4,38,PA15*%
%TO.N,/LIMIT_BALANCING_CURRENT*%
X109750000Y-85837500D03*
%TO.P,U4,39,PB3*%
%TO.N,unconnected-(U4-PB3-Pad39)*%
X110250000Y-85837500D03*
%TO.P,U4,40,PB4*%
%TO.N,unconnected-(U4-PB4-Pad40)*%
X110750000Y-85837500D03*
%TO.P,U4,41,PB5*%
%TO.N,unconnected-(U4-PB5-Pad41)*%
X111250000Y-85837500D03*
%TO.P,U4,42,PB6*%
%TO.N,/MCU/SCL*%
X111750000Y-85837500D03*
%TO.P,U4,43,PB7*%
%TO.N,/MCU/SDA*%
X112250000Y-85837500D03*
%TO.P,U4,44,BOOT0*%
%TO.N,Net-(U4-BOOT0)*%
X112750000Y-85837500D03*
%TO.P,U4,45,PB8*%
%TO.N,unconnected-(U4-PB8-Pad45)*%
X113250000Y-85837500D03*
%TO.P,U4,46,PB9*%
%TO.N,unconnected-(U4-PB9-Pad46)*%
X113750000Y-85837500D03*
%TO.P,U4,47,VSS*%
%TO.N,GND*%
X114250000Y-85837500D03*
%TO.P,U4,48,VDD*%
%TO.N,Net-(J12-Pin_2)*%
X114750000Y-85837500D03*
%TD*%
D62*
%TO.P,U3,1,TXD*%
%TO.N,/MCU/UART_USB_RX*%
X38622500Y-100800000D03*
%TO.P,U3,2,~{RTS}*%
%TO.N,Net-(U3-~{RTS})*%
X37987500Y-100800000D03*
%TO.P,U3,3,VCCIO*%
%TO.N,Net-(U3-3V3OUT)*%
X37352500Y-100800000D03*
%TO.P,U3,4,RXD*%
%TO.N,/MCU/UART_USB_TX*%
X36717500Y-100800000D03*
%TO.P,U3,5,GND*%
%TO.N,GND*%
X36082500Y-100800000D03*
%TO.P,U3,6,~{CTS}*%
%TO.N,Net-(U3-~{CTS})*%
X35447500Y-100800000D03*
%TO.P,U3,7,CBUS2*%
%TO.N,Net-(D7-K)*%
X34812500Y-100800000D03*
%TO.P,U3,8,USBDP*%
%TO.N,Net-(U3-USBDP)*%
X34177500Y-100800000D03*
%TO.P,U3,9,USBDM*%
%TO.N,Net-(U3-USBDM)*%
X34177500Y-95600000D03*
%TO.P,U3,10,3V3OUT*%
%TO.N,Net-(U3-3V3OUT)*%
X34812500Y-95600000D03*
%TO.P,U3,11,~{RESET}*%
X35447500Y-95600000D03*
%TO.P,U3,12,VCC*%
%TO.N,/5V_USB*%
X36082500Y-95600000D03*
%TO.P,U3,13,GND*%
%TO.N,GND*%
X36717500Y-95600000D03*
%TO.P,U3,14,CBUS1*%
%TO.N,Net-(D6-K)*%
X37352500Y-95600000D03*
%TO.P,U3,15,CBUS0*%
%TO.N,unconnected-(U3-CBUS0-Pad15)*%
X37987500Y-95600000D03*
%TO.P,U3,16,CBUS3*%
%TO.N,unconnected-(U3-CBUS3-Pad16)*%
X38622500Y-95600000D03*
%TD*%
D31*
%TO.P,Q14,1,G*%
%TO.N,Net-(Q14-G)*%
X124537500Y-58250000D03*
%TO.P,Q14,2,S*%
%TO.N,GND*%
X124537500Y-60150000D03*
%TO.P,Q14,3,D*%
%TO.N,/Cell Balancing/CELL1*%
X122662500Y-59200000D03*
%TD*%
D63*
%TO.P,U8,1,A0*%
%TO.N,GND*%
X54695000Y-103525000D03*
%TO.P,U8,2,A1*%
X55965000Y-103525000D03*
%TO.P,U8,3,A2*%
X57235000Y-103525000D03*
%TO.P,U8,4,GND*%
X58505000Y-103525000D03*
%TO.P,U8,5,SDA*%
%TO.N,/MCU/SDA*%
X58505000Y-108475000D03*
%TO.P,U8,6,SCL*%
%TO.N,/MCU/SCL*%
X57235000Y-108475000D03*
%TO.P,U8,7,WP*%
%TO.N,GND*%
X55965000Y-108475000D03*
%TO.P,U8,8,V_{CC}*%
%TO.N,/3V3*%
X54695000Y-108475000D03*
%TD*%
D33*
%TO.P,C11,1*%
%TO.N,/5V_USB*%
X26662500Y-90300000D03*
%TO.P,C11,2*%
%TO.N,GND*%
X24937500Y-90300000D03*
%TD*%
D32*
%TO.P,C6,1*%
%TO.N,Net-(U2-SW)*%
X89800000Y-72637500D03*
%TO.P,C6,2*%
%TO.N,Net-(U2-BOOT)*%
X89800000Y-74362500D03*
%TD*%
D33*
%TO.P,C15,1*%
%TO.N,Net-(U3-3V3OUT)*%
X34662500Y-93700000D03*
%TO.P,C15,2*%
%TO.N,GND*%
X32937500Y-93700000D03*
%TD*%
D25*
%TO.P,R11,1*%
%TO.N,Net-(R10-Pad2)*%
X93500000Y-76187500D03*
%TO.P,R11,2*%
%TO.N,GND*%
X93500000Y-78012500D03*
%TD*%
D38*
%TO.P,U14,1,IO0*%
%TO.N,unconnected-(U14-IO0-Pad1)*%
X134812500Y-44225000D03*
%TO.P,U14,2,ROSC*%
%TO.N,Net-(U14-ROSC)*%
X134812500Y-44875000D03*
%TO.P,U14,3,SDA*%
%TO.N,/MCU/SDA*%
X134812500Y-45525000D03*
%TO.P,U14,4,SCL*%
%TO.N,/MCU/SCL*%
X134812500Y-46175000D03*
%TO.P,U14,5,GND*%
%TO.N,GND*%
X130587500Y-46175000D03*
%TO.P,U14,6,CG*%
%TO.N,/Cell Measurement/CURRENT_SENSE*%
X130587500Y-45525000D03*
%TO.P,U14,7,VCC*%
%TO.N,/3V3*%
X130587500Y-44875000D03*
%TO.P,U14,8,VIN*%
%TO.N,GND*%
X130587500Y-44225000D03*
%TD*%
D59*
%TO.P,R45,1*%
%TO.N,Net-(D24-A)*%
X123000000Y-50150000D03*
%TO.P,R45,2*%
%TO.N,/Power Supply/9V4*%
X123000000Y-56250000D03*
%TD*%
D64*
%TO.P,C7,1*%
%TO.N,Net-(J24-Pin_1)*%
X49500000Y-105637500D03*
%TO.P,C7,2*%
%TO.N,GND*%
X49500000Y-108762500D03*
%TD*%
D25*
%TO.P,R41,1*%
%TO.N,/BALANCE_CAP_MINUS_RAW*%
X63300000Y-62187500D03*
%TO.P,R41,2*%
%TO.N,Net-(U10B-+)*%
X63300000Y-64012500D03*
%TD*%
D32*
%TO.P,C20,1*%
%TO.N,/3V3*%
X136500000Y-82837500D03*
%TO.P,C20,2*%
%TO.N,GND*%
X136500000Y-84562500D03*
%TD*%
D40*
%TO.P,R40,1*%
%TO.N,Net-(U10A-+)*%
X57700000Y-64012500D03*
%TO.P,R40,2*%
%TO.N,GND*%
X57700000Y-62187500D03*
%TD*%
%TO.P,R15,1*%
%TO.N,/3V3*%
X35000000Y-105412500D03*
%TO.P,R15,2*%
%TO.N,/MCU/UART_USB_TX*%
X35000000Y-103587500D03*
%TD*%
D65*
%TO.P,Q3,1,G*%
%TO.N,Net-(Q3-G)*%
X54620000Y-51200000D03*
D28*
%TO.P,Q3,2,D*%
%TO.N,/PACK_EXT*%
X56900000Y-57500000D03*
D65*
%TO.P,Q3,3,S*%
%TO.N,Net-(Q2-S)*%
X59180000Y-51200000D03*
%TD*%
D34*
%TO.P,D22,1,K*%
%TO.N,/5V*%
X64100000Y-76150000D03*
%TO.P,D22,2,A*%
%TO.N,/5V_USB*%
X64100000Y-78250000D03*
%TD*%
D40*
%TO.P,R14,1*%
%TO.N,/3V3*%
X38500000Y-105412500D03*
%TO.P,R14,2*%
%TO.N,/MCU/UART_USB_RX*%
X38500000Y-103587500D03*
%TD*%
D59*
%TO.P,R54,1*%
%TO.N,/BALANCE_CAP_MINUS_RAW*%
X87500000Y-60950000D03*
%TO.P,R54,2*%
%TO.N,Net-(J23-Pin_1)*%
X87500000Y-67050000D03*
%TD*%
D31*
%TO.P,Q8,1,G*%
%TO.N,Net-(Q5-D)*%
X93875000Y-35050000D03*
%TO.P,Q8,2,D*%
%TO.N,Net-(Q8-D)*%
X93875000Y-36950000D03*
%TO.P,Q8,3,S*%
%TO.N,/Battery Pack/CELL3_MINUS*%
X92000000Y-36000000D03*
%TD*%
D66*
%TO.P,D13,1,A*%
%TO.N,GND*%
X23200000Y-59500000D03*
D46*
%TO.P,D13,2,K*%
%TO.N,Net-(D13-K)*%
X29500000Y-59500000D03*
%TD*%
D34*
%TO.P,D25,1,K*%
%TO.N,Net-(D25-K)*%
X113500000Y-52050000D03*
%TO.P,D25,2,A*%
%TO.N,Net-(D24-K)*%
X113500000Y-54150000D03*
%TD*%
D50*
%TO.P,D4,1,K*%
%TO.N,Net-(D3-K)*%
X110850000Y-111200000D03*
%TO.P,D4,2,A*%
%TO.N,/5V_EXT*%
X112950000Y-111200000D03*
%TD*%
D26*
%TO.P,R27,1*%
%TO.N,Net-(U6A-+)*%
X71412500Y-38800000D03*
%TO.P,R27,2*%
%TO.N,GND*%
X69587500Y-38800000D03*
%TD*%
D66*
%TO.P,D14,1,A*%
%TO.N,GND*%
X23800000Y-84600000D03*
D46*
%TO.P,D14,2,K*%
%TO.N,Net-(D14-K)*%
X30100000Y-84600000D03*
%TD*%
D25*
%TO.P,FB2,1*%
%TO.N,/MCU/VDDA*%
X121900000Y-91887500D03*
%TO.P,FB2,2*%
%TO.N,/3V3*%
X121900000Y-93712500D03*
%TD*%
D67*
%TO.P,R44,1*%
%TO.N,/18V*%
X113950000Y-49100000D03*
%TO.P,R44,2*%
%TO.N,Net-(D25-K)*%
X107850000Y-49100000D03*
%TD*%
D51*
%TO.P,C39,1*%
%TO.N,Net-(D25-K)*%
X110962500Y-53000000D03*
%TO.P,C39,2*%
%TO.N,GND*%
X107837500Y-53000000D03*
%TD*%
D68*
%TO.N,/-5V*%
X58800000Y-68100000D03*
D69*
X120200000Y-40700000D03*
X88000000Y-43900000D03*
X73700000Y-43400000D03*
X128212483Y-41187517D03*
D70*
X49700000Y-73800000D03*
D71*
%TO.N,GND*%
X23400000Y-63900000D03*
D68*
X129239831Y-41301484D03*
D70*
X56300000Y-76900000D03*
X88537715Y-77662285D03*
D69*
X123500000Y-67700000D03*
D68*
X87200000Y-38800000D03*
X114264751Y-84638705D03*
X109200000Y-95700000D03*
D69*
X68900000Y-54000000D03*
X120300000Y-63100000D03*
X31000000Y-98000000D03*
X36700000Y-97700000D03*
D71*
X96100000Y-61500000D03*
D70*
X109500000Y-53600000D03*
D68*
X108100000Y-36700000D03*
X63405799Y-59406299D03*
D71*
X40340820Y-94769001D03*
D70*
X133131250Y-84931250D03*
D69*
X125400000Y-40600000D03*
D70*
X125600000Y-94700000D03*
D68*
X117900000Y-54525500D03*
D69*
X112675500Y-42149500D03*
D70*
X76500000Y-73400000D03*
D68*
X58600000Y-61500000D03*
D69*
X131100000Y-59600000D03*
D68*
X113315825Y-80528022D03*
D71*
X78873498Y-62035134D03*
D69*
X36000000Y-99700000D03*
X123500000Y-63900000D03*
D70*
X53200000Y-75600000D03*
D71*
X23600000Y-80000000D03*
D68*
X109042185Y-87772866D03*
D69*
X123400000Y-60200000D03*
X123500000Y-71400000D03*
X128600000Y-63100000D03*
X62100000Y-45300000D03*
X75595000Y-107000000D03*
D70*
X94700000Y-77100000D03*
D71*
X40431250Y-89568750D03*
D69*
X54695000Y-105242500D03*
X98903721Y-101596279D03*
X116200000Y-39100000D03*
X31100000Y-99900000D03*
D71*
X104483099Y-65560855D03*
D69*
X49500000Y-38800000D03*
D68*
X113480106Y-90986171D03*
D71*
X46156547Y-99374500D03*
D69*
X54600000Y-88300000D03*
X68400000Y-38800000D03*
D71*
%TO.N,Net-(U1-SW)*%
X46000000Y-90100000D03*
X34080141Y-92053512D03*
D68*
%TO.N,/5V_USB*%
X28087701Y-91512299D03*
X28200000Y-93524500D03*
D71*
X63999500Y-79600000D03*
D69*
X36000000Y-96600000D03*
D68*
%TO.N,/3V3*%
X111500000Y-78400000D03*
X139200000Y-72900000D03*
D69*
X123200000Y-105600000D03*
X51800000Y-108800000D03*
X131700000Y-44900000D03*
X114100000Y-105500000D03*
D70*
X33800000Y-106900000D03*
D69*
X132400000Y-46200000D03*
X127300000Y-63200000D03*
X54400000Y-90900000D03*
D70*
X121900000Y-94600000D03*
D69*
X119600000Y-57500000D03*
X79500000Y-105200000D03*
%TO.N,Net-(J7-VCC)*%
X27000000Y-98000000D03*
D71*
%TO.N,Net-(D3-K)*%
X44399499Y-94272011D03*
X48250564Y-90267107D03*
X86300000Y-115800500D03*
D69*
%TO.N,Net-(D6-K)*%
X37300000Y-96600000D03*
%TO.N,Net-(D7-K)*%
X34800000Y-99700000D03*
%TO.N,/PACK_EXT*%
X63300000Y-49600000D03*
D71*
X53900000Y-64800000D03*
X47577263Y-82150498D03*
D69*
X59800000Y-53800000D03*
%TO.N,Net-(J7-D-)*%
X27000000Y-99700000D03*
%TO.N,Net-(J7-D+)*%
X27000000Y-101500000D03*
%TO.N,/MCU/UART_USB_RX*%
X38622500Y-101900000D03*
D68*
X104825049Y-89999549D03*
D69*
%TO.N,/MCU/UART_USB_TX*%
X36717500Y-101870000D03*
D68*
X105400000Y-90900000D03*
%TO.N,/Interconnect/UART_RX*%
X110300000Y-95600000D03*
%TO.N,Net-(J12-Pin_2)*%
X108200000Y-94300000D03*
X107500000Y-86323366D03*
X117822631Y-87522631D03*
D70*
%TO.N,Net-(U2-FB{slash}VOUT)*%
X90815676Y-73478329D03*
X85400000Y-76700000D03*
D68*
%TO.N,/MCU/SCL*%
X110904636Y-87904636D03*
%TO.N,/MCU/SDA*%
X111943750Y-82456250D03*
X110392676Y-89052992D03*
X113474500Y-83500000D03*
%TO.N,/MCU/SWDIO*%
X101673805Y-91500155D03*
X102541495Y-87979571D03*
X106488893Y-87789600D03*
X102000000Y-98000000D03*
%TO.N,/MCU/SWCLK*%
X102397945Y-96375346D03*
X104950500Y-86000000D03*
X108400000Y-85598866D03*
X103337299Y-89837299D03*
%TO.N,/Interconnect/UART_TX*%
X111300000Y-95700000D03*
D69*
%TO.N,/5V*%
X90900000Y-43000000D03*
D70*
X106910000Y-61010000D03*
X122450000Y-60199500D03*
D68*
X56900000Y-70512500D03*
D71*
X75578769Y-80321231D03*
D69*
X125900000Y-38800000D03*
D70*
X67988730Y-76000000D03*
D69*
%TO.N,/Cell Balancing/CELL1*%
X124200000Y-59200000D03*
X119026623Y-59199750D03*
X104313150Y-49325500D03*
%TO.N,/Cell Balancing/CELL2*%
X105175500Y-60322706D03*
X121100000Y-61300000D03*
X124200000Y-63000000D03*
%TO.N,/Cell Balancing/CELL3*%
X104800000Y-59700000D03*
X124100000Y-66800000D03*
D68*
%TO.N,/Cell Measurement/CELL3*%
X117900000Y-92700000D03*
D69*
X76700000Y-41950500D03*
%TO.N,/Cell Measurement/CELL4*%
X108647352Y-58799500D03*
D68*
X114515281Y-92851880D03*
D69*
%TO.N,/Cell Measurement/CELL1*%
X108287940Y-54799303D03*
D68*
X114800000Y-91700000D03*
%TO.N,/Cell Measurement/CELL2*%
X118800000Y-91974500D03*
D69*
X89600000Y-43919177D03*
%TO.N,/Cell Balancing/CELL4*%
X124100000Y-70400000D03*
X104400000Y-59100000D03*
X104550500Y-55000000D03*
%TO.N,/Cell Measurement/BALANCE_CAP_PLUS*%
X88374346Y-71574500D03*
D68*
X114400000Y-95600000D03*
%TO.N,/Cell Measurement/BALANCE_CAP_MINUS*%
X113496164Y-92847317D03*
D69*
X89000000Y-71000000D03*
%TO.N,/CHARGE*%
X58693677Y-44493677D03*
D68*
X113838763Y-88401826D03*
D69*
%TO.N,/DISCHARGE*%
X104400000Y-62600000D03*
D68*
X113421256Y-87493700D03*
D69*
%TO.N,/EN_CELL_BALANCING*%
X126200000Y-59800000D03*
D68*
%TO.N,/CELL_BALANCING_A0*%
X121300000Y-73824500D03*
D69*
X126956233Y-59856233D03*
D68*
X121280000Y-71720000D03*
X114220664Y-90100000D03*
D69*
%TO.N,/CELL_BALANCING_A1*%
X127712082Y-59910306D03*
D68*
X114837113Y-88449809D03*
D69*
%TO.N,/LIMIT_BALANCING_CURRENT*%
X121000000Y-62800000D03*
D68*
%TO.N,/Battery Pack/CHARGE_AVAILABLE*%
X110900032Y-92829328D03*
X104375195Y-93600000D03*
D69*
%TO.N,Net-(Q11-G)*%
X93800000Y-68500000D03*
X102849500Y-68900000D03*
D71*
%TO.N,Net-(Q11-S)*%
X88700000Y-69500000D03*
X84100000Y-64850500D03*
D68*
%TO.N,/Power Supply/9V4*%
X119800000Y-53700000D03*
X110200000Y-55300000D03*
%TO.N,/18V*%
X113000000Y-51000000D03*
D70*
X117800000Y-57600000D03*
%TD*%
D72*
%TO.N,/-5V*%
X59575000Y-66287500D02*
X59575000Y-67325000D01*
X75137500Y-43700000D02*
X74887500Y-43700000D01*
X87062500Y-44150000D02*
X88925000Y-46012500D01*
D73*
X41885000Y-82715000D02*
X41885000Y-82900000D01*
D72*
X128212500Y-40575000D02*
X128212500Y-41187500D01*
X88000000Y-43900000D02*
X88925000Y-44825000D01*
D73*
X44625000Y-76225000D02*
X44625000Y-79975000D01*
D72*
X57862500Y-69037500D02*
X58800000Y-68100000D01*
D73*
X49650000Y-73850000D02*
X49700000Y-73800000D01*
D72*
X55800000Y-69037500D02*
X57862500Y-69037500D01*
D73*
X47000000Y-73850000D02*
X44625000Y-76225000D01*
X44625000Y-79975000D02*
X41885000Y-82715000D01*
D72*
X87062500Y-43800000D02*
X87062500Y-44150000D01*
X74143750Y-42956250D02*
X73275000Y-42087500D01*
X74887500Y-43700000D02*
X74143750Y-42956250D01*
X128212500Y-41187500D02*
X128212483Y-41187517D01*
X121800000Y-42300000D02*
X120200000Y-40700000D01*
X123137500Y-42300000D02*
X121800000Y-42300000D01*
D73*
X47000000Y-73850000D02*
X49650000Y-73850000D01*
D72*
X123137500Y-42300000D02*
X122850000Y-42012500D01*
X74143750Y-42956250D02*
X73700000Y-43400000D01*
X59575000Y-67325000D02*
X58800000Y-68100000D01*
X88925000Y-44825000D02*
X88925000Y-46012500D01*
%TO.N,GND*%
X61400000Y-62187500D02*
X61400000Y-61412098D01*
X116162500Y-90750000D02*
X114595969Y-90750000D01*
X36700000Y-97700000D02*
X36717500Y-97682500D01*
X129853815Y-40687500D02*
X129239831Y-41301484D01*
D73*
X24937500Y-90300000D02*
X24937500Y-92100000D01*
D72*
X57912500Y-62187500D02*
X58600000Y-61500000D01*
D73*
X104527244Y-65605000D02*
X104483099Y-65560855D01*
D72*
X127630000Y-46175000D02*
X126900000Y-45445000D01*
X68150000Y-54750000D02*
X68900000Y-54000000D01*
X123987500Y-39925000D02*
X123987500Y-40575000D01*
X31137500Y-99937500D02*
X31100000Y-99900000D01*
X120337500Y-63950000D02*
X120337500Y-63137500D01*
D73*
X24462500Y-95112500D02*
X24200000Y-95375000D01*
D72*
X107860366Y-87772866D02*
X107837500Y-87750000D01*
X107587500Y-37212500D02*
X108100000Y-36700000D01*
X128662500Y-66400000D02*
X128662500Y-64350000D01*
X109750000Y-94162500D02*
X109750000Y-95124695D01*
X144862500Y-74000000D02*
X144862500Y-74862500D01*
D74*
X23200000Y-63700000D02*
X23400000Y-63900000D01*
D73*
X44437500Y-98175000D02*
X45462500Y-99200000D01*
D72*
X36717500Y-97682500D02*
X36717500Y-95600000D01*
X130237500Y-46525000D02*
X130587500Y-46175000D01*
D73*
X76562500Y-73337500D02*
X76500000Y-73400000D01*
D72*
X128662500Y-64350000D02*
X128575000Y-64262500D01*
D73*
X108900000Y-53000000D02*
X109500000Y-53600000D01*
D72*
X58505000Y-103525000D02*
X57235000Y-103525000D01*
D73*
X45982047Y-99200000D02*
X46156547Y-99374500D01*
D72*
X125375000Y-40575000D02*
X125400000Y-40600000D01*
D73*
X89800000Y-77962500D02*
X88837930Y-77962500D01*
D72*
X75595000Y-108575000D02*
X75595000Y-107000000D01*
X128575000Y-63125000D02*
X128600000Y-63100000D01*
D73*
X40674821Y-94435000D02*
X40340820Y-94769001D01*
X56065000Y-78775000D02*
X56065000Y-77135000D01*
D72*
X133131250Y-84931250D02*
X133500000Y-84562500D01*
X76865000Y-103625000D02*
X75595000Y-103625000D01*
X120337500Y-63137500D02*
X120300000Y-63100000D01*
X115862500Y-39437500D02*
X116200000Y-39100000D01*
D73*
X42325000Y-94435000D02*
X40674821Y-94435000D01*
D72*
X77737500Y-103227500D02*
X78135000Y-103625000D01*
D73*
X24462500Y-94100000D02*
X24462500Y-95112500D01*
D72*
X124537500Y-67750000D02*
X123550000Y-67750000D01*
X130300000Y-40687500D02*
X129853815Y-40687500D01*
X114595969Y-90750000D02*
X114359798Y-90986171D01*
D73*
X106125000Y-65605000D02*
X104527244Y-65605000D01*
X116737500Y-55688000D02*
X117900000Y-54525500D01*
X88837930Y-77962500D02*
X88537715Y-77662285D01*
D72*
X114250000Y-85837500D02*
X114250000Y-84653456D01*
D73*
X82325000Y-75435000D02*
X81197500Y-75435000D01*
D72*
X136500000Y-84562500D02*
X138300000Y-84562500D01*
D74*
X98137500Y-61400000D02*
X96200000Y-61400000D01*
D72*
X115250000Y-39437500D02*
X115862500Y-39437500D01*
D74*
X141000000Y-30000000D02*
X134150000Y-30000000D01*
D73*
X81197500Y-75435000D02*
X79100000Y-73337500D01*
D72*
X55965000Y-106512500D02*
X54695000Y-105242500D01*
X107587500Y-38800000D02*
X107587500Y-37212500D01*
X111787500Y-42300000D02*
X112525000Y-42300000D01*
D73*
X39200000Y-88337500D02*
X40431250Y-89568750D01*
X116737500Y-55700000D02*
X116737500Y-55688000D01*
D72*
X112525000Y-42300000D02*
X112675500Y-42149500D01*
X125600000Y-93662500D02*
X123800000Y-93662500D01*
X67237500Y-54750000D02*
X68150000Y-54750000D01*
X114359798Y-90986171D02*
X113480106Y-90986171D01*
D74*
X23800000Y-80200000D02*
X23600000Y-80000000D01*
D72*
X123550000Y-63950000D02*
X123500000Y-63900000D01*
X55400000Y-89112500D02*
X53375000Y-89112500D01*
X131175000Y-59525000D02*
X131100000Y-59600000D01*
X77737500Y-101400000D02*
X77737500Y-103227500D01*
X54695000Y-103525000D02*
X54695000Y-105242500D01*
X131525000Y-46175000D02*
X130587500Y-46175000D01*
D73*
X114220000Y-45465000D02*
X113755000Y-45000000D01*
X79100000Y-73337500D02*
X76562500Y-73337500D01*
D74*
X23800000Y-84600000D02*
X23800000Y-80200000D01*
D73*
X119306238Y-44195000D02*
X118036238Y-45465000D01*
D72*
X132000000Y-86062500D02*
X133131250Y-84931250D01*
D73*
X93500000Y-78012500D02*
X93787500Y-78012500D01*
D72*
X144862500Y-73137500D02*
X144862500Y-74000000D01*
X50687500Y-38800000D02*
X49500000Y-38800000D01*
X54695000Y-105242500D02*
X52800000Y-107137500D01*
D74*
X134150000Y-30000000D02*
X131500000Y-32650000D01*
D73*
X117125000Y-45465000D02*
X114220000Y-45465000D01*
D72*
X69587500Y-38800000D02*
X68400000Y-38800000D01*
X113000000Y-80212197D02*
X113315825Y-80528022D01*
X36082500Y-99782500D02*
X36000000Y-99700000D01*
X32937500Y-95400000D02*
X32200000Y-96137500D01*
D73*
X44437500Y-97700000D02*
X44437500Y-98175000D01*
D72*
X55400000Y-89112500D02*
X55400000Y-89100000D01*
X144862500Y-74862500D02*
X146540000Y-76540000D01*
X146540000Y-71460000D02*
X144862500Y-73137500D01*
D73*
X109100000Y-64335000D02*
X108306238Y-64335000D01*
D72*
X124537500Y-71450000D02*
X123550000Y-71450000D01*
X131838173Y-44225000D02*
X132275000Y-44661827D01*
D73*
X122075000Y-44195000D02*
X119306238Y-44195000D01*
D74*
X96200000Y-61400000D02*
X96100000Y-61500000D01*
D72*
X134700000Y-84562500D02*
X136500000Y-84562500D01*
X75595000Y-103625000D02*
X75595000Y-107000000D01*
D74*
X73125000Y-65600000D02*
X75308632Y-65600000D01*
D72*
X55965000Y-108475000D02*
X55965000Y-106512500D01*
X32937500Y-93700000D02*
X32937500Y-95400000D01*
X125600000Y-93662500D02*
X125600000Y-94700000D01*
D73*
X56065000Y-77135000D02*
X56300000Y-76900000D01*
X24937500Y-92100000D02*
X24937500Y-93625000D01*
D72*
X128575000Y-64262500D02*
X128575000Y-63125000D01*
D73*
X108306238Y-64335000D02*
X107036238Y-65605000D01*
X24937500Y-93625000D02*
X24462500Y-94100000D01*
D72*
X132275000Y-45425000D02*
X131525000Y-46175000D01*
D73*
X111075000Y-64335000D02*
X109100000Y-64335000D01*
D72*
X124537500Y-60150000D02*
X123450000Y-60150000D01*
X31725000Y-96137500D02*
X32200000Y-96137500D01*
D73*
X48600000Y-98400000D02*
X49087500Y-98400000D01*
X107837500Y-53000000D02*
X108900000Y-53000000D01*
X82325000Y-72895000D02*
X79542500Y-72895000D01*
X93787500Y-78012500D02*
X94700000Y-77100000D01*
D72*
X88587500Y-38800000D02*
X87200000Y-38800000D01*
X130587500Y-46175000D02*
X127630000Y-46175000D01*
D73*
X107036238Y-65605000D02*
X106125000Y-65605000D01*
D72*
X36082500Y-100800000D02*
X36082500Y-99782500D01*
D74*
X75308632Y-65600000D02*
X78873498Y-62035134D01*
D72*
X123550000Y-67750000D02*
X123500000Y-67700000D01*
D73*
X45462500Y-99200000D02*
X45982047Y-99200000D01*
D72*
X57700000Y-62187500D02*
X57912500Y-62187500D01*
X114250000Y-84653456D02*
X114264751Y-84638705D01*
D73*
X52062500Y-76737500D02*
X53200000Y-75600000D01*
D72*
X78135000Y-103625000D02*
X76865000Y-103625000D01*
X61337500Y-46062500D02*
X62100000Y-45300000D01*
X130587500Y-44225000D02*
X131838173Y-44225000D01*
X54695000Y-103525000D02*
X55965000Y-103525000D01*
D73*
X45462500Y-99200000D02*
X47800000Y-99200000D01*
D72*
X113000000Y-79787500D02*
X113000000Y-80212197D01*
D73*
X112477055Y-64335000D02*
X111075000Y-64335000D01*
D72*
X124537500Y-63950000D02*
X123550000Y-63950000D01*
D73*
X47800000Y-99200000D02*
X48600000Y-98400000D01*
D72*
X131175000Y-58537500D02*
X131175000Y-59525000D01*
X61150000Y-46062500D02*
X61337500Y-46062500D01*
X130237500Y-47900000D02*
X130237500Y-46525000D01*
X133500000Y-84562500D02*
X134700000Y-84562500D01*
D73*
X118036238Y-45465000D02*
X117125000Y-45465000D01*
D72*
X55400000Y-89100000D02*
X54600000Y-88300000D01*
D73*
X50800000Y-76737500D02*
X52062500Y-76737500D01*
X42325000Y-91462500D02*
X40431250Y-89568750D01*
D72*
X123450000Y-60150000D02*
X123400000Y-60200000D01*
D73*
X24200000Y-95375000D02*
X24200000Y-97500000D01*
D72*
X109750000Y-95124695D02*
X109200000Y-95674695D01*
X53375000Y-89112500D02*
X53337500Y-89150000D01*
X61400000Y-61412098D02*
X63405799Y-59406299D01*
X29862500Y-98000000D02*
X31000000Y-98000000D01*
X29862500Y-98000000D02*
X31725000Y-96137500D01*
D73*
X42325000Y-91895000D02*
X42325000Y-91462500D01*
D74*
X23200000Y-59500000D02*
X23200000Y-63700000D01*
D73*
X79542500Y-72895000D02*
X79100000Y-73337500D01*
D72*
X131987500Y-44075673D02*
X131838173Y-44225000D01*
X32200000Y-99937500D02*
X31137500Y-99937500D01*
X132275000Y-44661827D02*
X132275000Y-45425000D01*
X123550000Y-71450000D02*
X123500000Y-71400000D01*
D73*
X49500000Y-108762500D02*
X49500000Y-115000000D01*
D72*
X123987500Y-40575000D02*
X125375000Y-40575000D01*
X131987500Y-42400000D02*
X131987500Y-44075673D01*
X109200000Y-95674695D02*
X109200000Y-95700000D01*
X109042185Y-87772866D02*
X107860366Y-87772866D01*
X128575000Y-64262500D02*
X127925000Y-64262500D01*
X57235000Y-103525000D02*
X55965000Y-103525000D01*
D73*
%TO.N,Net-(U1-VCC)*%
X47475000Y-94435000D02*
X46600001Y-94435000D01*
X46600001Y-94435000D02*
X45900000Y-95135001D01*
X45900000Y-97412000D02*
X46162500Y-97674500D01*
X45900000Y-95135001D02*
X45900000Y-97412000D01*
%TO.N,Net-(U2-VCC)*%
X88997500Y-75435000D02*
X87475000Y-75435000D01*
X89800000Y-76237500D02*
X88997500Y-75435000D01*
%TO.N,Net-(U1-SW)*%
X46000000Y-90420000D02*
X47475000Y-91895000D01*
X33200000Y-91173371D02*
X34080141Y-92053512D01*
X46000000Y-90100000D02*
X46000000Y-90420000D01*
X30800000Y-89900000D02*
X31962500Y-91062500D01*
X33200000Y-91062500D02*
X33200000Y-91173371D01*
X31962500Y-91062500D02*
X33200000Y-91062500D01*
%TO.N,Net-(U1-BOOT)*%
X36628428Y-87900000D02*
X37553428Y-86975000D01*
X40700430Y-86975000D02*
X44300000Y-90574570D01*
X44300000Y-90574570D02*
X44300000Y-91200000D01*
X37553428Y-86975000D02*
X40700430Y-86975000D01*
X34637500Y-87900000D02*
X36628428Y-87900000D01*
X46265000Y-93165000D02*
X47475000Y-93165000D01*
X33200000Y-89337500D02*
X34637500Y-87900000D01*
X44300000Y-91200000D02*
X46265000Y-93165000D01*
%TO.N,Net-(U2-SW)*%
X87732500Y-72637500D02*
X87475000Y-72895000D01*
X89800000Y-72637500D02*
X87732500Y-72637500D01*
X91137500Y-71300000D02*
X89800000Y-72637500D01*
X92831238Y-71300000D02*
X91137500Y-71300000D01*
X96900000Y-67231238D02*
X92831238Y-71300000D01*
X96900000Y-64600000D02*
X96900000Y-67231238D01*
%TO.N,Net-(U2-BOOT)*%
X89800000Y-74362500D02*
X89602500Y-74165000D01*
X89602500Y-74165000D02*
X87475000Y-74165000D01*
%TO.N,Net-(U12-CAP+)*%
X57335000Y-78775000D02*
X57335000Y-81427500D01*
X57335000Y-81427500D02*
X56762500Y-82000000D01*
%TO.N,Net-(J24-Pin_1)*%
X46000000Y-102650000D02*
X47050000Y-103700000D01*
X49500000Y-104112500D02*
X49087500Y-103700000D01*
X47050000Y-103700000D02*
X49087500Y-103700000D01*
X49500000Y-105637500D02*
X49500000Y-104112500D01*
X42425000Y-99075000D02*
X46000000Y-102650000D01*
X41500000Y-99075000D02*
X42425000Y-99075000D01*
D72*
%TO.N,Net-(U3-USBDM)*%
X32200000Y-97577500D02*
X34177500Y-95600000D01*
X29912500Y-99800000D02*
X30262500Y-99800000D01*
X30262500Y-99800000D02*
X32200000Y-97862500D01*
X32200000Y-97862500D02*
X32200000Y-97577500D01*
%TO.N,/Battery Pack/PACK*%
X54125000Y-35950000D02*
X51950000Y-35950000D01*
D74*
X46000000Y-30000000D02*
X46000000Y-42600000D01*
X46000000Y-30000000D02*
X48175000Y-30000000D01*
D72*
X51950000Y-35950000D02*
X46000000Y-30000000D01*
X65600000Y-43280000D02*
X63400000Y-41080000D01*
D74*
X46000000Y-42600000D02*
X49100000Y-45700000D01*
D72*
X65600000Y-43350000D02*
X65600000Y-43280000D01*
D73*
%TO.N,Net-(J25-Pin_1)*%
X90800000Y-81100000D02*
X90800000Y-78912500D01*
X92650000Y-81100000D02*
X90800000Y-81100000D01*
X101900000Y-71850000D02*
X92650000Y-81100000D01*
X101900000Y-62037500D02*
X101262500Y-61400000D01*
X90800000Y-81100000D02*
X88750000Y-81100000D01*
X101900000Y-64600000D02*
X101900000Y-62037500D01*
X88750000Y-81100000D02*
X87650000Y-80000000D01*
X101900000Y-64600000D02*
X101900000Y-71850000D01*
X90800000Y-78912500D02*
X91700000Y-78012500D01*
D72*
%TO.N,/5V_USB*%
X36082500Y-95600000D02*
X36082500Y-93767500D01*
D73*
X29912500Y-96200000D02*
X29912500Y-94912500D01*
D72*
X36082500Y-95600000D02*
X36082500Y-96517500D01*
D73*
X29912500Y-94912500D02*
X28200000Y-93200000D01*
D74*
X64100000Y-79499500D02*
X63999500Y-79600000D01*
D73*
X26662500Y-92100000D02*
X26662500Y-90300000D01*
X27537500Y-93200000D02*
X26637500Y-94100000D01*
X28200000Y-93200000D02*
X27537500Y-93200000D01*
X27762500Y-93200000D02*
X26662500Y-92100000D01*
X28200000Y-93200000D02*
X27762500Y-93200000D01*
D72*
X36082500Y-96517500D02*
X36000000Y-96600000D01*
D74*
X64100000Y-78250000D02*
X64100000Y-79499500D01*
D72*
X36082500Y-93767500D02*
X36150000Y-93700000D01*
%TO.N,/3V3*%
X122600000Y-105000000D02*
X123200000Y-105600000D01*
X136500000Y-82837500D02*
X134700000Y-82837500D01*
X131675000Y-44875000D02*
X131700000Y-44900000D01*
X127275000Y-63225000D02*
X127300000Y-63200000D01*
X131962500Y-47900000D02*
X131962500Y-46637500D01*
X54307500Y-108862500D02*
X54695000Y-108475000D01*
X52800000Y-108862500D02*
X51862500Y-108862500D01*
X130587500Y-44875000D02*
X131675000Y-44875000D01*
X127275000Y-64262500D02*
X127275000Y-63225000D01*
X114600000Y-105000000D02*
X114100000Y-105500000D01*
X79405000Y-105105000D02*
X79500000Y-105200000D01*
X131962500Y-46637500D02*
X132400000Y-46200000D01*
X139087500Y-73012500D02*
X139200000Y-72900000D01*
X115187500Y-105000000D02*
X114600000Y-105000000D01*
X126937500Y-66400000D02*
X126937500Y-64600000D01*
X52800000Y-108862500D02*
X54307500Y-108862500D01*
X126625000Y-64262500D02*
X126937500Y-64575000D01*
X79405000Y-101457500D02*
X79462500Y-101400000D01*
X128012500Y-82937500D02*
X128000000Y-82950000D01*
X121900000Y-93712500D02*
X121900000Y-94600000D01*
X132000000Y-82937500D02*
X128012500Y-82937500D01*
X126937500Y-64575000D02*
X126937500Y-64600000D01*
X120387500Y-58287500D02*
X119600000Y-57500000D01*
X111100000Y-78800000D02*
X111500000Y-78400000D01*
X132100000Y-82837500D02*
X132000000Y-82937500D01*
X128000000Y-82950000D02*
X124050000Y-82950000D01*
X139087500Y-74000000D02*
X139087500Y-73012500D01*
X138300000Y-82837500D02*
X136500000Y-82837500D01*
X79405000Y-103625000D02*
X79405000Y-105105000D01*
X53112500Y-90900000D02*
X54400000Y-90900000D01*
X120500000Y-58287500D02*
X120387500Y-58287500D01*
D73*
X46000000Y-108750000D02*
X45250000Y-108750000D01*
X33300000Y-106400000D02*
X33800000Y-106900000D01*
D72*
X134700000Y-82837500D02*
X132100000Y-82837500D01*
X121912500Y-105000000D02*
X122600000Y-105000000D01*
X111100000Y-79787500D02*
X111100000Y-78800000D01*
X124050000Y-82950000D02*
X123000000Y-84000000D01*
D73*
X33300000Y-105412500D02*
X35000000Y-105412500D01*
X36800000Y-105412500D02*
X38500000Y-105412500D01*
X33300000Y-105412500D02*
X33300000Y-106400000D01*
X35000000Y-105412500D02*
X36800000Y-105412500D01*
D72*
X126937500Y-64600000D02*
X127275000Y-64262500D01*
X79405000Y-103625000D02*
X79405000Y-101457500D01*
X109200000Y-79787500D02*
X111100000Y-79787500D01*
X51862500Y-108862500D02*
X51800000Y-108800000D01*
D73*
X45250000Y-108750000D02*
X39000000Y-115000000D01*
D72*
%TO.N,/Battery Pack/CELL4_MINUS*%
X73000000Y-36000000D02*
X71000000Y-36000000D01*
X71000000Y-36000000D02*
X65000000Y-30000000D01*
%TO.N,/Battery Pack/CELL3_MINUS*%
X90000000Y-36000000D02*
X84000000Y-30000000D01*
X92000000Y-36000000D02*
X90000000Y-36000000D01*
%TO.N,/Battery Pack/CELL2_MINUS*%
X111000000Y-36000000D02*
X105000000Y-30000000D01*
X105000000Y-30000000D02*
X103000000Y-30000000D01*
%TO.N,Net-(U3-USBDP)*%
X33315000Y-101662500D02*
X34177500Y-100800000D01*
X32200000Y-101662500D02*
X33315000Y-101662500D01*
X29912500Y-101600000D02*
X32137500Y-101600000D01*
X32137500Y-101600000D02*
X32200000Y-101662500D01*
%TO.N,Net-(J7-VCC)*%
X27000000Y-98000000D02*
X28137500Y-98000000D01*
D73*
X28087500Y-96200000D02*
X28087500Y-97950000D01*
X28087500Y-97950000D02*
X28137500Y-98000000D01*
D72*
%TO.N,Net-(U3-3V3OUT)*%
X34812500Y-95600000D02*
X34812500Y-93850000D01*
X35425000Y-98022500D02*
X37352500Y-99950000D01*
X34812500Y-93850000D02*
X34662500Y-93700000D01*
X35447500Y-95600000D02*
X35425000Y-95622500D01*
X35447500Y-95600000D02*
X34812500Y-95600000D01*
X35425000Y-95622500D02*
X35425000Y-98022500D01*
X37352500Y-99950000D02*
X37352500Y-100800000D01*
%TO.N,Net-(D1-K)*%
X65962500Y-47550000D02*
X65400000Y-46987500D01*
X67975000Y-48125000D02*
X67975000Y-50337500D01*
X67400000Y-47550000D02*
X67975000Y-48125000D01*
X67400000Y-47550000D02*
X65962500Y-47550000D01*
X65400000Y-45650000D02*
X65600000Y-45450000D01*
X67975000Y-50337500D02*
X67212500Y-51100000D01*
X65400000Y-46987500D02*
X65400000Y-45650000D01*
D73*
%TO.N,Net-(D3-K)*%
X43136238Y-95705000D02*
X43900000Y-94941238D01*
X39200000Y-91462500D02*
X39200000Y-92750000D01*
X88099500Y-117600000D02*
X86300000Y-115800500D01*
X43900000Y-93865001D02*
X43199999Y-93165000D01*
X40902500Y-93165000D02*
X39200000Y-91462500D01*
X47500000Y-86050000D02*
X48250564Y-86800564D01*
X39200000Y-92750000D02*
X38250000Y-93700000D01*
X111100000Y-111450000D02*
X111100000Y-116600000D01*
X42325000Y-95705000D02*
X43136238Y-95705000D01*
X42325000Y-93165000D02*
X40902500Y-93165000D01*
X110100000Y-117600000D02*
X88099500Y-117600000D01*
X48250564Y-86800564D02*
X48250564Y-90267107D01*
X43199999Y-93165000D02*
X42325000Y-93165000D01*
X43900000Y-94941238D02*
X43900000Y-93865001D01*
X110850000Y-111200000D02*
X111100000Y-111450000D01*
X111100000Y-116600000D02*
X110100000Y-117600000D01*
%TO.N,Net-(D15-K)*%
X107450000Y-57400000D02*
X107900000Y-57850000D01*
X107900000Y-57850000D02*
X109187500Y-57850000D01*
X107450000Y-55900000D02*
X107450000Y-57400000D01*
X109187500Y-57850000D02*
X110237500Y-58900000D01*
D72*
%TO.N,Net-(D6-K)*%
X37300000Y-96600000D02*
X37300000Y-95652500D01*
X37300000Y-95652500D02*
X37352500Y-95600000D01*
%TO.N,Net-(D7-K)*%
X34812500Y-99712500D02*
X34800000Y-99700000D01*
X34812500Y-100800000D02*
X34812500Y-99712500D01*
D74*
%TO.N,/BALANCE_CAP_MINUS_RAW*%
X66800000Y-60100000D02*
X66800000Y-63800000D01*
D72*
X65187500Y-62187500D02*
X66800000Y-63800000D01*
X63300000Y-62187500D02*
X65187500Y-62187500D01*
D74*
X82011270Y-54120000D02*
X74388730Y-54120000D01*
X73100000Y-57231270D02*
X71331270Y-59000000D01*
X83300000Y-56750000D02*
X83300000Y-55408730D01*
X71331270Y-59000000D02*
X67900000Y-59000000D01*
X74388730Y-54120000D02*
X73100000Y-55408730D01*
X83300000Y-55408730D02*
X82011270Y-54120000D01*
X73100000Y-55408730D02*
X73100000Y-57231270D01*
X87500000Y-60950000D02*
X83300000Y-56750000D01*
X67900000Y-59000000D02*
X66800000Y-60100000D01*
D72*
%TO.N,/BALANCE_CAP_PLUS_RAW*%
X59600000Y-62187500D02*
X63400000Y-58387500D01*
X63400000Y-58387500D02*
X63400000Y-56320000D01*
D74*
%TO.N,Net-(J6-Pin_1)*%
X42000000Y-47080000D02*
X31080000Y-47080000D01*
X31080000Y-47080000D02*
X30000000Y-46000000D01*
%TO.N,/PACK_EXT*%
X54800000Y-59600000D02*
X56900000Y-57500000D01*
D73*
X82325000Y-76705000D02*
X79342500Y-76705000D01*
D74*
X49050498Y-82150498D02*
X50800000Y-83900000D01*
X53700000Y-65000000D02*
X53900000Y-64800000D01*
X79037500Y-76400000D02*
X79100000Y-76462500D01*
D72*
X67400000Y-49650000D02*
X63350000Y-49650000D01*
D73*
X47500000Y-83950000D02*
X47500000Y-82227761D01*
X83365000Y-74165000D02*
X82325000Y-74165000D01*
D74*
X75700000Y-76400000D02*
X79037500Y-76400000D01*
X50800000Y-83900000D02*
X51450000Y-84550000D01*
D73*
X47500000Y-82227761D02*
X47577263Y-82150498D01*
D74*
X49100000Y-59600000D02*
X49100000Y-65000000D01*
X47577263Y-82150498D02*
X47650498Y-82150498D01*
D73*
X83900000Y-76004999D02*
X83900000Y-74700000D01*
D72*
X59800000Y-54600000D02*
X56900000Y-57500000D01*
X63350000Y-49650000D02*
X63300000Y-49600000D01*
D74*
X49100000Y-65000000D02*
X53700000Y-65000000D01*
X67550000Y-84550000D02*
X75700000Y-76400000D01*
D73*
X83900000Y-74700000D02*
X83365000Y-74165000D01*
D74*
X47577263Y-82150498D02*
X49050498Y-82150498D01*
X51450000Y-84550000D02*
X67550000Y-84550000D01*
X49100000Y-59600000D02*
X54800000Y-59600000D01*
D73*
X83199999Y-76705000D02*
X83900000Y-76004999D01*
X79342500Y-76705000D02*
X79100000Y-76462500D01*
X82325000Y-76705000D02*
X83199999Y-76705000D01*
D72*
X59800000Y-53800000D02*
X59800000Y-54600000D01*
D73*
%TO.N,Net-(R4-Pad2)*%
X50912500Y-103700000D02*
X50912500Y-101900000D01*
D72*
%TO.N,Net-(J7-D-)*%
X27000000Y-99700000D02*
X27987500Y-99700000D01*
X27987500Y-99700000D02*
X28087500Y-99800000D01*
D73*
%TO.N,Net-(R5-Pad2)*%
X50912500Y-98400000D02*
X50912500Y-100100000D01*
%TO.N,Net-(R8-Pad2)*%
X91700000Y-76187500D02*
X91700000Y-74412500D01*
D72*
%TO.N,Net-(J7-D+)*%
X27987500Y-101500000D02*
X28087500Y-101600000D01*
X27000000Y-101500000D02*
X27987500Y-101500000D01*
D73*
%TO.N,Net-(R10-Pad2)*%
X93500000Y-74412500D02*
X93500000Y-76187500D01*
D72*
%TO.N,/MCU/UART_USB_RX*%
X38622500Y-103465000D02*
X38622500Y-101900000D01*
X107837500Y-89750000D02*
X105074598Y-89750000D01*
X105074598Y-89750000D02*
X104825049Y-89999549D01*
X38622500Y-101900000D02*
X38622500Y-100800000D01*
X38500000Y-103587500D02*
X38622500Y-103465000D01*
%TO.N,/MCU/UART_USB_TX*%
X35000000Y-103587500D02*
X36717500Y-101870000D01*
X36717500Y-101870000D02*
X36717500Y-100800000D01*
X106050000Y-90250000D02*
X105400000Y-90900000D01*
X107837500Y-90250000D02*
X106050000Y-90250000D01*
%TO.N,/Interconnect/UART_RX*%
X110250000Y-94162500D02*
X110250000Y-95550000D01*
X110250000Y-95550000D02*
X110300000Y-95600000D01*
X117012500Y-105000000D02*
X117012500Y-106327500D01*
X117012500Y-106327500D02*
X118585000Y-107900000D01*
%TO.N,Net-(J12-Pin_2)*%
X116162500Y-87250000D02*
X117550000Y-87250000D01*
X114750000Y-85837500D02*
X114750000Y-86642764D01*
X107837500Y-87250000D02*
X107837500Y-86660866D01*
X107837500Y-86660866D02*
X107500000Y-86323366D01*
X117550000Y-87250000D02*
X117822631Y-87522631D01*
X123000000Y-86540000D02*
X125490000Y-86540000D01*
X123000000Y-86540000D02*
X116872500Y-86540000D01*
X114750000Y-85837500D02*
X116162500Y-87250000D01*
X109250000Y-94162500D02*
X108337500Y-94162500D01*
X125490000Y-86540000D02*
X128000000Y-89050000D01*
X116872500Y-86540000D02*
X116162500Y-87250000D01*
X108337500Y-94162500D02*
X108200000Y-94300000D01*
%TO.N,/MCU/VDDA*%
X125600000Y-91937500D02*
X123800000Y-91937500D01*
X121262500Y-91250000D02*
X116162500Y-91250000D01*
X123800000Y-91937500D02*
X121950000Y-91937500D01*
X121900000Y-91887500D02*
X121262500Y-91250000D01*
X121950000Y-91937500D02*
X121900000Y-91887500D01*
%TO.N,Net-(Q1-D)*%
X55400000Y-43420000D02*
X55400000Y-44270000D01*
X55400000Y-44270000D02*
X59067500Y-47937500D01*
X59067500Y-47937500D02*
X60200000Y-47937500D01*
X61075000Y-48812500D02*
X65400000Y-48812500D01*
X60200000Y-47937500D02*
X61075000Y-48812500D01*
D74*
%TO.N,Net-(Q2-S)*%
X55400000Y-47980000D02*
X55960000Y-47980000D01*
X55960000Y-47980000D02*
X59180000Y-51200000D01*
D72*
%TO.N,Net-(Q3-G)*%
X65362500Y-53800000D02*
X64187500Y-52625000D01*
X65387500Y-51100000D02*
X65387500Y-51126333D01*
X63700000Y-52625000D02*
X56045000Y-52625000D01*
X56045000Y-52625000D02*
X54620000Y-51200000D01*
X64187500Y-52625000D02*
X63700000Y-52625000D01*
X65387500Y-51126333D02*
X63888833Y-52625000D01*
X63888833Y-52625000D02*
X63700000Y-52625000D01*
%TO.N,Net-(Q5-D)*%
X116200000Y-37562500D02*
X115837500Y-37200000D01*
X74300000Y-39277076D02*
X74622924Y-39600000D01*
X93600000Y-39600000D02*
X93100000Y-39100000D01*
X106874695Y-36900000D02*
X94937500Y-36900000D01*
X94937500Y-36112500D02*
X94937500Y-36900000D01*
X94602076Y-39600000D02*
X93600000Y-39600000D01*
X112100000Y-38300000D02*
X111225000Y-37425000D01*
X94937500Y-39264576D02*
X94602076Y-39600000D01*
X93875000Y-35050000D02*
X94937500Y-36112500D01*
X75937500Y-36112500D02*
X74875000Y-35050000D01*
X112622924Y-39600000D02*
X112100000Y-39077076D01*
X75937500Y-37300000D02*
X75937500Y-36112500D01*
X93100000Y-39100000D02*
X93100000Y-38322924D01*
X113937500Y-39264576D02*
X113602076Y-39600000D01*
X108400305Y-35975000D02*
X107799695Y-35975000D01*
X92077076Y-37300000D02*
X75937500Y-37300000D01*
X74300000Y-38322924D02*
X74300000Y-39277076D01*
X111225000Y-37425000D02*
X109850305Y-37425000D01*
X107799695Y-35975000D02*
X106874695Y-36900000D01*
X112875000Y-35050000D02*
X113937500Y-36112500D01*
X74622924Y-39600000D02*
X75602076Y-39600000D01*
X113602076Y-39600000D02*
X112622924Y-39600000D01*
X73552076Y-37575000D02*
X74300000Y-38322924D01*
X93100000Y-38322924D02*
X92077076Y-37300000D01*
X109850305Y-37425000D02*
X108400305Y-35975000D01*
X94937500Y-36900000D02*
X94937500Y-39264576D01*
X75937500Y-39264576D02*
X75937500Y-37300000D01*
X58575000Y-37575000D02*
X73552076Y-37575000D01*
X56000000Y-35000000D02*
X58575000Y-37575000D01*
X111787500Y-40435424D02*
X112622924Y-39600000D01*
X75602076Y-39600000D02*
X75937500Y-39264576D01*
X111787500Y-40600000D02*
X111787500Y-40435424D01*
X113937500Y-37200000D02*
X113937500Y-39264576D01*
X115837500Y-37200000D02*
X113937500Y-37200000D01*
X113937500Y-36112500D02*
X113937500Y-37200000D01*
X112100000Y-39077076D02*
X112100000Y-38300000D01*
%TO.N,Net-(Q6-D)*%
X56000000Y-38587500D02*
X56212500Y-38800000D01*
X56000000Y-36900000D02*
X56000000Y-38587500D01*
%TO.N,/MCU/NRST*%
X144005200Y-97344800D02*
X142044800Y-97344800D01*
X143137500Y-74862500D02*
X141460000Y-76540000D01*
X116162500Y-90250000D02*
X116167500Y-90255000D01*
X143137500Y-73137500D02*
X141460000Y-71460000D01*
X145270000Y-96080000D02*
X144005200Y-97344800D01*
X142044800Y-97344800D02*
X134850000Y-90150000D01*
X134850000Y-90150000D02*
X141460000Y-83540000D01*
X143137500Y-74000000D02*
X143137500Y-73137500D01*
X143137500Y-74000000D02*
X140912500Y-74000000D01*
X134745000Y-90255000D02*
X134850000Y-90150000D01*
X141460000Y-83540000D02*
X141460000Y-76540000D01*
X116167500Y-90255000D02*
X134745000Y-90255000D01*
X143137500Y-74000000D02*
X143137500Y-74862500D01*
%TO.N,Net-(Q7-D)*%
X74875000Y-38562500D02*
X75112500Y-38800000D01*
X74875000Y-38462500D02*
X75112500Y-38700000D01*
X74875000Y-36950000D02*
X74875000Y-38562500D01*
%TO.N,/MCU/LED1*%
X89013299Y-101675000D02*
X88325000Y-100986701D01*
X88325000Y-100986701D02*
X88325000Y-99135000D01*
X88325000Y-99135000D02*
X89500000Y-97960000D01*
X103702098Y-95225000D02*
X103477098Y-95000000D01*
X104225000Y-95225000D02*
X103702098Y-95225000D01*
X112750000Y-94162500D02*
X112750000Y-95275305D01*
X96661701Y-95000000D02*
X89986701Y-101675000D01*
X103477098Y-95000000D02*
X96661701Y-95000000D01*
X89986701Y-101675000D02*
X89013299Y-101675000D01*
X111600305Y-96425000D02*
X105425000Y-96425000D01*
X105425000Y-96425000D02*
X104225000Y-95225000D01*
X112750000Y-95275305D02*
X111600305Y-96425000D01*
%TO.N,Net-(Q8-D)*%
X93875000Y-38562500D02*
X94112500Y-38800000D01*
X93875000Y-36950000D02*
X93875000Y-38562500D01*
%TO.N,/MCU/LED2*%
X95500000Y-94500000D02*
X89500000Y-100500000D01*
X105825000Y-94775000D02*
X103888494Y-94775000D01*
X103888494Y-94775000D02*
X103613494Y-94500000D01*
X103613494Y-94500000D02*
X95500000Y-94500000D01*
X107837500Y-90750000D02*
X107032236Y-90750000D01*
X107032236Y-90750000D02*
X106775000Y-91007236D01*
X106775000Y-93825000D02*
X105825000Y-94775000D01*
X106775000Y-91007236D02*
X106775000Y-93825000D01*
%TO.N,Net-(Q9-D)*%
X112875000Y-36950000D02*
X112875000Y-38562500D01*
X112875000Y-38562500D02*
X113112500Y-38800000D01*
%TO.N,/MCU/LED3*%
X104549293Y-89250000D02*
X104100049Y-89699244D01*
X87875000Y-101415000D02*
X89500000Y-103040000D01*
X87875000Y-96598604D02*
X87875000Y-101415000D01*
X90423604Y-94050000D02*
X87875000Y-96598604D01*
X105099695Y-91625000D02*
X105099695Y-93900805D01*
X105099695Y-93900805D02*
X104675500Y-94325000D01*
X104074890Y-94325000D02*
X103799890Y-94050000D01*
X104675500Y-94325000D02*
X104074890Y-94325000D01*
X104100049Y-90625354D02*
X105099695Y-91625000D01*
X107837500Y-89250000D02*
X104549293Y-89250000D01*
X103799890Y-94050000D02*
X90423604Y-94050000D01*
X104100049Y-89699244D02*
X104100049Y-90625354D01*
%TO.N,Net-(U1-FB{slash}VOUT)*%
X47475000Y-95705000D02*
X48349999Y-95705000D01*
X49912500Y-97267501D02*
X49912500Y-99275000D01*
X48349999Y-95705000D02*
X49912500Y-97267501D01*
D73*
X49087500Y-101900000D02*
X49087500Y-100100000D01*
D72*
X49912500Y-99275000D02*
X49087500Y-100100000D01*
D73*
%TO.N,Net-(U2-FB{slash}VOUT)*%
X85400000Y-76700000D02*
X87470000Y-76700000D01*
X91700000Y-72594005D02*
X90815676Y-73478329D01*
X87470000Y-76700000D02*
X87475000Y-76705000D01*
X91700000Y-72587500D02*
X91700000Y-72594005D01*
X91700000Y-72587500D02*
X93500000Y-72587500D01*
D72*
%TO.N,Net-(U3-~{RTS})*%
X37987500Y-102400000D02*
X37987500Y-100800000D01*
X36800000Y-103587500D02*
X37987500Y-102400000D01*
%TO.N,/MCU/SCL*%
X57235000Y-112735000D02*
X59500000Y-115000000D01*
X78135000Y-113132500D02*
X76267500Y-115000000D01*
X111900000Y-79597924D02*
X111900000Y-80477076D01*
X109200000Y-81612500D02*
X111750000Y-84162500D01*
X95975000Y-112025000D02*
X93000000Y-115000000D01*
X111750000Y-87059272D02*
X110904636Y-87904636D01*
X111577076Y-80800000D02*
X110012500Y-80800000D01*
X112522924Y-78975000D02*
X111900000Y-79597924D01*
X134812500Y-46175000D02*
X134812500Y-63509201D01*
X111750000Y-85837500D02*
X111750000Y-87059272D01*
X111900000Y-80477076D02*
X111577076Y-80800000D01*
X57235000Y-108475000D02*
X57235000Y-112735000D01*
X111750000Y-84162500D02*
X111750000Y-85837500D01*
X119346701Y-78975000D02*
X112522924Y-78975000D01*
X134812500Y-63509201D02*
X119346701Y-78975000D01*
X95975000Y-108000000D02*
X95975000Y-112025000D01*
X110012500Y-80800000D02*
X109200000Y-81612500D01*
X78135000Y-108575000D02*
X78135000Y-113132500D01*
%TO.N,/MCU/SDA*%
X98515000Y-112985000D02*
X96500000Y-115000000D01*
X79405000Y-114637500D02*
X79767500Y-115000000D01*
X135624999Y-45525000D02*
X135950000Y-45850001D01*
X110780878Y-89052992D02*
X110392676Y-89052992D01*
X98515000Y-108000000D02*
X98515000Y-112985000D01*
X135950000Y-45850001D02*
X135950000Y-63008097D01*
X134812500Y-45525000D02*
X135624999Y-45525000D01*
X112250000Y-82762500D02*
X112250000Y-85837500D01*
X58505000Y-108475000D02*
X58505000Y-110505000D01*
X112250000Y-87583870D02*
X110780878Y-89052992D01*
X111100000Y-81612500D02*
X111943750Y-82456250D01*
X111943750Y-82456250D02*
X112250000Y-82762500D01*
X112250000Y-85837500D02*
X112250000Y-87583870D01*
X135950000Y-63008097D02*
X115458097Y-83500000D01*
X115458097Y-83500000D02*
X113474500Y-83500000D01*
X79405000Y-108575000D02*
X79405000Y-114637500D01*
X58505000Y-110505000D02*
X63000000Y-115000000D01*
%TO.N,Net-(U3-~{CTS})*%
X35447500Y-101440000D02*
X35447500Y-100800000D01*
X33300000Y-103587500D02*
X35447500Y-101440000D01*
%TO.N,Net-(U6B-+)*%
X71828812Y-44100000D02*
X59687500Y-44100000D01*
X73275000Y-45546188D02*
X71828812Y-44100000D01*
X73275000Y-46312500D02*
X73275000Y-45546188D01*
X54387500Y-38800000D02*
X52512500Y-38800000D01*
X59687500Y-44100000D02*
X54387500Y-38800000D01*
%TO.N,Net-(U6A-+)*%
X72625000Y-39462500D02*
X72625000Y-42087500D01*
X73287500Y-38800000D02*
X71412500Y-38800000D01*
X73287500Y-38800000D02*
X72625000Y-39462500D01*
%TO.N,Net-(U7B-+)*%
X88925000Y-40287500D02*
X88925000Y-41787500D01*
X92287500Y-38800000D02*
X90412500Y-38800000D01*
X90412500Y-38800000D02*
X88925000Y-40287500D01*
%TO.N,Net-(U7A-+)*%
X111287500Y-38800000D02*
X109412500Y-38800000D01*
X91121188Y-43700000D02*
X104512500Y-43700000D01*
X104512500Y-43700000D02*
X109412500Y-38800000D01*
X89575000Y-45246188D02*
X91121188Y-43700000D01*
X89575000Y-46012500D02*
X89575000Y-45246188D01*
%TO.N,Net-(U4-BOOT0)*%
X113000000Y-81612500D02*
X112750000Y-81862500D01*
X112750000Y-81862500D02*
X112750000Y-85837500D01*
D73*
%TO.N,/5V_EXT*%
X112950000Y-111200000D02*
X112950000Y-108900000D01*
X113000000Y-115000000D02*
X113000000Y-111250000D01*
X113000000Y-111250000D02*
X112950000Y-111200000D01*
D72*
%TO.N,/MCU/SWDIO*%
X103250000Y-98250000D02*
X145525094Y-98250000D01*
X101673805Y-91500155D02*
X101673805Y-88847261D01*
X101673805Y-88847261D02*
X102541495Y-87979571D01*
X103000000Y-98000000D02*
X103250000Y-98250000D01*
X146984800Y-96790294D02*
X146984800Y-87634800D01*
X102000000Y-98000000D02*
X103000000Y-98000000D01*
X145525094Y-98250000D02*
X146984800Y-96790294D01*
X106488893Y-87789600D02*
X106949293Y-88250000D01*
X146984800Y-87634800D02*
X145270000Y-85920000D01*
X106949293Y-88250000D02*
X107837500Y-88250000D01*
%TO.N,/MCU/SWCLK*%
X103600000Y-97800000D02*
X145338698Y-97800000D01*
X146534800Y-89724800D02*
X145270000Y-88460000D01*
X102397945Y-96375346D02*
X102400000Y-96377401D01*
X145338698Y-97800000D02*
X146534800Y-96603898D01*
X103337299Y-87613201D02*
X104950500Y-86000000D01*
X102400000Y-96600000D02*
X103600000Y-97800000D01*
X102400000Y-96377401D02*
X102400000Y-96600000D01*
X146534800Y-96603898D02*
X146534800Y-89724800D01*
X108400000Y-85598866D02*
X109011366Y-85598866D01*
X103337299Y-89837299D02*
X103337299Y-87613201D01*
X109011366Y-85598866D02*
X109250000Y-85837500D01*
%TO.N,/Interconnect/UART_TX*%
X111300000Y-95700000D02*
X111300000Y-95574695D01*
X111300000Y-95574695D02*
X110750000Y-95024695D01*
X120087500Y-106862500D02*
X121125000Y-107900000D01*
X120087500Y-105000000D02*
X120087500Y-106862500D01*
X110750000Y-95024695D02*
X110750000Y-94162500D01*
D74*
%TO.N,Net-(J10-Pin_1)*%
X42000000Y-68080000D02*
X34220000Y-68080000D01*
X34220000Y-68080000D02*
X30000000Y-72300000D01*
D73*
%TO.N,Net-(U12-CAP-)*%
X54795000Y-80842500D02*
X53637500Y-82000000D01*
X54795000Y-78775000D02*
X54795000Y-80842500D01*
D72*
%TO.N,/5V*%
X125975000Y-39800001D02*
X124799999Y-38625000D01*
X85337500Y-44497500D02*
X87000000Y-46160000D01*
D73*
X58605000Y-73825000D02*
X60780000Y-76000000D01*
D72*
X125975000Y-41187500D02*
X125975000Y-39800001D01*
X76862500Y-44597500D02*
X75300000Y-46160000D01*
X71325000Y-46312500D02*
X69452500Y-46312500D01*
D73*
X60780000Y-76000000D02*
X67988730Y-76000000D01*
X106910000Y-61010000D02*
X106125000Y-61795000D01*
X107900000Y-60020000D02*
X106910000Y-61010000D01*
D72*
X69452500Y-46312500D02*
X69300000Y-46160000D01*
X85337500Y-43800000D02*
X85337500Y-44497500D01*
X125975000Y-39800001D02*
X125900000Y-39725001D01*
X57625000Y-70512500D02*
X56900000Y-70512500D01*
X90875000Y-41787500D02*
X90875000Y-42975000D01*
D73*
X77650000Y-79000000D02*
X76900000Y-79000000D01*
D72*
X125900000Y-39725001D02*
X125900000Y-38800000D01*
D73*
X107900000Y-59950000D02*
X107900000Y-60020000D01*
D72*
X76862500Y-43700000D02*
X76862500Y-44597500D01*
X90875000Y-42975000D02*
X90900000Y-43000000D01*
D73*
X110850000Y-108900000D02*
X109500000Y-110250000D01*
X109500000Y-110250000D02*
X109500000Y-115000000D01*
D72*
X56900000Y-70512500D02*
X56050000Y-70512500D01*
X124862500Y-42300000D02*
X125975000Y-41187500D01*
X56050000Y-70512500D02*
X55800000Y-70762500D01*
D73*
X76900000Y-79000000D02*
X75578769Y-80321231D01*
D72*
X124799999Y-38625000D02*
X123987500Y-38625000D01*
%TO.N,/Cell Balancing/CELL1*%
X124200000Y-59200000D02*
X122662500Y-59200000D01*
X103800000Y-49838650D02*
X104313150Y-49325500D01*
X122662500Y-59200000D02*
X118800000Y-59200000D01*
X103800000Y-51240000D02*
X103800000Y-49838650D01*
%TO.N,/Cell Balancing/CELL2*%
X105950000Y-54166167D02*
X105950000Y-54717892D01*
X122662500Y-63000000D02*
X122662500Y-62862500D01*
D73*
X82800000Y-49540000D02*
X96600000Y-49540000D01*
D72*
X104985229Y-53201396D02*
X105950000Y-54166167D01*
X106400000Y-58153122D02*
X106400000Y-59098206D01*
X104721625Y-53465000D02*
X104985229Y-53201396D01*
X105950000Y-54717892D02*
X106175000Y-54942892D01*
X102128604Y-53465000D02*
X104721625Y-53465000D01*
D73*
X96600000Y-49540000D02*
X98300000Y-51240000D01*
D72*
X98300000Y-51240000D02*
X99903604Y-51240000D01*
D73*
X81100000Y-51240000D02*
X82800000Y-49540000D01*
D72*
X122662500Y-62862500D02*
X121100000Y-61300000D01*
X99903604Y-51240000D02*
X102128604Y-53465000D01*
X124200000Y-63000000D02*
X122662500Y-63000000D01*
X106400000Y-59098206D02*
X105175500Y-60322706D01*
X106175000Y-57928122D02*
X106400000Y-58153122D01*
X106175000Y-54942892D02*
X106175000Y-57928122D01*
%TO.N,/Cell Balancing/CELL3*%
X101942208Y-53915000D02*
X105015000Y-53915000D01*
X121300000Y-65437500D02*
X121300000Y-65000000D01*
X121300000Y-65000000D02*
X116420000Y-65000000D01*
X105950000Y-58339518D02*
X105950000Y-58550000D01*
X87000000Y-51240000D02*
X88360000Y-52600000D01*
X116420000Y-65000000D02*
X115300000Y-63880000D01*
X105950000Y-58550000D02*
X104800000Y-59700000D01*
X124100000Y-66800000D02*
X122662500Y-66800000D01*
X100627208Y-52600000D02*
X101942208Y-53915000D01*
X105500000Y-54400000D02*
X105500000Y-54904288D01*
X105015000Y-53915000D02*
X105500000Y-54400000D01*
X88360000Y-52600000D02*
X100627208Y-52600000D01*
X122662500Y-66800000D02*
X121300000Y-65437500D01*
X105500000Y-54904288D02*
X105725000Y-55129288D01*
X105725000Y-55129288D02*
X105725000Y-58114518D01*
X105725000Y-58114518D02*
X105950000Y-58339518D01*
%TO.N,/Cell Measurement/CELL3*%
X76000000Y-44177076D02*
X75677076Y-44500000D01*
X76700000Y-41950500D02*
X76000000Y-42650500D01*
X73575001Y-44500000D02*
X71975000Y-42899999D01*
X71975000Y-42899999D02*
X71975000Y-42087500D01*
X75677076Y-44500000D02*
X73575001Y-44500000D01*
X117900000Y-92700000D02*
X117850000Y-92750000D01*
X76000000Y-42650500D02*
X76000000Y-44177076D01*
X117850000Y-92750000D02*
X116162500Y-92750000D01*
X71975000Y-42087500D02*
X71325000Y-42087500D01*
%TO.N,/Cell Measurement/CELL4*%
X104800230Y-52750000D02*
X104535229Y-53015000D01*
X104535229Y-53015000D02*
X102315000Y-53015000D01*
X105413604Y-52750000D02*
X104800230Y-52750000D01*
X108647352Y-58799500D02*
X107682774Y-58799500D01*
X114515281Y-92851880D02*
X114750000Y-93086599D01*
X106625000Y-54756496D02*
X106400000Y-54531496D01*
X102315000Y-53015000D02*
X97000000Y-47700000D01*
X106625000Y-57741726D02*
X106625000Y-54756496D01*
X106400000Y-54531496D02*
X106400000Y-53736396D01*
X72625000Y-47124999D02*
X72625000Y-46312500D01*
X106400000Y-53736396D02*
X105413604Y-52750000D01*
X72625000Y-46312500D02*
X71975000Y-46312500D01*
X73200001Y-47700000D02*
X72625000Y-47124999D01*
X107682774Y-58799500D02*
X106625000Y-57741726D01*
X114750000Y-93086599D02*
X114750000Y-94162500D01*
X97000000Y-47700000D02*
X73200001Y-47700000D01*
%TO.N,/Cell Measurement/CELL1*%
X91275000Y-45612500D02*
X91275000Y-45611167D01*
X90875000Y-46012500D02*
X91275000Y-45612500D01*
X90225000Y-46012500D02*
X90875000Y-46012500D01*
X106850000Y-54345100D02*
X107304203Y-54799303D01*
X107304203Y-54799303D02*
X108287940Y-54799303D01*
X114850000Y-91750000D02*
X116162500Y-91750000D01*
X104348833Y-52565000D02*
X104613833Y-52300000D01*
X102555229Y-52565000D02*
X104348833Y-52565000D01*
X94790229Y-44800000D02*
X102555229Y-52565000D01*
X105600000Y-52300000D02*
X106850000Y-53550000D01*
X114800000Y-91700000D02*
X114850000Y-91750000D01*
X106850000Y-53550000D02*
X106850000Y-54345100D01*
X92086167Y-44800000D02*
X94790229Y-44800000D01*
X91275000Y-45611167D02*
X92086167Y-44800000D01*
X104613833Y-52300000D02*
X105600000Y-52300000D01*
%TO.N,/Cell Measurement/CELL2*%
X118800000Y-91974500D02*
X117243264Y-91974500D01*
X90225000Y-43294177D02*
X89600000Y-43919177D01*
X90225000Y-41787500D02*
X90225000Y-43294177D01*
X90225000Y-41787500D02*
X89575000Y-41787500D01*
X116967764Y-92250000D02*
X116162500Y-92250000D01*
X117243264Y-91974500D02*
X116967764Y-92250000D01*
%TO.N,/Cell Balancing/CELL4*%
X115695000Y-66025000D02*
X115300000Y-66420000D01*
X121500000Y-69337500D02*
X121500000Y-66600000D01*
X121500000Y-66600000D02*
X120925000Y-66025000D01*
X122762500Y-70400000D02*
X122662500Y-70500000D01*
X104550500Y-55000000D02*
X105125000Y-55574500D01*
X105125000Y-55574500D02*
X105125000Y-58375000D01*
X105125000Y-58375000D02*
X104400000Y-59100000D01*
X124100000Y-70400000D02*
X122762500Y-70400000D01*
X120925000Y-66025000D02*
X115695000Y-66025000D01*
X122662500Y-70500000D02*
X121500000Y-69337500D01*
%TO.N,Net-(U10A-+)*%
X58250000Y-64012500D02*
X58925000Y-64687500D01*
X59600000Y-64012500D02*
X58925000Y-64687500D01*
X57700000Y-64012500D02*
X58250000Y-64012500D01*
X58925000Y-64687500D02*
X58925000Y-66287500D01*
%TO.N,/Battery Pack/CELL1_MINUS*%
X130199999Y-38750000D02*
X131500000Y-38750000D01*
D74*
X122750000Y-30000000D02*
X122000000Y-30000000D01*
D72*
X129024999Y-39925000D02*
X130199999Y-38750000D01*
D74*
X131500000Y-38750000D02*
X122750000Y-30000000D01*
D72*
X128212500Y-39925000D02*
X129024999Y-39925000D01*
%TO.N,/Cell Measurement/BALANCE_CAP_PLUS*%
X114250000Y-95450000D02*
X114400000Y-95600000D01*
X55000000Y-68497924D02*
X55000000Y-71500000D01*
X79000000Y-71450000D02*
X88249846Y-71450000D01*
X88249846Y-71450000D02*
X88374346Y-71574500D01*
X58275000Y-66287500D02*
X57625000Y-66287500D01*
X55600000Y-72100000D02*
X78011396Y-72100000D01*
X114250000Y-94162500D02*
X114250000Y-95450000D01*
X57210424Y-66287500D02*
X55000000Y-68497924D01*
X78661396Y-71450000D02*
X79000000Y-71450000D01*
X78011396Y-72100000D02*
X78661396Y-71450000D01*
X55000000Y-71500000D02*
X55600000Y-72100000D01*
X58275000Y-66287500D02*
X57210424Y-66287500D01*
%TO.N,/Cell Measurement/BALANCE_CAP_MINUS*%
X113750000Y-93101153D02*
X113750000Y-94162500D01*
X78475000Y-71000000D02*
X89000000Y-71000000D01*
X77825000Y-71650000D02*
X59250001Y-71650000D01*
X59250001Y-71650000D02*
X58925000Y-71324999D01*
X58925000Y-70512500D02*
X58275000Y-70512500D01*
X77825000Y-71650000D02*
X78475000Y-71000000D01*
X58925000Y-71324999D02*
X58925000Y-70512500D01*
X113496164Y-92847317D02*
X113750000Y-93101153D01*
%TO.N,/CHARGE*%
X59250000Y-45050000D02*
X58693677Y-44493677D01*
X109356662Y-91750000D02*
X107837500Y-91750000D01*
X59250000Y-46062500D02*
X59250000Y-45050000D01*
X112704836Y-88401826D02*
X109356662Y-91750000D01*
X113838763Y-88401826D02*
X112704836Y-88401826D01*
%TO.N,/DISCHARGE*%
X113421256Y-87794028D02*
X113263458Y-87951826D01*
X85118833Y-52565000D02*
X67522500Y-52565000D01*
X90353833Y-57800000D02*
X85118833Y-52565000D01*
X109220266Y-91250000D02*
X107837500Y-91250000D01*
X113263458Y-87951826D02*
X112518440Y-87951826D01*
X113421256Y-87493700D02*
X113421256Y-87794028D01*
X90353833Y-57800000D02*
X99600000Y-57800000D01*
X99600000Y-57800000D02*
X104400000Y-62600000D01*
X112518440Y-87951826D02*
X109220266Y-91250000D01*
X67522500Y-52565000D02*
X67237500Y-52850000D01*
%TO.N,/EN_CELL_BALANCING*%
X105675000Y-80825000D02*
X119300000Y-67200000D01*
X105675000Y-88000305D02*
X105675000Y-80825000D01*
X126625000Y-59375000D02*
X126200000Y-59800000D01*
X107837500Y-88750000D02*
X106424695Y-88750000D01*
X126625000Y-58537500D02*
X126625000Y-59375000D01*
X106424695Y-88750000D02*
X105675000Y-88000305D01*
%TO.N,/CELL_BALANCING_A0*%
X107837500Y-92750000D02*
X109643069Y-92750000D01*
X112293069Y-90100000D02*
X114220664Y-90100000D01*
X109643069Y-92750000D02*
X112293069Y-90100000D01*
X127275000Y-59537466D02*
X126956233Y-59856233D01*
X121300000Y-71740000D02*
X121280000Y-71720000D01*
X127275000Y-58537500D02*
X127275000Y-59537466D01*
X121300000Y-73824500D02*
X121300000Y-71740000D01*
%TO.N,/CELL_BALANCING_A1*%
X127925000Y-59697388D02*
X127712082Y-59910306D01*
X109506673Y-92250000D02*
X107837500Y-92250000D01*
X127925000Y-58537500D02*
X127925000Y-59697388D01*
X112537682Y-89218991D02*
X109506673Y-92250000D01*
X114837113Y-88449809D02*
X114067931Y-89218991D01*
X114067931Y-89218991D02*
X112537682Y-89218991D01*
%TO.N,/LIMIT_BALANCING_CURRENT*%
X112480000Y-74820000D02*
X119300000Y-74820000D01*
X108500000Y-82800000D02*
X108200000Y-82500000D01*
X109097924Y-82800000D02*
X108500000Y-82800000D01*
X108200000Y-82500000D02*
X108200000Y-79100000D01*
X120500000Y-61887500D02*
X120337500Y-62050000D01*
X109750000Y-85837500D02*
X109750000Y-83452076D01*
X120500000Y-60112500D02*
X120500000Y-61887500D01*
X108200000Y-79100000D02*
X112480000Y-74820000D01*
X109750000Y-83452076D02*
X109097924Y-82800000D01*
X120337500Y-62137500D02*
X121000000Y-62800000D01*
X120337500Y-62050000D02*
X120337500Y-62137500D01*
D74*
%TO.N,Net-(J23-Pin_1)*%
X83365000Y-67050000D02*
X82275000Y-68140000D01*
X87500000Y-67050000D02*
X83365000Y-67050000D01*
X91900000Y-64375000D02*
X91900000Y-67462500D01*
X91800000Y-67562500D02*
X91287500Y-67050000D01*
X91287500Y-67050000D02*
X87500000Y-67050000D01*
X91900000Y-67462500D02*
X91800000Y-67562500D01*
D72*
%TO.N,/Battery Pack/CHARGE_AVAILABLE*%
X112250000Y-93357236D02*
X111722092Y-92829328D01*
X112250000Y-94162500D02*
X112250000Y-93357236D01*
X51287500Y-90900000D02*
X51287500Y-88375000D01*
X53987500Y-93600000D02*
X51287500Y-90900000D01*
X51287500Y-88375000D02*
X51462500Y-88200000D01*
X111722092Y-92829328D02*
X110900032Y-92829328D01*
X104375195Y-93600000D02*
X53987500Y-93600000D01*
%TO.N,Net-(Q11-G)*%
X102849500Y-68900000D02*
X104549500Y-67200000D01*
X92750000Y-69437500D02*
X92862500Y-69437500D01*
X118600000Y-60112500D02*
X118600000Y-62862500D01*
X92862500Y-69437500D02*
X93800000Y-68500000D01*
X118600000Y-62862500D02*
X118462500Y-63000000D01*
X114818298Y-62700001D02*
X114125000Y-63393299D01*
X104549500Y-67200000D02*
X105500000Y-67200000D01*
X114125000Y-64205908D02*
X111530908Y-66800000D01*
X118462500Y-63000000D02*
X118162501Y-62700001D01*
X118162501Y-62700001D02*
X114818298Y-62700001D01*
X105500000Y-67200000D02*
X105900000Y-66800000D01*
X105900000Y-66800000D02*
X111530908Y-66800000D01*
X114125000Y-63393299D02*
X114125000Y-64205908D01*
D74*
%TO.N,Net-(Q11-S)*%
X82309500Y-63060000D02*
X84100000Y-64850500D01*
X88700000Y-69500000D02*
X90626230Y-69500000D01*
X82275000Y-62250000D02*
X76345000Y-56320000D01*
X90626230Y-69500000D02*
X90706865Y-69580635D01*
X82275000Y-63060000D02*
X82309500Y-63060000D01*
X82275000Y-63060000D02*
X82275000Y-62250000D01*
X76345000Y-56320000D02*
X75300000Y-56320000D01*
D72*
%TO.N,Net-(Q14-G)*%
X128575000Y-57800001D02*
X128575000Y-58537500D01*
X128249999Y-57475000D02*
X128575000Y-57800001D01*
X124537500Y-58250000D02*
X125312500Y-57475000D01*
X125312500Y-57475000D02*
X128249999Y-57475000D01*
%TO.N,Net-(Q15-G)*%
X126449999Y-62050000D02*
X129225000Y-59274999D01*
X129225000Y-59274999D02*
X129225000Y-58537500D01*
X124537500Y-62050000D02*
X126449999Y-62050000D01*
%TO.N,Net-(Q16-G)*%
X125600000Y-63549999D02*
X129875000Y-59274999D01*
X125600000Y-64787500D02*
X125600000Y-63549999D01*
X129875000Y-59274999D02*
X129875000Y-58537500D01*
X124537500Y-65850000D02*
X125600000Y-64787500D01*
%TO.N,Net-(Q17-G)*%
X131700000Y-65078812D02*
X131700000Y-61800000D01*
X124537500Y-69550000D02*
X127228812Y-69550000D01*
X130525000Y-60625000D02*
X130525000Y-58537500D01*
X127228812Y-69550000D02*
X131700000Y-65078812D01*
X131700000Y-61800000D02*
X130525000Y-60625000D01*
D73*
%TO.N,Net-(J14-Pin_1)*%
X54795000Y-73825000D02*
X54795000Y-75867500D01*
X46750000Y-79950000D02*
X44425000Y-82275000D01*
X47087500Y-79862500D02*
X47000000Y-79950000D01*
X47000000Y-79950000D02*
X46750000Y-79950000D01*
X50800000Y-79862500D02*
X47087500Y-79862500D01*
X54795000Y-75867500D02*
X50800000Y-79862500D01*
X44425000Y-82275000D02*
X44425000Y-82900000D01*
%TO.N,Net-(U15-CAP+)*%
X112049999Y-63065000D02*
X111075000Y-63065000D01*
X113362500Y-58900000D02*
X113362500Y-61752499D01*
X113362500Y-61752499D02*
X112049999Y-63065000D01*
D72*
%TO.N,Net-(U14-ROSC)*%
X134812500Y-44875000D02*
X134000001Y-44875000D01*
X133675000Y-42537500D02*
X133812500Y-42400000D01*
X134000001Y-44875000D02*
X133675000Y-44549999D01*
X133675000Y-44549999D02*
X133675000Y-42537500D01*
%TO.N,/Cell Measurement/CURRENT_SENSE*%
X126687500Y-42300000D02*
X126687500Y-42391312D01*
X129821188Y-45525000D02*
X130587500Y-45525000D01*
X126687500Y-42391312D02*
X129821188Y-45525000D01*
X127400001Y-38625000D02*
X126425000Y-39600001D01*
X128212500Y-38625000D02*
X127400001Y-38625000D01*
X126425000Y-39600001D02*
X126425000Y-42037500D01*
X126425000Y-42037500D02*
X126687500Y-42300000D01*
%TO.N,Net-(U11A--)*%
X128512500Y-42300000D02*
X130087500Y-42300000D01*
X128512500Y-42300000D02*
X127075000Y-40862500D01*
X130087500Y-42300000D02*
X130300000Y-42512500D01*
X127075000Y-39600001D02*
X127400001Y-39275000D01*
X127075000Y-40862500D02*
X127075000Y-39600001D01*
X127400001Y-39275000D02*
X128212500Y-39275000D01*
%TO.N,Net-(U10B-+)*%
X61400000Y-68687500D02*
X59575000Y-70512500D01*
X63300000Y-64012500D02*
X61400000Y-64012500D01*
X61400000Y-64012500D02*
X61400000Y-68687500D01*
D73*
%TO.N,Net-(D20-A)*%
X81550000Y-80000000D02*
X80750000Y-80000000D01*
X80750000Y-80000000D02*
X79750000Y-79000000D01*
X90800000Y-83640000D02*
X85190000Y-83640000D01*
X85190000Y-83640000D02*
X81550000Y-80000000D01*
%TO.N,/Power Supply/9V4*%
X126900000Y-52350000D02*
X123000000Y-56250000D01*
X119862500Y-53762500D02*
X119800000Y-53700000D01*
X119862500Y-55700000D02*
X119862500Y-53762500D01*
X126900000Y-50525000D02*
X126900000Y-52350000D01*
D72*
X109600000Y-55900000D02*
X110200000Y-55300000D01*
D73*
X123000000Y-56250000D02*
X120412500Y-56250000D01*
X120412500Y-56250000D02*
X119862500Y-55700000D01*
D72*
X109550000Y-55900000D02*
X109600000Y-55900000D01*
D73*
%TO.N,Net-(D24-K)*%
X116800000Y-53062500D02*
X114587500Y-53062500D01*
X118287500Y-53062500D02*
X119700000Y-51650000D01*
X114587500Y-53062500D02*
X113500000Y-54150000D01*
X116800000Y-53062500D02*
X118287500Y-53062500D01*
%TO.N,Net-(U16-CAP+)*%
X118099999Y-46735000D02*
X117125000Y-46735000D01*
X118800000Y-48511238D02*
X118800000Y-47435001D01*
X118800000Y-47435001D02*
X118099999Y-46735000D01*
X117373738Y-49937500D02*
X118800000Y-48511238D01*
X116800000Y-49937500D02*
X117373738Y-49937500D01*
%TO.N,Net-(D25-K)*%
X107850000Y-49100000D02*
X107850000Y-45825000D01*
X112550000Y-53000000D02*
X113500000Y-52050000D01*
X107850000Y-49887500D02*
X110962500Y-53000000D01*
X107850000Y-49100000D02*
X107850000Y-49887500D01*
X107850000Y-45825000D02*
X108675000Y-45000000D01*
X110962500Y-53000000D02*
X112550000Y-53000000D01*
%TO.N,Net-(D24-A)*%
X119700000Y-49550000D02*
X120530000Y-49550000D01*
X123000000Y-48930000D02*
X122075000Y-48005000D01*
X123000000Y-50150000D02*
X123000000Y-48930000D01*
X126900000Y-47985000D02*
X125165000Y-47985000D01*
X120530000Y-49550000D02*
X122075000Y-48005000D01*
X125165000Y-47985000D02*
X123000000Y-50150000D01*
%TO.N,/18V*%
X111215000Y-45000000D02*
X113625500Y-42589500D01*
D72*
X113612500Y-42300000D02*
X113612500Y-40600000D01*
D73*
X113950000Y-47735000D02*
X111215000Y-45000000D01*
X113950000Y-49100000D02*
X113950000Y-47735000D01*
X118600000Y-58287500D02*
X118487500Y-58287500D01*
D72*
X115987500Y-40600000D02*
X117150000Y-39437500D01*
D73*
X112926472Y-50123528D02*
X112926472Y-50926472D01*
D72*
X113612500Y-40600000D02*
X115987500Y-40600000D01*
D73*
X118487500Y-58287500D02*
X117800000Y-57600000D01*
X113625500Y-42589500D02*
X113625500Y-42543003D01*
X113950000Y-49100000D02*
X112926472Y-50123528D01*
D74*
%TO.N,Net-(D13-K)*%
X32780000Y-56220000D02*
X29500000Y-59500000D01*
X42000000Y-56220000D02*
X32780000Y-56220000D01*
X49100000Y-53300000D02*
X44160000Y-53300000D01*
X44160000Y-53300000D02*
X42000000Y-51140000D01*
D72*
%TO.N,Net-(D14-K)*%
X49866726Y-87250000D02*
X47816726Y-85200000D01*
X53337500Y-87250000D02*
X49866726Y-87250000D01*
D74*
X42840000Y-71300000D02*
X42000000Y-72140000D01*
X42000000Y-77220000D02*
X37480000Y-77220000D01*
D72*
X53375000Y-87287500D02*
X53337500Y-87250000D01*
D74*
X49100000Y-71300000D02*
X42840000Y-71300000D01*
D72*
X47816726Y-85200000D02*
X30700000Y-85200000D01*
X55400000Y-87287500D02*
X53375000Y-87287500D01*
D74*
X37480000Y-77220000D02*
X30100000Y-84600000D01*
D72*
X30700000Y-85200000D02*
X30100000Y-84600000D01*
%TD*%
M02*
